# Tiled2Unity generated file. Do not modify by hand.
# Wavefront file for 'pueblo_mesh_0033.obj'

# Vertices (Count = 1024)
v 0 -1 0
v -1 -1 0
v -1 0 0
v 0 0 0
v -1 -1 0
v -2 -1 0
v -2 0 0
v -1 0 0
v -2 -1 0
v -3 -1 0
v -3 0 0
v -2 0 0
v -3 -1 0
v -4 -1 0
v -4 0 0
v -3 0 0
v -4 -1 0
v -5 -1 0
v -5 0 0
v -4 0 0
v -5 -1 0
v -6 -1 0
v -6 0 0
v -5 0 0
v -6 -1 0
v -7 -1 0
v -7 0 0
v -6 0 0
v -7 -1 0
v -8 -1 0
v -8 0 0
v -7 0 0
v -8 -1 0
v -9 -1 0
v -9 0 0
v -8 0 0
v -9 -1 0
v -10 -1 0
v -10 0 0
v -9 0 0
v -10 -1 0
v -11 -1 0
v -11 0 0
v -10 0 0
v -11 -1 0
v -12 -1 0
v -12 0 0
v -11 0 0
v -12 -1 0
v -13 -1 0
v -13 0 0
v -12 0 0
v -13 -1 0
v -14 -1 0
v -14 0 0
v -13 0 0
v -14 -1 0
v -15 -1 0
v -15 0 0
v -14 0 0
v -15 -1 0
v -16 -1 0
v -16 0 0
v -15 0 0
v 0 -2 0
v -1 -2 0
v -1 -1 0
v 0 -1 0
v -1 -2 0
v -2 -2 0
v -2 -1 0
v -1 -1 0
v -2 -2 0
v -3 -2 0
v -3 -1 0
v -2 -1 0
v -3 -2 0
v -4 -2 0
v -4 -1 0
v -3 -1 0
v -4 -2 0
v -5 -2 0
v -5 -1 0
v -4 -1 0
v -5 -2 0
v -6 -2 0
v -6 -1 0
v -5 -1 0
v -6 -2 0
v -7 -2 0
v -7 -1 0
v -6 -1 0
v -7 -2 0
v -8 -2 0
v -8 -1 0
v -7 -1 0
v -8 -2 0
v -9 -2 0
v -9 -1 0
v -8 -1 0
v -9 -2 0
v -10 -2 0
v -10 -1 0
v -9 -1 0
v -10 -2 0
v -11 -2 0
v -11 -1 0
v -10 -1 0
v -11 -2 0
v -12 -2 0
v -12 -1 0
v -11 -1 0
v -12 -2 0
v -13 -2 0
v -13 -1 0
v -12 -1 0
v -13 -2 0
v -14 -2 0
v -14 -1 0
v -13 -1 0
v -14 -2 0
v -15 -2 0
v -15 -1 0
v -14 -1 0
v -15 -2 0
v -16 -2 0
v -16 -1 0
v -15 -1 0
v 0 -3 0
v -1 -3 0
v -1 -2 0
v 0 -2 0
v -1 -3 0
v -2 -3 0
v -2 -2 0
v -1 -2 0
v -2 -3 0
v -3 -3 0
v -3 -2 0
v -2 -2 0
v -3 -3 0
v -4 -3 0
v -4 -2 0
v -3 -2 0
v -4 -3 0
v -5 -3 0
v -5 -2 0
v -4 -2 0
v -5 -3 0
v -6 -3 0
v -6 -2 0
v -5 -2 0
v -6 -3 0
v -7 -3 0
v -7 -2 0
v -6 -2 0
v -7 -3 0
v -8 -3 0
v -8 -2 0
v -7 -2 0
v -8 -3 0
v -9 -3 0
v -9 -2 0
v -8 -2 0
v -9 -3 0
v -10 -3 0
v -10 -2 0
v -9 -2 0
v -10 -3 0
v -11 -3 0
v -11 -2 0
v -10 -2 0
v -11 -3 0
v -12 -3 0
v -12 -2 0
v -11 -2 0
v -12 -3 0
v -13 -3 0
v -13 -2 0
v -12 -2 0
v -13 -3 0
v -14 -3 0
v -14 -2 0
v -13 -2 0
v -14 -3 0
v -15 -3 0
v -15 -2 0
v -14 -2 0
v -15 -3 0
v -16 -3 0
v -16 -2 0
v -15 -2 0
v 0 -4 0
v -1 -4 0
v -1 -3 0
v 0 -3 0
v -1 -4 0
v -2 -4 0
v -2 -3 0
v -1 -3 0
v -2 -4 0
v -3 -4 0
v -3 -3 0
v -2 -3 0
v -3 -4 0
v -4 -4 0
v -4 -3 0
v -3 -3 0
v -4 -4 0
v -5 -4 0
v -5 -3 0
v -4 -3 0
v -5 -4 0
v -6 -4 0
v -6 -3 0
v -5 -3 0
v -6 -4 0
v -7 -4 0
v -7 -3 0
v -6 -3 0
v -7 -4 0
v -8 -4 0
v -8 -3 0
v -7 -3 0
v -8 -4 0
v -9 -4 0
v -9 -3 0
v -8 -3 0
v -9 -4 0
v -10 -4 0
v -10 -3 0
v -9 -3 0
v -10 -4 0
v -11 -4 0
v -11 -3 0
v -10 -3 0
v -11 -4 0
v -12 -4 0
v -12 -3 0
v -11 -3 0
v -12 -4 0
v -13 -4 0
v -13 -3 0
v -12 -3 0
v -13 -4 0
v -14 -4 0
v -14 -3 0
v -13 -3 0
v -14 -4 0
v -15 -4 0
v -15 -3 0
v -14 -3 0
v -15 -4 0
v -16 -4 0
v -16 -3 0
v -15 -3 0
v 0 -5 0
v -1 -5 0
v -1 -4 0
v 0 -4 0
v -1 -5 0
v -2 -5 0
v -2 -4 0
v -1 -4 0
v -2 -5 0
v -3 -5 0
v -3 -4 0
v -2 -4 0
v -3 -5 0
v -4 -5 0
v -4 -4 0
v -3 -4 0
v -4 -5 0
v -5 -5 0
v -5 -4 0
v -4 -4 0
v -5 -5 0
v -6 -5 0
v -6 -4 0
v -5 -4 0
v -6 -5 0
v -7 -5 0
v -7 -4 0
v -6 -4 0
v -7 -5 0
v -8 -5 0
v -8 -4 0
v -7 -4 0
v -8 -5 0
v -9 -5 0
v -9 -4 0
v -8 -4 0
v -9 -5 0
v -10 -5 0
v -10 -4 0
v -9 -4 0
v -10 -5 0
v -11 -5 0
v -11 -4 0
v -10 -4 0
v -11 -5 0
v -12 -5 0
v -12 -4 0
v -11 -4 0
v -12 -5 0
v -13 -5 0
v -13 -4 0
v -12 -4 0
v -13 -5 0
v -14 -5 0
v -14 -4 0
v -13 -4 0
v -14 -5 0
v -15 -5 0
v -15 -4 0
v -14 -4 0
v -15 -5 0
v -16 -5 0
v -16 -4 0
v -15 -4 0
v 0 -6 0
v -1 -6 0
v -1 -5 0
v 0 -5 0
v -1 -6 0
v -2 -6 0
v -2 -5 0
v -1 -5 0
v -2 -6 0
v -3 -6 0
v -3 -5 0
v -2 -5 0
v -3 -6 0
v -4 -6 0
v -4 -5 0
v -3 -5 0
v -4 -6 0
v -5 -6 0
v -5 -5 0
v -4 -5 0
v -5 -6 0
v -6 -6 0
v -6 -5 0
v -5 -5 0
v -6 -6 0
v -7 -6 0
v -7 -5 0
v -6 -5 0
v -7 -6 0
v -8 -6 0
v -8 -5 0
v -7 -5 0
v -8 -6 0
v -9 -6 0
v -9 -5 0
v -8 -5 0
v -9 -6 0
v -10 -6 0
v -10 -5 0
v -9 -5 0
v -10 -6 0
v -11 -6 0
v -11 -5 0
v -10 -5 0
v -11 -6 0
v -12 -6 0
v -12 -5 0
v -11 -5 0
v -12 -6 0
v -13 -6 0
v -13 -5 0
v -12 -5 0
v -13 -6 0
v -14 -6 0
v -14 -5 0
v -13 -5 0
v -14 -6 0
v -15 -6 0
v -15 -5 0
v -14 -5 0
v -15 -6 0
v -16 -6 0
v -16 -5 0
v -15 -5 0
v 0 -7 0
v -1 -7 0
v -1 -6 0
v 0 -6 0
v -1 -7 0
v -2 -7 0
v -2 -6 0
v -1 -6 0
v -2 -7 0
v -3 -7 0
v -3 -6 0
v -2 -6 0
v -3 -7 0
v -4 -7 0
v -4 -6 0
v -3 -6 0
v -4 -7 0
v -5 -7 0
v -5 -6 0
v -4 -6 0
v -5 -7 0
v -6 -7 0
v -6 -6 0
v -5 -6 0
v -6 -7 0
v -7 -7 0
v -7 -6 0
v -6 -6 0
v -7 -7 0
v -8 -7 0
v -8 -6 0
v -7 -6 0
v -8 -7 0
v -9 -7 0
v -9 -6 0
v -8 -6 0
v -9 -7 0
v -10 -7 0
v -10 -6 0
v -9 -6 0
v -10 -7 0
v -11 -7 0
v -11 -6 0
v -10 -6 0
v -11 -7 0
v -12 -7 0
v -12 -6 0
v -11 -6 0
v -12 -7 0
v -13 -7 0
v -13 -6 0
v -12 -6 0
v -13 -7 0
v -14 -7 0
v -14 -6 0
v -13 -6 0
v -14 -7 0
v -15 -7 0
v -15 -6 0
v -14 -6 0
v -15 -7 0
v -16 -7 0
v -16 -6 0
v -15 -6 0
v 0 -8 0
v -1 -8 0
v -1 -7 0
v 0 -7 0
v -1 -8 0
v -2 -8 0
v -2 -7 0
v -1 -7 0
v -2 -8 0
v -3 -8 0
v -3 -7 0
v -2 -7 0
v -3 -8 0
v -4 -8 0
v -4 -7 0
v -3 -7 0
v -4 -8 0
v -5 -8 0
v -5 -7 0
v -4 -7 0
v -5 -8 0
v -6 -8 0
v -6 -7 0
v -5 -7 0
v -6 -8 0
v -7 -8 0
v -7 -7 0
v -6 -7 0
v -7 -8 0
v -8 -8 0
v -8 -7 0
v -7 -7 0
v -8 -8 0
v -9 -8 0
v -9 -7 0
v -8 -7 0
v -9 -8 0
v -10 -8 0
v -10 -7 0
v -9 -7 0
v -10 -8 0
v -11 -8 0
v -11 -7 0
v -10 -7 0
v -11 -8 0
v -12 -8 0
v -12 -7 0
v -11 -7 0
v -12 -8 0
v -13 -8 0
v -13 -7 0
v -12 -7 0
v -13 -8 0
v -14 -8 0
v -14 -7 0
v -13 -7 0
v -14 -8 0
v -15 -8 0
v -15 -7 0
v -14 -7 0
v -15 -8 0
v -16 -8 0
v -16 -7 0
v -15 -7 0
v 0 -9 0
v -1 -9 0
v -1 -8 0
v 0 -8 0
v -1 -9 0
v -2 -9 0
v -2 -8 0
v -1 -8 0
v -2 -9 0
v -3 -9 0
v -3 -8 0
v -2 -8 0
v -3 -9 0
v -4 -9 0
v -4 -8 0
v -3 -8 0
v -4 -9 0
v -5 -9 0
v -5 -8 0
v -4 -8 0
v -5 -9 0
v -6 -9 0
v -6 -8 0
v -5 -8 0
v -6 -9 0
v -7 -9 0
v -7 -8 0
v -6 -8 0
v -7 -9 0
v -8 -9 0
v -8 -8 0
v -7 -8 0
v -8 -9 0
v -9 -9 0
v -9 -8 0
v -8 -8 0
v -9 -9 0
v -10 -9 0
v -10 -8 0
v -9 -8 0
v -10 -9 0
v -11 -9 0
v -11 -8 0
v -10 -8 0
v -11 -9 0
v -12 -9 0
v -12 -8 0
v -11 -8 0
v -12 -9 0
v -13 -9 0
v -13 -8 0
v -12 -8 0
v -13 -9 0
v -14 -9 0
v -14 -8 0
v -13 -8 0
v -14 -9 0
v -15 -9 0
v -15 -8 0
v -14 -8 0
v -15 -9 0
v -16 -9 0
v -16 -8 0
v -15 -8 0
v 0 -10 0
v -1 -10 0
v -1 -9 0
v 0 -9 0
v -1 -10 0
v -2 -10 0
v -2 -9 0
v -1 -9 0
v -2 -10 0
v -3 -10 0
v -3 -9 0
v -2 -9 0
v -3 -10 0
v -4 -10 0
v -4 -9 0
v -3 -9 0
v -4 -10 0
v -5 -10 0
v -5 -9 0
v -4 -9 0
v -5 -10 0
v -6 -10 0
v -6 -9 0
v -5 -9 0
v -6 -10 0
v -7 -10 0
v -7 -9 0
v -6 -9 0
v -7 -10 0
v -8 -10 0
v -8 -9 0
v -7 -9 0
v -8 -10 0
v -9 -10 0
v -9 -9 0
v -8 -9 0
v -9 -10 0
v -10 -10 0
v -10 -9 0
v -9 -9 0
v -10 -10 0
v -11 -10 0
v -11 -9 0
v -10 -9 0
v -11 -10 0
v -12 -10 0
v -12 -9 0
v -11 -9 0
v -12 -10 0
v -13 -10 0
v -13 -9 0
v -12 -9 0
v -13 -10 0
v -14 -10 0
v -14 -9 0
v -13 -9 0
v -14 -10 0
v -15 -10 0
v -15 -9 0
v -14 -9 0
v -15 -10 0
v -16 -10 0
v -16 -9 0
v -15 -9 0
v 0 -11 0
v -1 -11 0
v -1 -10 0
v 0 -10 0
v -1 -11 0
v -2 -11 0
v -2 -10 0
v -1 -10 0
v -2 -11 0
v -3 -11 0
v -3 -10 0
v -2 -10 0
v -3 -11 0
v -4 -11 0
v -4 -10 0
v -3 -10 0
v -4 -11 0
v -5 -11 0
v -5 -10 0
v -4 -10 0
v -5 -11 0
v -6 -11 0
v -6 -10 0
v -5 -10 0
v -6 -11 0
v -7 -11 0
v -7 -10 0
v -6 -10 0
v -7 -11 0
v -8 -11 0
v -8 -10 0
v -7 -10 0
v -8 -11 0
v -9 -11 0
v -9 -10 0
v -8 -10 0
v -9 -11 0
v -10 -11 0
v -10 -10 0
v -9 -10 0
v -10 -11 0
v -11 -11 0
v -11 -10 0
v -10 -10 0
v -11 -11 0
v -12 -11 0
v -12 -10 0
v -11 -10 0
v -12 -11 0
v -13 -11 0
v -13 -10 0
v -12 -10 0
v -13 -11 0
v -14 -11 0
v -14 -10 0
v -13 -10 0
v -14 -11 0
v -15 -11 0
v -15 -10 0
v -14 -10 0
v -15 -11 0
v -16 -11 0
v -16 -10 0
v -15 -10 0
v 0 -12 0
v -1 -12 0
v -1 -11 0
v 0 -11 0
v -1 -12 0
v -2 -12 0
v -2 -11 0
v -1 -11 0
v -2 -12 0
v -3 -12 0
v -3 -11 0
v -2 -11 0
v -3 -12 0
v -4 -12 0
v -4 -11 0
v -3 -11 0
v -4 -12 0
v -5 -12 0
v -5 -11 0
v -4 -11 0
v -5 -12 0
v -6 -12 0
v -6 -11 0
v -5 -11 0
v -6 -12 0
v -7 -12 0
v -7 -11 0
v -6 -11 0
v -7 -12 0
v -8 -12 0
v -8 -11 0
v -7 -11 0
v -8 -12 0
v -9 -12 0
v -9 -11 0
v -8 -11 0
v -9 -12 0
v -10 -12 0
v -10 -11 0
v -9 -11 0
v -10 -12 0
v -11 -12 0
v -11 -11 0
v -10 -11 0
v -11 -12 0
v -12 -12 0
v -12 -11 0
v -11 -11 0
v -12 -12 0
v -13 -12 0
v -13 -11 0
v -12 -11 0
v -13 -12 0
v -14 -12 0
v -14 -11 0
v -13 -11 0
v -14 -12 0
v -15 -12 0
v -15 -11 0
v -14 -11 0
v -15 -12 0
v -16 -12 0
v -16 -11 0
v -15 -11 0
v 0 -13 0
v -1 -13 0
v -1 -12 0
v 0 -12 0
v -1 -13 0
v -2 -13 0
v -2 -12 0
v -1 -12 0
v -2 -13 0
v -3 -13 0
v -3 -12 0
v -2 -12 0
v -3 -13 0
v -4 -13 0
v -4 -12 0
v -3 -12 0
v -4 -13 0
v -5 -13 0
v -5 -12 0
v -4 -12 0
v -5 -13 0
v -6 -13 0
v -6 -12 0
v -5 -12 0
v -6 -13 0
v -7 -13 0
v -7 -12 0
v -6 -12 0
v -7 -13 0
v -8 -13 0
v -8 -12 0
v -7 -12 0
v -8 -13 0
v -9 -13 0
v -9 -12 0
v -8 -12 0
v -9 -13 0
v -10 -13 0
v -10 -12 0
v -9 -12 0
v -10 -13 0
v -11 -13 0
v -11 -12 0
v -10 -12 0
v -11 -13 0
v -12 -13 0
v -12 -12 0
v -11 -12 0
v -12 -13 0
v -13 -13 0
v -13 -12 0
v -12 -12 0
v -13 -13 0
v -14 -13 0
v -14 -12 0
v -13 -12 0
v -14 -13 0
v -15 -13 0
v -15 -12 0
v -14 -12 0
v -15 -13 0
v -16 -13 0
v -16 -12 0
v -15 -12 0
v 0 -14 0
v -1 -14 0
v -1 -13 0
v 0 -13 0
v -1 -14 0
v -2 -14 0
v -2 -13 0
v -1 -13 0
v -2 -14 0
v -3 -14 0
v -3 -13 0
v -2 -13 0
v -3 -14 0
v -4 -14 0
v -4 -13 0
v -3 -13 0
v -4 -14 0
v -5 -14 0
v -5 -13 0
v -4 -13 0
v -5 -14 0
v -6 -14 0
v -6 -13 0
v -5 -13 0
v -6 -14 0
v -7 -14 0
v -7 -13 0
v -6 -13 0
v -7 -14 0
v -8 -14 0
v -8 -13 0
v -7 -13 0
v -8 -14 0
v -9 -14 0
v -9 -13 0
v -8 -13 0
v -9 -14 0
v -10 -14 0
v -10 -13 0
v -9 -13 0
v -10 -14 0
v -11 -14 0
v -11 -13 0
v -10 -13 0
v -11 -14 0
v -12 -14 0
v -12 -13 0
v -11 -13 0
v -12 -14 0
v -13 -14 0
v -13 -13 0
v -12 -13 0
v -13 -14 0
v -14 -14 0
v -14 -13 0
v -13 -13 0
v -14 -14 0
v -15 -14 0
v -15 -13 0
v -14 -13 0
v -15 -14 0
v -16 -14 0
v -16 -13 0
v -15 -13 0
v 0 -15 0
v -1 -15 0
v -1 -14 0
v 0 -14 0
v -1 -15 0
v -2 -15 0
v -2 -14 0
v -1 -14 0
v -2 -15 0
v -3 -15 0
v -3 -14 0
v -2 -14 0
v -3 -15 0
v -4 -15 0
v -4 -14 0
v -3 -14 0
v -4 -15 0
v -5 -15 0
v -5 -14 0
v -4 -14 0
v -5 -15 0
v -6 -15 0
v -6 -14 0
v -5 -14 0
v -6 -15 0
v -7 -15 0
v -7 -14 0
v -6 -14 0
v -7 -15 0
v -8 -15 0
v -8 -14 0
v -7 -14 0
v -8 -15 0
v -9 -15 0
v -9 -14 0
v -8 -14 0
v -9 -15 0
v -10 -15 0
v -10 -14 0
v -9 -14 0
v -10 -15 0
v -11 -15 0
v -11 -14 0
v -10 -14 0
v -11 -15 0
v -12 -15 0
v -12 -14 0
v -11 -14 0
v -12 -15 0
v -13 -15 0
v -13 -14 0
v -12 -14 0
v -13 -15 0
v -14 -15 0
v -14 -14 0
v -13 -14 0
v -14 -15 0
v -15 -15 0
v -15 -14 0
v -14 -14 0
v -15 -15 0
v -16 -15 0
v -16 -14 0
v -15 -14 0
v 0 -16 0
v -1 -16 0
v -1 -15 0
v 0 -15 0
v -1 -16 0
v -2 -16 0
v -2 -15 0
v -1 -15 0
v -2 -16 0
v -3 -16 0
v -3 -15 0
v -2 -15 0
v -3 -16 0
v -4 -16 0
v -4 -15 0
v -3 -15 0
v -4 -16 0
v -5 -16 0
v -5 -15 0
v -4 -15 0
v -5 -16 0
v -6 -16 0
v -6 -15 0
v -5 -15 0
v -6 -16 0
v -7 -16 0
v -7 -15 0
v -6 -15 0
v -7 -16 0
v -8 -16 0
v -8 -15 0
v -7 -15 0
v -8 -16 0
v -9 -16 0
v -9 -15 0
v -8 -15 0
v -9 -16 0
v -10 -16 0
v -10 -15 0
v -9 -15 0
v -10 -16 0
v -11 -16 0
v -11 -15 0
v -10 -15 0
v -11 -16 0
v -12 -16 0
v -12 -15 0
v -11 -15 0
v -12 -16 0
v -13 -16 0
v -13 -15 0
v -12 -15 0
v -13 -16 0
v -14 -16 0
v -14 -15 0
v -13 -15 0
v -14 -16 0
v -15 -16 0
v -15 -15 0
v -14 -15 0
v -15 -16 0
v -16 -16 0
v -16 -15 0
v -15 -15 0

# Texture cooridinates (Count = 25)
vt 0.04545455 0.1111111
vt 0.09090909 0.1111111
vt 0.09090909 0.1666667
vt 0.04545455 0.1666667
vt 0.1363636 0.1111111
vt 0.1363636 0.1666667
vt 0.1818182 0.1111111
vt 0.1818182 0.1666667
vt 0.2272727 0.1111111
vt 0.2272727 0.1666667
vt 0.04545455 0.05555558
vt 0.09090909 0.05555558
vt 0.1363636 0.05555558
vt 0.1818182 0.05555558
vt 0.2272727 0.05555558
vt 0.9545454 0.7222222
vt 1 0.7222222
vt 1 0.7777778
vt 0.9545454 0.7777778
vt 0.9545454 0.6666666
vt 1 0.6666666
vt 0.9545454 0.6111111
vt 1 0.6111111
vt 0.9545454 0.5555556
vt 1 0.5555556

# Normal
vn 0 0 -1

# Mesh description
g pueblo_mesh_0033

# Faces
f 1/1/1 2/2/1 3/3/1 4/4/1
f 5/2/1 6/5/1 7/6/1 8/3/1
f 9/5/1 10/7/1 11/8/1 12/6/1
f 13/7/1 14/9/1 15/10/1 16/8/1
f 17/1/1 18/2/1 19/3/1 20/4/1
f 21/2/1 22/5/1 23/6/1 24/3/1
f 25/5/1 26/7/1 27/8/1 28/6/1
f 29/7/1 30/9/1 31/10/1 32/8/1
f 33/1/1 34/2/1 35/3/1 36/4/1
f 37/2/1 38/5/1 39/6/1 40/3/1
f 41/5/1 42/7/1 43/8/1 44/6/1
f 45/1/1 46/2/1 47/3/1 48/4/1
f 49/2/1 50/5/1 51/6/1 52/3/1
f 53/5/1 54/7/1 55/8/1 56/6/1
f 57/7/1 58/9/1 59/10/1 60/8/1
f 61/1/1 62/2/1 63/3/1 64/4/1
f 65/11/1 66/12/1 67/2/1 68/1/1
f 69/12/1 70/13/1 71/5/1 72/2/1
f 73/13/1 74/14/1 75/7/1 76/5/1
f 77/14/1 78/15/1 79/9/1 80/7/1
f 81/11/1 82/12/1 83/2/1 84/1/1
f 85/12/1 86/13/1 87/5/1 88/2/1
f 89/13/1 90/14/1 91/7/1 92/5/1
f 93/14/1 94/15/1 95/9/1 96/7/1
f 97/11/1 98/12/1 99/2/1 100/1/1
f 101/12/1 102/13/1 103/5/1 104/2/1
f 105/13/1 106/14/1 107/7/1 108/5/1
f 109/11/1 110/12/1 111/2/1 112/1/1
f 113/12/1 114/13/1 115/5/1 116/2/1
f 117/13/1 118/14/1 119/7/1 120/5/1
f 121/14/1 122/15/1 123/9/1 124/7/1
f 125/11/1 126/12/1 127/2/1 128/1/1
f 129/16/1 130/17/1 131/18/1 132/19/1
f 133/16/1 134/17/1 135/18/1 136/19/1
f 137/16/1 138/17/1 139/18/1 140/19/1
f 141/16/1 142/17/1 143/18/1 144/19/1
f 145/16/1 146/17/1 147/18/1 148/19/1
f 149/16/1 150/17/1 151/18/1 152/19/1
f 153/16/1 154/17/1 155/18/1 156/19/1
f 157/16/1 158/17/1 159/18/1 160/19/1
f 161/16/1 162/17/1 163/18/1 164/19/1
f 165/16/1 166/17/1 167/18/1 168/19/1
f 169/16/1 170/17/1 171/18/1 172/19/1
f 173/16/1 174/17/1 175/18/1 176/19/1
f 177/16/1 178/17/1 179/18/1 180/19/1
f 181/16/1 182/17/1 183/18/1 184/19/1
f 185/16/1 186/17/1 187/18/1 188/19/1
f 189/16/1 190/17/1 191/18/1 192/19/1
f 193/20/1 194/21/1 195/17/1 196/16/1
f 197/20/1 198/21/1 199/17/1 200/16/1
f 201/20/1 202/21/1 203/17/1 204/16/1
f 205/20/1 206/21/1 207/17/1 208/16/1
f 209/20/1 210/21/1 211/17/1 212/16/1
f 213/20/1 214/21/1 215/17/1 216/16/1
f 217/20/1 218/21/1 219/17/1 220/16/1
f 221/20/1 222/21/1 223/17/1 224/16/1
f 225/20/1 226/21/1 227/17/1 228/16/1
f 229/20/1 230/21/1 231/17/1 232/16/1
f 233/20/1 234/21/1 235/17/1 236/16/1
f 237/20/1 238/21/1 239/17/1 240/16/1
f 241/20/1 242/21/1 243/17/1 244/16/1
f 245/20/1 246/21/1 247/17/1 248/16/1
f 249/20/1 250/21/1 251/17/1 252/16/1
f 253/20/1 254/21/1 255/17/1 256/16/1
f 257/16/1 258/17/1 259/18/1 260/19/1
f 261/16/1 262/17/1 263/18/1 264/19/1
f 265/16/1 266/17/1 267/18/1 268/19/1
f 269/16/1 270/17/1 271/18/1 272/19/1
f 273/16/1 274/17/1 275/18/1 276/19/1
f 277/16/1 278/17/1 279/18/1 280/19/1
f 281/16/1 282/17/1 283/18/1 284/19/1
f 285/16/1 286/17/1 287/18/1 288/19/1
f 289/16/1 290/17/1 291/18/1 292/19/1
f 293/22/1 294/23/1 295/21/1 296/20/1
f 297/22/1 298/23/1 299/21/1 300/20/1
f 301/22/1 302/23/1 303/21/1 304/20/1
f 305/22/1 306/23/1 307/21/1 308/20/1
f 309/22/1 310/23/1 311/21/1 312/20/1
f 313/22/1 314/23/1 315/21/1 316/20/1
f 317/22/1 318/23/1 319/21/1 320/20/1
f 321/16/1 322/17/1 323/18/1 324/19/1
f 325/16/1 326/17/1 327/18/1 328/19/1
f 329/16/1 330/17/1 331/18/1 332/19/1
f 333/20/1 334/21/1 335/17/1 336/16/1
f 337/20/1 338/21/1 339/17/1 340/16/1
f 341/20/1 342/21/1 343/17/1 344/16/1
f 345/20/1 346/21/1 347/17/1 348/16/1
f 349/20/1 350/21/1 351/17/1 352/16/1
f 353/20/1 354/21/1 355/17/1 356/16/1
f 357/16/1 358/17/1 359/18/1 360/19/1
f 361/16/1 362/17/1 363/18/1 364/19/1
f 365/16/1 366/17/1 367/18/1 368/19/1
f 369/16/1 370/17/1 371/18/1 372/19/1
f 373/16/1 374/17/1 375/18/1 376/19/1
f 377/16/1 378/17/1 379/18/1 380/19/1
f 381/16/1 382/17/1 383/18/1 384/19/1
f 385/20/1 386/21/1 387/17/1 388/16/1
f 389/20/1 390/21/1 391/17/1 392/16/1
f 393/20/1 394/21/1 395/17/1 396/16/1
f 397/22/1 398/23/1 399/21/1 400/20/1
f 401/22/1 402/23/1 403/21/1 404/20/1
f 405/22/1 406/23/1 407/21/1 408/20/1
f 409/22/1 410/23/1 411/21/1 412/20/1
f 413/22/1 414/23/1 415/21/1 416/20/1
f 417/22/1 418/23/1 419/21/1 420/20/1
f 421/20/1 422/21/1 423/17/1 424/16/1
f 425/20/1 426/21/1 427/17/1 428/16/1
f 429/20/1 430/21/1 431/17/1 432/16/1
f 433/20/1 434/21/1 435/17/1 436/16/1
f 437/20/1 438/21/1 439/17/1 440/16/1
f 441/20/1 442/21/1 443/17/1 444/16/1
f 445/20/1 446/21/1 447/17/1 448/16/1
f 449/16/1 450/17/1 451/18/1 452/19/1
f 453/16/1 454/17/1 455/18/1 456/19/1
f 457/16/1 458/17/1 459/18/1 460/19/1
f 461/16/1 462/17/1 463/18/1 464/19/1
f 465/16/1 466/17/1 467/18/1 468/19/1
f 469/16/1 470/17/1 471/18/1 472/19/1
f 473/16/1 474/17/1 475/18/1 476/19/1
f 477/16/1 478/17/1 479/18/1 480/19/1
f 481/16/1 482/17/1 483/18/1 484/19/1
f 485/22/1 486/23/1 487/21/1 488/20/1
f 489/22/1 490/23/1 491/21/1 492/20/1
f 493/22/1 494/23/1 495/21/1 496/20/1
f 497/22/1 498/23/1 499/21/1 500/20/1
f 501/22/1 502/23/1 503/21/1 504/20/1
f 505/22/1 506/23/1 507/21/1 508/20/1
f 509/22/1 510/23/1 511/21/1 512/20/1
f 513/20/1 514/21/1 515/17/1 516/16/1
f 517/20/1 518/21/1 519/17/1 520/16/1
f 521/20/1 522/21/1 523/17/1 524/16/1
f 525/20/1 526/21/1 527/17/1 528/16/1
f 529/20/1 530/21/1 531/17/1 532/16/1
f 533/20/1 534/21/1 535/17/1 536/16/1
f 537/20/1 538/21/1 539/17/1 540/16/1
f 541/20/1 542/21/1 543/17/1 544/16/1
f 545/20/1 546/21/1 547/17/1 548/16/1
f 549/24/1 550/25/1 551/23/1 552/22/1
f 553/24/1 554/25/1 555/23/1 556/22/1
f 557/24/1 558/25/1 559/23/1 560/22/1
f 561/24/1 562/25/1 563/23/1 564/22/1
f 565/24/1 566/25/1 567/23/1 568/22/1
f 569/24/1 570/25/1 571/23/1 572/22/1
f 573/24/1 574/25/1 575/23/1 576/22/1
f 577/22/1 578/23/1 579/21/1 580/20/1
f 581/22/1 582/23/1 583/21/1 584/20/1
f 585/22/1 586/23/1 587/21/1 588/20/1
f 589/22/1 590/23/1 591/21/1 592/20/1
f 593/22/1 594/23/1 595/21/1 596/20/1
f 597/22/1 598/23/1 599/21/1 600/20/1
f 601/22/1 602/23/1 603/21/1 604/20/1
f 605/22/1 606/23/1 607/21/1 608/20/1
f 609/22/1 610/23/1 611/21/1 612/20/1
f 613/16/1 614/17/1 615/18/1 616/19/1
f 617/16/1 618/17/1 619/18/1 620/19/1
f 621/16/1 622/17/1 623/18/1 624/19/1
f 625/16/1 626/17/1 627/18/1 628/19/1
f 629/16/1 630/17/1 631/18/1 632/19/1
f 633/16/1 634/17/1 635/18/1 636/19/1
f 637/16/1 638/17/1 639/18/1 640/19/1
f 641/24/1 642/25/1 643/23/1 644/22/1
f 645/24/1 646/25/1 647/23/1 648/22/1
f 649/24/1 650/25/1 651/23/1 652/22/1
f 653/24/1 654/25/1 655/23/1 656/22/1
f 657/24/1 658/25/1 659/23/1 660/22/1
f 661/24/1 662/25/1 663/23/1 664/22/1
f 665/24/1 666/25/1 667/23/1 668/22/1
f 669/24/1 670/25/1 671/23/1 672/22/1
f 673/24/1 674/25/1 675/23/1 676/22/1
f 677/20/1 678/21/1 679/17/1 680/16/1
f 681/20/1 682/21/1 683/17/1 684/16/1
f 685/20/1 686/21/1 687/17/1 688/16/1
f 689/20/1 690/21/1 691/17/1 692/16/1
f 693/20/1 694/21/1 695/17/1 696/16/1
f 697/20/1 698/21/1 699/17/1 700/16/1
f 701/20/1 702/21/1 703/17/1 704/16/1
f 705/24/1 706/25/1 707/23/1 708/22/1
f 709/24/1 710/25/1 711/23/1 712/22/1
f 713/24/1 714/25/1 715/23/1 716/22/1
f 717/24/1 718/25/1 719/23/1 720/22/1
f 721/24/1 722/25/1 723/23/1 724/22/1
f 725/24/1 726/25/1 727/23/1 728/22/1
f 729/24/1 730/25/1 731/23/1 732/22/1
f 733/24/1 734/25/1 735/23/1 736/22/1
f 737/24/1 738/25/1 739/23/1 740/22/1
f 741/22/1 742/23/1 743/21/1 744/20/1
f 745/22/1 746/23/1 747/21/1 748/20/1
f 749/22/1 750/23/1 751/21/1 752/20/1
f 753/22/1 754/23/1 755/21/1 756/20/1
f 757/22/1 758/23/1 759/21/1 760/20/1
f 761/22/1 762/23/1 763/21/1 764/20/1
f 765/22/1 766/23/1 767/21/1 768/20/1
f 769/24/1 770/25/1 771/23/1 772/22/1
f 773/24/1 774/25/1 775/23/1 776/22/1
f 777/24/1 778/25/1 779/23/1 780/22/1
f 781/24/1 782/25/1 783/23/1 784/22/1
f 785/24/1 786/25/1 787/23/1 788/22/1
f 789/24/1 790/25/1 791/23/1 792/22/1
f 793/24/1 794/25/1 795/23/1 796/22/1
f 797/24/1 798/25/1 799/23/1 800/22/1
f 801/24/1 802/25/1 803/23/1 804/22/1
f 805/24/1 806/25/1 807/23/1 808/22/1
f 809/24/1 810/25/1 811/23/1 812/22/1
f 813/24/1 814/25/1 815/23/1 816/22/1
f 817/24/1 818/25/1 819/23/1 820/22/1
f 821/24/1 822/25/1 823/23/1 824/22/1
f 825/24/1 826/25/1 827/23/1 828/22/1
f 829/24/1 830/25/1 831/23/1 832/22/1
f 833/24/1 834/25/1 835/23/1 836/22/1
f 837/24/1 838/25/1 839/23/1 840/22/1
f 841/24/1 842/25/1 843/23/1 844/22/1
f 845/24/1 846/25/1 847/23/1 848/22/1
f 849/24/1 850/25/1 851/23/1 852/22/1
f 853/24/1 854/25/1 855/23/1 856/22/1
f 857/24/1 858/25/1 859/23/1 860/22/1
f 861/24/1 862/25/1 863/23/1 864/22/1
f 865/24/1 866/25/1 867/23/1 868/22/1
f 869/24/1 870/25/1 871/23/1 872/22/1
f 873/24/1 874/25/1 875/23/1 876/22/1
f 877/24/1 878/25/1 879/23/1 880/22/1
f 881/22/1 882/23/1 883/21/1 884/20/1
f 885/22/1 886/23/1 887/21/1 888/20/1
f 889/22/1 890/23/1 891/21/1 892/20/1
f 893/22/1 894/23/1 895/21/1 896/20/1
f 897/24/1 898/25/1 899/23/1 900/22/1
f 901/24/1 902/25/1 903/23/1 904/22/1
f 905/24/1 906/25/1 907/23/1 908/22/1
f 909/24/1 910/25/1 911/23/1 912/22/1
f 913/24/1 914/25/1 915/23/1 916/22/1
f 917/24/1 918/25/1 919/23/1 920/22/1
f 921/24/1 922/25/1 923/23/1 924/22/1
f 925/24/1 926/25/1 927/23/1 928/22/1
f 929/24/1 930/25/1 931/23/1 932/22/1
f 933/24/1 934/25/1 935/23/1 936/22/1
f 937/24/1 938/25/1 939/23/1 940/22/1
f 941/24/1 942/25/1 943/23/1 944/22/1
f 945/24/1 946/25/1 947/23/1 948/22/1
f 949/24/1 950/25/1 951/23/1 952/22/1
f 953/24/1 954/25/1 955/23/1 956/22/1
f 957/24/1 958/25/1 959/23/1 960/22/1
f 961/20/1 962/21/1 963/17/1 964/16/1
f 965/20/1 966/21/1 967/17/1 968/16/1
f 969/20/1 970/21/1 971/17/1 972/16/1
f 973/20/1 974/21/1 975/17/1 976/16/1
f 977/20/1 978/21/1 979/17/1 980/16/1
f 981/20/1 982/21/1 983/17/1 984/16/1
f 985/20/1 986/21/1 987/17/1 988/16/1
f 989/20/1 990/21/1 991/17/1 992/16/1
f 993/20/1 994/21/1 995/17/1 996/16/1
f 997/20/1 998/21/1 999/17/1 1000/16/1
f 1001/20/1 1002/21/1 1003/17/1 1004/16/1
f 1005/20/1 1006/21/1 1007/17/1 1008/16/1
f 1009/20/1 1010/21/1 1011/17/1 1012/16/1
f 1013/20/1 1014/21/1 1015/17/1 1016/16/1
f 1017/20/1 1018/21/1 1019/17/1 1020/16/1
f 1021/20/1 1022/21/1 1023/17/1 1024/16/1

