# Tiled2Unity generated file. Do not modify by hand.
# Wavefront file for 'pueblo_mesh_0055.obj'

# Vertices (Count = 20)
v -12 -12 0
v -13 -12 0
v -13 -11 0
v -12 -11 0
v -12 -13 0
v -13 -13 0
v -13 -12 0
v -12 -12 0
v -12 -14 0
v -13 -14 0
v -13 -13 0
v -12 -13 0
v -12 -15 0
v -13 -15 0
v -13 -14 0
v -12 -14 0
v -12 -16 0
v -13 -16 0
v -13 -15 0
v -12 -15 0

# Texture cooridinates (Count = 8)
vt 0.2727273 0.2222222
vt 0.3181818 0.2222222
vt 0.3181818 0.2777778
vt 0.2727273 0.2777778
vt 0.3636364 0.2222222
vt 0.4090909 0.2222222
vt 0.4090909 0.2777778
vt 0.3636364 0.2777778

# Normal
vn 0 0 -1

# Mesh description
g pueblo_mesh_0055

# Faces
f 1/1/1 2/2/1 3/3/1 4/4/1
f 5/5/1 6/6/1 7/7/1 8/8/1
f 9/5/1 10/6/1 11/7/1 12/8/1
f 13/5/1 14/6/1 15/7/1 16/8/1
f 17/5/1 18/6/1 19/7/1 20/8/1

