# Tiled2Unity generated file. Do not modify by hand.
# Wavefront file for 'pueblo_mesh_0004.obj'

# Vertices (Count = 144)
v 0 -5 0
v -1 -5 0
v -1 -4 0
v 0 -4 0
v -1 -5 0
v -2 -5 0
v -2 -4 0
v -1 -4 0
v -2 -5 0
v -3 -5 0
v -3 -4 0
v -2 -4 0
v -3 -5 0
v -4 -5 0
v -4 -4 0
v -3 -4 0
v -4 -5 0
v -5 -5 0
v -5 -4 0
v -4 -4 0
v -5 -5 0
v -6 -5 0
v -6 -4 0
v -5 -4 0
v -6 -5 0
v -7 -5 0
v -7 -4 0
v -6 -4 0
v -7 -5 0
v -8 -5 0
v -8 -4 0
v -7 -4 0
v -8 -5 0
v -9 -5 0
v -9 -4 0
v -8 -4 0
v -9 -5 0
v -10 -5 0
v -10 -4 0
v -9 -4 0
v -10 -5 0
v -11 -5 0
v -11 -4 0
v -10 -4 0
v -11 -5 0
v -12 -5 0
v -12 -4 0
v -11 -4 0
v 0 -6 0
v -1 -6 0
v -1 -5 0
v 0 -5 0
v -1 -6 0
v -2 -6 0
v -2 -5 0
v -1 -5 0
v -2 -6 0
v -3 -6 0
v -3 -5 0
v -2 -5 0
v -3 -6 0
v -4 -6 0
v -4 -5 0
v -3 -5 0
v -4 -6 0
v -5 -6 0
v -5 -5 0
v -4 -5 0
v -5 -6 0
v -6 -6 0
v -6 -5 0
v -5 -5 0
v -6 -6 0
v -7 -6 0
v -7 -5 0
v -6 -5 0
v -7 -6 0
v -8 -6 0
v -8 -5 0
v -7 -5 0
v -8 -6 0
v -9 -6 0
v -9 -5 0
v -8 -5 0
v -9 -6 0
v -10 -6 0
v -10 -5 0
v -9 -5 0
v -10 -6 0
v -11 -6 0
v -11 -5 0
v -10 -5 0
v -11 -6 0
v -12 -6 0
v -12 -5 0
v -11 -5 0
v 0 -7 0
v -1 -7 0
v -1 -6 0
v 0 -6 0
v -1 -7 0
v -2 -7 0
v -2 -6 0
v -1 -6 0
v -2 -7 0
v -3 -7 0
v -3 -6 0
v -2 -6 0
v -3 -7 0
v -4 -7 0
v -4 -6 0
v -3 -6 0
v -4 -7 0
v -5 -7 0
v -5 -6 0
v -4 -6 0
v -5 -7 0
v -6 -7 0
v -6 -6 0
v -5 -6 0
v -6 -7 0
v -7 -7 0
v -7 -6 0
v -6 -6 0
v -7 -7 0
v -8 -7 0
v -8 -6 0
v -7 -6 0
v -8 -7 0
v -9 -7 0
v -9 -6 0
v -8 -6 0
v -9 -7 0
v -10 -7 0
v -10 -6 0
v -9 -6 0
v -10 -7 0
v -11 -7 0
v -11 -6 0
v -10 -6 0
v -11 -7 0
v -12 -7 0
v -12 -6 0
v -11 -6 0

# Texture cooridinates (Count = 23)
vt 0.3636364 0.4444444
vt 0.4090909 0.4444444
vt 0.4090909 0.5
vt 0.3636364 0.5
vt 0.4545455 0.4444444
vt 0.4545455 0.5
vt 0.5 0.4444444
vt 0.5 0.5
vt 0.3181818 0.4444444
vt 0.3181818 0.5
vt 0.3181818 0.3888889
vt 0.3636364 0.3888889
vt 0.4090909 0.3888889
vt 0.4545455 0.3888889
vt 0.2727273 0.3888889
vt 0.2727273 0.4444444
vt 0.5 0.3888889
vt 0.3181818 0.3333333
vt 0.3636364 0.3333333
vt 0.4090909 0.3333333
vt 0.4545455 0.3333333
vt 0.2727273 0.3333333
vt 0.5 0.3333333

# Normal
vn 0 0 -1

# Mesh description
g pueblo_mesh_0004

# Faces
f 1/1/1 2/2/1 3/3/1 4/4/1
f 5/2/1 6/5/1 7/6/1 8/3/1
f 9/5/1 10/7/1 11/8/1 12/6/1
f 13/9/1 14/1/1 15/4/1 16/10/1
f 17/1/1 18/2/1 19/3/1 20/4/1
f 21/2/1 22/5/1 23/6/1 24/3/1
f 25/5/1 26/7/1 27/8/1 28/6/1
f 29/1/1 30/2/1 31/3/1 32/4/1
f 33/9/1 34/1/1 35/4/1 36/10/1
f 37/1/1 38/2/1 39/3/1 40/4/1
f 41/2/1 42/5/1 43/6/1 44/3/1
f 45/5/1 46/7/1 47/8/1 48/6/1
f 49/11/1 50/12/1 51/1/1 52/9/1
f 53/12/1 54/13/1 55/2/1 56/1/1
f 57/13/1 58/14/1 59/5/1 60/2/1
f 61/15/1 62/11/1 63/9/1 64/16/1
f 65/11/1 66/12/1 67/1/1 68/9/1
f 69/12/1 70/13/1 71/2/1 72/1/1
f 73/13/1 74/14/1 75/5/1 76/2/1
f 77/14/1 78/17/1 79/7/1 80/5/1
f 81/15/1 82/11/1 83/9/1 84/16/1
f 85/11/1 86/12/1 87/1/1 88/9/1
f 89/12/1 90/13/1 91/2/1 92/1/1
f 93/13/1 94/14/1 95/5/1 96/2/1
f 97/18/1 98/19/1 99/12/1 100/11/1
f 101/19/1 102/20/1 103/13/1 104/12/1
f 105/20/1 106/21/1 107/14/1 108/13/1
f 109/22/1 110/18/1 111/11/1 112/15/1
f 113/18/1 114/19/1 115/12/1 116/11/1
f 117/19/1 118/20/1 119/13/1 120/12/1
f 121/20/1 122/21/1 123/14/1 124/13/1
f 125/21/1 126/23/1 127/17/1 128/14/1
f 129/22/1 130/18/1 131/11/1 132/15/1
f 133/18/1 134/19/1 135/12/1 136/11/1
f 137/19/1 138/20/1 139/13/1 140/12/1
f 141/20/1 142/21/1 143/14/1 144/13/1

