# Tiled2Unity generated file. Do not modify by hand.
# Wavefront file for 'pueblo_mesh_0002.obj'

# Vertices (Count = 192)
v 0 -5 0
v -1 -5 0
v -1 -4 0
v 0 -4 0
v -1 -5 0
v -2 -5 0
v -2 -4 0
v -1 -4 0
v -2 -5 0
v -3 -5 0
v -3 -4 0
v -2 -4 0
v -3 -5 0
v -4 -5 0
v -4 -4 0
v -3 -4 0
v -4 -5 0
v -5 -5 0
v -5 -4 0
v -4 -4 0
v -5 -5 0
v -6 -5 0
v -6 -4 0
v -5 -4 0
v -6 -5 0
v -7 -5 0
v -7 -4 0
v -6 -4 0
v -7 -5 0
v -8 -5 0
v -8 -4 0
v -7 -4 0
v -8 -5 0
v -9 -5 0
v -9 -4 0
v -8 -4 0
v -9 -5 0
v -10 -5 0
v -10 -4 0
v -9 -4 0
v -10 -5 0
v -11 -5 0
v -11 -4 0
v -10 -4 0
v -11 -5 0
v -12 -5 0
v -12 -4 0
v -11 -4 0
v -12 -5 0
v -13 -5 0
v -13 -4 0
v -12 -4 0
v -13 -5 0
v -14 -5 0
v -14 -4 0
v -13 -4 0
v -14 -5 0
v -15 -5 0
v -15 -4 0
v -14 -4 0
v -15 -5 0
v -16 -5 0
v -16 -4 0
v -15 -4 0
v 0 -6 0
v -1 -6 0
v -1 -5 0
v 0 -5 0
v -1 -6 0
v -2 -6 0
v -2 -5 0
v -1 -5 0
v -2 -6 0
v -3 -6 0
v -3 -5 0
v -2 -5 0
v -3 -6 0
v -4 -6 0
v -4 -5 0
v -3 -5 0
v -4 -6 0
v -5 -6 0
v -5 -5 0
v -4 -5 0
v -5 -6 0
v -6 -6 0
v -6 -5 0
v -5 -5 0
v -6 -6 0
v -7 -6 0
v -7 -5 0
v -6 -5 0
v -7 -6 0
v -8 -6 0
v -8 -5 0
v -7 -5 0
v -8 -6 0
v -9 -6 0
v -9 -5 0
v -8 -5 0
v -9 -6 0
v -10 -6 0
v -10 -5 0
v -9 -5 0
v -10 -6 0
v -11 -6 0
v -11 -5 0
v -10 -5 0
v -11 -6 0
v -12 -6 0
v -12 -5 0
v -11 -5 0
v -12 -6 0
v -13 -6 0
v -13 -5 0
v -12 -5 0
v -13 -6 0
v -14 -6 0
v -14 -5 0
v -13 -5 0
v -14 -6 0
v -15 -6 0
v -15 -5 0
v -14 -5 0
v -15 -6 0
v -16 -6 0
v -16 -5 0
v -15 -5 0
v 0 -7 0
v -1 -7 0
v -1 -6 0
v 0 -6 0
v -1 -7 0
v -2 -7 0
v -2 -6 0
v -1 -6 0
v -2 -7 0
v -3 -7 0
v -3 -6 0
v -2 -6 0
v -3 -7 0
v -4 -7 0
v -4 -6 0
v -3 -6 0
v -4 -7 0
v -5 -7 0
v -5 -6 0
v -4 -6 0
v -5 -7 0
v -6 -7 0
v -6 -6 0
v -5 -6 0
v -6 -7 0
v -7 -7 0
v -7 -6 0
v -6 -6 0
v -7 -7 0
v -8 -7 0
v -8 -6 0
v -7 -6 0
v -8 -7 0
v -9 -7 0
v -9 -6 0
v -8 -6 0
v -9 -7 0
v -10 -7 0
v -10 -6 0
v -9 -6 0
v -10 -7 0
v -11 -7 0
v -11 -6 0
v -10 -6 0
v -11 -7 0
v -12 -7 0
v -12 -6 0
v -11 -6 0
v -12 -7 0
v -13 -7 0
v -13 -6 0
v -12 -6 0
v -13 -7 0
v -14 -7 0
v -14 -6 0
v -13 -6 0
v -14 -7 0
v -15 -7 0
v -15 -6 0
v -14 -6 0
v -15 -7 0
v -16 -7 0
v -16 -6 0
v -15 -6 0

# Texture cooridinates (Count = 23)
vt 0.3636364 0.4444444
vt 0.4090909 0.4444444
vt 0.4090909 0.5
vt 0.3636364 0.5
vt 0.4545455 0.4444444
vt 0.4545455 0.5
vt 0.5 0.4444444
vt 0.5 0.5
vt 0.3181818 0.4444444
vt 0.3181818 0.5
vt 0.4545455 0.3888889
vt 0.5 0.3888889
vt 0.2727273 0.3888889
vt 0.3181818 0.3888889
vt 0.2727273 0.4444444
vt 0.3636364 0.3888889
vt 0.4090909 0.3888889
vt 0.4545455 0.3333333
vt 0.5 0.3333333
vt 0.2727273 0.3333333
vt 0.3181818 0.3333333
vt 0.3636364 0.3333333
vt 0.4090909 0.3333333

# Normal
vn 0 0 -1

# Mesh description
g pueblo_mesh_0002

# Faces
f 1/1/1 2/2/1 3/3/1 4/4/1
f 5/2/1 6/5/1 7/6/1 8/3/1
f 9/5/1 10/7/1 11/8/1 12/6/1
f 13/9/1 14/1/1 15/4/1 16/10/1
f 17/1/1 18/2/1 19/3/1 20/4/1
f 21/2/1 22/5/1 23/6/1 24/3/1
f 25/5/1 26/7/1 27/8/1 28/6/1
f 29/9/1 30/1/1 31/4/1 32/10/1
f 33/1/1 34/2/1 35/3/1 36/4/1
f 37/2/1 38/5/1 39/6/1 40/3/1
f 41/5/1 42/7/1 43/8/1 44/6/1
f 45/9/1 46/1/1 47/4/1 48/10/1
f 49/1/1 50/2/1 51/3/1 52/4/1
f 53/2/1 54/5/1 55/6/1 56/3/1
f 57/5/1 58/7/1 59/8/1 60/6/1
f 61/9/1 62/1/1 63/4/1 64/10/1
f 65/11/1 66/12/1 67/7/1 68/5/1
f 69/13/1 70/14/1 71/9/1 72/15/1
f 73/14/1 74/16/1 75/1/1 76/9/1
f 77/16/1 78/17/1 79/2/1 80/1/1
f 81/17/1 82/11/1 83/5/1 84/2/1
f 85/11/1 86/12/1 87/7/1 88/5/1
f 89/13/1 90/14/1 91/9/1 92/15/1
f 93/14/1 94/16/1 95/1/1 96/9/1
f 97/16/1 98/17/1 99/2/1 100/1/1
f 101/17/1 102/11/1 103/5/1 104/2/1
f 105/11/1 106/12/1 107/7/1 108/5/1
f 109/13/1 110/14/1 111/9/1 112/15/1
f 113/14/1 114/16/1 115/1/1 116/9/1
f 117/16/1 118/17/1 119/2/1 120/1/1
f 121/17/1 122/11/1 123/5/1 124/2/1
f 125/11/1 126/12/1 127/7/1 128/5/1
f 129/18/1 130/19/1 131/12/1 132/11/1
f 133/20/1 134/21/1 135/14/1 136/13/1
f 137/21/1 138/22/1 139/16/1 140/14/1
f 141/22/1 142/23/1 143/17/1 144/16/1
f 145/23/1 146/18/1 147/11/1 148/17/1
f 149/18/1 150/19/1 151/12/1 152/11/1
f 153/20/1 154/21/1 155/14/1 156/13/1
f 157/21/1 158/22/1 159/16/1 160/14/1
f 161/22/1 162/23/1 163/17/1 164/16/1
f 165/23/1 166/18/1 167/11/1 168/17/1
f 169/18/1 170/19/1 171/12/1 172/11/1
f 173/20/1 174/21/1 175/14/1 176/13/1
f 177/21/1 178/22/1 179/16/1 180/14/1
f 181/22/1 182/23/1 183/17/1 184/16/1
f 185/23/1 186/18/1 187/11/1 188/17/1
f 189/18/1 190/19/1 191/12/1 192/11/1

