# Tiled2Unity generated file. Do not modify by hand.
# Wavefront file for 'pueblo_mesh_0037.obj'

# Vertices (Count = 24)
v 0 -4 0
v -1 -4 0
v -1 -3 0
v 0 -3 0
v 0 -5 0
v -1 -5 0
v -1 -4 0
v 0 -4 0
v 0 -6 0
v -1 -6 0
v -1 -5 0
v 0 -5 0
v 0 -7 0
v -1 -7 0
v -1 -6 0
v 0 -6 0
v 0 -8 0
v -1 -8 0
v -1 -7 0
v 0 -7 0
v 0 -9 0
v -1 -9 0
v -1 -8 0
v 0 -8 0

# Texture cooridinates (Count = 10)
vt 0.9545454 0.7222222
vt 1 0.7222222
vt 1 0.7777778
vt 0.9545454 0.7777778
vt 0.9545454 0.6666666
vt 1 0.6666666
vt 0.9545454 0.6111111
vt 1 0.6111111
vt 0.9545454 0.5555556
vt 1 0.5555556

# Normal
vn 0 0 -1

# Mesh description
g pueblo_mesh_0037

# Faces
f 1/1/1 2/2/1 3/3/1 4/4/1
f 5/1/1 6/2/1 7/3/1 8/4/1
f 9/1/1 10/2/1 11/3/1 12/4/1
f 13/5/1 14/6/1 15/2/1 16/1/1
f 17/7/1 18/8/1 19/6/1 20/5/1
f 21/9/1 22/10/1 23/8/1 24/7/1

