# Tiled2Unity generated file. Do not modify by hand.
# Wavefront file for 'pueblo_mesh_0057.obj'

# Vertices (Count = 36)
v -12 -1 0
v -13 -1 0
v -13 0 0
v -12 0 0
v -12 -2 0
v -13 -2 0
v -13 -1 0
v -12 -1 0
v -12 -3 0
v -13 -3 0
v -13 -2 0
v -12 -2 0
v -12 -4 0
v -13 -4 0
v -13 -3 0
v -12 -3 0
v -13 -4 0
v -14 -4 0
v -14 -3 0
v -13 -3 0
v -12 -5 0
v -13 -5 0
v -13 -4 0
v -12 -4 0
v -13 -5 0
v -14 -5 0
v -14 -4 0
v -13 -4 0
v -14 -5 0
v -15 -5 0
v -15 -4 0
v -14 -4 0
v -15 -5 0
v -16 -5 0
v -16 -4 0
v -15 -4 0

# Texture cooridinates (Count = 9)
vt 0.3636364 0.2222222
vt 0.4090909 0.2222222
vt 0.4090909 0.2777778
vt 0.3636364 0.2777778
vt 0.2727273 0.1666667
vt 0.3181818 0.1666667
vt 0.3181818 0.2222222
vt 0.2727273 0.2222222
vt 0.3636364 0.1666667

# Normal
vn 0 0 -1

# Mesh description
g pueblo_mesh_0057

# Faces
f 1/1/1 2/2/1 3/3/1 4/4/1
f 5/1/1 6/2/1 7/3/1 8/4/1
f 9/1/1 10/2/1 11/3/1 12/4/1
f 13/1/1 14/2/1 15/3/1 16/4/1
f 17/5/1 18/6/1 19/7/1 20/8/1
f 21/5/1 22/6/1 23/7/1 24/8/1
f 25/6/1 26/9/1 27/1/1 28/7/1
f 29/6/1 30/9/1 31/1/1 32/7/1
f 33/6/1 34/9/1 35/1/1 36/7/1

