# Tiled2Unity generated file. Do not modify by hand.
# Wavefront file for 'pueblo_mesh_0079.obj'

# Vertices (Count = 52)
v -1 -15 0
v -2 -15 0
v -2 -14 0
v -1 -14 0
v 0 -16 0
v -1 -16 0
v -1 -15 0
v 0 -15 0
v -1 -16 0
v -2 -16 0
v -2 -15 0
v -1 -15 0
v -2 -16 0
v -3 -16 0
v -3 -15 0
v -2 -15 0
v -3 -16 0
v -4 -16 0
v -4 -15 0
v -3 -15 0
v -4 -16 0
v -5 -16 0
v -5 -15 0
v -4 -15 0
v -5 -16 0
v -6 -16 0
v -6 -15 0
v -5 -15 0
v -6 -16 0
v -7 -16 0
v -7 -15 0
v -6 -15 0
v -7 -16 0
v -8 -16 0
v -8 -15 0
v -7 -15 0
v -8 -16 0
v -9 -16 0
v -9 -15 0
v -8 -15 0
v -9 -16 0
v -10 -16 0
v -10 -15 0
v -9 -15 0
v -10 -16 0
v -11 -16 0
v -11 -15 0
v -10 -15 0
v -11 -16 0
v -12 -16 0
v -12 -15 0
v -11 -15 0

# Texture cooridinates (Count = 28)
vt 0.4545455 0.9444444
vt 0.5 0.9444444
vt 0.5 1
vt 0.4545455 1
vt 0.4090909 0.8888889
vt 0.4545455 0.8888889
vt 0.4090909 0.9444444
vt 0.5 0.8888889
vt 0.5454546 0.8888889
vt 0.5454546 0.9444444
vt 0.5909091 0.8888889
vt 0.5909091 0.9444444
vt 0.6363636 0.8888889
vt 0.6363636 0.9444444
vt 0.6818182 0.8888889
vt 0.6818182 0.9444444
vt 0.7272727 0.8888889
vt 0.7272727 0.9444444
vt 0.7727273 0.8888889
vt 0.7727273 0.9444444
vt 0.8181818 0.8888889
vt 0.8181818 0.9444444
vt 0.8636364 0.8888889
vt 0.8636364 0.9444444
vt 0.9090909 0.8888889
vt 0.9090909 0.9444444
vt 0.9545454 0.8888889
vt 0.9545454 0.9444444

# Normal
vn 0 0 -1

# Mesh description
g pueblo_mesh_0079

# Faces
f 1/1/1 2/2/1 3/3/1 4/4/1
f 5/5/1 6/6/1 7/1/1 8/7/1
f 9/6/1 10/8/1 11/2/1 12/1/1
f 13/8/1 14/9/1 15/10/1 16/2/1
f 17/9/1 18/11/1 19/12/1 20/10/1
f 21/11/1 22/13/1 23/14/1 24/12/1
f 25/13/1 26/15/1 27/16/1 28/14/1
f 29/15/1 30/17/1 31/18/1 32/16/1
f 33/17/1 34/19/1 35/20/1 36/18/1
f 37/19/1 38/21/1 39/22/1 40/20/1
f 41/21/1 42/23/1 43/24/1 44/22/1
f 45/23/1 46/25/1 47/26/1 48/24/1
f 49/25/1 50/27/1 51/28/1 52/26/1

