# Tiled2Unity generated file. Do not modify by hand.
# Wavefront file for 'pueblo_mesh_0022.obj'

# Vertices (Count = 1024)
v 0 -1 0
v -1 -1 0
v -1 0 0
v 0 0 0
v -1 -1 0
v -2 -1 0
v -2 0 0
v -1 0 0
v -2 -1 0
v -3 -1 0
v -3 0 0
v -2 0 0
v -3 -1 0
v -4 -1 0
v -4 0 0
v -3 0 0
v -4 -1 0
v -5 -1 0
v -5 0 0
v -4 0 0
v -5 -1 0
v -6 -1 0
v -6 0 0
v -5 0 0
v -6 -1 0
v -7 -1 0
v -7 0 0
v -6 0 0
v -7 -1 0
v -8 -1 0
v -8 0 0
v -7 0 0
v -8 -1 0
v -9 -1 0
v -9 0 0
v -8 0 0
v -9 -1 0
v -10 -1 0
v -10 0 0
v -9 0 0
v -10 -1 0
v -11 -1 0
v -11 0 0
v -10 0 0
v -11 -1 0
v -12 -1 0
v -12 0 0
v -11 0 0
v -12 -1 0
v -13 -1 0
v -13 0 0
v -12 0 0
v -13 -1 0
v -14 -1 0
v -14 0 0
v -13 0 0
v -14 -1 0
v -15 -1 0
v -15 0 0
v -14 0 0
v -15 -1 0
v -16 -1 0
v -16 0 0
v -15 0 0
v 0 -2 0
v -1 -2 0
v -1 -1 0
v 0 -1 0
v -1 -2 0
v -2 -2 0
v -2 -1 0
v -1 -1 0
v -2 -2 0
v -3 -2 0
v -3 -1 0
v -2 -1 0
v -3 -2 0
v -4 -2 0
v -4 -1 0
v -3 -1 0
v -4 -2 0
v -5 -2 0
v -5 -1 0
v -4 -1 0
v -5 -2 0
v -6 -2 0
v -6 -1 0
v -5 -1 0
v -6 -2 0
v -7 -2 0
v -7 -1 0
v -6 -1 0
v -7 -2 0
v -8 -2 0
v -8 -1 0
v -7 -1 0
v -8 -2 0
v -9 -2 0
v -9 -1 0
v -8 -1 0
v -9 -2 0
v -10 -2 0
v -10 -1 0
v -9 -1 0
v -10 -2 0
v -11 -2 0
v -11 -1 0
v -10 -1 0
v -11 -2 0
v -12 -2 0
v -12 -1 0
v -11 -1 0
v -12 -2 0
v -13 -2 0
v -13 -1 0
v -12 -1 0
v -13 -2 0
v -14 -2 0
v -14 -1 0
v -13 -1 0
v -14 -2 0
v -15 -2 0
v -15 -1 0
v -14 -1 0
v -15 -2 0
v -16 -2 0
v -16 -1 0
v -15 -1 0
v 0 -3 0
v -1 -3 0
v -1 -2 0
v 0 -2 0
v -1 -3 0
v -2 -3 0
v -2 -2 0
v -1 -2 0
v -2 -3 0
v -3 -3 0
v -3 -2 0
v -2 -2 0
v -3 -3 0
v -4 -3 0
v -4 -2 0
v -3 -2 0
v -4 -3 0
v -5 -3 0
v -5 -2 0
v -4 -2 0
v -5 -3 0
v -6 -3 0
v -6 -2 0
v -5 -2 0
v -6 -3 0
v -7 -3 0
v -7 -2 0
v -6 -2 0
v -7 -3 0
v -8 -3 0
v -8 -2 0
v -7 -2 0
v -8 -3 0
v -9 -3 0
v -9 -2 0
v -8 -2 0
v -9 -3 0
v -10 -3 0
v -10 -2 0
v -9 -2 0
v -10 -3 0
v -11 -3 0
v -11 -2 0
v -10 -2 0
v -11 -3 0
v -12 -3 0
v -12 -2 0
v -11 -2 0
v -12 -3 0
v -13 -3 0
v -13 -2 0
v -12 -2 0
v -13 -3 0
v -14 -3 0
v -14 -2 0
v -13 -2 0
v -14 -3 0
v -15 -3 0
v -15 -2 0
v -14 -2 0
v -15 -3 0
v -16 -3 0
v -16 -2 0
v -15 -2 0
v 0 -4 0
v -1 -4 0
v -1 -3 0
v 0 -3 0
v -1 -4 0
v -2 -4 0
v -2 -3 0
v -1 -3 0
v -2 -4 0
v -3 -4 0
v -3 -3 0
v -2 -3 0
v -3 -4 0
v -4 -4 0
v -4 -3 0
v -3 -3 0
v -4 -4 0
v -5 -4 0
v -5 -3 0
v -4 -3 0
v -5 -4 0
v -6 -4 0
v -6 -3 0
v -5 -3 0
v -6 -4 0
v -7 -4 0
v -7 -3 0
v -6 -3 0
v -7 -4 0
v -8 -4 0
v -8 -3 0
v -7 -3 0
v -8 -4 0
v -9 -4 0
v -9 -3 0
v -8 -3 0
v -9 -4 0
v -10 -4 0
v -10 -3 0
v -9 -3 0
v -10 -4 0
v -11 -4 0
v -11 -3 0
v -10 -3 0
v -11 -4 0
v -12 -4 0
v -12 -3 0
v -11 -3 0
v -12 -4 0
v -13 -4 0
v -13 -3 0
v -12 -3 0
v -13 -4 0
v -14 -4 0
v -14 -3 0
v -13 -3 0
v -14 -4 0
v -15 -4 0
v -15 -3 0
v -14 -3 0
v -15 -4 0
v -16 -4 0
v -16 -3 0
v -15 -3 0
v 0 -5 0
v -1 -5 0
v -1 -4 0
v 0 -4 0
v -1 -5 0
v -2 -5 0
v -2 -4 0
v -1 -4 0
v -2 -5 0
v -3 -5 0
v -3 -4 0
v -2 -4 0
v -3 -5 0
v -4 -5 0
v -4 -4 0
v -3 -4 0
v -4 -5 0
v -5 -5 0
v -5 -4 0
v -4 -4 0
v -5 -5 0
v -6 -5 0
v -6 -4 0
v -5 -4 0
v -6 -5 0
v -7 -5 0
v -7 -4 0
v -6 -4 0
v -7 -5 0
v -8 -5 0
v -8 -4 0
v -7 -4 0
v -8 -5 0
v -9 -5 0
v -9 -4 0
v -8 -4 0
v -9 -5 0
v -10 -5 0
v -10 -4 0
v -9 -4 0
v -10 -5 0
v -11 -5 0
v -11 -4 0
v -10 -4 0
v -11 -5 0
v -12 -5 0
v -12 -4 0
v -11 -4 0
v -12 -5 0
v -13 -5 0
v -13 -4 0
v -12 -4 0
v -13 -5 0
v -14 -5 0
v -14 -4 0
v -13 -4 0
v -14 -5 0
v -15 -5 0
v -15 -4 0
v -14 -4 0
v -15 -5 0
v -16 -5 0
v -16 -4 0
v -15 -4 0
v 0 -6 0
v -1 -6 0
v -1 -5 0
v 0 -5 0
v -1 -6 0
v -2 -6 0
v -2 -5 0
v -1 -5 0
v -2 -6 0
v -3 -6 0
v -3 -5 0
v -2 -5 0
v -3 -6 0
v -4 -6 0
v -4 -5 0
v -3 -5 0
v -4 -6 0
v -5 -6 0
v -5 -5 0
v -4 -5 0
v -5 -6 0
v -6 -6 0
v -6 -5 0
v -5 -5 0
v -6 -6 0
v -7 -6 0
v -7 -5 0
v -6 -5 0
v -7 -6 0
v -8 -6 0
v -8 -5 0
v -7 -5 0
v -8 -6 0
v -9 -6 0
v -9 -5 0
v -8 -5 0
v -9 -6 0
v -10 -6 0
v -10 -5 0
v -9 -5 0
v -10 -6 0
v -11 -6 0
v -11 -5 0
v -10 -5 0
v -11 -6 0
v -12 -6 0
v -12 -5 0
v -11 -5 0
v -12 -6 0
v -13 -6 0
v -13 -5 0
v -12 -5 0
v -13 -6 0
v -14 -6 0
v -14 -5 0
v -13 -5 0
v -14 -6 0
v -15 -6 0
v -15 -5 0
v -14 -5 0
v -15 -6 0
v -16 -6 0
v -16 -5 0
v -15 -5 0
v 0 -7 0
v -1 -7 0
v -1 -6 0
v 0 -6 0
v -1 -7 0
v -2 -7 0
v -2 -6 0
v -1 -6 0
v -2 -7 0
v -3 -7 0
v -3 -6 0
v -2 -6 0
v -3 -7 0
v -4 -7 0
v -4 -6 0
v -3 -6 0
v -4 -7 0
v -5 -7 0
v -5 -6 0
v -4 -6 0
v -5 -7 0
v -6 -7 0
v -6 -6 0
v -5 -6 0
v -6 -7 0
v -7 -7 0
v -7 -6 0
v -6 -6 0
v -7 -7 0
v -8 -7 0
v -8 -6 0
v -7 -6 0
v -8 -7 0
v -9 -7 0
v -9 -6 0
v -8 -6 0
v -9 -7 0
v -10 -7 0
v -10 -6 0
v -9 -6 0
v -10 -7 0
v -11 -7 0
v -11 -6 0
v -10 -6 0
v -11 -7 0
v -12 -7 0
v -12 -6 0
v -11 -6 0
v -12 -7 0
v -13 -7 0
v -13 -6 0
v -12 -6 0
v -13 -7 0
v -14 -7 0
v -14 -6 0
v -13 -6 0
v -14 -7 0
v -15 -7 0
v -15 -6 0
v -14 -6 0
v -15 -7 0
v -16 -7 0
v -16 -6 0
v -15 -6 0
v 0 -8 0
v -1 -8 0
v -1 -7 0
v 0 -7 0
v -1 -8 0
v -2 -8 0
v -2 -7 0
v -1 -7 0
v -2 -8 0
v -3 -8 0
v -3 -7 0
v -2 -7 0
v -3 -8 0
v -4 -8 0
v -4 -7 0
v -3 -7 0
v -4 -8 0
v -5 -8 0
v -5 -7 0
v -4 -7 0
v -5 -8 0
v -6 -8 0
v -6 -7 0
v -5 -7 0
v -6 -8 0
v -7 -8 0
v -7 -7 0
v -6 -7 0
v -7 -8 0
v -8 -8 0
v -8 -7 0
v -7 -7 0
v -8 -8 0
v -9 -8 0
v -9 -7 0
v -8 -7 0
v -9 -8 0
v -10 -8 0
v -10 -7 0
v -9 -7 0
v -10 -8 0
v -11 -8 0
v -11 -7 0
v -10 -7 0
v -11 -8 0
v -12 -8 0
v -12 -7 0
v -11 -7 0
v -12 -8 0
v -13 -8 0
v -13 -7 0
v -12 -7 0
v -13 -8 0
v -14 -8 0
v -14 -7 0
v -13 -7 0
v -14 -8 0
v -15 -8 0
v -15 -7 0
v -14 -7 0
v -15 -8 0
v -16 -8 0
v -16 -7 0
v -15 -7 0
v 0 -9 0
v -1 -9 0
v -1 -8 0
v 0 -8 0
v -1 -9 0
v -2 -9 0
v -2 -8 0
v -1 -8 0
v -2 -9 0
v -3 -9 0
v -3 -8 0
v -2 -8 0
v -3 -9 0
v -4 -9 0
v -4 -8 0
v -3 -8 0
v -4 -9 0
v -5 -9 0
v -5 -8 0
v -4 -8 0
v -5 -9 0
v -6 -9 0
v -6 -8 0
v -5 -8 0
v -6 -9 0
v -7 -9 0
v -7 -8 0
v -6 -8 0
v -7 -9 0
v -8 -9 0
v -8 -8 0
v -7 -8 0
v -8 -9 0
v -9 -9 0
v -9 -8 0
v -8 -8 0
v -9 -9 0
v -10 -9 0
v -10 -8 0
v -9 -8 0
v -10 -9 0
v -11 -9 0
v -11 -8 0
v -10 -8 0
v -11 -9 0
v -12 -9 0
v -12 -8 0
v -11 -8 0
v -12 -9 0
v -13 -9 0
v -13 -8 0
v -12 -8 0
v -13 -9 0
v -14 -9 0
v -14 -8 0
v -13 -8 0
v -14 -9 0
v -15 -9 0
v -15 -8 0
v -14 -8 0
v -15 -9 0
v -16 -9 0
v -16 -8 0
v -15 -8 0
v 0 -10 0
v -1 -10 0
v -1 -9 0
v 0 -9 0
v -1 -10 0
v -2 -10 0
v -2 -9 0
v -1 -9 0
v -2 -10 0
v -3 -10 0
v -3 -9 0
v -2 -9 0
v -3 -10 0
v -4 -10 0
v -4 -9 0
v -3 -9 0
v -4 -10 0
v -5 -10 0
v -5 -9 0
v -4 -9 0
v -5 -10 0
v -6 -10 0
v -6 -9 0
v -5 -9 0
v -6 -10 0
v -7 -10 0
v -7 -9 0
v -6 -9 0
v -7 -10 0
v -8 -10 0
v -8 -9 0
v -7 -9 0
v -8 -10 0
v -9 -10 0
v -9 -9 0
v -8 -9 0
v -9 -10 0
v -10 -10 0
v -10 -9 0
v -9 -9 0
v -10 -10 0
v -11 -10 0
v -11 -9 0
v -10 -9 0
v -11 -10 0
v -12 -10 0
v -12 -9 0
v -11 -9 0
v -12 -10 0
v -13 -10 0
v -13 -9 0
v -12 -9 0
v -13 -10 0
v -14 -10 0
v -14 -9 0
v -13 -9 0
v -14 -10 0
v -15 -10 0
v -15 -9 0
v -14 -9 0
v -15 -10 0
v -16 -10 0
v -16 -9 0
v -15 -9 0
v 0 -11 0
v -1 -11 0
v -1 -10 0
v 0 -10 0
v -1 -11 0
v -2 -11 0
v -2 -10 0
v -1 -10 0
v -2 -11 0
v -3 -11 0
v -3 -10 0
v -2 -10 0
v -3 -11 0
v -4 -11 0
v -4 -10 0
v -3 -10 0
v -4 -11 0
v -5 -11 0
v -5 -10 0
v -4 -10 0
v -5 -11 0
v -6 -11 0
v -6 -10 0
v -5 -10 0
v -6 -11 0
v -7 -11 0
v -7 -10 0
v -6 -10 0
v -7 -11 0
v -8 -11 0
v -8 -10 0
v -7 -10 0
v -8 -11 0
v -9 -11 0
v -9 -10 0
v -8 -10 0
v -9 -11 0
v -10 -11 0
v -10 -10 0
v -9 -10 0
v -10 -11 0
v -11 -11 0
v -11 -10 0
v -10 -10 0
v -11 -11 0
v -12 -11 0
v -12 -10 0
v -11 -10 0
v -12 -11 0
v -13 -11 0
v -13 -10 0
v -12 -10 0
v -13 -11 0
v -14 -11 0
v -14 -10 0
v -13 -10 0
v -14 -11 0
v -15 -11 0
v -15 -10 0
v -14 -10 0
v -15 -11 0
v -16 -11 0
v -16 -10 0
v -15 -10 0
v 0 -12 0
v -1 -12 0
v -1 -11 0
v 0 -11 0
v -1 -12 0
v -2 -12 0
v -2 -11 0
v -1 -11 0
v -2 -12 0
v -3 -12 0
v -3 -11 0
v -2 -11 0
v -3 -12 0
v -4 -12 0
v -4 -11 0
v -3 -11 0
v -4 -12 0
v -5 -12 0
v -5 -11 0
v -4 -11 0
v -5 -12 0
v -6 -12 0
v -6 -11 0
v -5 -11 0
v -6 -12 0
v -7 -12 0
v -7 -11 0
v -6 -11 0
v -7 -12 0
v -8 -12 0
v -8 -11 0
v -7 -11 0
v -8 -12 0
v -9 -12 0
v -9 -11 0
v -8 -11 0
v -9 -12 0
v -10 -12 0
v -10 -11 0
v -9 -11 0
v -10 -12 0
v -11 -12 0
v -11 -11 0
v -10 -11 0
v -11 -12 0
v -12 -12 0
v -12 -11 0
v -11 -11 0
v -12 -12 0
v -13 -12 0
v -13 -11 0
v -12 -11 0
v -13 -12 0
v -14 -12 0
v -14 -11 0
v -13 -11 0
v -14 -12 0
v -15 -12 0
v -15 -11 0
v -14 -11 0
v -15 -12 0
v -16 -12 0
v -16 -11 0
v -15 -11 0
v 0 -13 0
v -1 -13 0
v -1 -12 0
v 0 -12 0
v -1 -13 0
v -2 -13 0
v -2 -12 0
v -1 -12 0
v -2 -13 0
v -3 -13 0
v -3 -12 0
v -2 -12 0
v -3 -13 0
v -4 -13 0
v -4 -12 0
v -3 -12 0
v -4 -13 0
v -5 -13 0
v -5 -12 0
v -4 -12 0
v -5 -13 0
v -6 -13 0
v -6 -12 0
v -5 -12 0
v -6 -13 0
v -7 -13 0
v -7 -12 0
v -6 -12 0
v -7 -13 0
v -8 -13 0
v -8 -12 0
v -7 -12 0
v -8 -13 0
v -9 -13 0
v -9 -12 0
v -8 -12 0
v -9 -13 0
v -10 -13 0
v -10 -12 0
v -9 -12 0
v -10 -13 0
v -11 -13 0
v -11 -12 0
v -10 -12 0
v -11 -13 0
v -12 -13 0
v -12 -12 0
v -11 -12 0
v -12 -13 0
v -13 -13 0
v -13 -12 0
v -12 -12 0
v -13 -13 0
v -14 -13 0
v -14 -12 0
v -13 -12 0
v -14 -13 0
v -15 -13 0
v -15 -12 0
v -14 -12 0
v -15 -13 0
v -16 -13 0
v -16 -12 0
v -15 -12 0
v 0 -14 0
v -1 -14 0
v -1 -13 0
v 0 -13 0
v -1 -14 0
v -2 -14 0
v -2 -13 0
v -1 -13 0
v -2 -14 0
v -3 -14 0
v -3 -13 0
v -2 -13 0
v -3 -14 0
v -4 -14 0
v -4 -13 0
v -3 -13 0
v -4 -14 0
v -5 -14 0
v -5 -13 0
v -4 -13 0
v -5 -14 0
v -6 -14 0
v -6 -13 0
v -5 -13 0
v -6 -14 0
v -7 -14 0
v -7 -13 0
v -6 -13 0
v -7 -14 0
v -8 -14 0
v -8 -13 0
v -7 -13 0
v -8 -14 0
v -9 -14 0
v -9 -13 0
v -8 -13 0
v -9 -14 0
v -10 -14 0
v -10 -13 0
v -9 -13 0
v -10 -14 0
v -11 -14 0
v -11 -13 0
v -10 -13 0
v -11 -14 0
v -12 -14 0
v -12 -13 0
v -11 -13 0
v -12 -14 0
v -13 -14 0
v -13 -13 0
v -12 -13 0
v -13 -14 0
v -14 -14 0
v -14 -13 0
v -13 -13 0
v -14 -14 0
v -15 -14 0
v -15 -13 0
v -14 -13 0
v -15 -14 0
v -16 -14 0
v -16 -13 0
v -15 -13 0
v 0 -15 0
v -1 -15 0
v -1 -14 0
v 0 -14 0
v -1 -15 0
v -2 -15 0
v -2 -14 0
v -1 -14 0
v -2 -15 0
v -3 -15 0
v -3 -14 0
v -2 -14 0
v -3 -15 0
v -4 -15 0
v -4 -14 0
v -3 -14 0
v -4 -15 0
v -5 -15 0
v -5 -14 0
v -4 -14 0
v -5 -15 0
v -6 -15 0
v -6 -14 0
v -5 -14 0
v -6 -15 0
v -7 -15 0
v -7 -14 0
v -6 -14 0
v -7 -15 0
v -8 -15 0
v -8 -14 0
v -7 -14 0
v -8 -15 0
v -9 -15 0
v -9 -14 0
v -8 -14 0
v -9 -15 0
v -10 -15 0
v -10 -14 0
v -9 -14 0
v -10 -15 0
v -11 -15 0
v -11 -14 0
v -10 -14 0
v -11 -15 0
v -12 -15 0
v -12 -14 0
v -11 -14 0
v -12 -15 0
v -13 -15 0
v -13 -14 0
v -12 -14 0
v -13 -15 0
v -14 -15 0
v -14 -14 0
v -13 -14 0
v -14 -15 0
v -15 -15 0
v -15 -14 0
v -14 -14 0
v -15 -15 0
v -16 -15 0
v -16 -14 0
v -15 -14 0
v 0 -16 0
v -1 -16 0
v -1 -15 0
v 0 -15 0
v -1 -16 0
v -2 -16 0
v -2 -15 0
v -1 -15 0
v -2 -16 0
v -3 -16 0
v -3 -15 0
v -2 -15 0
v -3 -16 0
v -4 -16 0
v -4 -15 0
v -3 -15 0
v -4 -16 0
v -5 -16 0
v -5 -15 0
v -4 -15 0
v -5 -16 0
v -6 -16 0
v -6 -15 0
v -5 -15 0
v -6 -16 0
v -7 -16 0
v -7 -15 0
v -6 -15 0
v -7 -16 0
v -8 -16 0
v -8 -15 0
v -7 -15 0
v -8 -16 0
v -9 -16 0
v -9 -15 0
v -8 -15 0
v -9 -16 0
v -10 -16 0
v -10 -15 0
v -9 -15 0
v -10 -16 0
v -11 -16 0
v -11 -15 0
v -10 -15 0
v -11 -16 0
v -12 -16 0
v -12 -15 0
v -11 -15 0
v -12 -16 0
v -13 -16 0
v -13 -15 0
v -12 -15 0
v -13 -16 0
v -14 -16 0
v -14 -15 0
v -13 -15 0
v -14 -16 0
v -15 -16 0
v -15 -15 0
v -14 -15 0
v -15 -16 0
v -16 -16 0
v -16 -15 0
v -15 -15 0

# Texture cooridinates (Count = 14)
vt 0.9545454 0.7222222
vt 1 0.7222222
vt 1 0.7777778
vt 0.9545454 0.7777778
vt 0.2272727 0.1666667
vt 0.2727273 0.1666667
vt 0.2727273 0.2222222
vt 0.2272727 0.2222222
vt 0.9545454 0.6111111
vt 1 0.6111111
vt 1 0.6666666
vt 0.9545454 0.6666666
vt 0.9545454 0.5555556
vt 1 0.5555556

# Normal
vn 0 0 -1

# Mesh description
g pueblo_mesh_0022

# Faces
f 1/1/1 2/2/1 3/3/1 4/4/1
f 5/1/1 6/2/1 7/3/1 8/4/1
f 9/1/1 10/2/1 11/3/1 12/4/1
f 13/1/1 14/2/1 15/3/1 16/4/1
f 17/1/1 18/2/1 19/3/1 20/4/1
f 21/1/1 22/2/1 23/3/1 24/4/1
f 25/1/1 26/2/1 27/3/1 28/4/1
f 29/1/1 30/2/1 31/3/1 32/4/1
f 33/1/1 34/2/1 35/3/1 36/4/1
f 37/1/1 38/2/1 39/3/1 40/4/1
f 41/1/1 42/2/1 43/3/1 44/4/1
f 45/5/1 46/6/1 47/7/1 48/8/1
f 49/1/1 50/2/1 51/3/1 52/4/1
f 53/1/1 54/2/1 55/3/1 56/4/1
f 57/1/1 58/2/1 59/3/1 60/4/1
f 61/9/1 62/10/1 63/11/1 64/12/1
f 65/12/1 66/11/1 67/2/1 68/1/1
f 69/12/1 70/11/1 71/2/1 72/1/1
f 73/12/1 74/11/1 75/2/1 76/1/1
f 77/12/1 78/11/1 79/2/1 80/1/1
f 81/12/1 82/11/1 83/2/1 84/1/1
f 85/12/1 86/11/1 87/2/1 88/1/1
f 89/12/1 90/11/1 91/2/1 92/1/1
f 93/12/1 94/11/1 95/2/1 96/1/1
f 97/12/1 98/11/1 99/2/1 100/1/1
f 101/12/1 102/11/1 103/2/1 104/1/1
f 105/12/1 106/11/1 107/2/1 108/1/1
f 109/5/1 110/6/1 111/7/1 112/8/1
f 113/12/1 114/11/1 115/2/1 116/1/1
f 117/12/1 118/11/1 119/2/1 120/1/1
f 121/12/1 122/11/1 123/2/1 124/1/1
f 125/9/1 126/10/1 127/11/1 128/12/1
f 129/9/1 130/10/1 131/11/1 132/12/1
f 133/9/1 134/10/1 135/11/1 136/12/1
f 137/9/1 138/10/1 139/11/1 140/12/1
f 141/9/1 142/10/1 143/11/1 144/12/1
f 145/9/1 146/10/1 147/11/1 148/12/1
f 149/9/1 150/10/1 151/11/1 152/12/1
f 153/9/1 154/10/1 155/11/1 156/12/1
f 157/9/1 158/10/1 159/11/1 160/12/1
f 161/9/1 162/10/1 163/11/1 164/12/1
f 165/9/1 166/10/1 167/11/1 168/12/1
f 169/9/1 170/10/1 171/11/1 172/12/1
f 173/5/1 174/6/1 175/7/1 176/8/1
f 177/9/1 178/10/1 179/11/1 180/12/1
f 181/9/1 182/10/1 183/11/1 184/12/1
f 185/9/1 186/10/1 187/11/1 188/12/1
f 189/9/1 190/10/1 191/11/1 192/12/1
f 193/13/1 194/14/1 195/10/1 196/9/1
f 197/13/1 198/14/1 199/10/1 200/9/1
f 201/13/1 202/14/1 203/10/1 204/9/1
f 205/13/1 206/14/1 207/10/1 208/9/1
f 209/13/1 210/14/1 211/10/1 212/9/1
f 213/13/1 214/14/1 215/10/1 216/9/1
f 217/13/1 218/14/1 219/10/1 220/9/1
f 221/13/1 222/14/1 223/10/1 224/9/1
f 225/13/1 226/14/1 227/10/1 228/9/1
f 229/13/1 230/14/1 231/10/1 232/9/1
f 233/13/1 234/14/1 235/10/1 236/9/1
f 237/5/1 238/6/1 239/7/1 240/8/1
f 241/13/1 242/14/1 243/10/1 244/9/1
f 245/13/1 246/14/1 247/10/1 248/9/1
f 249/13/1 250/14/1 251/10/1 252/9/1
f 253/13/1 254/14/1 255/10/1 256/9/1
f 257/1/1 258/2/1 259/3/1 260/4/1
f 261/1/1 262/2/1 263/3/1 264/4/1
f 265/1/1 266/2/1 267/3/1 268/4/1
f 269/1/1 270/2/1 271/3/1 272/4/1
f 273/1/1 274/2/1 275/3/1 276/4/1
f 277/1/1 278/2/1 279/3/1 280/4/1
f 281/1/1 282/2/1 283/3/1 284/4/1
f 285/1/1 286/2/1 287/3/1 288/4/1
f 289/1/1 290/2/1 291/3/1 292/4/1
f 293/1/1 294/2/1 295/3/1 296/4/1
f 297/1/1 298/2/1 299/3/1 300/4/1
f 301/5/1 302/6/1 303/7/1 304/8/1
f 305/1/1 306/2/1 307/3/1 308/4/1
f 309/1/1 310/2/1 311/3/1 312/4/1
f 313/1/1 314/2/1 315/3/1 316/4/1
f 317/1/1 318/2/1 319/3/1 320/4/1
f 321/12/1 322/11/1 323/2/1 324/1/1
f 325/12/1 326/11/1 327/2/1 328/1/1
f 329/12/1 330/11/1 331/2/1 332/1/1
f 333/12/1 334/11/1 335/2/1 336/1/1
f 337/12/1 338/11/1 339/2/1 340/1/1
f 341/12/1 342/11/1 343/2/1 344/1/1
f 345/12/1 346/11/1 347/2/1 348/1/1
f 349/12/1 350/11/1 351/2/1 352/1/1
f 353/12/1 354/11/1 355/2/1 356/1/1
f 357/12/1 358/11/1 359/2/1 360/1/1
f 361/12/1 362/11/1 363/2/1 364/1/1
f 365/5/1 366/6/1 367/7/1 368/8/1
f 369/12/1 370/11/1 371/2/1 372/1/1
f 373/12/1 374/11/1 375/2/1 376/1/1
f 377/12/1 378/11/1 379/2/1 380/1/1
f 381/12/1 382/11/1 383/2/1 384/1/1
f 385/9/1 386/10/1 387/11/1 388/12/1
f 389/9/1 390/10/1 391/11/1 392/12/1
f 393/9/1 394/10/1 395/11/1 396/12/1
f 397/9/1 398/10/1 399/11/1 400/12/1
f 401/9/1 402/10/1 403/11/1 404/12/1
f 405/9/1 406/10/1 407/11/1 408/12/1
f 409/9/1 410/10/1 411/11/1 412/12/1
f 413/9/1 414/10/1 415/11/1 416/12/1
f 417/9/1 418/10/1 419/11/1 420/12/1
f 421/9/1 422/10/1 423/11/1 424/12/1
f 425/9/1 426/10/1 427/11/1 428/12/1
f 429/5/1 430/6/1 431/7/1 432/8/1
f 433/9/1 434/10/1 435/11/1 436/12/1
f 437/9/1 438/10/1 439/11/1 440/12/1
f 441/9/1 442/10/1 443/11/1 444/12/1
f 445/9/1 446/10/1 447/11/1 448/12/1
f 449/13/1 450/14/1 451/10/1 452/9/1
f 453/13/1 454/14/1 455/10/1 456/9/1
f 457/13/1 458/14/1 459/10/1 460/9/1
f 461/13/1 462/14/1 463/10/1 464/9/1
f 465/13/1 466/14/1 467/10/1 468/9/1
f 469/13/1 470/14/1 471/10/1 472/9/1
f 473/13/1 474/14/1 475/10/1 476/9/1
f 477/13/1 478/14/1 479/10/1 480/9/1
f 481/13/1 482/14/1 483/10/1 484/9/1
f 485/13/1 486/14/1 487/10/1 488/9/1
f 489/13/1 490/14/1 491/10/1 492/9/1
f 493/5/1 494/6/1 495/7/1 496/8/1
f 497/13/1 498/14/1 499/10/1 500/9/1
f 501/13/1 502/14/1 503/10/1 504/9/1
f 505/13/1 506/14/1 507/10/1 508/9/1
f 509/13/1 510/14/1 511/10/1 512/9/1
f 513/1/1 514/2/1 515/3/1 516/4/1
f 517/1/1 518/2/1 519/3/1 520/4/1
f 521/1/1 522/2/1 523/3/1 524/4/1
f 525/1/1 526/2/1 527/3/1 528/4/1
f 529/1/1 530/2/1 531/3/1 532/4/1
f 533/1/1 534/2/1 535/3/1 536/4/1
f 537/1/1 538/2/1 539/3/1 540/4/1
f 541/1/1 542/2/1 543/3/1 544/4/1
f 545/1/1 546/2/1 547/3/1 548/4/1
f 549/1/1 550/2/1 551/3/1 552/4/1
f 553/1/1 554/2/1 555/3/1 556/4/1
f 557/5/1 558/6/1 559/7/1 560/8/1
f 561/1/1 562/2/1 563/3/1 564/4/1
f 565/1/1 566/2/1 567/3/1 568/4/1
f 569/1/1 570/2/1 571/3/1 572/4/1
f 573/1/1 574/2/1 575/3/1 576/4/1
f 577/12/1 578/11/1 579/2/1 580/1/1
f 581/12/1 582/11/1 583/2/1 584/1/1
f 585/12/1 586/11/1 587/2/1 588/1/1
f 589/12/1 590/11/1 591/2/1 592/1/1
f 593/12/1 594/11/1 595/2/1 596/1/1
f 597/12/1 598/11/1 599/2/1 600/1/1
f 601/12/1 602/11/1 603/2/1 604/1/1
f 605/12/1 606/11/1 607/2/1 608/1/1
f 609/12/1 610/11/1 611/2/1 612/1/1
f 613/12/1 614/11/1 615/2/1 616/1/1
f 617/12/1 618/11/1 619/2/1 620/1/1
f 621/5/1 622/6/1 623/7/1 624/8/1
f 625/12/1 626/11/1 627/2/1 628/1/1
f 629/12/1 630/11/1 631/2/1 632/1/1
f 633/12/1 634/11/1 635/2/1 636/1/1
f 637/12/1 638/11/1 639/2/1 640/1/1
f 641/9/1 642/10/1 643/11/1 644/12/1
f 645/9/1 646/10/1 647/11/1 648/12/1
f 649/9/1 650/10/1 651/11/1 652/12/1
f 653/9/1 654/10/1 655/11/1 656/12/1
f 657/9/1 658/10/1 659/11/1 660/12/1
f 661/9/1 662/10/1 663/11/1 664/12/1
f 665/9/1 666/10/1 667/11/1 668/12/1
f 669/9/1 670/10/1 671/11/1 672/12/1
f 673/9/1 674/10/1 675/11/1 676/12/1
f 677/9/1 678/10/1 679/11/1 680/12/1
f 681/9/1 682/10/1 683/11/1 684/12/1
f 685/5/1 686/6/1 687/7/1 688/8/1
f 689/9/1 690/10/1 691/11/1 692/12/1
f 693/9/1 694/10/1 695/11/1 696/12/1
f 697/9/1 698/10/1 699/11/1 700/12/1
f 701/9/1 702/10/1 703/11/1 704/12/1
f 705/13/1 706/14/1 707/10/1 708/9/1
f 709/13/1 710/14/1 711/10/1 712/9/1
f 713/13/1 714/14/1 715/10/1 716/9/1
f 717/13/1 718/14/1 719/10/1 720/9/1
f 721/13/1 722/14/1 723/10/1 724/9/1
f 725/13/1 726/14/1 727/10/1 728/9/1
f 729/13/1 730/14/1 731/10/1 732/9/1
f 733/13/1 734/14/1 735/10/1 736/9/1
f 737/13/1 738/14/1 739/10/1 740/9/1
f 741/13/1 742/14/1 743/10/1 744/9/1
f 745/13/1 746/14/1 747/10/1 748/9/1
f 749/5/1 750/6/1 751/7/1 752/8/1
f 753/13/1 754/14/1 755/10/1 756/9/1
f 757/13/1 758/14/1 759/10/1 760/9/1
f 761/13/1 762/14/1 763/10/1 764/9/1
f 765/13/1 766/14/1 767/10/1 768/9/1
f 769/1/1 770/2/1 771/3/1 772/4/1
f 773/1/1 774/2/1 775/3/1 776/4/1
f 777/1/1 778/2/1 779/3/1 780/4/1
f 781/1/1 782/2/1 783/3/1 784/4/1
f 785/1/1 786/2/1 787/3/1 788/4/1
f 789/1/1 790/2/1 791/3/1 792/4/1
f 793/1/1 794/2/1 795/3/1 796/4/1
f 797/1/1 798/2/1 799/3/1 800/4/1
f 801/1/1 802/2/1 803/3/1 804/4/1
f 805/1/1 806/2/1 807/3/1 808/4/1
f 809/1/1 810/2/1 811/3/1 812/4/1
f 813/5/1 814/6/1 815/7/1 816/8/1
f 817/1/1 818/2/1 819/3/1 820/4/1
f 821/1/1 822/2/1 823/3/1 824/4/1
f 825/1/1 826/2/1 827/3/1 828/4/1
f 829/1/1 830/2/1 831/3/1 832/4/1
f 833/12/1 834/11/1 835/2/1 836/1/1
f 837/12/1 838/11/1 839/2/1 840/1/1
f 841/12/1 842/11/1 843/2/1 844/1/1
f 845/12/1 846/11/1 847/2/1 848/1/1
f 849/12/1 850/11/1 851/2/1 852/1/1
f 853/12/1 854/11/1 855/2/1 856/1/1
f 857/12/1 858/11/1 859/2/1 860/1/1
f 861/12/1 862/11/1 863/2/1 864/1/1
f 865/12/1 866/11/1 867/2/1 868/1/1
f 869/12/1 870/11/1 871/2/1 872/1/1
f 873/12/1 874/11/1 875/2/1 876/1/1
f 877/5/1 878/6/1 879/7/1 880/8/1
f 881/12/1 882/11/1 883/2/1 884/1/1
f 885/12/1 886/11/1 887/2/1 888/1/1
f 889/12/1 890/11/1 891/2/1 892/1/1
f 893/12/1 894/11/1 895/2/1 896/1/1
f 897/9/1 898/10/1 899/11/1 900/12/1
f 901/9/1 902/10/1 903/11/1 904/12/1
f 905/9/1 906/10/1 907/11/1 908/12/1
f 909/9/1 910/10/1 911/11/1 912/12/1
f 913/9/1 914/10/1 915/11/1 916/12/1
f 917/9/1 918/10/1 919/11/1 920/12/1
f 921/9/1 922/10/1 923/11/1 924/12/1
f 925/9/1 926/10/1 927/11/1 928/12/1
f 929/9/1 930/10/1 931/11/1 932/12/1
f 933/9/1 934/10/1 935/11/1 936/12/1
f 937/9/1 938/10/1 939/11/1 940/12/1
f 941/5/1 942/6/1 943/7/1 944/8/1
f 945/9/1 946/10/1 947/11/1 948/12/1
f 949/9/1 950/10/1 951/11/1 952/12/1
f 953/9/1 954/10/1 955/11/1 956/12/1
f 957/9/1 958/10/1 959/11/1 960/12/1
f 961/13/1 962/14/1 963/10/1 964/9/1
f 965/13/1 966/14/1 967/10/1 968/9/1
f 969/13/1 970/14/1 971/10/1 972/9/1
f 973/13/1 974/14/1 975/10/1 976/9/1
f 977/13/1 978/14/1 979/10/1 980/9/1
f 981/13/1 982/14/1 983/10/1 984/9/1
f 985/13/1 986/14/1 987/10/1 988/9/1
f 989/13/1 990/14/1 991/10/1 992/9/1
f 993/13/1 994/14/1 995/10/1 996/9/1
f 997/13/1 998/14/1 999/10/1 1000/9/1
f 1001/13/1 1002/14/1 1003/10/1 1004/9/1
f 1005/5/1 1006/6/1 1007/7/1 1008/8/1
f 1009/13/1 1010/14/1 1011/10/1 1012/9/1
f 1013/13/1 1014/14/1 1015/10/1 1016/9/1
f 1017/13/1 1018/14/1 1019/10/1 1020/9/1
f 1021/13/1 1022/14/1 1023/10/1 1024/9/1

