# Tiled2Unity generated file. Do not modify by hand.
# Wavefront file for 'pueblo_mesh_0069.obj'

# Vertices (Count = 388)
v 0 -3 0
v -1 -3 0
v -1 -2 0
v 0 -2 0
v -1 -3 0
v -2 -3 0
v -2 -2 0
v -1 -2 0
v 0 -4 0
v -1 -4 0
v -1 -3 0
v 0 -3 0
v -1 -4 0
v -2 -4 0
v -2 -3 0
v -1 -3 0
v 0 -5 0
v -1 -5 0
v -1 -4 0
v 0 -4 0
v -1 -5 0
v -2 -5 0
v -2 -4 0
v -1 -4 0
v 0 -6 0
v -1 -6 0
v -1 -5 0
v 0 -5 0
v -1 -6 0
v -2 -6 0
v -2 -5 0
v -1 -5 0
v -9 -6 0
v -10 -6 0
v -10 -5 0
v -9 -5 0
v -10 -6 0
v -11 -6 0
v -11 -5 0
v -10 -5 0
v -11 -6 0
v -12 -6 0
v -12 -5 0
v -11 -5 0
v -12 -6 0
v -13 -6 0
v -13 -5 0
v -12 -5 0
v -13 -6 0
v -14 -6 0
v -14 -5 0
v -13 -5 0
v 0 -7 0
v -1 -7 0
v -1 -6 0
v 0 -6 0
v -1 -7 0
v -2 -7 0
v -2 -6 0
v -1 -6 0
v -9 -7 0
v -10 -7 0
v -10 -6 0
v -9 -6 0
v -10 -7 0
v -11 -7 0
v -11 -6 0
v -10 -6 0
v -11 -7 0
v -12 -7 0
v -12 -6 0
v -11 -6 0
v -12 -7 0
v -13 -7 0
v -13 -6 0
v -12 -6 0
v -13 -7 0
v -14 -7 0
v -14 -6 0
v -13 -6 0
v -14 -7 0
v -15 -7 0
v -15 -6 0
v -14 -6 0
v -15 -7 0
v -16 -7 0
v -16 -6 0
v -15 -6 0
v 0 -8 0
v -1 -8 0
v -1 -7 0
v 0 -7 0
v -1 -8 0
v -2 -8 0
v -2 -7 0
v -1 -7 0
v -9 -8 0
v -10 -8 0
v -10 -7 0
v -9 -7 0
v -10 -8 0
v -11 -8 0
v -11 -7 0
v -10 -7 0
v -11 -8 0
v -12 -8 0
v -12 -7 0
v -11 -7 0
v -12 -8 0
v -13 -8 0
v -13 -7 0
v -12 -7 0
v -13 -8 0
v -14 -8 0
v -14 -7 0
v -13 -7 0
v -14 -8 0
v -15 -8 0
v -15 -7 0
v -14 -7 0
v -15 -8 0
v -16 -8 0
v -16 -7 0
v -15 -7 0
v 0 -9 0
v -1 -9 0
v -1 -8 0
v 0 -8 0
v -1 -9 0
v -2 -9 0
v -2 -8 0
v -1 -8 0
v -9 -9 0
v -10 -9 0
v -10 -8 0
v -9 -8 0
v -10 -9 0
v -11 -9 0
v -11 -8 0
v -10 -8 0
v -11 -9 0
v -12 -9 0
v -12 -8 0
v -11 -8 0
v -12 -9 0
v -13 -9 0
v -13 -8 0
v -12 -8 0
v -13 -9 0
v -14 -9 0
v -14 -8 0
v -13 -8 0
v -14 -9 0
v -15 -9 0
v -15 -8 0
v -14 -8 0
v -15 -9 0
v -16 -9 0
v -16 -8 0
v -15 -8 0
v -9 -10 0
v -10 -10 0
v -10 -9 0
v -9 -9 0
v -10 -10 0
v -11 -10 0
v -11 -9 0
v -10 -9 0
v -11 -10 0
v -12 -10 0
v -12 -9 0
v -11 -9 0
v -12 -10 0
v -13 -10 0
v -13 -9 0
v -12 -9 0
v -13 -10 0
v -14 -10 0
v -14 -9 0
v -13 -9 0
v -14 -10 0
v -15 -10 0
v -15 -9 0
v -14 -9 0
v -15 -10 0
v -16 -10 0
v -16 -9 0
v -15 -9 0
v 0 -11 0
v -1 -11 0
v -1 -10 0
v 0 -10 0
v -1 -11 0
v -2 -11 0
v -2 -10 0
v -1 -10 0
v -9 -11 0
v -10 -11 0
v -10 -10 0
v -9 -10 0
v -10 -11 0
v -11 -11 0
v -11 -10 0
v -10 -10 0
v -11 -11 0
v -12 -11 0
v -12 -10 0
v -11 -10 0
v -12 -11 0
v -13 -11 0
v -13 -10 0
v -12 -10 0
v -13 -11 0
v -14 -11 0
v -14 -10 0
v -13 -10 0
v -14 -11 0
v -15 -11 0
v -15 -10 0
v -14 -10 0
v -15 -11 0
v -16 -11 0
v -16 -10 0
v -15 -10 0
v 0 -12 0
v -1 -12 0
v -1 -11 0
v 0 -11 0
v -1 -12 0
v -2 -12 0
v -2 -11 0
v -1 -11 0
v -7 -12 0
v -8 -12 0
v -8 -11 0
v -7 -11 0
v -8 -12 0
v -9 -12 0
v -9 -11 0
v -8 -11 0
v -9 -12 0
v -10 -12 0
v -10 -11 0
v -9 -11 0
v -10 -12 0
v -11 -12 0
v -11 -11 0
v -10 -11 0
v -11 -12 0
v -12 -12 0
v -12 -11 0
v -11 -11 0
v -12 -12 0
v -13 -12 0
v -13 -11 0
v -12 -11 0
v -13 -12 0
v -14 -12 0
v -14 -11 0
v -13 -11 0
v -14 -12 0
v -15 -12 0
v -15 -11 0
v -14 -11 0
v -15 -12 0
v -16 -12 0
v -16 -11 0
v -15 -11 0
v 0 -13 0
v -1 -13 0
v -1 -12 0
v 0 -12 0
v -1 -13 0
v -2 -13 0
v -2 -12 0
v -1 -12 0
v -7 -13 0
v -8 -13 0
v -8 -12 0
v -7 -12 0
v -8 -13 0
v -9 -13 0
v -9 -12 0
v -8 -12 0
v -9 -13 0
v -10 -13 0
v -10 -12 0
v -9 -12 0
v -10 -13 0
v -11 -13 0
v -11 -12 0
v -10 -12 0
v -11 -13 0
v -12 -13 0
v -12 -12 0
v -11 -12 0
v -14 -13 0
v -15 -13 0
v -15 -12 0
v -14 -12 0
v -15 -13 0
v -16 -13 0
v -16 -12 0
v -15 -12 0
v 0 -14 0
v -1 -14 0
v -1 -13 0
v 0 -13 0
v -1 -14 0
v -2 -14 0
v -2 -13 0
v -1 -13 0
v -7 -14 0
v -8 -14 0
v -8 -13 0
v -7 -13 0
v -8 -14 0
v -9 -14 0
v -9 -13 0
v -8 -13 0
v -9 -14 0
v -10 -14 0
v -10 -13 0
v -9 -13 0
v -10 -14 0
v -11 -14 0
v -11 -13 0
v -10 -13 0
v -11 -14 0
v -12 -14 0
v -12 -13 0
v -11 -13 0
v 0 -15 0
v -1 -15 0
v -1 -14 0
v 0 -14 0
v -1 -15 0
v -2 -15 0
v -2 -14 0
v -1 -14 0
v -7 -15 0
v -8 -15 0
v -8 -14 0
v -7 -14 0
v -8 -15 0
v -9 -15 0
v -9 -14 0
v -8 -14 0
v -9 -15 0
v -10 -15 0
v -10 -14 0
v -9 -14 0
v -10 -15 0
v -11 -15 0
v -11 -14 0
v -10 -14 0
v -11 -15 0
v -12 -15 0
v -12 -14 0
v -11 -14 0
v 0 -16 0
v -1 -16 0
v -1 -15 0
v 0 -15 0
v -1 -16 0
v -2 -16 0
v -2 -15 0
v -1 -15 0
v -7 -16 0
v -8 -16 0
v -8 -15 0
v -7 -15 0
v -8 -16 0
v -9 -16 0
v -9 -15 0
v -8 -15 0
v -9 -16 0
v -10 -16 0
v -10 -15 0
v -9 -15 0
v -10 -16 0
v -11 -16 0
v -11 -15 0
v -10 -15 0
v -11 -16 0
v -12 -16 0
v -12 -15 0
v -11 -15 0

# Texture cooridinates (Count = 48)
vt 0.3181818 0.8888889
vt 0.3636364 0.8888889
vt 0.3636364 0.9444444
vt 0.3181818 0.9444444
vt 0.4090909 0.8888889
vt 0.4090909 0.9444444
vt 0.3181818 0.8333333
vt 0.3636364 0.8333333
vt 0.4090909 0.8333333
vt 0.3181818 0.7777778
vt 0.3636364 0.7777778
vt 0.4090909 0.7777778
vt 0.3181818 0.7222222
vt 0.3636364 0.7222222
vt 0.4090909 0.7222222
vt 0.1818182 0.8888889
vt 0.2272727 0.8888889
vt 0.2272727 0.9444444
vt 0.1818182 0.9444444
vt 0.2727273 0.8888889
vt 0.2727273 0.9444444
vt 0.3181818 0.6666666
vt 0.3636364 0.6666666
vt 0.4090909 0.6666666
vt 0.1818182 0.8333333
vt 0.2272727 0.8333333
vt 0.2727273 0.8333333
vt 0.3181818 0.6111111
vt 0.3636364 0.6111111
vt 0.4090909 0.6111111
vt 0.1818182 0.7777778
vt 0.2272727 0.7777778
vt 0.2727273 0.7777778
vt 0.3181818 0.5555556
vt 0.3636364 0.5555556
vt 0.4090909 0.5555556
vt 0.1818182 0.7222222
vt 0.2272727 0.7222222
vt 0.2727273 0.7222222
vt 0.1818182 0.6666666
vt 0.2272727 0.6666666
vt 0.2727273 0.6666666
vt 0.1818182 0.6111111
vt 0.2272727 0.6111111
vt 0.2727273 0.6111111
vt 0.1818182 0.5555556
vt 0.2272727 0.5555556
vt 0.2727273 0.5555556

# Normal
vn 0 0 -1

# Mesh description
g pueblo_mesh_0069

# Faces
f 1/1/1 2/2/1 3/3/1 4/4/1
f 5/2/1 6/5/1 7/6/1 8/3/1
f 9/7/1 10/8/1 11/2/1 12/1/1
f 13/8/1 14/9/1 15/5/1 16/2/1
f 17/10/1 18/11/1 19/8/1 20/7/1
f 21/11/1 22/12/1 23/9/1 24/8/1
f 25/13/1 26/14/1 27/11/1 28/10/1
f 29/14/1 30/15/1 31/12/1 32/11/1
f 33/16/1 34/17/1 35/18/1 36/19/1
f 37/17/1 38/20/1 39/21/1 40/18/1
f 41/20/1 42/1/1 43/4/1 44/21/1
f 45/1/1 46/2/1 47/3/1 48/4/1
f 49/2/1 50/5/1 51/6/1 52/3/1
f 53/22/1 54/23/1 55/14/1 56/13/1
f 57/23/1 58/24/1 59/15/1 60/14/1
f 61/25/1 62/26/1 63/17/1 64/16/1
f 65/26/1 66/27/1 67/20/1 68/17/1
f 69/27/1 70/7/1 71/1/1 72/20/1
f 73/7/1 74/8/1 75/2/1 76/1/1
f 77/8/1 78/9/1 79/5/1 80/2/1
f 81/16/1 82/17/1 83/18/1 84/19/1
f 85/17/1 86/20/1 87/21/1 88/18/1
f 89/28/1 90/29/1 91/23/1 92/22/1
f 93/29/1 94/30/1 95/24/1 96/23/1
f 97/31/1 98/32/1 99/26/1 100/25/1
f 101/32/1 102/33/1 103/27/1 104/26/1
f 105/33/1 106/10/1 107/7/1 108/27/1
f 109/10/1 110/11/1 111/8/1 112/7/1
f 113/11/1 114/12/1 115/9/1 116/8/1
f 117/25/1 118/26/1 119/17/1 120/16/1
f 121/26/1 122/27/1 123/20/1 124/17/1
f 125/34/1 126/35/1 127/29/1 128/28/1
f 129/35/1 130/36/1 131/30/1 132/29/1
f 133/37/1 134/38/1 135/32/1 136/31/1
f 137/38/1 138/39/1 139/33/1 140/32/1
f 141/39/1 142/13/1 143/10/1 144/33/1
f 145/13/1 146/14/1 147/11/1 148/10/1
f 149/14/1 150/15/1 151/12/1 152/11/1
f 153/31/1 154/32/1 155/26/1 156/25/1
f 157/32/1 158/33/1 159/27/1 160/26/1
f 161/40/1 162/41/1 163/38/1 164/37/1
f 165/41/1 166/42/1 167/39/1 168/38/1
f 169/42/1 170/22/1 171/13/1 172/39/1
f 173/22/1 174/23/1 175/14/1 176/13/1
f 177/23/1 178/24/1 179/15/1 180/14/1
f 181/37/1 182/38/1 183/32/1 184/31/1
f 185/38/1 186/39/1 187/33/1 188/32/1
f 189/1/1 190/2/1 191/3/1 192/4/1
f 193/2/1 194/5/1 195/6/1 196/3/1
f 197/43/1 198/44/1 199/41/1 200/40/1
f 201/44/1 202/45/1 203/42/1 204/41/1
f 205/45/1 206/28/1 207/22/1 208/42/1
f 209/28/1 210/29/1 211/23/1 212/22/1
f 213/29/1 214/30/1 215/24/1 216/23/1
f 217/40/1 218/41/1 219/38/1 220/37/1
f 221/41/1 222/42/1 223/39/1 224/38/1
f 225/7/1 226/8/1 227/2/1 228/1/1
f 229/8/1 230/9/1 231/5/1 232/2/1
f 233/16/1 234/17/1 235/18/1 236/19/1
f 237/17/1 238/20/1 239/21/1 240/18/1
f 241/46/1 242/47/1 243/44/1 244/43/1
f 245/47/1 246/48/1 247/45/1 248/44/1
f 249/48/1 250/34/1 251/28/1 252/45/1
f 253/34/1 254/35/1 255/29/1 256/28/1
f 257/35/1 258/36/1 259/30/1 260/29/1
f 261/43/1 262/44/1 263/41/1 264/40/1
f 265/44/1 266/45/1 267/42/1 268/41/1
f 269/10/1 270/11/1 271/8/1 272/7/1
f 273/11/1 274/12/1 275/9/1 276/8/1
f 277/25/1 278/26/1 279/17/1 280/16/1
f 281/26/1 282/27/1 283/20/1 284/17/1
f 285/27/1 286/7/1 287/1/1 288/20/1
f 289/7/1 290/8/1 291/2/1 292/1/1
f 293/8/1 294/9/1 295/5/1 296/2/1
f 297/46/1 298/47/1 299/44/1 300/43/1
f 301/47/1 302/48/1 303/45/1 304/44/1
f 305/13/1 306/14/1 307/11/1 308/10/1
f 309/14/1 310/15/1 311/12/1 312/11/1
f 313/31/1 314/32/1 315/26/1 316/25/1
f 317/32/1 318/33/1 319/27/1 320/26/1
f 321/33/1 322/10/1 323/7/1 324/27/1
f 325/10/1 326/11/1 327/8/1 328/7/1
f 329/11/1 330/12/1 331/9/1 332/8/1
f 333/22/1 334/23/1 335/14/1 336/13/1
f 337/23/1 338/24/1 339/15/1 340/14/1
f 341/37/1 342/38/1 343/32/1 344/31/1
f 345/38/1 346/39/1 347/33/1 348/32/1
f 349/39/1 350/13/1 351/10/1 352/33/1
f 353/13/1 354/14/1 355/11/1 356/10/1
f 357/14/1 358/15/1 359/12/1 360/11/1
f 361/28/1 362/29/1 363/23/1 364/22/1
f 365/29/1 366/30/1 367/24/1 368/23/1
f 369/40/1 370/41/1 371/38/1 372/37/1
f 373/41/1 374/42/1 375/39/1 376/38/1
f 377/42/1 378/22/1 379/13/1 380/39/1
f 381/22/1 382/23/1 383/14/1 384/13/1
f 385/23/1 386/24/1 387/15/1 388/14/1

