# Tiled2Unity generated file. Do not modify by hand.
# Wavefront file for 'pueblo_mesh_0036.obj'

# Vertices (Count = 1024)
v 0 -1 0
v -1 -1 0
v -1 0 0
v 0 0 0
v -1 -1 0
v -2 -1 0
v -2 0 0
v -1 0 0
v -2 -1 0
v -3 -1 0
v -3 0 0
v -2 0 0
v -3 -1 0
v -4 -1 0
v -4 0 0
v -3 0 0
v -4 -1 0
v -5 -1 0
v -5 0 0
v -4 0 0
v -5 -1 0
v -6 -1 0
v -6 0 0
v -5 0 0
v -6 -1 0
v -7 -1 0
v -7 0 0
v -6 0 0
v -7 -1 0
v -8 -1 0
v -8 0 0
v -7 0 0
v -8 -1 0
v -9 -1 0
v -9 0 0
v -8 0 0
v -9 -1 0
v -10 -1 0
v -10 0 0
v -9 0 0
v -10 -1 0
v -11 -1 0
v -11 0 0
v -10 0 0
v -11 -1 0
v -12 -1 0
v -12 0 0
v -11 0 0
v -12 -1 0
v -13 -1 0
v -13 0 0
v -12 0 0
v -13 -1 0
v -14 -1 0
v -14 0 0
v -13 0 0
v -14 -1 0
v -15 -1 0
v -15 0 0
v -14 0 0
v -15 -1 0
v -16 -1 0
v -16 0 0
v -15 0 0
v 0 -2 0
v -1 -2 0
v -1 -1 0
v 0 -1 0
v -1 -2 0
v -2 -2 0
v -2 -1 0
v -1 -1 0
v -2 -2 0
v -3 -2 0
v -3 -1 0
v -2 -1 0
v -3 -2 0
v -4 -2 0
v -4 -1 0
v -3 -1 0
v -4 -2 0
v -5 -2 0
v -5 -1 0
v -4 -1 0
v -5 -2 0
v -6 -2 0
v -6 -1 0
v -5 -1 0
v -6 -2 0
v -7 -2 0
v -7 -1 0
v -6 -1 0
v -7 -2 0
v -8 -2 0
v -8 -1 0
v -7 -1 0
v -8 -2 0
v -9 -2 0
v -9 -1 0
v -8 -1 0
v -9 -2 0
v -10 -2 0
v -10 -1 0
v -9 -1 0
v -10 -2 0
v -11 -2 0
v -11 -1 0
v -10 -1 0
v -11 -2 0
v -12 -2 0
v -12 -1 0
v -11 -1 0
v -12 -2 0
v -13 -2 0
v -13 -1 0
v -12 -1 0
v -13 -2 0
v -14 -2 0
v -14 -1 0
v -13 -1 0
v -14 -2 0
v -15 -2 0
v -15 -1 0
v -14 -1 0
v -15 -2 0
v -16 -2 0
v -16 -1 0
v -15 -1 0
v 0 -3 0
v -1 -3 0
v -1 -2 0
v 0 -2 0
v -1 -3 0
v -2 -3 0
v -2 -2 0
v -1 -2 0
v -2 -3 0
v -3 -3 0
v -3 -2 0
v -2 -2 0
v -3 -3 0
v -4 -3 0
v -4 -2 0
v -3 -2 0
v -4 -3 0
v -5 -3 0
v -5 -2 0
v -4 -2 0
v -5 -3 0
v -6 -3 0
v -6 -2 0
v -5 -2 0
v -6 -3 0
v -7 -3 0
v -7 -2 0
v -6 -2 0
v -7 -3 0
v -8 -3 0
v -8 -2 0
v -7 -2 0
v -8 -3 0
v -9 -3 0
v -9 -2 0
v -8 -2 0
v -9 -3 0
v -10 -3 0
v -10 -2 0
v -9 -2 0
v -10 -3 0
v -11 -3 0
v -11 -2 0
v -10 -2 0
v -11 -3 0
v -12 -3 0
v -12 -2 0
v -11 -2 0
v -12 -3 0
v -13 -3 0
v -13 -2 0
v -12 -2 0
v -13 -3 0
v -14 -3 0
v -14 -2 0
v -13 -2 0
v -14 -3 0
v -15 -3 0
v -15 -2 0
v -14 -2 0
v -15 -3 0
v -16 -3 0
v -16 -2 0
v -15 -2 0
v 0 -4 0
v -1 -4 0
v -1 -3 0
v 0 -3 0
v -1 -4 0
v -2 -4 0
v -2 -3 0
v -1 -3 0
v -2 -4 0
v -3 -4 0
v -3 -3 0
v -2 -3 0
v -3 -4 0
v -4 -4 0
v -4 -3 0
v -3 -3 0
v -4 -4 0
v -5 -4 0
v -5 -3 0
v -4 -3 0
v -5 -4 0
v -6 -4 0
v -6 -3 0
v -5 -3 0
v -6 -4 0
v -7 -4 0
v -7 -3 0
v -6 -3 0
v -7 -4 0
v -8 -4 0
v -8 -3 0
v -7 -3 0
v -8 -4 0
v -9 -4 0
v -9 -3 0
v -8 -3 0
v -9 -4 0
v -10 -4 0
v -10 -3 0
v -9 -3 0
v -10 -4 0
v -11 -4 0
v -11 -3 0
v -10 -3 0
v -11 -4 0
v -12 -4 0
v -12 -3 0
v -11 -3 0
v -12 -4 0
v -13 -4 0
v -13 -3 0
v -12 -3 0
v -13 -4 0
v -14 -4 0
v -14 -3 0
v -13 -3 0
v -14 -4 0
v -15 -4 0
v -15 -3 0
v -14 -3 0
v -15 -4 0
v -16 -4 0
v -16 -3 0
v -15 -3 0
v 0 -5 0
v -1 -5 0
v -1 -4 0
v 0 -4 0
v -1 -5 0
v -2 -5 0
v -2 -4 0
v -1 -4 0
v -2 -5 0
v -3 -5 0
v -3 -4 0
v -2 -4 0
v -3 -5 0
v -4 -5 0
v -4 -4 0
v -3 -4 0
v -4 -5 0
v -5 -5 0
v -5 -4 0
v -4 -4 0
v -5 -5 0
v -6 -5 0
v -6 -4 0
v -5 -4 0
v -6 -5 0
v -7 -5 0
v -7 -4 0
v -6 -4 0
v -7 -5 0
v -8 -5 0
v -8 -4 0
v -7 -4 0
v -8 -5 0
v -9 -5 0
v -9 -4 0
v -8 -4 0
v -9 -5 0
v -10 -5 0
v -10 -4 0
v -9 -4 0
v -10 -5 0
v -11 -5 0
v -11 -4 0
v -10 -4 0
v -11 -5 0
v -12 -5 0
v -12 -4 0
v -11 -4 0
v -12 -5 0
v -13 -5 0
v -13 -4 0
v -12 -4 0
v -13 -5 0
v -14 -5 0
v -14 -4 0
v -13 -4 0
v -14 -5 0
v -15 -5 0
v -15 -4 0
v -14 -4 0
v -15 -5 0
v -16 -5 0
v -16 -4 0
v -15 -4 0
v 0 -6 0
v -1 -6 0
v -1 -5 0
v 0 -5 0
v -1 -6 0
v -2 -6 0
v -2 -5 0
v -1 -5 0
v -2 -6 0
v -3 -6 0
v -3 -5 0
v -2 -5 0
v -3 -6 0
v -4 -6 0
v -4 -5 0
v -3 -5 0
v -4 -6 0
v -5 -6 0
v -5 -5 0
v -4 -5 0
v -5 -6 0
v -6 -6 0
v -6 -5 0
v -5 -5 0
v -6 -6 0
v -7 -6 0
v -7 -5 0
v -6 -5 0
v -7 -6 0
v -8 -6 0
v -8 -5 0
v -7 -5 0
v -8 -6 0
v -9 -6 0
v -9 -5 0
v -8 -5 0
v -9 -6 0
v -10 -6 0
v -10 -5 0
v -9 -5 0
v -10 -6 0
v -11 -6 0
v -11 -5 0
v -10 -5 0
v -11 -6 0
v -12 -6 0
v -12 -5 0
v -11 -5 0
v -12 -6 0
v -13 -6 0
v -13 -5 0
v -12 -5 0
v -13 -6 0
v -14 -6 0
v -14 -5 0
v -13 -5 0
v -14 -6 0
v -15 -6 0
v -15 -5 0
v -14 -5 0
v -15 -6 0
v -16 -6 0
v -16 -5 0
v -15 -5 0
v 0 -7 0
v -1 -7 0
v -1 -6 0
v 0 -6 0
v -1 -7 0
v -2 -7 0
v -2 -6 0
v -1 -6 0
v -2 -7 0
v -3 -7 0
v -3 -6 0
v -2 -6 0
v -3 -7 0
v -4 -7 0
v -4 -6 0
v -3 -6 0
v -4 -7 0
v -5 -7 0
v -5 -6 0
v -4 -6 0
v -5 -7 0
v -6 -7 0
v -6 -6 0
v -5 -6 0
v -6 -7 0
v -7 -7 0
v -7 -6 0
v -6 -6 0
v -7 -7 0
v -8 -7 0
v -8 -6 0
v -7 -6 0
v -8 -7 0
v -9 -7 0
v -9 -6 0
v -8 -6 0
v -9 -7 0
v -10 -7 0
v -10 -6 0
v -9 -6 0
v -10 -7 0
v -11 -7 0
v -11 -6 0
v -10 -6 0
v -11 -7 0
v -12 -7 0
v -12 -6 0
v -11 -6 0
v -12 -7 0
v -13 -7 0
v -13 -6 0
v -12 -6 0
v -13 -7 0
v -14 -7 0
v -14 -6 0
v -13 -6 0
v -14 -7 0
v -15 -7 0
v -15 -6 0
v -14 -6 0
v -15 -7 0
v -16 -7 0
v -16 -6 0
v -15 -6 0
v 0 -8 0
v -1 -8 0
v -1 -7 0
v 0 -7 0
v -1 -8 0
v -2 -8 0
v -2 -7 0
v -1 -7 0
v -2 -8 0
v -3 -8 0
v -3 -7 0
v -2 -7 0
v -3 -8 0
v -4 -8 0
v -4 -7 0
v -3 -7 0
v -4 -8 0
v -5 -8 0
v -5 -7 0
v -4 -7 0
v -5 -8 0
v -6 -8 0
v -6 -7 0
v -5 -7 0
v -6 -8 0
v -7 -8 0
v -7 -7 0
v -6 -7 0
v -7 -8 0
v -8 -8 0
v -8 -7 0
v -7 -7 0
v -8 -8 0
v -9 -8 0
v -9 -7 0
v -8 -7 0
v -9 -8 0
v -10 -8 0
v -10 -7 0
v -9 -7 0
v -10 -8 0
v -11 -8 0
v -11 -7 0
v -10 -7 0
v -11 -8 0
v -12 -8 0
v -12 -7 0
v -11 -7 0
v -12 -8 0
v -13 -8 0
v -13 -7 0
v -12 -7 0
v -13 -8 0
v -14 -8 0
v -14 -7 0
v -13 -7 0
v -14 -8 0
v -15 -8 0
v -15 -7 0
v -14 -7 0
v -15 -8 0
v -16 -8 0
v -16 -7 0
v -15 -7 0
v 0 -9 0
v -1 -9 0
v -1 -8 0
v 0 -8 0
v -1 -9 0
v -2 -9 0
v -2 -8 0
v -1 -8 0
v -2 -9 0
v -3 -9 0
v -3 -8 0
v -2 -8 0
v -3 -9 0
v -4 -9 0
v -4 -8 0
v -3 -8 0
v -4 -9 0
v -5 -9 0
v -5 -8 0
v -4 -8 0
v -5 -9 0
v -6 -9 0
v -6 -8 0
v -5 -8 0
v -6 -9 0
v -7 -9 0
v -7 -8 0
v -6 -8 0
v -7 -9 0
v -8 -9 0
v -8 -8 0
v -7 -8 0
v -8 -9 0
v -9 -9 0
v -9 -8 0
v -8 -8 0
v -9 -9 0
v -10 -9 0
v -10 -8 0
v -9 -8 0
v -10 -9 0
v -11 -9 0
v -11 -8 0
v -10 -8 0
v -11 -9 0
v -12 -9 0
v -12 -8 0
v -11 -8 0
v -12 -9 0
v -13 -9 0
v -13 -8 0
v -12 -8 0
v -13 -9 0
v -14 -9 0
v -14 -8 0
v -13 -8 0
v -14 -9 0
v -15 -9 0
v -15 -8 0
v -14 -8 0
v -15 -9 0
v -16 -9 0
v -16 -8 0
v -15 -8 0
v 0 -10 0
v -1 -10 0
v -1 -9 0
v 0 -9 0
v -1 -10 0
v -2 -10 0
v -2 -9 0
v -1 -9 0
v -2 -10 0
v -3 -10 0
v -3 -9 0
v -2 -9 0
v -3 -10 0
v -4 -10 0
v -4 -9 0
v -3 -9 0
v -4 -10 0
v -5 -10 0
v -5 -9 0
v -4 -9 0
v -5 -10 0
v -6 -10 0
v -6 -9 0
v -5 -9 0
v -6 -10 0
v -7 -10 0
v -7 -9 0
v -6 -9 0
v -7 -10 0
v -8 -10 0
v -8 -9 0
v -7 -9 0
v -8 -10 0
v -9 -10 0
v -9 -9 0
v -8 -9 0
v -9 -10 0
v -10 -10 0
v -10 -9 0
v -9 -9 0
v -10 -10 0
v -11 -10 0
v -11 -9 0
v -10 -9 0
v -11 -10 0
v -12 -10 0
v -12 -9 0
v -11 -9 0
v -12 -10 0
v -13 -10 0
v -13 -9 0
v -12 -9 0
v -13 -10 0
v -14 -10 0
v -14 -9 0
v -13 -9 0
v -14 -10 0
v -15 -10 0
v -15 -9 0
v -14 -9 0
v -15 -10 0
v -16 -10 0
v -16 -9 0
v -15 -9 0
v 0 -11 0
v -1 -11 0
v -1 -10 0
v 0 -10 0
v -1 -11 0
v -2 -11 0
v -2 -10 0
v -1 -10 0
v -2 -11 0
v -3 -11 0
v -3 -10 0
v -2 -10 0
v -3 -11 0
v -4 -11 0
v -4 -10 0
v -3 -10 0
v -4 -11 0
v -5 -11 0
v -5 -10 0
v -4 -10 0
v -5 -11 0
v -6 -11 0
v -6 -10 0
v -5 -10 0
v -6 -11 0
v -7 -11 0
v -7 -10 0
v -6 -10 0
v -7 -11 0
v -8 -11 0
v -8 -10 0
v -7 -10 0
v -8 -11 0
v -9 -11 0
v -9 -10 0
v -8 -10 0
v -9 -11 0
v -10 -11 0
v -10 -10 0
v -9 -10 0
v -10 -11 0
v -11 -11 0
v -11 -10 0
v -10 -10 0
v -11 -11 0
v -12 -11 0
v -12 -10 0
v -11 -10 0
v -12 -11 0
v -13 -11 0
v -13 -10 0
v -12 -10 0
v -13 -11 0
v -14 -11 0
v -14 -10 0
v -13 -10 0
v -14 -11 0
v -15 -11 0
v -15 -10 0
v -14 -10 0
v -15 -11 0
v -16 -11 0
v -16 -10 0
v -15 -10 0
v 0 -12 0
v -1 -12 0
v -1 -11 0
v 0 -11 0
v -1 -12 0
v -2 -12 0
v -2 -11 0
v -1 -11 0
v -2 -12 0
v -3 -12 0
v -3 -11 0
v -2 -11 0
v -3 -12 0
v -4 -12 0
v -4 -11 0
v -3 -11 0
v -4 -12 0
v -5 -12 0
v -5 -11 0
v -4 -11 0
v -5 -12 0
v -6 -12 0
v -6 -11 0
v -5 -11 0
v -6 -12 0
v -7 -12 0
v -7 -11 0
v -6 -11 0
v -7 -12 0
v -8 -12 0
v -8 -11 0
v -7 -11 0
v -8 -12 0
v -9 -12 0
v -9 -11 0
v -8 -11 0
v -9 -12 0
v -10 -12 0
v -10 -11 0
v -9 -11 0
v -10 -12 0
v -11 -12 0
v -11 -11 0
v -10 -11 0
v -11 -12 0
v -12 -12 0
v -12 -11 0
v -11 -11 0
v -12 -12 0
v -13 -12 0
v -13 -11 0
v -12 -11 0
v -13 -12 0
v -14 -12 0
v -14 -11 0
v -13 -11 0
v -14 -12 0
v -15 -12 0
v -15 -11 0
v -14 -11 0
v -15 -12 0
v -16 -12 0
v -16 -11 0
v -15 -11 0
v 0 -13 0
v -1 -13 0
v -1 -12 0
v 0 -12 0
v -1 -13 0
v -2 -13 0
v -2 -12 0
v -1 -12 0
v -2 -13 0
v -3 -13 0
v -3 -12 0
v -2 -12 0
v -3 -13 0
v -4 -13 0
v -4 -12 0
v -3 -12 0
v -4 -13 0
v -5 -13 0
v -5 -12 0
v -4 -12 0
v -5 -13 0
v -6 -13 0
v -6 -12 0
v -5 -12 0
v -6 -13 0
v -7 -13 0
v -7 -12 0
v -6 -12 0
v -7 -13 0
v -8 -13 0
v -8 -12 0
v -7 -12 0
v -8 -13 0
v -9 -13 0
v -9 -12 0
v -8 -12 0
v -9 -13 0
v -10 -13 0
v -10 -12 0
v -9 -12 0
v -10 -13 0
v -11 -13 0
v -11 -12 0
v -10 -12 0
v -11 -13 0
v -12 -13 0
v -12 -12 0
v -11 -12 0
v -12 -13 0
v -13 -13 0
v -13 -12 0
v -12 -12 0
v -13 -13 0
v -14 -13 0
v -14 -12 0
v -13 -12 0
v -14 -13 0
v -15 -13 0
v -15 -12 0
v -14 -12 0
v -15 -13 0
v -16 -13 0
v -16 -12 0
v -15 -12 0
v 0 -14 0
v -1 -14 0
v -1 -13 0
v 0 -13 0
v -1 -14 0
v -2 -14 0
v -2 -13 0
v -1 -13 0
v -2 -14 0
v -3 -14 0
v -3 -13 0
v -2 -13 0
v -3 -14 0
v -4 -14 0
v -4 -13 0
v -3 -13 0
v -4 -14 0
v -5 -14 0
v -5 -13 0
v -4 -13 0
v -5 -14 0
v -6 -14 0
v -6 -13 0
v -5 -13 0
v -6 -14 0
v -7 -14 0
v -7 -13 0
v -6 -13 0
v -7 -14 0
v -8 -14 0
v -8 -13 0
v -7 -13 0
v -8 -14 0
v -9 -14 0
v -9 -13 0
v -8 -13 0
v -9 -14 0
v -10 -14 0
v -10 -13 0
v -9 -13 0
v -10 -14 0
v -11 -14 0
v -11 -13 0
v -10 -13 0
v -11 -14 0
v -12 -14 0
v -12 -13 0
v -11 -13 0
v -12 -14 0
v -13 -14 0
v -13 -13 0
v -12 -13 0
v -13 -14 0
v -14 -14 0
v -14 -13 0
v -13 -13 0
v -14 -14 0
v -15 -14 0
v -15 -13 0
v -14 -13 0
v -15 -14 0
v -16 -14 0
v -16 -13 0
v -15 -13 0
v 0 -15 0
v -1 -15 0
v -1 -14 0
v 0 -14 0
v -1 -15 0
v -2 -15 0
v -2 -14 0
v -1 -14 0
v -2 -15 0
v -3 -15 0
v -3 -14 0
v -2 -14 0
v -3 -15 0
v -4 -15 0
v -4 -14 0
v -3 -14 0
v -4 -15 0
v -5 -15 0
v -5 -14 0
v -4 -14 0
v -5 -15 0
v -6 -15 0
v -6 -14 0
v -5 -14 0
v -6 -15 0
v -7 -15 0
v -7 -14 0
v -6 -14 0
v -7 -15 0
v -8 -15 0
v -8 -14 0
v -7 -14 0
v -8 -15 0
v -9 -15 0
v -9 -14 0
v -8 -14 0
v -9 -15 0
v -10 -15 0
v -10 -14 0
v -9 -14 0
v -10 -15 0
v -11 -15 0
v -11 -14 0
v -10 -14 0
v -11 -15 0
v -12 -15 0
v -12 -14 0
v -11 -14 0
v -12 -15 0
v -13 -15 0
v -13 -14 0
v -12 -14 0
v -13 -15 0
v -14 -15 0
v -14 -14 0
v -13 -14 0
v -14 -15 0
v -15 -15 0
v -15 -14 0
v -14 -14 0
v -15 -15 0
v -16 -15 0
v -16 -14 0
v -15 -14 0
v 0 -16 0
v -1 -16 0
v -1 -15 0
v 0 -15 0
v -1 -16 0
v -2 -16 0
v -2 -15 0
v -1 -15 0
v -2 -16 0
v -3 -16 0
v -3 -15 0
v -2 -15 0
v -3 -16 0
v -4 -16 0
v -4 -15 0
v -3 -15 0
v -4 -16 0
v -5 -16 0
v -5 -15 0
v -4 -15 0
v -5 -16 0
v -6 -16 0
v -6 -15 0
v -5 -15 0
v -6 -16 0
v -7 -16 0
v -7 -15 0
v -6 -15 0
v -7 -16 0
v -8 -16 0
v -8 -15 0
v -7 -15 0
v -8 -16 0
v -9 -16 0
v -9 -15 0
v -8 -15 0
v -9 -16 0
v -10 -16 0
v -10 -15 0
v -9 -15 0
v -10 -16 0
v -11 -16 0
v -11 -15 0
v -10 -15 0
v -11 -16 0
v -12 -16 0
v -12 -15 0
v -11 -15 0
v -12 -16 0
v -13 -16 0
v -13 -15 0
v -12 -15 0
v -13 -16 0
v -14 -16 0
v -14 -15 0
v -13 -15 0
v -14 -16 0
v -15 -16 0
v -15 -15 0
v -14 -15 0
v -15 -16 0
v -16 -16 0
v -16 -15 0
v -15 -15 0

# Texture cooridinates (Count = 10)
vt 0.9545454 0.7222222
vt 1 0.7222222
vt 1 0.7777778
vt 0.9545454 0.7777778
vt 0.9545454 0.6666666
vt 1 0.6666666
vt 0.9545454 0.6111111
vt 1 0.6111111
vt 0.9545454 0.5555556
vt 1 0.5555556

# Normal
vn 0 0 -1

# Mesh description
g pueblo_mesh_0036

# Faces
f 1/1/1 2/2/1 3/3/1 4/4/1
f 5/1/1 6/2/1 7/3/1 8/4/1
f 9/1/1 10/2/1 11/3/1 12/4/1
f 13/5/1 14/6/1 15/2/1 16/1/1
f 17/5/1 18/6/1 19/2/1 20/1/1
f 21/5/1 22/6/1 23/2/1 24/1/1
f 25/5/1 26/6/1 27/2/1 28/1/1
f 29/5/1 30/6/1 31/2/1 32/1/1
f 33/5/1 34/6/1 35/2/1 36/1/1
f 37/5/1 38/6/1 39/2/1 40/1/1
f 41/1/1 42/2/1 43/3/1 44/4/1
f 45/1/1 46/2/1 47/3/1 48/4/1
f 49/1/1 50/2/1 51/3/1 52/4/1
f 53/1/1 54/2/1 55/3/1 56/4/1
f 57/1/1 58/2/1 59/3/1 60/4/1
f 61/1/1 62/2/1 63/3/1 64/4/1
f 65/5/1 66/6/1 67/2/1 68/1/1
f 69/5/1 70/6/1 71/2/1 72/1/1
f 73/1/1 74/2/1 75/3/1 76/4/1
f 77/7/1 78/8/1 79/6/1 80/5/1
f 81/7/1 82/8/1 83/6/1 84/5/1
f 85/7/1 86/8/1 87/6/1 88/5/1
f 89/7/1 90/8/1 91/6/1 92/5/1
f 93/7/1 94/8/1 95/6/1 96/5/1
f 97/7/1 98/8/1 99/6/1 100/5/1
f 101/7/1 102/8/1 103/6/1 104/5/1
f 105/5/1 106/6/1 107/2/1 108/1/1
f 109/5/1 110/6/1 111/2/1 112/1/1
f 113/5/1 114/6/1 115/2/1 116/1/1
f 117/5/1 118/6/1 119/2/1 120/1/1
f 121/5/1 122/6/1 123/2/1 124/1/1
f 125/5/1 126/6/1 127/2/1 128/1/1
f 129/7/1 130/8/1 131/6/1 132/5/1
f 133/7/1 134/8/1 135/6/1 136/5/1
f 137/1/1 138/2/1 139/3/1 140/4/1
f 141/1/1 142/2/1 143/3/1 144/4/1
f 145/9/1 146/10/1 147/8/1 148/7/1
f 149/9/1 150/10/1 151/8/1 152/7/1
f 153/9/1 154/10/1 155/8/1 156/7/1
f 157/9/1 158/10/1 159/8/1 160/7/1
f 161/9/1 162/10/1 163/8/1 164/7/1
f 165/9/1 166/10/1 167/8/1 168/7/1
f 169/1/1 170/2/1 171/3/1 172/4/1
f 173/1/1 174/2/1 175/3/1 176/4/1
f 177/7/1 178/8/1 179/6/1 180/5/1
f 181/7/1 182/8/1 183/6/1 184/5/1
f 185/7/1 186/8/1 187/6/1 188/5/1
f 189/7/1 190/8/1 191/6/1 192/5/1
f 193/9/1 194/10/1 195/8/1 196/7/1
f 197/9/1 198/10/1 199/8/1 200/7/1
f 201/5/1 202/6/1 203/2/1 204/1/1
f 205/1/1 206/2/1 207/3/1 208/4/1
f 209/1/1 210/2/1 211/3/1 212/4/1
f 213/1/1 214/2/1 215/3/1 216/4/1
f 217/1/1 218/2/1 219/3/1 220/4/1
f 221/5/1 222/6/1 223/2/1 224/1/1
f 225/5/1 226/6/1 227/2/1 228/1/1
f 229/7/1 230/8/1 231/6/1 232/5/1
f 233/1/1 234/2/1 235/3/1 236/4/1
f 237/5/1 238/6/1 239/2/1 240/1/1
f 241/1/1 242/2/1 243/3/1 244/4/1
f 245/1/1 246/2/1 247/3/1 248/4/1
f 249/1/1 250/2/1 251/3/1 252/4/1
f 253/1/1 254/2/1 255/3/1 256/4/1
f 257/1/1 258/2/1 259/3/1 260/4/1
f 261/1/1 262/2/1 263/3/1 264/4/1
f 265/7/1 266/8/1 267/6/1 268/5/1
f 269/1/1 270/2/1 271/3/1 272/4/1
f 273/1/1 274/2/1 275/3/1 276/4/1
f 277/1/1 278/2/1 279/3/1 280/4/1
f 281/1/1 282/2/1 283/3/1 284/4/1
f 285/1/1 286/2/1 287/3/1 288/4/1
f 289/7/1 290/8/1 291/6/1 292/5/1
f 293/9/1 294/10/1 295/8/1 296/7/1
f 297/1/1 298/2/1 299/3/1 300/4/1
f 301/7/1 302/8/1 303/6/1 304/5/1
f 305/5/1 306/6/1 307/2/1 308/1/1
f 309/5/1 310/6/1 311/2/1 312/1/1
f 313/5/1 314/6/1 315/2/1 316/1/1
f 317/5/1 318/6/1 319/2/1 320/1/1
f 321/5/1 322/6/1 323/2/1 324/1/1
f 325/5/1 326/6/1 327/2/1 328/1/1
f 329/9/1 330/10/1 331/8/1 332/7/1
f 333/1/1 334/2/1 335/3/1 336/4/1
f 337/5/1 338/6/1 339/2/1 340/1/1
f 341/5/1 342/6/1 343/2/1 344/1/1
f 345/5/1 346/6/1 347/2/1 348/1/1
f 349/1/1 350/2/1 351/3/1 352/4/1
f 353/1/1 354/2/1 355/3/1 356/4/1
f 357/1/1 358/2/1 359/3/1 360/4/1
f 361/1/1 362/2/1 363/3/1 364/4/1
f 365/9/1 366/10/1 367/8/1 368/7/1
f 369/1/1 370/2/1 371/3/1 372/4/1
f 373/1/1 374/2/1 375/3/1 376/4/1
f 377/7/1 378/8/1 379/6/1 380/5/1
f 381/1/1 382/2/1 383/3/1 384/4/1
f 385/7/1 386/8/1 387/6/1 388/5/1
f 389/7/1 390/8/1 391/6/1 392/5/1
f 393/1/1 394/2/1 395/3/1 396/4/1
f 397/5/1 398/6/1 399/2/1 400/1/1
f 401/7/1 402/8/1 403/6/1 404/5/1
f 405/7/1 406/8/1 407/6/1 408/5/1
f 409/7/1 410/8/1 411/6/1 412/5/1
f 413/5/1 414/6/1 415/2/1 416/1/1
f 417/5/1 418/6/1 419/2/1 420/1/1
f 421/1/1 422/2/1 423/3/1 424/4/1
f 425/5/1 426/6/1 427/2/1 428/1/1
f 429/9/1 430/10/1 431/8/1 432/7/1
f 433/5/1 434/6/1 435/2/1 436/1/1
f 437/5/1 438/6/1 439/2/1 440/1/1
f 441/9/1 442/10/1 443/8/1 444/7/1
f 445/1/1 446/2/1 447/3/1 448/4/1
f 449/1/1 450/2/1 451/3/1 452/4/1
f 453/1/1 454/2/1 455/3/1 456/4/1
f 457/1/1 458/2/1 459/3/1 460/4/1
f 461/7/1 462/8/1 463/6/1 464/5/1
f 465/9/1 466/10/1 467/8/1 468/7/1
f 469/9/1 470/10/1 471/8/1 472/7/1
f 473/9/1 474/10/1 475/8/1 476/7/1
f 477/7/1 478/8/1 479/6/1 480/5/1
f 481/1/1 482/2/1 483/3/1 484/4/1
f 485/5/1 486/6/1 487/2/1 488/1/1
f 489/7/1 490/8/1 491/6/1 492/5/1
f 493/9/1 494/10/1 495/8/1 496/7/1
f 497/7/1 498/8/1 499/6/1 500/5/1
f 501/7/1 502/8/1 503/6/1 504/5/1
f 505/9/1 506/10/1 507/8/1 508/7/1
f 509/1/1 510/2/1 511/3/1 512/4/1
f 513/1/1 514/2/1 515/3/1 516/4/1
f 517/1/1 518/2/1 519/3/1 520/4/1
f 521/1/1 522/2/1 523/3/1 524/4/1
f 525/9/1 526/10/1 527/8/1 528/7/1
f 529/9/1 530/10/1 531/8/1 532/7/1
f 533/9/1 534/10/1 535/8/1 536/7/1
f 537/9/1 538/10/1 539/8/1 540/7/1
f 541/9/1 542/10/1 543/8/1 544/7/1
f 545/1/1 546/2/1 547/3/1 548/4/1
f 549/7/1 550/8/1 551/6/1 552/5/1
f 553/9/1 554/10/1 555/8/1 556/7/1
f 557/9/1 558/10/1 559/8/1 560/7/1
f 561/9/1 562/10/1 563/8/1 564/7/1
f 565/9/1 566/10/1 567/8/1 568/7/1
f 569/9/1 570/10/1 571/8/1 572/7/1
f 573/1/1 574/2/1 575/3/1 576/4/1
f 577/1/1 578/2/1 579/3/1 580/4/1
f 581/1/1 582/2/1 583/3/1 584/4/1
f 585/1/1 586/2/1 587/3/1 588/4/1
f 589/1/1 590/2/1 591/3/1 592/4/1
f 593/1/1 594/2/1 595/3/1 596/4/1
f 597/1/1 598/2/1 599/3/1 600/4/1
f 601/1/1 602/2/1 603/3/1 604/4/1
f 605/1/1 606/2/1 607/3/1 608/4/1
f 609/1/1 610/2/1 611/3/1 612/4/1
f 613/9/1 614/10/1 615/8/1 616/7/1
f 617/9/1 618/10/1 619/8/1 620/7/1
f 621/1/1 622/2/1 623/3/1 624/4/1
f 625/1/1 626/2/1 627/3/1 628/4/1
f 629/1/1 630/2/1 631/3/1 632/4/1
f 633/9/1 634/10/1 635/8/1 636/7/1
f 637/1/1 638/2/1 639/3/1 640/4/1
f 641/1/1 642/2/1 643/3/1 644/4/1
f 645/5/1 646/6/1 647/2/1 648/1/1
f 649/5/1 650/6/1 651/2/1 652/1/1
f 653/5/1 654/6/1 655/2/1 656/1/1
f 657/5/1 658/6/1 659/2/1 660/1/1
f 661/5/1 662/6/1 663/2/1 664/1/1
f 665/5/1 666/6/1 667/2/1 668/1/1
f 669/5/1 670/6/1 671/2/1 672/1/1
f 673/1/1 674/2/1 675/3/1 676/4/1
f 677/1/1 678/2/1 679/3/1 680/4/1
f 681/9/1 682/10/1 683/8/1 684/7/1
f 685/1/1 686/2/1 687/3/1 688/4/1
f 689/1/1 690/2/1 691/3/1 692/4/1
f 693/5/1 694/6/1 695/2/1 696/1/1
f 697/9/1 698/10/1 699/8/1 700/7/1
f 701/1/1 702/2/1 703/3/1 704/4/1
f 705/5/1 706/6/1 707/2/1 708/1/1
f 709/7/1 710/8/1 711/6/1 712/5/1
f 713/7/1 714/8/1 715/6/1 716/5/1
f 717/7/1 718/8/1 719/6/1 720/5/1
f 721/7/1 722/8/1 723/6/1 724/5/1
f 725/7/1 726/8/1 727/6/1 728/5/1
f 729/7/1 730/8/1 731/6/1 732/5/1
f 733/7/1 734/8/1 735/6/1 736/5/1
f 737/1/1 738/2/1 739/3/1 740/4/1
f 741/5/1 742/6/1 743/2/1 744/1/1
f 745/9/1 746/10/1 747/8/1 748/7/1
f 749/1/1 750/2/1 751/3/1 752/4/1
f 753/1/1 754/2/1 755/3/1 756/4/1
f 757/1/1 758/2/1 759/3/1 760/4/1
f 761/9/1 762/10/1 763/8/1 764/7/1
f 765/5/1 766/6/1 767/2/1 768/1/1
f 769/7/1 770/8/1 771/6/1 772/5/1
f 773/9/1 774/10/1 775/8/1 776/7/1
f 777/9/1 778/10/1 779/8/1 780/7/1
f 781/9/1 782/10/1 783/8/1 784/7/1
f 785/9/1 786/10/1 787/8/1 788/7/1
f 789/9/1 790/10/1 791/8/1 792/7/1
f 793/9/1 794/10/1 795/8/1 796/7/1
f 797/1/1 798/2/1 799/3/1 800/4/1
f 801/1/1 802/2/1 803/3/1 804/4/1
f 805/1/1 806/2/1 807/3/1 808/4/1
f 809/1/1 810/2/1 811/3/1 812/4/1
f 813/5/1 814/6/1 815/2/1 816/1/1
f 817/5/1 818/6/1 819/2/1 820/1/1
f 821/1/1 822/2/1 823/3/1 824/4/1
f 825/9/1 826/10/1 827/8/1 828/7/1
f 829/7/1 830/8/1 831/6/1 832/5/1
f 833/9/1 834/10/1 835/8/1 836/7/1
f 837/9/1 838/10/1 839/8/1 840/7/1
f 841/9/1 842/10/1 843/8/1 844/7/1
f 845/9/1 846/10/1 847/8/1 848/7/1
f 849/9/1 850/10/1 851/8/1 852/7/1
f 853/1/1 854/2/1 855/3/1 856/4/1
f 857/1/1 858/2/1 859/3/1 860/4/1
f 861/1/1 862/2/1 863/3/1 864/4/1
f 865/5/1 866/6/1 867/2/1 868/1/1
f 869/5/1 870/6/1 871/2/1 872/1/1
f 873/5/1 874/6/1 875/2/1 876/1/1
f 877/7/1 878/8/1 879/6/1 880/5/1
f 881/7/1 882/8/1 883/6/1 884/5/1
f 885/5/1 886/6/1 887/2/1 888/1/1
f 889/9/1 890/10/1 891/8/1 892/7/1
f 893/9/1 894/10/1 895/8/1 896/7/1
f 897/1/1 898/2/1 899/3/1 900/4/1
f 901/1/1 902/2/1 903/3/1 904/4/1
f 905/1/1 906/2/1 907/3/1 908/4/1
f 909/1/1 910/2/1 911/3/1 912/4/1
f 913/1/1 914/2/1 915/3/1 916/4/1
f 917/5/1 918/6/1 919/2/1 920/1/1
f 921/5/1 922/6/1 923/2/1 924/1/1
f 925/5/1 926/6/1 927/2/1 928/1/1
f 929/7/1 930/8/1 931/6/1 932/5/1
f 933/7/1 934/8/1 935/6/1 936/5/1
f 937/7/1 938/8/1 939/6/1 940/5/1
f 941/9/1 942/10/1 943/8/1 944/7/1
f 945/9/1 946/10/1 947/8/1 948/7/1
f 949/7/1 950/8/1 951/6/1 952/5/1
f 953/1/1 954/2/1 955/3/1 956/4/1
f 957/1/1 958/2/1 959/3/1 960/4/1
f 961/5/1 962/6/1 963/2/1 964/1/1
f 965/5/1 966/6/1 967/2/1 968/1/1
f 969/5/1 970/6/1 971/2/1 972/1/1
f 973/5/1 974/6/1 975/2/1 976/1/1
f 977/5/1 978/6/1 979/2/1 980/1/1
f 981/7/1 982/8/1 983/6/1 984/5/1
f 985/7/1 986/8/1 987/6/1 988/5/1
f 989/7/1 990/8/1 991/6/1 992/5/1
f 993/9/1 994/10/1 995/8/1 996/7/1
f 997/9/1 998/10/1 999/8/1 1000/7/1
f 1001/9/1 1002/10/1 1003/8/1 1004/7/1
f 1005/9/1 1006/10/1 1007/8/1 1008/7/1
f 1009/5/1 1010/6/1 1011/2/1 1012/1/1
f 1013/9/1 1014/10/1 1015/8/1 1016/7/1
f 1017/5/1 1018/6/1 1019/2/1 1020/1/1
f 1021/5/1 1022/6/1 1023/2/1 1024/1/1

