# Tiled2Unity generated file. Do not modify by hand.
# Wavefront file for 'dungeon3_mesh_0041.obj'

# Vertices (Count = 160)
v -10 -1 0
v -11 -1 0
v -11 0 0
v -10 0 0
v -11 -1 0
v -12 -1 0
v -12 0 0
v -11 0 0
v -12 -1 0
v -13 -1 0
v -13 0 0
v -12 0 0
v -13 -1 0
v -14 -1 0
v -14 0 0
v -13 0 0
v -14 -1 0
v -15 -1 0
v -15 0 0
v -14 0 0
v -15 -1 0
v -16 -1 0
v -16 0 0
v -15 0 0
v -10 -2 0
v -11 -2 0
v -11 -1 0
v -10 -1 0
v -10 -3 0
v -11 -3 0
v -11 -2 0
v -10 -2 0
v -10 -4 0
v -11 -4 0
v -11 -3 0
v -10 -3 0
v -10 -5 0
v -11 -5 0
v -11 -4 0
v -10 -4 0
v -10 -6 0
v -11 -6 0
v -11 -5 0
v -10 -5 0
v -1 -7 0
v -2 -7 0
v -2 -6 0
v -1 -6 0
v -2 -7 0
v -3 -7 0
v -3 -6 0
v -2 -6 0
v -3 -7 0
v -4 -7 0
v -4 -6 0
v -3 -6 0
v -4 -7 0
v -5 -7 0
v -5 -6 0
v -4 -6 0
v -5 -7 0
v -6 -7 0
v -6 -6 0
v -5 -6 0
v -6 -7 0
v -7 -7 0
v -7 -6 0
v -6 -6 0
v -7 -7 0
v -8 -7 0
v -8 -6 0
v -7 -6 0
v -8 -7 0
v -9 -7 0
v -9 -6 0
v -8 -6 0
v -9 -7 0
v -10 -7 0
v -10 -6 0
v -9 -6 0
v -10 -7 0
v -11 -7 0
v -11 -6 0
v -10 -6 0
v 0 -8 0
v -1 -8 0
v -1 -7 0
v 0 -7 0
v -1 -8 0
v -2 -8 0
v -2 -7 0
v -1 -7 0
v -2 -8 0
v -3 -8 0
v -3 -7 0
v -2 -7 0
v -3 -8 0
v -4 -8 0
v -4 -7 0
v -3 -7 0
v -4 -8 0
v -5 -8 0
v -5 -7 0
v -4 -7 0
v -5 -8 0
v -6 -8 0
v -6 -7 0
v -5 -7 0
v -6 -8 0
v -7 -8 0
v -7 -7 0
v -6 -7 0
v -7 -8 0
v -8 -8 0
v -8 -7 0
v -7 -7 0
v -8 -8 0
v -9 -8 0
v -9 -7 0
v -8 -7 0
v -9 -8 0
v -10 -8 0
v -10 -7 0
v -9 -7 0
v -10 -8 0
v -11 -8 0
v -11 -7 0
v -10 -7 0
v 0 -9 0
v -1 -9 0
v -1 -8 0
v 0 -8 0
v 0 -10 0
v -1 -10 0
v -1 -9 0
v 0 -9 0
v 0 -11 0
v -1 -11 0
v -1 -10 0
v 0 -10 0
v 0 -12 0
v -1 -12 0
v -1 -11 0
v 0 -11 0
v 0 -13 0
v -1 -13 0
v -1 -12 0
v 0 -12 0
v 0 -14 0
v -1 -14 0
v -1 -13 0
v 0 -13 0
v 0 -15 0
v -1 -15 0
v -1 -14 0
v 0 -14 0
v 0 -16 0
v -1 -16 0
v -1 -15 0
v 0 -15 0

# Texture cooridinates (Count = 23)
vt 0.2608696 0.8333333
vt 0.3043478 0.8333333
vt 0.3043478 0.875
vt 0.2608696 0.875
vt 0.08695652 0.6666666
vt 0.1304348 0.6666666
vt 0.1304348 0.7083334
vt 0.08695652 0.7083334
vt 0.173913 0.6666666
vt 0.173913 0.7083334
vt 0.2173913 0.6666666
vt 0.2173913 0.7083334
vt 0.2608696 0.6666666
vt 0.2608696 0.7083334
vt 0.3043478 0.6666666
vt 0.3043478 0.7083334
vt 0.2608696 0.7916667
vt 0.3043478 0.7916667
vt 0.2608696 0.75
vt 0.3043478 0.75
vt 0.173913 0.75
vt 0.1304348 0.75
vt 0.2173913 0.75

# Normal
vn 0 0 -1

# Mesh description
g dungeon3_mesh_0041

# Faces
f 1/1/1 2/2/1 3/3/1 4/4/1
f 5/5/1 6/6/1 7/7/1 8/8/1
f 9/6/1 10/9/1 11/10/1 12/7/1
f 13/9/1 14/11/1 15/12/1 16/10/1
f 17/11/1 18/13/1 19/14/1 20/12/1
f 21/13/1 22/15/1 23/16/1 24/14/1
f 25/17/1 26/18/1 27/2/1 28/1/1
f 29/19/1 30/20/1 31/18/1 32/17/1
f 33/19/1 34/20/1 35/18/1 36/17/1
f 37/19/1 38/20/1 39/18/1 40/17/1
f 41/19/1 42/20/1 43/18/1 44/17/1
f 45/7/1 46/10/1 47/21/1 48/22/1
f 49/7/1 50/10/1 51/21/1 52/22/1
f 53/7/1 54/10/1 55/21/1 56/22/1
f 57/7/1 58/10/1 59/21/1 60/22/1
f 61/7/1 62/10/1 63/21/1 64/22/1
f 65/7/1 66/10/1 67/21/1 68/22/1
f 69/7/1 70/10/1 71/21/1 72/22/1
f 73/7/1 74/10/1 75/21/1 76/22/1
f 77/10/1 78/12/1 79/23/1 80/21/1
f 81/19/1 82/20/1 83/18/1 84/17/1
f 85/1/1 86/2/1 87/3/1 88/4/1
f 89/5/1 90/6/1 91/7/1 92/8/1
f 93/5/1 94/6/1 95/7/1 96/8/1
f 97/5/1 98/6/1 99/7/1 100/8/1
f 101/5/1 102/6/1 103/7/1 104/8/1
f 105/5/1 106/6/1 107/7/1 108/8/1
f 109/5/1 110/6/1 111/7/1 112/8/1
f 113/6/1 114/9/1 115/10/1 116/7/1
f 117/9/1 118/11/1 119/12/1 120/10/1
f 121/11/1 122/13/1 123/14/1 124/12/1
f 125/13/1 126/15/1 127/16/1 128/14/1
f 129/17/1 130/18/1 131/2/1 132/1/1
f 133/19/1 134/20/1 135/18/1 136/17/1
f 137/19/1 138/20/1 139/18/1 140/17/1
f 141/19/1 142/20/1 143/18/1 144/17/1
f 145/19/1 146/20/1 147/18/1 148/17/1
f 149/19/1 150/20/1 151/18/1 152/17/1
f 153/19/1 154/20/1 155/18/1 156/17/1
f 157/19/1 158/20/1 159/18/1 160/17/1

