# Tiled2Unity generated file. Do not modify by hand.
# Wavefront file for 'dungeon3_mesh_0036.obj'

# Vertices (Count = 116)
v -9 -6 0
v -10 -6 0
v -10 -5 0
v -9 -5 0
v -10 -6 0
v -11 -6 0
v -11 -5 0
v -10 -5 0
v -11 -6 0
v -12 -6 0
v -12 -5 0
v -11 -5 0
v -12 -6 0
v -13 -6 0
v -13 -5 0
v -12 -5 0
v -13 -6 0
v -14 -6 0
v -14 -5 0
v -13 -5 0
v -14 -6 0
v -15 -6 0
v -15 -5 0
v -14 -5 0
v -15 -6 0
v -16 -6 0
v -16 -5 0
v -15 -5 0
v -9 -7 0
v -10 -7 0
v -10 -6 0
v -9 -6 0
v -9 -8 0
v -10 -8 0
v -10 -7 0
v -9 -7 0
v -9 -9 0
v -10 -9 0
v -10 -8 0
v -9 -8 0
v -9 -10 0
v -10 -10 0
v -10 -9 0
v -9 -9 0
v 0 -11 0
v -1 -11 0
v -1 -10 0
v 0 -10 0
v -1 -11 0
v -2 -11 0
v -2 -10 0
v -1 -10 0
v -2 -11 0
v -3 -11 0
v -3 -10 0
v -2 -10 0
v -3 -11 0
v -4 -11 0
v -4 -10 0
v -3 -10 0
v -4 -11 0
v -5 -11 0
v -5 -10 0
v -4 -10 0
v -5 -11 0
v -6 -11 0
v -6 -10 0
v -5 -10 0
v -6 -11 0
v -7 -11 0
v -7 -10 0
v -6 -10 0
v -7 -11 0
v -8 -11 0
v -8 -10 0
v -7 -10 0
v -8 -11 0
v -9 -11 0
v -9 -10 0
v -8 -10 0
v 0 -16 0
v -1 -16 0
v -1 -15 0
v 0 -15 0
v -1 -16 0
v -2 -16 0
v -2 -15 0
v -1 -15 0
v -2 -16 0
v -3 -16 0
v -3 -15 0
v -2 -15 0
v -3 -16 0
v -4 -16 0
v -4 -15 0
v -3 -15 0
v -4 -16 0
v -5 -16 0
v -5 -15 0
v -4 -15 0
v -5 -16 0
v -6 -16 0
v -6 -15 0
v -5 -15 0
v -6 -16 0
v -7 -16 0
v -7 -15 0
v -6 -15 0
v -7 -16 0
v -8 -16 0
v -8 -15 0
v -7 -15 0
v -8 -16 0
v -9 -16 0
v -9 -15 0
v -8 -15 0

# Texture cooridinates (Count = 23)
vt 0.08695652 0.875
vt 0.1304348 0.875
vt 0.1304348 0.9166667
vt 0.08695652 0.9166667
vt 0.173913 0.875
vt 0.173913 0.9166667
vt 0.08695652 0.7916667
vt 0.1304348 0.7916667
vt 0.1304348 0.8333333
vt 0.08695652 0.8333333
vt 0.08695652 0.75
vt 0.1304348 0.75
vt 0.2173913 0.875
vt 0.2173913 0.9166667
vt 0.2608696 0.875
vt 0.2608696 0.9166667
vt 0.1304348 0.7083334
vt 0.173913 0.7083334
vt 0.173913 0.75
vt 0.2173913 0.7083334
vt 0.2173913 0.75
vt 0.2608696 0.7083334
vt 0.2608696 0.75

# Normal
vn 0 0 -1

# Mesh description
g dungeon3_mesh_0036

# Faces
f 1/1/1 2/2/1 3/3/1 4/4/1
f 5/2/1 6/5/1 7/6/1 8/3/1
f 9/2/1 10/5/1 11/6/1 12/3/1
f 13/2/1 14/5/1 15/6/1 16/3/1
f 17/2/1 18/5/1 19/6/1 20/3/1
f 21/2/1 22/5/1 23/6/1 24/3/1
f 25/2/1 26/5/1 27/6/1 28/3/1
f 29/7/1 30/8/1 31/9/1 32/10/1
f 33/11/1 34/12/1 35/8/1 36/7/1
f 37/11/1 38/12/1 39/8/1 40/7/1
f 41/11/1 42/12/1 43/8/1 44/7/1
f 45/2/1 46/5/1 47/6/1 48/3/1
f 49/2/1 50/5/1 51/6/1 52/3/1
f 53/2/1 54/5/1 55/6/1 56/3/1
f 57/2/1 58/5/1 59/6/1 60/3/1
f 61/2/1 62/5/1 63/6/1 64/3/1
f 65/2/1 66/5/1 67/6/1 68/3/1
f 69/2/1 70/5/1 71/6/1 72/3/1
f 73/5/1 74/13/1 75/14/1 76/6/1
f 77/13/1 78/15/1 79/16/1 80/14/1
f 81/17/1 82/18/1 83/19/1 84/12/1
f 85/17/1 86/18/1 87/19/1 88/12/1
f 89/17/1 90/18/1 91/19/1 92/12/1
f 93/17/1 94/18/1 95/19/1 96/12/1
f 97/17/1 98/18/1 99/19/1 100/12/1
f 101/17/1 102/18/1 103/19/1 104/12/1
f 105/17/1 106/18/1 107/19/1 108/12/1
f 109/18/1 110/20/1 111/21/1 112/19/1
f 113/20/1 114/22/1 115/23/1 116/21/1

