# Tiled2Unity generated file. Do not modify by hand.
# Wavefront file for 'dungeon3_mesh_0050.obj'

# Vertices (Count = 128)
v -3 -3 0
v -4 -3 0
v -4 -2 0
v -3 -2 0
v -4 -3 0
v -5 -3 0
v -5 -2 0
v -4 -2 0
v -5 -3 0
v -6 -3 0
v -6 -2 0
v -5 -2 0
v -6 -3 0
v -7 -3 0
v -7 -2 0
v -6 -2 0
v -7 -3 0
v -8 -3 0
v -8 -2 0
v -7 -2 0
v -8 -3 0
v -9 -3 0
v -9 -2 0
v -8 -2 0
v -9 -3 0
v -10 -3 0
v -10 -2 0
v -9 -2 0
v -10 -3 0
v -11 -3 0
v -11 -2 0
v -10 -2 0
v -11 -3 0
v -12 -3 0
v -12 -2 0
v -11 -2 0
v -12 -3 0
v -13 -3 0
v -13 -2 0
v -12 -2 0
v -13 -3 0
v -14 -3 0
v -14 -2 0
v -13 -2 0
v -14 -3 0
v -15 -3 0
v -15 -2 0
v -14 -2 0
v -15 -3 0
v -16 -3 0
v -16 -2 0
v -15 -2 0
v 0 -4 0
v -1 -4 0
v -1 -3 0
v 0 -3 0
v -1 -4 0
v -2 -4 0
v -2 -3 0
v -1 -3 0
v -2 -4 0
v -3 -4 0
v -3 -3 0
v -2 -3 0
v -3 -4 0
v -4 -4 0
v -4 -3 0
v -3 -3 0
v -4 -4 0
v -5 -4 0
v -5 -3 0
v -4 -3 0
v -5 -4 0
v -6 -4 0
v -6 -3 0
v -5 -3 0
v -6 -4 0
v -7 -4 0
v -7 -3 0
v -6 -3 0
v -7 -4 0
v -8 -4 0
v -8 -3 0
v -7 -3 0
v -8 -4 0
v -9 -4 0
v -9 -3 0
v -8 -3 0
v -9 -4 0
v -10 -4 0
v -10 -3 0
v -9 -3 0
v -10 -4 0
v -11 -4 0
v -11 -3 0
v -10 -3 0
v -11 -4 0
v -12 -4 0
v -12 -3 0
v -11 -3 0
v -12 -4 0
v -13 -4 0
v -13 -3 0
v -12 -3 0
v -13 -4 0
v -14 -4 0
v -14 -3 0
v -13 -3 0
v -14 -4 0
v -15 -4 0
v -15 -3 0
v -14 -3 0
v -15 -4 0
v -16 -4 0
v -16 -3 0
v -15 -3 0
v 0 -5 0
v -1 -5 0
v -1 -4 0
v 0 -4 0
v -1 -5 0
v -2 -5 0
v -2 -4 0
v -1 -4 0
v -2 -5 0
v -3 -5 0
v -3 -4 0
v -2 -4 0

# Texture cooridinates (Count = 17)
vt 0.1304348 0.7083334
vt 0.173913 0.7083334
vt 0.173913 0.75
vt 0.1304348 0.75
vt 0.2173913 0.7083334
vt 0.2173913 0.75
vt 0.2608696 0.7083334
vt 0.2608696 0.75
vt 0.3043478 0.7083334
vt 0.3043478 0.75
vt 0.08695652 0.6666666
vt 0.1304348 0.6666666
vt 0.08695652 0.7083334
vt 0.173913 0.6666666
vt 0.2173913 0.6666666
vt 0.2608696 0.6666666
vt 0.3043478 0.6666666

# Normal
vn 0 0 -1

# Mesh description
g dungeon3_mesh_0050

# Faces
f 1/1/1 2/2/1 3/3/1 4/4/1
f 5/1/1 6/2/1 7/3/1 8/4/1
f 9/1/1 10/2/1 11/3/1 12/4/1
f 13/1/1 14/2/1 15/3/1 16/4/1
f 17/1/1 18/2/1 19/3/1 20/4/1
f 21/1/1 22/2/1 23/3/1 24/4/1
f 25/1/1 26/2/1 27/3/1 28/4/1
f 29/1/1 30/2/1 31/3/1 32/4/1
f 33/1/1 34/2/1 35/3/1 36/4/1
f 37/1/1 38/2/1 39/3/1 40/4/1
f 41/1/1 42/2/1 43/3/1 44/4/1
f 45/1/1 46/2/1 47/3/1 48/4/1
f 49/2/1 50/5/1 51/6/1 52/3/1
f 53/2/1 54/5/1 55/6/1 56/3/1
f 57/5/1 58/7/1 59/8/1 60/6/1
f 61/7/1 62/9/1 63/10/1 64/8/1
f 65/11/1 66/12/1 67/1/1 68/13/1
f 69/11/1 70/12/1 71/1/1 72/13/1
f 73/11/1 74/12/1 75/1/1 76/13/1
f 77/11/1 78/12/1 79/1/1 80/13/1
f 81/11/1 82/12/1 83/1/1 84/13/1
f 85/11/1 86/12/1 87/1/1 88/13/1
f 89/11/1 90/12/1 91/1/1 92/13/1
f 93/11/1 94/12/1 95/1/1 96/13/1
f 97/11/1 98/12/1 99/1/1 100/13/1
f 101/11/1 102/12/1 103/1/1 104/13/1
f 105/11/1 106/12/1 107/1/1 108/13/1
f 109/12/1 110/14/1 111/2/1 112/1/1
f 113/14/1 114/15/1 115/5/1 116/2/1
f 117/14/1 118/15/1 119/5/1 120/2/1
f 121/15/1 122/16/1 123/7/1 124/5/1
f 125/16/1 126/17/1 127/9/1 128/7/1

