# Tiled2Unity generated file. Do not modify by hand.
# Wavefront file for 'dungeon3_mesh_0023.obj'

# Vertices (Count = 224)
v -2 -1 0
v -3 -1 0
v -3 0 0
v -2 0 0
v -3 -1 0
v -4 -1 0
v -4 0 0
v -3 0 0
v -4 -1 0
v -5 -1 0
v -5 0 0
v -4 0 0
v -5 -1 0
v -6 -1 0
v -6 0 0
v -5 0 0
v -6 -1 0
v -7 -1 0
v -7 0 0
v -6 0 0
v -7 -1 0
v -8 -1 0
v -8 0 0
v -7 0 0
v -8 -1 0
v -9 -1 0
v -9 0 0
v -8 0 0
v -9 -1 0
v -10 -1 0
v -10 0 0
v -9 0 0
v -10 -1 0
v -11 -1 0
v -11 0 0
v -10 0 0
v -11 -1 0
v -12 -1 0
v -12 0 0
v -11 0 0
v -12 -1 0
v -13 -1 0
v -13 0 0
v -12 0 0
v -13 -1 0
v -14 -1 0
v -14 0 0
v -13 0 0
v -14 -1 0
v -15 -1 0
v -15 0 0
v -14 0 0
v -15 -1 0
v -16 -1 0
v -16 0 0
v -15 0 0
v -2 -2 0
v -3 -2 0
v -3 -1 0
v -2 -1 0
v -3 -2 0
v -4 -2 0
v -4 -1 0
v -3 -1 0
v -4 -2 0
v -5 -2 0
v -5 -1 0
v -4 -1 0
v -5 -2 0
v -6 -2 0
v -6 -1 0
v -5 -1 0
v -6 -2 0
v -7 -2 0
v -7 -1 0
v -6 -1 0
v -7 -2 0
v -8 -2 0
v -8 -1 0
v -7 -1 0
v -8 -2 0
v -9 -2 0
v -9 -1 0
v -8 -1 0
v -9 -2 0
v -10 -2 0
v -10 -1 0
v -9 -1 0
v -10 -2 0
v -11 -2 0
v -11 -1 0
v -10 -1 0
v -11 -2 0
v -12 -2 0
v -12 -1 0
v -11 -1 0
v -12 -2 0
v -13 -2 0
v -13 -1 0
v -12 -1 0
v -13 -2 0
v -14 -2 0
v -14 -1 0
v -13 -1 0
v -14 -2 0
v -15 -2 0
v -15 -1 0
v -14 -1 0
v -15 -2 0
v -16 -2 0
v -16 -1 0
v -15 -1 0
v -2 -3 0
v -3 -3 0
v -3 -2 0
v -2 -2 0
v -3 -3 0
v -4 -3 0
v -4 -2 0
v -3 -2 0
v -4 -3 0
v -5 -3 0
v -5 -2 0
v -4 -2 0
v -5 -3 0
v -6 -3 0
v -6 -2 0
v -5 -2 0
v -6 -3 0
v -7 -3 0
v -7 -2 0
v -6 -2 0
v -7 -3 0
v -8 -3 0
v -8 -2 0
v -7 -2 0
v -8 -3 0
v -9 -3 0
v -9 -2 0
v -8 -2 0
v -9 -3 0
v -10 -3 0
v -10 -2 0
v -9 -2 0
v -10 -3 0
v -11 -3 0
v -11 -2 0
v -10 -2 0
v -11 -3 0
v -12 -3 0
v -12 -2 0
v -11 -2 0
v -12 -3 0
v -13 -3 0
v -13 -2 0
v -12 -2 0
v -13 -3 0
v -14 -3 0
v -14 -2 0
v -13 -2 0
v -14 -3 0
v -15 -3 0
v -15 -2 0
v -14 -2 0
v -15 -3 0
v -16 -3 0
v -16 -2 0
v -15 -2 0
v -2 -4 0
v -3 -4 0
v -3 -3 0
v -2 -3 0
v -3 -4 0
v -4 -4 0
v -4 -3 0
v -3 -3 0
v -4 -4 0
v -5 -4 0
v -5 -3 0
v -4 -3 0
v -5 -4 0
v -6 -4 0
v -6 -3 0
v -5 -3 0
v -6 -4 0
v -7 -4 0
v -7 -3 0
v -6 -3 0
v -7 -4 0
v -8 -4 0
v -8 -3 0
v -7 -3 0
v -8 -4 0
v -9 -4 0
v -9 -3 0
v -8 -3 0
v -9 -4 0
v -10 -4 0
v -10 -3 0
v -9 -3 0
v -10 -4 0
v -11 -4 0
v -11 -3 0
v -10 -3 0
v -11 -4 0
v -12 -4 0
v -12 -3 0
v -11 -3 0
v -12 -4 0
v -13 -4 0
v -13 -3 0
v -12 -3 0
v -13 -4 0
v -14 -4 0
v -14 -3 0
v -13 -3 0
v -14 -4 0
v -15 -4 0
v -15 -3 0
v -14 -3 0
v -15 -4 0
v -16 -4 0
v -16 -3 0
v -15 -3 0

# Texture cooridinates (Count = 16)
vt 0.1304348 0.75
vt 0.173913 0.75
vt 0.173913 0.7916667
vt 0.1304348 0.7916667
vt 0.173913 0.8333333
vt 0.1304348 0.8333333
vt 0.2173913 0.75
vt 0.2173913 0.7916667
vt 0.2608696 0.75
vt 0.2608696 0.7916667
vt 0.173913 0.875
vt 0.1304348 0.875
vt 0.2173913 0.8333333
vt 0.2173913 0.875
vt 0.2608696 0.8333333
vt 0.2608696 0.875

# Normal
vn 0 0 -1

# Mesh description
g dungeon3_mesh_0023

# Faces
f 1/1/1 2/2/1 3/3/1 4/4/1
f 5/1/1 6/2/1 7/3/1 8/4/1
f 9/1/1 10/2/1 11/3/1 12/4/1
f 13/1/1 14/2/1 15/3/1 16/4/1
f 17/1/1 18/2/1 19/3/1 20/4/1
f 21/1/1 22/2/1 23/3/1 24/4/1
f 25/1/1 26/2/1 27/3/1 28/4/1
f 29/1/1 30/2/1 31/3/1 32/4/1
f 33/1/1 34/2/1 35/3/1 36/4/1
f 37/1/1 38/2/1 39/3/1 40/4/1
f 41/4/1 42/3/1 43/5/1 44/6/1
f 45/1/1 46/2/1 47/3/1 48/4/1
f 49/2/1 50/7/1 51/8/1 52/3/1
f 53/7/1 54/9/1 55/10/1 56/8/1
f 57/6/1 58/5/1 59/11/1 60/12/1
f 61/5/1 62/13/1 63/14/1 64/11/1
f 65/13/1 66/15/1 67/16/1 68/14/1
f 69/13/1 70/15/1 71/16/1 72/14/1
f 73/13/1 74/15/1 75/16/1 76/14/1
f 77/13/1 78/15/1 79/16/1 80/14/1
f 81/13/1 82/15/1 83/16/1 84/14/1
f 85/13/1 86/15/1 87/16/1 88/14/1
f 89/13/1 90/15/1 91/16/1 92/14/1
f 93/13/1 94/15/1 95/16/1 96/14/1
f 97/6/1 98/5/1 99/11/1 100/12/1
f 101/6/1 102/5/1 103/11/1 104/12/1
f 105/5/1 106/13/1 107/14/1 108/11/1
f 109/13/1 110/15/1 111/16/1 112/14/1
f 113/4/1 114/3/1 115/5/1 116/6/1
f 117/3/1 118/8/1 119/13/1 120/5/1
f 121/8/1 122/10/1 123/15/1 124/13/1
f 125/8/1 126/10/1 127/15/1 128/13/1
f 129/8/1 130/10/1 131/15/1 132/13/1
f 133/8/1 134/10/1 135/15/1 136/13/1
f 137/8/1 138/10/1 139/15/1 140/13/1
f 141/8/1 142/10/1 143/15/1 144/13/1
f 145/8/1 146/10/1 147/15/1 148/13/1
f 149/8/1 150/10/1 151/15/1 152/13/1
f 153/4/1 154/3/1 155/5/1 156/6/1
f 157/4/1 158/3/1 159/5/1 160/6/1
f 161/3/1 162/8/1 163/13/1 164/5/1
f 165/8/1 166/10/1 167/15/1 168/13/1
f 169/1/1 170/2/1 171/3/1 172/4/1
f 173/2/1 174/7/1 175/8/1 176/3/1
f 177/7/1 178/9/1 179/10/1 180/8/1
f 181/7/1 182/9/1 183/10/1 184/8/1
f 185/7/1 186/9/1 187/10/1 188/8/1
f 189/7/1 190/9/1 191/10/1 192/8/1
f 193/7/1 194/9/1 195/10/1 196/8/1
f 197/7/1 198/9/1 199/10/1 200/8/1
f 201/7/1 202/9/1 203/10/1 204/8/1
f 205/7/1 206/9/1 207/10/1 208/8/1
f 209/1/1 210/2/1 211/3/1 212/4/1
f 213/1/1 214/2/1 215/3/1 216/4/1
f 217/2/1 218/7/1 219/8/1 220/3/1
f 221/7/1 222/9/1 223/10/1 224/8/1

