# Tiled2Unity generated file. Do not modify by hand.
# Wavefront file for 'dungeon3_mesh_0051.obj'

# Vertices (Count = 156)
v 0 -3 0
v -1 -3 0
v -1 -2 0
v 0 -2 0
v -1 -3 0
v -2 -3 0
v -2 -2 0
v -1 -2 0
v 0 -4 0
v -1 -4 0
v -1 -3 0
v 0 -3 0
v -1 -4 0
v -2 -4 0
v -2 -3 0
v -1 -3 0
v -2 -4 0
v -3 -4 0
v -3 -3 0
v -2 -3 0
v -2 -5 0
v -3 -5 0
v -3 -4 0
v -2 -4 0
v -2 -6 0
v -3 -6 0
v -3 -5 0
v -2 -5 0
v -2 -7 0
v -3 -7 0
v -3 -6 0
v -2 -6 0
v -2 -8 0
v -3 -8 0
v -3 -7 0
v -2 -7 0
v -2 -9 0
v -3 -9 0
v -3 -8 0
v -2 -8 0
v -2 -10 0
v -3 -10 0
v -3 -9 0
v -2 -9 0
v -2 -11 0
v -3 -11 0
v -3 -10 0
v -2 -10 0
v -3 -11 0
v -4 -11 0
v -4 -10 0
v -3 -10 0
v -4 -11 0
v -5 -11 0
v -5 -10 0
v -4 -10 0
v -5 -11 0
v -6 -11 0
v -6 -10 0
v -5 -10 0
v -6 -11 0
v -7 -11 0
v -7 -10 0
v -6 -10 0
v -7 -11 0
v -8 -11 0
v -8 -10 0
v -7 -10 0
v -8 -11 0
v -9 -11 0
v -9 -10 0
v -8 -10 0
v -9 -11 0
v -10 -11 0
v -10 -10 0
v -9 -10 0
v -10 -11 0
v -11 -11 0
v -11 -10 0
v -10 -10 0
v -11 -11 0
v -12 -11 0
v -12 -10 0
v -11 -10 0
v -12 -11 0
v -13 -11 0
v -13 -10 0
v -12 -10 0
v -13 -11 0
v -14 -11 0
v -14 -10 0
v -13 -10 0
v -14 -11 0
v -15 -11 0
v -15 -10 0
v -14 -10 0
v -15 -11 0
v -16 -11 0
v -16 -10 0
v -15 -10 0
v -2 -12 0
v -3 -12 0
v -3 -11 0
v -2 -11 0
v -3 -12 0
v -4 -12 0
v -4 -11 0
v -3 -11 0
v -4 -12 0
v -5 -12 0
v -5 -11 0
v -4 -11 0
v -5 -12 0
v -6 -12 0
v -6 -11 0
v -5 -11 0
v -6 -12 0
v -7 -12 0
v -7 -11 0
v -6 -11 0
v -7 -12 0
v -8 -12 0
v -8 -11 0
v -7 -11 0
v -8 -12 0
v -9 -12 0
v -9 -11 0
v -8 -11 0
v -9 -12 0
v -10 -12 0
v -10 -11 0
v -9 -11 0
v -10 -12 0
v -11 -12 0
v -11 -11 0
v -10 -11 0
v -11 -12 0
v -12 -12 0
v -12 -11 0
v -11 -11 0
v -12 -12 0
v -13 -12 0
v -13 -11 0
v -12 -11 0
v -13 -12 0
v -14 -12 0
v -14 -11 0
v -13 -11 0
v -14 -12 0
v -15 -12 0
v -15 -11 0
v -14 -11 0
v -15 -12 0
v -16 -12 0
v -16 -11 0
v -15 -11 0

# Texture cooridinates (Count = 22)
vt 0.2173913 0.7083334
vt 0.2608696 0.7083334
vt 0.2608696 0.75
vt 0.2173913 0.75
vt 0.173913 0.7083334
vt 0.173913 0.75
vt 0.2173913 0.6666666
vt 0.2608696 0.6666666
vt 0.3043478 0.6666666
vt 0.3043478 0.7083334
vt 0.08695652 0.8333333
vt 0.1304348 0.8333333
vt 0.1304348 0.875
vt 0.08695652 0.875
vt 0.08695652 0.7916667
vt 0.1304348 0.7916667
vt 0.08695652 0.7083334
vt 0.1304348 0.7083334
vt 0.1304348 0.75
vt 0.08695652 0.75
vt 0.08695652 0.6666666
vt 0.1304348 0.6666666

# Normal
vn 0 0 -1

# Mesh description
g dungeon3_mesh_0051

# Faces
f 1/1/1 2/2/1 3/3/1 4/4/1
f 5/5/1 6/1/1 7/4/1 8/6/1
f 9/7/1 10/8/1 11/2/1 12/1/1
f 13/8/1 14/9/1 15/10/1 16/2/1
f 17/11/1 18/12/1 19/13/1 20/14/1
f 21/15/1 22/16/1 23/12/1 24/11/1
f 25/11/1 26/12/1 27/13/1 28/14/1
f 29/11/1 30/12/1 31/13/1 32/14/1
f 33/11/1 34/12/1 35/13/1 36/14/1
f 37/11/1 38/12/1 39/13/1 40/14/1
f 41/15/1 42/16/1 43/12/1 44/11/1
f 45/17/1 46/18/1 47/19/1 48/20/1
f 49/18/1 50/5/1 51/6/1 52/19/1
f 53/18/1 54/5/1 55/6/1 56/19/1
f 57/18/1 58/5/1 59/6/1 60/19/1
f 61/18/1 62/5/1 63/6/1 64/19/1
f 65/18/1 66/5/1 67/6/1 68/19/1
f 69/18/1 70/5/1 71/6/1 72/19/1
f 73/18/1 74/5/1 75/6/1 76/19/1
f 77/18/1 78/5/1 79/6/1 80/19/1
f 81/18/1 82/5/1 83/6/1 84/19/1
f 85/18/1 86/5/1 87/6/1 88/19/1
f 89/18/1 90/5/1 91/6/1 92/19/1
f 93/18/1 94/5/1 95/6/1 96/19/1
f 97/18/1 98/5/1 99/6/1 100/19/1
f 101/21/1 102/22/1 103/18/1 104/17/1
f 105/21/1 106/22/1 107/18/1 108/17/1
f 109/21/1 110/22/1 111/18/1 112/17/1
f 113/21/1 114/22/1 115/18/1 116/17/1
f 117/21/1 118/22/1 119/18/1 120/17/1
f 121/21/1 122/22/1 123/18/1 124/17/1
f 125/21/1 126/22/1 127/18/1 128/17/1
f 129/21/1 130/22/1 131/18/1 132/17/1
f 133/21/1 134/22/1 135/18/1 136/17/1
f 137/21/1 138/22/1 139/18/1 140/17/1
f 141/21/1 142/22/1 143/18/1 144/17/1
f 145/21/1 146/22/1 147/18/1 148/17/1
f 149/21/1 150/22/1 151/18/1 152/17/1
f 153/21/1 154/22/1 155/18/1 156/17/1

