# Tiled2Unity generated file. Do not modify by hand.
# Wavefront file for 'dungeon3_mesh_0049.obj'

# Vertices (Count = 124)
v -2 -1 0
v -3 -1 0
v -3 0 0
v -2 0 0
v -2 -2 0
v -3 -2 0
v -3 -1 0
v -2 -1 0
v -2 -3 0
v -3 -3 0
v -3 -2 0
v -2 -2 0
v -2 -4 0
v -3 -4 0
v -3 -3 0
v -2 -3 0
v -3 -4 0
v -4 -4 0
v -4 -3 0
v -3 -3 0
v -4 -4 0
v -5 -4 0
v -5 -3 0
v -4 -3 0
v -5 -4 0
v -6 -4 0
v -6 -3 0
v -5 -3 0
v -6 -4 0
v -7 -4 0
v -7 -3 0
v -6 -3 0
v -7 -4 0
v -8 -4 0
v -8 -3 0
v -7 -3 0
v -8 -4 0
v -9 -4 0
v -9 -3 0
v -8 -3 0
v -9 -4 0
v -10 -4 0
v -10 -3 0
v -9 -3 0
v -10 -4 0
v -11 -4 0
v -11 -3 0
v -10 -3 0
v -11 -4 0
v -12 -4 0
v -12 -3 0
v -11 -3 0
v -12 -4 0
v -13 -4 0
v -13 -3 0
v -12 -3 0
v -13 -4 0
v -14 -4 0
v -14 -3 0
v -13 -3 0
v -14 -4 0
v -15 -4 0
v -15 -3 0
v -14 -3 0
v -15 -4 0
v -16 -4 0
v -16 -3 0
v -15 -3 0
v -2 -5 0
v -3 -5 0
v -3 -4 0
v -2 -4 0
v -3 -5 0
v -4 -5 0
v -4 -4 0
v -3 -4 0
v -4 -5 0
v -5 -5 0
v -5 -4 0
v -4 -4 0
v -5 -5 0
v -6 -5 0
v -6 -4 0
v -5 -4 0
v -6 -5 0
v -7 -5 0
v -7 -4 0
v -6 -4 0
v -7 -5 0
v -8 -5 0
v -8 -4 0
v -7 -4 0
v -8 -5 0
v -9 -5 0
v -9 -4 0
v -8 -4 0
v -9 -5 0
v -10 -5 0
v -10 -4 0
v -9 -4 0
v -10 -5 0
v -11 -5 0
v -11 -4 0
v -10 -4 0
v -11 -5 0
v -12 -5 0
v -12 -4 0
v -11 -4 0
v -12 -5 0
v -13 -5 0
v -13 -4 0
v -12 -4 0
v -13 -5 0
v -14 -5 0
v -14 -4 0
v -13 -4 0
v -14 -5 0
v -15 -5 0
v -15 -4 0
v -14 -4 0
v -15 -5 0
v -16 -5 0
v -16 -4 0
v -15 -4 0

# Texture cooridinates (Count = 21)
vt 0.08695652 0.8333333
vt 0.1304348 0.8333333
vt 0.1304348 0.875
vt 0.08695652 0.875
vt 0.08695652 0.7916667
vt 0.1304348 0.7916667
vt 0.08695652 0.75
vt 0.1304348 0.75
vt 0.08695652 0.7083334
vt 0.1304348 0.7083334
vt 0.173913 0.7083334
vt 0.173913 0.75
vt 0.2173913 0.7083334
vt 0.2173913 0.75
vt 0.2608696 0.7083334
vt 0.2608696 0.75
vt 0.08695652 0.6666666
vt 0.1304348 0.6666666
vt 0.173913 0.6666666
vt 0.2173913 0.6666666
vt 0.2608696 0.6666666

# Normal
vn 0 0 -1

# Mesh description
g dungeon3_mesh_0049

# Faces
f 1/1/1 2/2/1 3/3/1 4/4/1
f 5/5/1 6/6/1 7/2/1 8/1/1
f 9/7/1 10/8/1 11/6/1 12/5/1
f 13/9/1 14/10/1 15/8/1 16/7/1
f 17/10/1 18/11/1 19/12/1 20/8/1
f 21/11/1 22/13/1 23/14/1 24/12/1
f 25/13/1 26/15/1 27/16/1 28/14/1
f 29/11/1 30/13/1 31/14/1 32/12/1
f 33/13/1 34/15/1 35/16/1 36/14/1
f 37/13/1 38/15/1 39/16/1 40/14/1
f 41/13/1 42/15/1 43/16/1 44/14/1
f 45/13/1 46/15/1 47/16/1 48/14/1
f 49/13/1 50/15/1 51/16/1 52/14/1
f 53/13/1 54/15/1 55/16/1 56/14/1
f 57/11/1 58/13/1 59/14/1 60/12/1
f 61/13/1 62/15/1 63/16/1 64/14/1
f 65/10/1 66/11/1 67/12/1 68/8/1
f 69/17/1 70/18/1 71/10/1 72/9/1
f 73/18/1 74/19/1 75/11/1 76/10/1
f 77/19/1 78/20/1 79/13/1 80/11/1
f 81/20/1 82/21/1 83/15/1 84/13/1
f 85/17/1 86/18/1 87/10/1 88/9/1
f 89/17/1 90/18/1 91/10/1 92/9/1
f 93/17/1 94/18/1 95/10/1 96/9/1
f 97/17/1 98/18/1 99/10/1 100/9/1
f 101/17/1 102/18/1 103/10/1 104/9/1
f 105/17/1 106/18/1 107/10/1 108/9/1
f 109/17/1 110/18/1 111/10/1 112/9/1
f 113/17/1 114/18/1 115/10/1 116/9/1
f 117/17/1 118/18/1 119/10/1 120/9/1
f 121/18/1 122/19/1 123/11/1 124/10/1

