# Tiled2Unity generated file. Do not modify by hand.
# Wavefront file for 'dungeon3_mesh_0032.obj'

# Vertices (Count = 80)
v 0 -1 0
v -1 -1 0
v -1 0 0
v 0 0 0
v -1 -1 0
v -2 -1 0
v -2 0 0
v -1 0 0
v -2 -1 0
v -3 -1 0
v -3 0 0
v -2 0 0
v -2 -2 0
v -3 -2 0
v -3 -1 0
v -2 -1 0
v -2 -3 0
v -3 -3 0
v -3 -2 0
v -2 -2 0
v -2 -4 0
v -3 -4 0
v -3 -3 0
v -2 -3 0
v -2 -5 0
v -3 -5 0
v -3 -4 0
v -2 -4 0
v -2 -6 0
v -3 -6 0
v -3 -5 0
v -2 -5 0
v -2 -7 0
v -3 -7 0
v -3 -6 0
v -2 -6 0
v -2 -8 0
v -3 -8 0
v -3 -7 0
v -2 -7 0
v -2 -9 0
v -3 -9 0
v -3 -8 0
v -2 -8 0
v -2 -10 0
v -3 -10 0
v -3 -9 0
v -2 -9 0
v -2 -11 0
v -3 -11 0
v -3 -10 0
v -2 -10 0
v -2 -12 0
v -3 -12 0
v -3 -11 0
v -2 -11 0
v 0 -13 0
v -1 -13 0
v -1 -12 0
v 0 -12 0
v -1 -13 0
v -2 -13 0
v -2 -12 0
v -1 -12 0
v -2 -13 0
v -3 -13 0
v -3 -12 0
v -2 -12 0
v 0 -14 0
v -1 -14 0
v -1 -13 0
v 0 -13 0
v -1 -14 0
v -2 -14 0
v -2 -13 0
v -1 -13 0
v -2 -14 0
v -3 -14 0
v -3 -13 0
v -2 -13 0

# Texture cooridinates (Count = 26)
vt 0.173913 0.875
vt 0.2173913 0.875
vt 0.2173913 0.9166667
vt 0.173913 0.9166667
vt 0.2608696 0.875
vt 0.2608696 0.9166667
vt 0.3043478 0.875
vt 0.3043478 0.9166667
vt 0.2608696 0.8333333
vt 0.3043478 0.8333333
vt 0.2608696 0.7916667
vt 0.3043478 0.7916667
vt 0.2608696 0.75
vt 0.3043478 0.75
vt 0.1304348 0.7083334
vt 0.173913 0.7083334
vt 0.173913 0.75
vt 0.1304348 0.75
vt 0.2173913 0.7083334
vt 0.2173913 0.75
vt 0.2608696 0.7083334
vt 0.3043478 0.7083334
vt 0.1304348 0.6666666
vt 0.173913 0.6666666
vt 0.2173913 0.6666666
vt 0.2608696 0.6666666

# Normal
vn 0 0 -1

# Mesh description
g dungeon3_mesh_0032

# Faces
f 1/1/1 2/2/1 3/3/1 4/4/1
f 5/2/1 6/5/1 7/6/1 8/3/1
f 9/5/1 10/7/1 11/8/1 12/6/1
f 13/9/1 14/10/1 15/7/1 16/5/1
f 17/9/1 18/10/1 19/7/1 20/5/1
f 21/9/1 22/10/1 23/7/1 24/5/1
f 25/9/1 26/10/1 27/7/1 28/5/1
f 29/9/1 30/10/1 31/7/1 32/5/1
f 33/9/1 34/10/1 35/7/1 36/5/1
f 37/9/1 38/10/1 39/7/1 40/5/1
f 41/9/1 42/10/1 43/7/1 44/5/1
f 45/9/1 46/10/1 47/7/1 48/5/1
f 49/11/1 50/12/1 51/10/1 52/9/1
f 53/13/1 54/14/1 55/12/1 56/11/1
f 57/15/1 58/16/1 59/17/1 60/18/1
f 61/16/1 62/19/1 63/20/1 64/17/1
f 65/21/1 66/22/1 67/14/1 68/13/1
f 69/23/1 70/24/1 71/16/1 72/15/1
f 73/24/1 74/25/1 75/19/1 76/16/1
f 77/25/1 78/26/1 79/21/1 80/19/1

