# Tiled2Unity generated file. Do not modify by hand.
# Wavefront file for 'dungeon3_mesh_0014.obj'

# Vertices (Count = 736)
v 0 -1 0
v -1 -1 0
v -1 0 0
v 0 0 0
v -1 -1 0
v -2 -1 0
v -2 0 0
v -1 0 0
v -2 -1 0
v -3 -1 0
v -3 0 0
v -2 0 0
v -3 -1 0
v -4 -1 0
v -4 0 0
v -3 0 0
v -4 -1 0
v -5 -1 0
v -5 0 0
v -4 0 0
v -5 -1 0
v -6 -1 0
v -6 0 0
v -5 0 0
v -6 -1 0
v -7 -1 0
v -7 0 0
v -6 0 0
v -7 -1 0
v -8 -1 0
v -8 0 0
v -7 0 0
v -8 -1 0
v -9 -1 0
v -9 0 0
v -8 0 0
v -9 -1 0
v -10 -1 0
v -10 0 0
v -9 0 0
v -10 -1 0
v -11 -1 0
v -11 0 0
v -10 0 0
v -11 -1 0
v -12 -1 0
v -12 0 0
v -11 0 0
v -12 -1 0
v -13 -1 0
v -13 0 0
v -12 0 0
v -13 -1 0
v -14 -1 0
v -14 0 0
v -13 0 0
v -14 -1 0
v -15 -1 0
v -15 0 0
v -14 0 0
v -15 -1 0
v -16 -1 0
v -16 0 0
v -15 0 0
v 0 -2 0
v -1 -2 0
v -1 -1 0
v 0 -1 0
v -1 -2 0
v -2 -2 0
v -2 -1 0
v -1 -1 0
v -2 -2 0
v -3 -2 0
v -3 -1 0
v -2 -1 0
v -3 -2 0
v -4 -2 0
v -4 -1 0
v -3 -1 0
v -4 -2 0
v -5 -2 0
v -5 -1 0
v -4 -1 0
v -5 -2 0
v -6 -2 0
v -6 -1 0
v -5 -1 0
v -6 -2 0
v -7 -2 0
v -7 -1 0
v -6 -1 0
v -7 -2 0
v -8 -2 0
v -8 -1 0
v -7 -1 0
v -8 -2 0
v -9 -2 0
v -9 -1 0
v -8 -1 0
v -9 -2 0
v -10 -2 0
v -10 -1 0
v -9 -1 0
v -10 -2 0
v -11 -2 0
v -11 -1 0
v -10 -1 0
v -11 -2 0
v -12 -2 0
v -12 -1 0
v -11 -1 0
v -12 -2 0
v -13 -2 0
v -13 -1 0
v -12 -1 0
v -13 -2 0
v -14 -2 0
v -14 -1 0
v -13 -1 0
v -14 -2 0
v -15 -2 0
v -15 -1 0
v -14 -1 0
v -15 -2 0
v -16 -2 0
v -16 -1 0
v -15 -1 0
v 0 -3 0
v -1 -3 0
v -1 -2 0
v 0 -2 0
v -1 -3 0
v -2 -3 0
v -2 -2 0
v -1 -2 0
v -2 -3 0
v -3 -3 0
v -3 -2 0
v -2 -2 0
v -3 -3 0
v -4 -3 0
v -4 -2 0
v -3 -2 0
v -4 -3 0
v -5 -3 0
v -5 -2 0
v -4 -2 0
v -5 -3 0
v -6 -3 0
v -6 -2 0
v -5 -2 0
v -6 -3 0
v -7 -3 0
v -7 -2 0
v -6 -2 0
v -7 -3 0
v -8 -3 0
v -8 -2 0
v -7 -2 0
v -8 -3 0
v -9 -3 0
v -9 -2 0
v -8 -2 0
v -9 -3 0
v -10 -3 0
v -10 -2 0
v -9 -2 0
v -10 -3 0
v -11 -3 0
v -11 -2 0
v -10 -2 0
v -11 -3 0
v -12 -3 0
v -12 -2 0
v -11 -2 0
v -12 -3 0
v -13 -3 0
v -13 -2 0
v -12 -2 0
v -13 -3 0
v -14 -3 0
v -14 -2 0
v -13 -2 0
v -14 -3 0
v -15 -3 0
v -15 -2 0
v -14 -2 0
v -15 -3 0
v -16 -3 0
v -16 -2 0
v -15 -2 0
v 0 -4 0
v -1 -4 0
v -1 -3 0
v 0 -3 0
v -1 -4 0
v -2 -4 0
v -2 -3 0
v -1 -3 0
v -2 -4 0
v -3 -4 0
v -3 -3 0
v -2 -3 0
v -3 -4 0
v -4 -4 0
v -4 -3 0
v -3 -3 0
v -4 -4 0
v -5 -4 0
v -5 -3 0
v -4 -3 0
v -5 -4 0
v -6 -4 0
v -6 -3 0
v -5 -3 0
v -6 -4 0
v -7 -4 0
v -7 -3 0
v -6 -3 0
v -7 -4 0
v -8 -4 0
v -8 -3 0
v -7 -3 0
v -8 -4 0
v -9 -4 0
v -9 -3 0
v -8 -3 0
v -9 -4 0
v -10 -4 0
v -10 -3 0
v -9 -3 0
v -10 -4 0
v -11 -4 0
v -11 -3 0
v -10 -3 0
v -11 -4 0
v -12 -4 0
v -12 -3 0
v -11 -3 0
v -12 -4 0
v -13 -4 0
v -13 -3 0
v -12 -3 0
v -13 -4 0
v -14 -4 0
v -14 -3 0
v -13 -3 0
v -14 -4 0
v -15 -4 0
v -15 -3 0
v -14 -3 0
v -15 -4 0
v -16 -4 0
v -16 -3 0
v -15 -3 0
v 0 -5 0
v -1 -5 0
v -1 -4 0
v 0 -4 0
v -1 -5 0
v -2 -5 0
v -2 -4 0
v -1 -4 0
v -2 -5 0
v -3 -5 0
v -3 -4 0
v -2 -4 0
v -3 -5 0
v -4 -5 0
v -4 -4 0
v -3 -4 0
v -4 -5 0
v -5 -5 0
v -5 -4 0
v -4 -4 0
v -5 -5 0
v -6 -5 0
v -6 -4 0
v -5 -4 0
v -6 -5 0
v -7 -5 0
v -7 -4 0
v -6 -4 0
v -7 -5 0
v -8 -5 0
v -8 -4 0
v -7 -4 0
v -8 -5 0
v -9 -5 0
v -9 -4 0
v -8 -4 0
v -9 -5 0
v -10 -5 0
v -10 -4 0
v -9 -4 0
v -10 -5 0
v -11 -5 0
v -11 -4 0
v -10 -4 0
v -11 -5 0
v -12 -5 0
v -12 -4 0
v -11 -4 0
v -12 -5 0
v -13 -5 0
v -13 -4 0
v -12 -4 0
v -13 -5 0
v -14 -5 0
v -14 -4 0
v -13 -4 0
v -14 -5 0
v -15 -5 0
v -15 -4 0
v -14 -4 0
v -15 -5 0
v -16 -5 0
v -16 -4 0
v -15 -4 0
v 0 -6 0
v -1 -6 0
v -1 -5 0
v 0 -5 0
v -1 -6 0
v -2 -6 0
v -2 -5 0
v -1 -5 0
v -2 -6 0
v -3 -6 0
v -3 -5 0
v -2 -5 0
v -3 -6 0
v -4 -6 0
v -4 -5 0
v -3 -5 0
v -4 -6 0
v -5 -6 0
v -5 -5 0
v -4 -5 0
v -5 -6 0
v -6 -6 0
v -6 -5 0
v -5 -5 0
v -6 -6 0
v -7 -6 0
v -7 -5 0
v -6 -5 0
v -7 -6 0
v -8 -6 0
v -8 -5 0
v -7 -5 0
v -8 -6 0
v -9 -6 0
v -9 -5 0
v -8 -5 0
v -9 -6 0
v -10 -6 0
v -10 -5 0
v -9 -5 0
v -10 -6 0
v -11 -6 0
v -11 -5 0
v -10 -5 0
v -11 -6 0
v -12 -6 0
v -12 -5 0
v -11 -5 0
v -12 -6 0
v -13 -6 0
v -13 -5 0
v -12 -5 0
v -13 -6 0
v -14 -6 0
v -14 -5 0
v -13 -5 0
v -14 -6 0
v -15 -6 0
v -15 -5 0
v -14 -5 0
v -15 -6 0
v -16 -6 0
v -16 -5 0
v -15 -5 0
v 0 -7 0
v -1 -7 0
v -1 -6 0
v 0 -6 0
v -1 -7 0
v -2 -7 0
v -2 -6 0
v -1 -6 0
v -2 -7 0
v -3 -7 0
v -3 -6 0
v -2 -6 0
v -3 -7 0
v -4 -7 0
v -4 -6 0
v -3 -6 0
v -4 -7 0
v -5 -7 0
v -5 -6 0
v -4 -6 0
v -5 -7 0
v -6 -7 0
v -6 -6 0
v -5 -6 0
v -6 -7 0
v -7 -7 0
v -7 -6 0
v -6 -6 0
v -7 -7 0
v -8 -7 0
v -8 -6 0
v -7 -6 0
v -8 -7 0
v -9 -7 0
v -9 -6 0
v -8 -6 0
v -9 -7 0
v -10 -7 0
v -10 -6 0
v -9 -6 0
v -10 -7 0
v -11 -7 0
v -11 -6 0
v -10 -6 0
v -11 -7 0
v -12 -7 0
v -12 -6 0
v -11 -6 0
v -12 -7 0
v -13 -7 0
v -13 -6 0
v -12 -6 0
v -13 -7 0
v -14 -7 0
v -14 -6 0
v -13 -6 0
v -14 -7 0
v -15 -7 0
v -15 -6 0
v -14 -6 0
v -15 -7 0
v -16 -7 0
v -16 -6 0
v -15 -6 0
v -8 -8 0
v -9 -8 0
v -9 -7 0
v -8 -7 0
v -9 -8 0
v -10 -8 0
v -10 -7 0
v -9 -7 0
v -10 -8 0
v -11 -8 0
v -11 -7 0
v -10 -7 0
v -11 -8 0
v -12 -8 0
v -12 -7 0
v -11 -7 0
v -12 -8 0
v -13 -8 0
v -13 -7 0
v -12 -7 0
v -13 -8 0
v -14 -8 0
v -14 -7 0
v -13 -7 0
v -14 -8 0
v -15 -8 0
v -15 -7 0
v -14 -7 0
v -15 -8 0
v -16 -8 0
v -16 -7 0
v -15 -7 0
v -8 -9 0
v -9 -9 0
v -9 -8 0
v -8 -8 0
v -9 -9 0
v -10 -9 0
v -10 -8 0
v -9 -8 0
v -10 -9 0
v -11 -9 0
v -11 -8 0
v -10 -8 0
v -11 -9 0
v -12 -9 0
v -12 -8 0
v -11 -8 0
v -12 -9 0
v -13 -9 0
v -13 -8 0
v -12 -8 0
v -13 -9 0
v -14 -9 0
v -14 -8 0
v -13 -8 0
v -14 -9 0
v -15 -9 0
v -15 -8 0
v -14 -8 0
v -15 -9 0
v -16 -9 0
v -16 -8 0
v -15 -8 0
v -8 -10 0
v -9 -10 0
v -9 -9 0
v -8 -9 0
v -9 -10 0
v -10 -10 0
v -10 -9 0
v -9 -9 0
v -10 -10 0
v -11 -10 0
v -11 -9 0
v -10 -9 0
v -11 -10 0
v -12 -10 0
v -12 -9 0
v -11 -9 0
v -12 -10 0
v -13 -10 0
v -13 -9 0
v -12 -9 0
v -13 -10 0
v -14 -10 0
v -14 -9 0
v -13 -9 0
v -14 -10 0
v -15 -10 0
v -15 -9 0
v -14 -9 0
v -15 -10 0
v -16 -10 0
v -16 -9 0
v -15 -9 0
v -8 -11 0
v -9 -11 0
v -9 -10 0
v -8 -10 0
v -9 -11 0
v -10 -11 0
v -10 -10 0
v -9 -10 0
v -10 -11 0
v -11 -11 0
v -11 -10 0
v -10 -10 0
v -11 -11 0
v -12 -11 0
v -12 -10 0
v -11 -10 0
v -12 -11 0
v -13 -11 0
v -13 -10 0
v -12 -10 0
v -13 -11 0
v -14 -11 0
v -14 -10 0
v -13 -10 0
v -14 -11 0
v -15 -11 0
v -15 -10 0
v -14 -10 0
v -15 -11 0
v -16 -11 0
v -16 -10 0
v -15 -10 0
v -8 -12 0
v -9 -12 0
v -9 -11 0
v -8 -11 0
v -9 -12 0
v -10 -12 0
v -10 -11 0
v -9 -11 0
v -10 -12 0
v -11 -12 0
v -11 -11 0
v -10 -11 0
v -11 -12 0
v -12 -12 0
v -12 -11 0
v -11 -11 0
v -12 -12 0
v -13 -12 0
v -13 -11 0
v -12 -11 0
v -13 -12 0
v -14 -12 0
v -14 -11 0
v -13 -11 0
v -14 -12 0
v -15 -12 0
v -15 -11 0
v -14 -11 0
v -15 -12 0
v -16 -12 0
v -16 -11 0
v -15 -11 0
v -8 -13 0
v -9 -13 0
v -9 -12 0
v -8 -12 0
v -9 -13 0
v -10 -13 0
v -10 -12 0
v -9 -12 0
v -10 -13 0
v -11 -13 0
v -11 -12 0
v -10 -12 0
v -11 -13 0
v -12 -13 0
v -12 -12 0
v -11 -12 0
v -12 -13 0
v -13 -13 0
v -13 -12 0
v -12 -12 0
v -13 -13 0
v -14 -13 0
v -14 -12 0
v -13 -12 0
v -14 -13 0
v -15 -13 0
v -15 -12 0
v -14 -12 0
v -15 -13 0
v -16 -13 0
v -16 -12 0
v -15 -12 0
v -8 -14 0
v -9 -14 0
v -9 -13 0
v -8 -13 0
v -9 -14 0
v -10 -14 0
v -10 -13 0
v -9 -13 0
v -10 -14 0
v -11 -14 0
v -11 -13 0
v -10 -13 0
v -11 -14 0
v -12 -14 0
v -12 -13 0
v -11 -13 0
v -12 -14 0
v -13 -14 0
v -13 -13 0
v -12 -13 0
v -13 -14 0
v -14 -14 0
v -14 -13 0
v -13 -13 0
v -14 -14 0
v -15 -14 0
v -15 -13 0
v -14 -13 0
v -15 -14 0
v -16 -14 0
v -16 -13 0
v -15 -13 0
v -8 -15 0
v -9 -15 0
v -9 -14 0
v -8 -14 0
v -9 -15 0
v -10 -15 0
v -10 -14 0
v -9 -14 0
v -10 -15 0
v -11 -15 0
v -11 -14 0
v -10 -14 0
v -11 -15 0
v -12 -15 0
v -12 -14 0
v -11 -14 0
v -12 -15 0
v -13 -15 0
v -13 -14 0
v -12 -14 0
v -13 -15 0
v -14 -15 0
v -14 -14 0
v -13 -14 0
v -14 -15 0
v -15 -15 0
v -15 -14 0
v -14 -14 0
v -15 -15 0
v -16 -15 0
v -16 -14 0
v -15 -14 0
v -8 -16 0
v -9 -16 0
v -9 -15 0
v -8 -15 0
v -9 -16 0
v -10 -16 0
v -10 -15 0
v -9 -15 0
v -10 -16 0
v -11 -16 0
v -11 -15 0
v -10 -15 0
v -11 -16 0
v -12 -16 0
v -12 -15 0
v -11 -15 0
v -12 -16 0
v -13 -16 0
v -13 -15 0
v -12 -15 0
v -13 -16 0
v -14 -16 0
v -14 -15 0
v -13 -15 0
v -14 -16 0
v -15 -16 0
v -15 -15 0
v -14 -15 0
v -15 -16 0
v -16 -16 0
v -16 -15 0
v -15 -15 0

# Texture cooridinates (Count = 16)
vt 0.2173913 0.8333333
vt 0.2608696 0.8333333
vt 0.2608696 0.875
vt 0.2173913 0.875
vt 0.1304348 0.7916667
vt 0.173913 0.7916667
vt 0.173913 0.8333333
vt 0.1304348 0.8333333
vt 0.1304348 0.75
vt 0.173913 0.75
vt 0.2173913 0.75
vt 0.2173913 0.7916667
vt 0.2608696 0.75
vt 0.2608696 0.7916667
vt 0.173913 0.875
vt 0.1304348 0.875

# Normal
vn 0 0 -1

# Mesh description
g dungeon3_mesh_0014

# Faces
f 1/1/1 2/2/1 3/3/1 4/4/1
f 5/5/1 6/6/1 7/7/1 8/8/1
f 9/9/1 10/10/1 11/6/1 12/5/1
f 13/10/1 14/11/1 15/12/1 16/6/1
f 17/9/1 18/10/1 19/6/1 20/5/1
f 21/9/1 22/10/1 23/6/1 24/5/1
f 25/9/1 26/10/1 27/6/1 28/5/1
f 29/10/1 30/11/1 31/12/1 32/6/1
f 33/11/1 34/13/1 35/14/1 36/12/1
f 37/1/1 38/2/1 39/3/1 40/4/1
f 41/1/1 42/2/1 43/3/1 44/4/1
f 45/9/1 46/10/1 47/6/1 48/5/1
f 49/9/1 50/10/1 51/6/1 52/5/1
f 53/8/1 54/7/1 55/15/1 56/16/1
f 57/7/1 58/1/1 59/4/1 60/15/1
f 61/1/1 62/2/1 63/3/1 64/4/1
f 65/8/1 66/7/1 67/15/1 68/16/1
f 69/9/1 70/10/1 71/6/1 72/5/1
f 73/9/1 74/10/1 75/6/1 76/5/1
f 77/10/1 78/11/1 79/12/1 80/6/1
f 81/11/1 82/13/1 83/14/1 84/12/1
f 85/11/1 86/13/1 87/14/1 88/12/1
f 89/11/1 90/13/1 91/14/1 92/12/1
f 93/1/1 94/2/1 95/3/1 96/4/1
f 97/1/1 98/2/1 99/3/1 100/4/1
f 101/1/1 102/2/1 103/3/1 104/4/1
f 105/1/1 106/2/1 107/3/1 108/4/1
f 109/1/1 110/2/1 111/3/1 112/4/1
f 113/1/1 114/2/1 115/3/1 116/4/1
f 117/5/1 118/6/1 119/7/1 120/8/1
f 121/6/1 122/12/1 123/1/1 124/7/1
f 125/12/1 126/14/1 127/2/1 128/1/1
f 129/5/1 130/6/1 131/7/1 132/8/1
f 133/8/1 134/7/1 135/15/1 136/16/1
f 137/8/1 138/7/1 139/15/1 140/16/1
f 141/5/1 142/6/1 143/7/1 144/8/1
f 145/9/1 146/10/1 147/6/1 148/5/1
f 149/10/1 150/11/1 151/12/1 152/6/1
f 153/11/1 154/13/1 155/14/1 156/12/1
f 157/12/1 158/14/1 159/2/1 160/1/1
f 161/12/1 162/14/1 163/2/1 164/1/1
f 165/12/1 166/14/1 167/2/1 168/1/1
f 169/12/1 170/14/1 171/2/1 172/1/1
f 173/12/1 174/14/1 175/2/1 176/1/1
f 177/12/1 178/14/1 179/2/1 180/1/1
f 181/9/1 182/10/1 183/6/1 184/5/1
f 185/10/1 186/11/1 187/12/1 188/6/1
f 189/11/1 190/13/1 191/14/1 192/12/1
f 193/9/1 194/10/1 195/6/1 196/5/1
f 197/5/1 198/6/1 199/7/1 200/8/1
f 201/5/1 202/6/1 203/7/1 204/8/1
f 205/9/1 206/10/1 207/6/1 208/5/1
f 209/10/1 210/11/1 211/12/1 212/6/1
f 213/11/1 214/13/1 215/14/1 216/12/1
f 217/11/1 218/13/1 219/14/1 220/12/1
f 221/11/1 222/13/1 223/14/1 224/12/1
f 225/11/1 226/13/1 227/14/1 228/12/1
f 229/11/1 230/13/1 231/14/1 232/12/1
f 233/11/1 234/13/1 235/14/1 236/12/1
f 237/11/1 238/13/1 239/14/1 240/12/1
f 241/11/1 242/13/1 243/14/1 244/12/1
f 245/12/1 246/14/1 247/2/1 248/1/1
f 249/12/1 250/14/1 251/2/1 252/1/1
f 253/11/1 254/13/1 255/14/1 256/12/1
f 257/1/1 258/2/1 259/3/1 260/4/1
f 261/9/1 262/10/1 263/6/1 264/5/1
f 265/9/1 266/10/1 267/6/1 268/5/1
f 269/9/1 270/10/1 271/6/1 272/5/1
f 273/10/1 274/11/1 275/12/1 276/6/1
f 277/11/1 278/13/1 279/14/1 280/12/1
f 281/9/1 282/10/1 283/6/1 284/5/1
f 285/9/1 286/10/1 287/6/1 288/5/1
f 289/9/1 290/10/1 291/6/1 292/5/1
f 293/9/1 294/10/1 295/6/1 296/5/1
f 297/9/1 298/10/1 299/6/1 300/5/1
f 301/9/1 302/10/1 303/6/1 304/5/1
f 305/10/1 306/11/1 307/12/1 308/6/1
f 309/11/1 310/13/1 311/14/1 312/12/1
f 313/11/1 314/13/1 315/14/1 316/12/1
f 317/8/1 318/7/1 319/15/1 320/16/1
f 321/12/1 322/14/1 323/2/1 324/1/1
f 325/12/1 326/14/1 327/2/1 328/1/1
f 329/12/1 330/14/1 331/2/1 332/1/1
f 333/12/1 334/14/1 335/2/1 336/1/1
f 337/12/1 338/14/1 339/2/1 340/1/1
f 341/12/1 342/14/1 343/2/1 344/1/1
f 345/12/1 346/14/1 347/2/1 348/1/1
f 349/12/1 350/14/1 351/2/1 352/1/1
f 353/12/1 354/14/1 355/2/1 356/1/1
f 357/12/1 358/14/1 359/2/1 360/1/1
f 361/5/1 362/6/1 363/7/1 364/8/1
f 365/5/1 366/6/1 367/7/1 368/8/1
f 369/5/1 370/6/1 371/7/1 372/8/1
f 373/5/1 374/6/1 375/7/1 376/8/1
f 377/5/1 378/6/1 379/7/1 380/8/1
f 381/5/1 382/6/1 383/7/1 384/8/1
f 385/11/1 386/13/1 387/14/1 388/12/1
f 389/11/1 390/13/1 391/14/1 392/12/1
f 393/11/1 394/13/1 395/14/1 396/12/1
f 397/11/1 398/13/1 399/14/1 400/12/1
f 401/11/1 402/13/1 403/14/1 404/12/1
f 405/11/1 406/13/1 407/14/1 408/12/1
f 409/11/1 410/13/1 411/14/1 412/12/1
f 413/11/1 414/13/1 415/14/1 416/12/1
f 417/11/1 418/13/1 419/14/1 420/12/1
f 421/11/1 422/13/1 423/14/1 424/12/1
f 425/9/1 426/10/1 427/6/1 428/5/1
f 429/9/1 430/10/1 431/6/1 432/5/1
f 433/9/1 434/10/1 435/6/1 436/5/1
f 437/9/1 438/10/1 439/6/1 440/5/1
f 441/9/1 442/10/1 443/6/1 444/5/1
f 445/9/1 446/10/1 447/6/1 448/5/1
f 449/8/1 450/7/1 451/15/1 452/16/1
f 453/7/1 454/1/1 455/4/1 456/15/1
f 457/1/1 458/2/1 459/3/1 460/4/1
f 461/8/1 462/7/1 463/15/1 464/16/1
f 465/7/1 466/1/1 467/4/1 468/15/1
f 469/1/1 470/2/1 471/3/1 472/4/1
f 473/1/1 474/2/1 475/3/1 476/4/1
f 477/1/1 478/2/1 479/3/1 480/4/1
f 481/5/1 482/6/1 483/7/1 484/8/1
f 485/6/1 486/12/1 487/1/1 488/7/1
f 489/12/1 490/14/1 491/2/1 492/1/1
f 493/8/1 494/7/1 495/15/1 496/16/1
f 497/7/1 498/1/1 499/4/1 500/15/1
f 501/1/1 502/2/1 503/3/1 504/4/1
f 505/12/1 506/14/1 507/2/1 508/1/1
f 509/12/1 510/14/1 511/2/1 512/1/1
f 513/9/1 514/10/1 515/6/1 516/5/1
f 517/10/1 518/11/1 519/12/1 520/6/1
f 521/11/1 522/13/1 523/14/1 524/12/1
f 525/5/1 526/6/1 527/7/1 528/8/1
f 529/6/1 530/12/1 531/1/1 532/7/1
f 533/12/1 534/14/1 535/2/1 536/1/1
f 537/11/1 538/13/1 539/14/1 540/12/1
f 541/11/1 542/13/1 543/14/1 544/12/1
f 545/9/1 546/10/1 547/6/1 548/5/1
f 549/10/1 550/11/1 551/12/1 552/6/1
f 553/11/1 554/13/1 555/14/1 556/12/1
f 557/9/1 558/10/1 559/6/1 560/5/1
f 561/10/1 562/11/1 563/12/1 564/6/1
f 565/11/1 566/13/1 567/14/1 568/12/1
f 569/9/1 570/10/1 571/6/1 572/5/1
f 573/10/1 574/11/1 575/12/1 576/6/1
f 577/9/1 578/10/1 579/6/1 580/5/1
f 581/10/1 582/11/1 583/12/1 584/6/1
f 585/11/1 586/13/1 587/14/1 588/12/1
f 589/8/1 590/7/1 591/15/1 592/16/1
f 593/8/1 594/7/1 595/15/1 596/16/1
f 597/8/1 598/7/1 599/15/1 600/16/1
f 601/9/1 602/10/1 603/6/1 604/5/1
f 605/10/1 606/11/1 607/12/1 608/6/1
f 609/9/1 610/10/1 611/6/1 612/5/1
f 613/10/1 614/11/1 615/12/1 616/6/1
f 617/11/1 618/13/1 619/14/1 620/12/1
f 621/5/1 622/6/1 623/7/1 624/8/1
f 625/5/1 626/6/1 627/7/1 628/8/1
f 629/5/1 630/6/1 631/7/1 632/8/1
f 633/9/1 634/10/1 635/6/1 636/5/1
f 637/10/1 638/11/1 639/12/1 640/6/1
f 641/9/1 642/10/1 643/6/1 644/5/1
f 645/10/1 646/11/1 647/12/1 648/6/1
f 649/11/1 650/13/1 651/14/1 652/12/1
f 653/9/1 654/10/1 655/6/1 656/5/1
f 657/9/1 658/10/1 659/6/1 660/5/1
f 661/9/1 662/10/1 663/6/1 664/5/1
f 665/9/1 666/10/1 667/6/1 668/5/1
f 669/10/1 670/11/1 671/12/1 672/6/1
f 673/8/1 674/7/1 675/15/1 676/16/1
f 677/7/1 678/1/1 679/4/1 680/15/1
f 681/1/1 682/2/1 683/3/1 684/4/1
f 685/8/1 686/7/1 687/15/1 688/16/1
f 689/7/1 690/1/1 691/4/1 692/15/1
f 693/8/1 694/7/1 695/15/1 696/16/1
f 697/8/1 698/7/1 699/15/1 700/16/1
f 701/7/1 702/1/1 703/4/1 704/15/1
f 705/5/1 706/6/1 707/7/1 708/8/1
f 709/6/1 710/12/1 711/1/1 712/7/1
f 713/12/1 714/14/1 715/2/1 716/1/1
f 717/5/1 718/6/1 719/7/1 720/8/1
f 721/6/1 722/12/1 723/1/1 724/7/1
f 725/5/1 726/6/1 727/7/1 728/8/1
f 729/5/1 730/6/1 731/7/1 732/8/1
f 733/6/1 734/12/1 735/1/1 736/7/1

