# Tiled2Unity generated file. Do not modify by hand.
# Wavefront file for 'dungeonFinal_mesh_0006.obj'

# Vertices (Count = 416)
v 0 -1 0
v -1 -1 0
v -1 0 0
v 0 0 0
v -1 -1 0
v -2 -1 0
v -2 0 0
v -1 0 0
v -2 -1 0
v -3 -1 0
v -3 0 0
v -2 0 0
v -3 -1 0
v -4 -1 0
v -4 0 0
v -3 0 0
v -4 -1 0
v -5 -1 0
v -5 0 0
v -4 0 0
v -5 -1 0
v -6 -1 0
v -6 0 0
v -5 0 0
v -6 -1 0
v -7 -1 0
v -7 0 0
v -6 0 0
v -7 -1 0
v -8 -1 0
v -8 0 0
v -7 0 0
v -8 -1 0
v -9 -1 0
v -9 0 0
v -8 0 0
v 0 -2 0
v -1 -2 0
v -1 -1 0
v 0 -1 0
v -1 -2 0
v -2 -2 0
v -2 -1 0
v -1 -1 0
v -2 -2 0
v -3 -2 0
v -3 -1 0
v -2 -1 0
v -3 -2 0
v -4 -2 0
v -4 -1 0
v -3 -1 0
v -4 -2 0
v -5 -2 0
v -5 -1 0
v -4 -1 0
v -5 -2 0
v -6 -2 0
v -6 -1 0
v -5 -1 0
v -6 -2 0
v -7 -2 0
v -7 -1 0
v -6 -1 0
v -7 -2 0
v -8 -2 0
v -8 -1 0
v -7 -1 0
v -8 -2 0
v -9 -2 0
v -9 -1 0
v -8 -1 0
v 0 -3 0
v -1 -3 0
v -1 -2 0
v 0 -2 0
v -1 -3 0
v -2 -3 0
v -2 -2 0
v -1 -2 0
v -2 -3 0
v -3 -3 0
v -3 -2 0
v -2 -2 0
v -3 -3 0
v -4 -3 0
v -4 -2 0
v -3 -2 0
v -4 -3 0
v -5 -3 0
v -5 -2 0
v -4 -2 0
v -5 -3 0
v -6 -3 0
v -6 -2 0
v -5 -2 0
v -6 -3 0
v -7 -3 0
v -7 -2 0
v -6 -2 0
v -7 -3 0
v -8 -3 0
v -8 -2 0
v -7 -2 0
v -8 -3 0
v -9 -3 0
v -9 -2 0
v -8 -2 0
v 0 -4 0
v -1 -4 0
v -1 -3 0
v 0 -3 0
v -1 -4 0
v -2 -4 0
v -2 -3 0
v -1 -3 0
v -2 -4 0
v -3 -4 0
v -3 -3 0
v -2 -3 0
v -3 -4 0
v -4 -4 0
v -4 -3 0
v -3 -3 0
v -4 -4 0
v -5 -4 0
v -5 -3 0
v -4 -3 0
v -5 -4 0
v -6 -4 0
v -6 -3 0
v -5 -3 0
v -6 -4 0
v -7 -4 0
v -7 -3 0
v -6 -3 0
v -7 -4 0
v -8 -4 0
v -8 -3 0
v -7 -3 0
v -8 -4 0
v -9 -4 0
v -9 -3 0
v -8 -3 0
v 0 -5 0
v -1 -5 0
v -1 -4 0
v 0 -4 0
v -1 -5 0
v -2 -5 0
v -2 -4 0
v -1 -4 0
v -2 -5 0
v -3 -5 0
v -3 -4 0
v -2 -4 0
v -3 -5 0
v -4 -5 0
v -4 -4 0
v -3 -4 0
v -4 -5 0
v -5 -5 0
v -5 -4 0
v -4 -4 0
v -5 -5 0
v -6 -5 0
v -6 -4 0
v -5 -4 0
v -6 -5 0
v -7 -5 0
v -7 -4 0
v -6 -4 0
v -7 -5 0
v -8 -5 0
v -8 -4 0
v -7 -4 0
v -8 -5 0
v -9 -5 0
v -9 -4 0
v -8 -4 0
v 0 -6 0
v -1 -6 0
v -1 -5 0
v 0 -5 0
v -1 -6 0
v -2 -6 0
v -2 -5 0
v -1 -5 0
v -2 -6 0
v -3 -6 0
v -3 -5 0
v -2 -5 0
v -3 -6 0
v -4 -6 0
v -4 -5 0
v -3 -5 0
v -4 -6 0
v -5 -6 0
v -5 -5 0
v -4 -5 0
v -5 -6 0
v -6 -6 0
v -6 -5 0
v -5 -5 0
v -6 -6 0
v -7 -6 0
v -7 -5 0
v -6 -5 0
v -7 -6 0
v -8 -6 0
v -8 -5 0
v -7 -5 0
v -8 -6 0
v -9 -6 0
v -9 -5 0
v -8 -5 0
v 0 -7 0
v -1 -7 0
v -1 -6 0
v 0 -6 0
v -1 -7 0
v -2 -7 0
v -2 -6 0
v -1 -6 0
v 0 -8 0
v -1 -8 0
v -1 -7 0
v 0 -7 0
v -1 -8 0
v -2 -8 0
v -2 -7 0
v -1 -7 0
v 0 -9 0
v -1 -9 0
v -1 -8 0
v 0 -8 0
v -1 -9 0
v -2 -9 0
v -2 -8 0
v -1 -8 0
v 0 -10 0
v -1 -10 0
v -1 -9 0
v 0 -9 0
v -1 -10 0
v -2 -10 0
v -2 -9 0
v -1 -9 0
v 0 -11 0
v -1 -11 0
v -1 -10 0
v 0 -10 0
v -1 -11 0
v -2 -11 0
v -2 -10 0
v -1 -10 0
v 0 -12 0
v -1 -12 0
v -1 -11 0
v 0 -11 0
v -1 -12 0
v -2 -12 0
v -2 -11 0
v -1 -11 0
v 0 -13 0
v -1 -13 0
v -1 -12 0
v 0 -12 0
v -1 -13 0
v -2 -13 0
v -2 -12 0
v -1 -12 0
v 0 -14 0
v -1 -14 0
v -1 -13 0
v 0 -13 0
v -1 -14 0
v -2 -14 0
v -2 -13 0
v -1 -13 0
v -2 -14 0
v -3 -14 0
v -3 -13 0
v -2 -13 0
v -3 -14 0
v -4 -14 0
v -4 -13 0
v -3 -13 0
v -4 -14 0
v -5 -14 0
v -5 -13 0
v -4 -13 0
v -5 -14 0
v -6 -14 0
v -6 -13 0
v -5 -13 0
v -6 -14 0
v -7 -14 0
v -7 -13 0
v -6 -13 0
v -7 -14 0
v -8 -14 0
v -8 -13 0
v -7 -13 0
v -8 -14 0
v -9 -14 0
v -9 -13 0
v -8 -13 0
v -9 -14 0
v -10 -14 0
v -10 -13 0
v -9 -13 0
v -10 -14 0
v -11 -14 0
v -11 -13 0
v -10 -13 0
v -11 -14 0
v -12 -14 0
v -12 -13 0
v -11 -13 0
v 0 -15 0
v -1 -15 0
v -1 -14 0
v 0 -14 0
v -1 -15 0
v -2 -15 0
v -2 -14 0
v -1 -14 0
v -2 -15 0
v -3 -15 0
v -3 -14 0
v -2 -14 0
v -3 -15 0
v -4 -15 0
v -4 -14 0
v -3 -14 0
v -4 -15 0
v -5 -15 0
v -5 -14 0
v -4 -14 0
v -5 -15 0
v -6 -15 0
v -6 -14 0
v -5 -14 0
v -6 -15 0
v -7 -15 0
v -7 -14 0
v -6 -14 0
v -7 -15 0
v -8 -15 0
v -8 -14 0
v -7 -14 0
v -8 -15 0
v -9 -15 0
v -9 -14 0
v -8 -14 0
v -9 -15 0
v -10 -15 0
v -10 -14 0
v -9 -14 0
v -10 -15 0
v -11 -15 0
v -11 -14 0
v -10 -14 0
v -11 -15 0
v -12 -15 0
v -12 -14 0
v -11 -14 0
v 0 -16 0
v -1 -16 0
v -1 -15 0
v 0 -15 0
v -1 -16 0
v -2 -16 0
v -2 -15 0
v -1 -15 0
v -2 -16 0
v -3 -16 0
v -3 -15 0
v -2 -15 0
v -3 -16 0
v -4 -16 0
v -4 -15 0
v -3 -15 0
v -4 -16 0
v -5 -16 0
v -5 -15 0
v -4 -15 0
v -5 -16 0
v -6 -16 0
v -6 -15 0
v -5 -15 0
v -6 -16 0
v -7 -16 0
v -7 -15 0
v -6 -15 0
v -7 -16 0
v -8 -16 0
v -8 -15 0
v -7 -15 0
v -8 -16 0
v -9 -16 0
v -9 -15 0
v -8 -15 0
v -9 -16 0
v -10 -16 0
v -10 -15 0
v -9 -15 0
v -10 -16 0
v -11 -16 0
v -11 -15 0
v -10 -15 0
v -11 -16 0
v -12 -16 0
v -12 -15 0
v -11 -15 0

# Texture cooridinates (Count = 16)
vt 0.2173913 0.8333333
vt 0.2608696 0.8333333
vt 0.2608696 0.875
vt 0.2173913 0.875
vt 0.1304348 0.8333333
vt 0.173913 0.8333333
vt 0.173913 0.875
vt 0.1304348 0.875
vt 0.1304348 0.75
vt 0.173913 0.75
vt 0.173913 0.7916667
vt 0.1304348 0.7916667
vt 0.2173913 0.75
vt 0.2173913 0.7916667
vt 0.2608696 0.75
vt 0.2608696 0.7916667

# Normal
vn 0 0 -1

# Mesh description
g dungeonFinal_mesh_0006

# Faces
f 1/1/1 2/2/1 3/3/1 4/4/1
f 5/1/1 6/2/1 7/3/1 8/4/1
f 9/1/1 10/2/1 11/3/1 12/4/1
f 13/1/1 14/2/1 15/3/1 16/4/1
f 17/1/1 18/2/1 19/3/1 20/4/1
f 21/5/1 22/6/1 23/7/1 24/8/1
f 25/9/1 26/10/1 27/11/1 28/12/1
f 29/10/1 30/13/1 31/14/1 32/11/1
f 33/13/1 34/15/1 35/16/1 36/14/1
f 37/14/1 38/16/1 39/2/1 40/1/1
f 41/14/1 42/16/1 43/2/1 44/1/1
f 45/14/1 46/16/1 47/2/1 48/1/1
f 49/14/1 50/16/1 51/2/1 52/1/1
f 53/14/1 54/16/1 55/2/1 56/1/1
f 57/1/1 58/2/1 59/3/1 60/4/1
f 61/9/1 62/10/1 63/11/1 64/12/1
f 65/10/1 66/13/1 67/14/1 68/11/1
f 69/13/1 70/15/1 71/16/1 72/14/1
f 73/5/1 74/6/1 75/7/1 76/8/1
f 77/6/1 78/1/1 79/4/1 80/7/1
f 81/1/1 82/2/1 83/3/1 84/4/1
f 85/13/1 86/15/1 87/16/1 88/14/1
f 89/13/1 90/15/1 91/16/1 92/14/1
f 93/14/1 94/16/1 95/2/1 96/1/1
f 97/9/1 98/10/1 99/11/1 100/12/1
f 101/10/1 102/13/1 103/14/1 104/11/1
f 105/13/1 106/15/1 107/16/1 108/14/1
f 109/12/1 110/11/1 111/6/1 112/5/1
f 113/11/1 114/14/1 115/1/1 116/6/1
f 117/14/1 118/16/1 119/2/1 120/1/1
f 121/10/1 122/13/1 123/14/1 124/11/1
f 125/13/1 126/15/1 127/16/1 128/14/1
f 129/13/1 130/15/1 131/16/1 132/14/1
f 133/5/1 134/6/1 135/7/1 136/8/1
f 137/6/1 138/1/1 139/4/1 140/7/1
f 141/1/1 142/2/1 143/3/1 144/4/1
f 145/9/1 146/10/1 147/11/1 148/12/1
f 149/10/1 150/13/1 151/14/1 152/11/1
f 153/13/1 154/15/1 155/16/1 156/14/1
f 157/11/1 158/14/1 159/1/1 160/6/1
f 161/14/1 162/16/1 163/2/1 164/1/1
f 165/12/1 166/11/1 167/6/1 168/5/1
f 169/12/1 170/11/1 171/6/1 172/5/1
f 173/11/1 174/14/1 175/1/1 176/6/1
f 177/14/1 178/16/1 179/2/1 180/1/1
f 181/1/1 182/2/1 183/3/1 184/4/1
f 185/14/1 186/16/1 187/2/1 188/1/1
f 189/9/1 190/10/1 191/11/1 192/12/1
f 193/10/1 194/13/1 195/14/1 196/11/1
f 197/13/1 198/15/1 199/16/1 200/14/1
f 201/9/1 202/10/1 203/11/1 204/12/1
f 205/9/1 206/10/1 207/11/1 208/12/1
f 209/10/1 210/13/1 211/14/1 212/11/1
f 213/13/1 214/15/1 215/16/1 216/14/1
f 217/14/1 218/16/1 219/2/1 220/1/1
f 221/13/1 222/15/1 223/16/1 224/14/1
f 225/13/1 226/15/1 227/16/1 228/14/1
f 229/13/1 230/15/1 231/16/1 232/14/1
f 233/10/1 234/13/1 235/14/1 236/11/1
f 237/13/1 238/15/1 239/16/1 240/14/1
f 241/10/1 242/13/1 243/14/1 244/11/1
f 245/13/1 246/15/1 247/16/1 248/14/1
f 249/10/1 250/13/1 251/14/1 252/11/1
f 253/13/1 254/15/1 255/16/1 256/14/1
f 257/10/1 258/13/1 259/14/1 260/11/1
f 261/13/1 262/15/1 263/16/1 264/14/1
f 265/10/1 266/13/1 267/14/1 268/11/1
f 269/13/1 270/15/1 271/16/1 272/14/1
f 273/1/1 274/2/1 275/3/1 276/4/1
f 277/1/1 278/2/1 279/3/1 280/4/1
f 281/1/1 282/2/1 283/3/1 284/4/1
f 285/1/1 286/2/1 287/3/1 288/4/1
f 289/1/1 290/2/1 291/3/1 292/4/1
f 293/1/1 294/2/1 295/3/1 296/4/1
f 297/1/1 298/2/1 299/3/1 300/4/1
f 301/1/1 302/2/1 303/3/1 304/4/1
f 305/1/1 306/2/1 307/3/1 308/4/1
f 309/1/1 310/2/1 311/3/1 312/4/1
f 313/1/1 314/2/1 315/3/1 316/4/1
f 317/1/1 318/2/1 319/3/1 320/4/1
f 321/14/1 322/16/1 323/2/1 324/1/1
f 325/14/1 326/16/1 327/2/1 328/1/1
f 329/14/1 330/16/1 331/2/1 332/1/1
f 333/14/1 334/16/1 335/2/1 336/1/1
f 337/14/1 338/16/1 339/2/1 340/1/1
f 341/14/1 342/16/1 343/2/1 344/1/1
f 345/14/1 346/16/1 347/2/1 348/1/1
f 349/14/1 350/16/1 351/2/1 352/1/1
f 353/14/1 354/16/1 355/2/1 356/1/1
f 357/14/1 358/16/1 359/2/1 360/1/1
f 361/14/1 362/16/1 363/2/1 364/1/1
f 365/14/1 366/16/1 367/2/1 368/1/1
f 369/13/1 370/15/1 371/16/1 372/14/1
f 373/13/1 374/15/1 375/16/1 376/14/1
f 377/13/1 378/15/1 379/16/1 380/14/1
f 381/13/1 382/15/1 383/16/1 384/14/1
f 385/13/1 386/15/1 387/16/1 388/14/1
f 389/13/1 390/15/1 391/16/1 392/14/1
f 393/13/1 394/15/1 395/16/1 396/14/1
f 397/13/1 398/15/1 399/16/1 400/14/1
f 401/13/1 402/15/1 403/16/1 404/14/1
f 405/13/1 406/15/1 407/16/1 408/14/1
f 409/13/1 410/15/1 411/16/1 412/14/1
f 413/13/1 414/15/1 415/16/1 416/14/1

