# Tiled2Unity generated file. Do not modify by hand.
# Wavefront file for 'dungeonFinal_mesh_0030.obj'

# Vertices (Count = 164)
v -5 -1 0
v -6 -1 0
v -6 0 0
v -5 0 0
v -5 -2 0
v -6 -2 0
v -6 -1 0
v -5 -1 0
v -5 -3 0
v -6 -3 0
v -6 -2 0
v -5 -2 0
v -5 -4 0
v -6 -4 0
v -6 -3 0
v -5 -3 0
v -5 -5 0
v -6 -5 0
v -6 -4 0
v -5 -4 0
v -5 -6 0
v -6 -6 0
v -6 -5 0
v -5 -5 0
v -6 -6 0
v -7 -6 0
v -7 -5 0
v -6 -5 0
v -7 -6 0
v -8 -6 0
v -8 -5 0
v -7 -5 0
v -8 -6 0
v -9 -6 0
v -9 -5 0
v -8 -5 0
v -9 -6 0
v -10 -6 0
v -10 -5 0
v -9 -5 0
v -10 -6 0
v -11 -6 0
v -11 -5 0
v -10 -5 0
v -11 -6 0
v -12 -6 0
v -12 -5 0
v -11 -5 0
v -12 -6 0
v -13 -6 0
v -13 -5 0
v -12 -5 0
v -5 -7 0
v -6 -7 0
v -6 -6 0
v -5 -6 0
v -6 -7 0
v -7 -7 0
v -7 -6 0
v -6 -6 0
v -7 -7 0
v -8 -7 0
v -8 -6 0
v -7 -6 0
v -8 -7 0
v -9 -7 0
v -9 -6 0
v -8 -6 0
v -9 -7 0
v -10 -7 0
v -10 -6 0
v -9 -6 0
v -10 -7 0
v -11 -7 0
v -11 -6 0
v -10 -6 0
v -11 -7 0
v -12 -7 0
v -12 -6 0
v -11 -6 0
v -12 -7 0
v -13 -7 0
v -13 -6 0
v -12 -6 0
v -13 -7 0
v -14 -7 0
v -14 -6 0
v -13 -6 0
v -13 -8 0
v -14 -8 0
v -14 -7 0
v -13 -7 0
v -13 -9 0
v -14 -9 0
v -14 -8 0
v -13 -8 0
v -13 -10 0
v -14 -10 0
v -14 -9 0
v -13 -9 0
v -13 -11 0
v -14 -11 0
v -14 -10 0
v -13 -10 0
v -13 -12 0
v -14 -12 0
v -14 -11 0
v -13 -11 0
v -13 -13 0
v -14 -13 0
v -14 -12 0
v -13 -12 0
v -2 -14 0
v -3 -14 0
v -3 -13 0
v -2 -13 0
v -3 -14 0
v -4 -14 0
v -4 -13 0
v -3 -13 0
v -4 -14 0
v -5 -14 0
v -5 -13 0
v -4 -13 0
v -5 -14 0
v -6 -14 0
v -6 -13 0
v -5 -13 0
v -6 -14 0
v -7 -14 0
v -7 -13 0
v -6 -13 0
v -7 -14 0
v -8 -14 0
v -8 -13 0
v -7 -13 0
v -8 -14 0
v -9 -14 0
v -9 -13 0
v -8 -13 0
v -9 -14 0
v -10 -14 0
v -10 -13 0
v -9 -13 0
v -10 -14 0
v -11 -14 0
v -11 -13 0
v -10 -13 0
v -11 -14 0
v -12 -14 0
v -12 -13 0
v -11 -13 0
v -12 -14 0
v -13 -14 0
v -13 -13 0
v -12 -13 0
v -2 -15 0
v -3 -15 0
v -3 -14 0
v -2 -14 0
v -2 -16 0
v -3 -16 0
v -3 -15 0
v -2 -15 0

# Texture cooridinates (Count = 31)
vt 0.08695652 0.8333333
vt 0.1304348 0.8333333
vt 0.1304348 0.875
vt 0.08695652 0.875
vt 0.08695652 0.7916667
vt 0.1304348 0.7916667
vt 0.08695652 0.75
vt 0.1304348 0.75
vt 0.08695652 0.7083334
vt 0.1304348 0.7083334
vt 0.173913 0.7083334
vt 0.2173913 0.7083334
vt 0.2173913 0.75
vt 0.173913 0.75
vt 0.2608696 0.7083334
vt 0.2608696 0.75
vt 0.08695652 0.6666666
vt 0.1304348 0.6666666
vt 0.173913 0.6666666
vt 0.2173913 0.6666666
vt 0.2608696 0.6666666
vt 0.3043478 0.6666666
vt 0.3043478 0.7083334
vt 0.1304348 0.9166667
vt 0.08695652 0.9166667
vt 0.173913 0.875
vt 0.173913 0.9166667
vt 0.2173913 0.875
vt 0.2173913 0.9166667
vt 0.2608696 0.875
vt 0.2608696 0.9166667

# Normal
vn 0 0 -1

# Mesh description
g dungeonFinal_mesh_0030

# Faces
f 1/1/1 2/2/1 3/3/1 4/4/1
f 5/5/1 6/6/1 7/2/1 8/1/1
f 9/7/1 10/8/1 11/6/1 12/5/1
f 13/1/1 14/2/1 15/3/1 16/4/1
f 17/5/1 18/6/1 19/2/1 20/1/1
f 21/9/1 22/10/1 23/8/1 24/7/1
f 25/11/1 26/12/1 27/13/1 28/14/1
f 29/12/1 30/15/1 31/16/1 32/13/1
f 33/11/1 34/12/1 35/13/1 36/14/1
f 37/12/1 38/15/1 39/16/1 40/13/1
f 41/10/1 42/11/1 43/14/1 44/8/1
f 45/11/1 46/12/1 47/13/1 48/14/1
f 49/12/1 50/15/1 51/16/1 52/13/1
f 53/17/1 54/18/1 55/10/1 56/9/1
f 57/18/1 58/19/1 59/11/1 60/10/1
f 61/19/1 62/20/1 63/12/1 64/11/1
f 65/17/1 66/18/1 67/10/1 68/9/1
f 69/18/1 70/19/1 71/11/1 72/10/1
f 73/19/1 74/20/1 75/12/1 76/11/1
f 77/20/1 78/21/1 79/15/1 80/12/1
f 81/21/1 82/22/1 83/23/1 84/15/1
f 85/1/1 86/2/1 87/3/1 88/4/1
f 89/5/1 90/6/1 91/2/1 92/1/1
f 93/7/1 94/8/1 95/6/1 96/5/1
f 97/5/1 98/6/1 99/2/1 100/1/1
f 101/7/1 102/8/1 103/6/1 104/5/1
f 105/5/1 106/6/1 107/2/1 108/1/1
f 109/7/1 110/8/1 111/6/1 112/5/1
f 113/4/1 114/3/1 115/24/1 116/25/1
f 117/3/1 118/26/1 119/27/1 120/24/1
f 121/26/1 122/28/1 123/29/1 124/27/1
f 125/28/1 126/30/1 127/31/1 128/29/1
f 129/26/1 130/28/1 131/29/1 132/27/1
f 133/28/1 134/30/1 135/31/1 136/29/1
f 137/26/1 138/28/1 139/29/1 140/27/1
f 141/28/1 142/30/1 143/31/1 144/29/1
f 145/3/1 146/26/1 147/27/1 148/24/1
f 149/26/1 150/28/1 151/29/1 152/27/1
f 153/28/1 154/30/1 155/31/1 156/29/1
f 157/1/1 158/2/1 159/3/1 160/4/1
f 161/5/1 162/6/1 163/2/1 164/1/1

