# Tiled2Unity generated file. Do not modify by hand.
# Wavefront file for 'dungeonFinal_mesh_0040.obj'

# Vertices (Count = 136)
v -4 -1 0
v -5 -1 0
v -5 0 0
v -4 0 0
v -10 -1 0
v -11 -1 0
v -11 0 0
v -10 0 0
v -4 -2 0
v -5 -2 0
v -5 -1 0
v -4 -1 0
v -10 -2 0
v -11 -2 0
v -11 -1 0
v -10 -1 0
v -4 -3 0
v -5 -3 0
v -5 -2 0
v -4 -2 0
v -10 -3 0
v -11 -3 0
v -11 -2 0
v -10 -2 0
v -4 -4 0
v -5 -4 0
v -5 -3 0
v -4 -3 0
v -10 -4 0
v -11 -4 0
v -11 -3 0
v -10 -3 0
v -4 -5 0
v -5 -5 0
v -5 -4 0
v -4 -4 0
v -10 -5 0
v -11 -5 0
v -11 -4 0
v -10 -4 0
v -4 -6 0
v -5 -6 0
v -5 -5 0
v -4 -5 0
v -10 -6 0
v -11 -6 0
v -11 -5 0
v -10 -5 0
v -4 -7 0
v -5 -7 0
v -5 -6 0
v -4 -6 0
v -10 -7 0
v -11 -7 0
v -11 -6 0
v -10 -6 0
v -4 -8 0
v -5 -8 0
v -5 -7 0
v -4 -7 0
v -10 -8 0
v -11 -8 0
v -11 -7 0
v -10 -7 0
v -4 -9 0
v -5 -9 0
v -5 -8 0
v -4 -8 0
v -10 -9 0
v -11 -9 0
v -11 -8 0
v -10 -8 0
v -2 -10 0
v -3 -10 0
v -3 -9 0
v -2 -9 0
v -3 -10 0
v -4 -10 0
v -4 -9 0
v -3 -9 0
v -11 -10 0
v -12 -10 0
v -12 -9 0
v -11 -9 0
v -12 -10 0
v -13 -10 0
v -13 -9 0
v -12 -9 0
v -2 -11 0
v -3 -11 0
v -3 -10 0
v -2 -10 0
v -12 -11 0
v -13 -11 0
v -13 -10 0
v -12 -10 0
v -2 -12 0
v -3 -12 0
v -3 -11 0
v -2 -11 0
v -12 -12 0
v -13 -12 0
v -13 -11 0
v -12 -11 0
v -2 -13 0
v -3 -13 0
v -3 -12 0
v -2 -12 0
v -12 -13 0
v -13 -13 0
v -13 -12 0
v -12 -12 0
v -2 -14 0
v -3 -14 0
v -3 -13 0
v -2 -13 0
v -12 -14 0
v -13 -14 0
v -13 -13 0
v -12 -13 0
v -2 -15 0
v -3 -15 0
v -3 -14 0
v -2 -14 0
v -12 -15 0
v -13 -15 0
v -13 -14 0
v -12 -14 0
v -2 -16 0
v -3 -16 0
v -3 -15 0
v -2 -15 0
v -12 -16 0
v -13 -16 0
v -13 -15 0
v -12 -15 0

# Texture cooridinates (Count = 22)
vt 0.08695652 0.75
vt 0.1304348 0.75
vt 0.1304348 0.7916667
vt 0.08695652 0.7916667
vt 0.2608696 0.75
vt 0.3043478 0.75
vt 0.3043478 0.7916667
vt 0.2608696 0.7916667
vt 0.08695652 0.875
vt 0.1304348 0.875
vt 0.1304348 0.9166667
vt 0.08695652 0.9166667
vt 0.173913 0.875
vt 0.173913 0.9166667
vt 0.2608696 0.875
vt 0.3043478 0.875
vt 0.3043478 0.9166667
vt 0.2608696 0.9166667
vt 0.08695652 0.8333333
vt 0.1304348 0.8333333
vt 0.2608696 0.8333333
vt 0.3043478 0.8333333

# Normal
vn 0 0 -1

# Mesh description
g dungeonFinal_mesh_0040

# Faces
f 1/1/1 2/2/1 3/3/1 4/4/1
f 5/5/1 6/6/1 7/7/1 8/8/1
f 9/1/1 10/2/1 11/3/1 12/4/1
f 13/5/1 14/6/1 15/7/1 16/8/1
f 17/1/1 18/2/1 19/3/1 20/4/1
f 21/5/1 22/6/1 23/7/1 24/8/1
f 25/1/1 26/2/1 27/3/1 28/4/1
f 29/5/1 30/6/1 31/7/1 32/8/1
f 33/1/1 34/2/1 35/3/1 36/4/1
f 37/5/1 38/6/1 39/7/1 40/8/1
f 41/1/1 42/2/1 43/3/1 44/4/1
f 45/5/1 46/6/1 47/7/1 48/8/1
f 49/1/1 50/2/1 51/3/1 52/4/1
f 53/5/1 54/6/1 55/7/1 56/8/1
f 57/1/1 58/2/1 59/3/1 60/4/1
f 61/5/1 62/6/1 63/7/1 64/8/1
f 65/1/1 66/2/1 67/3/1 68/4/1
f 69/5/1 70/6/1 71/7/1 72/8/1
f 73/9/1 74/10/1 75/11/1 76/12/1
f 77/10/1 78/13/1 79/14/1 80/11/1
f 81/10/1 82/13/1 83/14/1 84/11/1
f 85/15/1 86/16/1 87/17/1 88/18/1
f 89/19/1 90/20/1 91/10/1 92/9/1
f 93/21/1 94/22/1 95/16/1 96/15/1
f 97/4/1 98/3/1 99/20/1 100/19/1
f 101/8/1 102/7/1 103/22/1 104/21/1
f 105/1/1 106/2/1 107/3/1 108/4/1
f 109/5/1 110/6/1 111/7/1 112/8/1
f 113/19/1 114/20/1 115/10/1 116/9/1
f 117/21/1 118/22/1 119/16/1 120/15/1
f 121/4/1 122/3/1 123/20/1 124/19/1
f 125/8/1 126/7/1 127/22/1 128/21/1
f 129/1/1 130/2/1 131/3/1 132/4/1
f 133/5/1 134/6/1 135/7/1 136/8/1

