# Tiled2Unity generated file. Do not modify by hand.
# Wavefront file for 'dungeonFinal_mesh_0031.obj'

# Vertices (Count = 152)
v -8 -1 0
v -9 -1 0
v -9 0 0
v -8 0 0
v -8 -2 0
v -9 -2 0
v -9 -1 0
v -8 -1 0
v -8 -3 0
v -9 -3 0
v -9 -2 0
v -8 -2 0
v -8 -4 0
v -9 -4 0
v -9 -3 0
v -8 -3 0
v -8 -5 0
v -9 -5 0
v -9 -4 0
v -8 -4 0
v -2 -6 0
v -3 -6 0
v -3 -5 0
v -2 -5 0
v -3 -6 0
v -4 -6 0
v -4 -5 0
v -3 -5 0
v -4 -6 0
v -5 -6 0
v -5 -5 0
v -4 -5 0
v -5 -6 0
v -6 -6 0
v -6 -5 0
v -5 -5 0
v -6 -6 0
v -7 -6 0
v -7 -5 0
v -6 -5 0
v -7 -6 0
v -8 -6 0
v -8 -5 0
v -7 -5 0
v -8 -6 0
v -9 -6 0
v -9 -5 0
v -8 -5 0
v -1 -7 0
v -2 -7 0
v -2 -6 0
v -1 -6 0
v -2 -7 0
v -3 -7 0
v -3 -6 0
v -2 -6 0
v -3 -7 0
v -4 -7 0
v -4 -6 0
v -3 -6 0
v -4 -7 0
v -5 -7 0
v -5 -6 0
v -4 -6 0
v -5 -7 0
v -6 -7 0
v -6 -6 0
v -5 -6 0
v -6 -7 0
v -7 -7 0
v -7 -6 0
v -6 -6 0
v -7 -7 0
v -8 -7 0
v -8 -6 0
v -7 -6 0
v -8 -7 0
v -9 -7 0
v -9 -6 0
v -8 -6 0
v -1 -8 0
v -2 -8 0
v -2 -7 0
v -1 -7 0
v -1 -9 0
v -2 -9 0
v -2 -8 0
v -1 -8 0
v -1 -10 0
v -2 -10 0
v -2 -9 0
v -1 -9 0
v -1 -11 0
v -2 -11 0
v -2 -10 0
v -1 -10 0
v -1 -12 0
v -2 -12 0
v -2 -11 0
v -1 -11 0
v -1 -13 0
v -2 -13 0
v -2 -12 0
v -1 -12 0
v -2 -14 0
v -3 -14 0
v -3 -13 0
v -2 -13 0
v -3 -14 0
v -4 -14 0
v -4 -13 0
v -3 -13 0
v -4 -14 0
v -5 -14 0
v -5 -13 0
v -4 -13 0
v -5 -14 0
v -6 -14 0
v -6 -13 0
v -5 -13 0
v -6 -14 0
v -7 -14 0
v -7 -13 0
v -6 -13 0
v -7 -14 0
v -8 -14 0
v -8 -13 0
v -7 -13 0
v -8 -14 0
v -9 -14 0
v -9 -13 0
v -8 -13 0
v -9 -14 0
v -10 -14 0
v -10 -13 0
v -9 -13 0
v -10 -14 0
v -11 -14 0
v -11 -13 0
v -10 -13 0
v -11 -14 0
v -12 -14 0
v -12 -13 0
v -11 -13 0
v -11 -15 0
v -12 -15 0
v -12 -14 0
v -11 -14 0
v -11 -16 0
v -12 -16 0
v -12 -15 0
v -11 -15 0

# Texture cooridinates (Count = 31)
vt 0.2608696 0.8333333
vt 0.3043478 0.8333333
vt 0.3043478 0.875
vt 0.2608696 0.875
vt 0.2608696 0.7916667
vt 0.3043478 0.7916667
vt 0.1304348 0.7083334
vt 0.173913 0.7083334
vt 0.173913 0.75
vt 0.1304348 0.75
vt 0.2173913 0.7083334
vt 0.2173913 0.75
vt 0.2608696 0.7083334
vt 0.2608696 0.75
vt 0.3043478 0.7083334
vt 0.3043478 0.75
vt 0.08695652 0.6666666
vt 0.1304348 0.6666666
vt 0.08695652 0.7083334
vt 0.173913 0.6666666
vt 0.2173913 0.6666666
vt 0.2608696 0.6666666
vt 0.3043478 0.6666666
vt 0.1304348 0.875
vt 0.173913 0.875
vt 0.173913 0.9166667
vt 0.1304348 0.9166667
vt 0.2173913 0.875
vt 0.2173913 0.9166667
vt 0.2608696 0.9166667
vt 0.3043478 0.9166667

# Normal
vn 0 0 -1

# Mesh description
g dungeonFinal_mesh_0031

# Faces
f 1/1/1 2/2/1 3/3/1 4/4/1
f 5/1/1 6/2/1 7/3/1 8/4/1
f 9/1/1 10/2/1 11/3/1 12/4/1
f 13/1/1 14/2/1 15/3/1 16/4/1
f 17/5/1 18/6/1 19/2/1 20/1/1
f 21/7/1 22/8/1 23/9/1 24/10/1
f 25/8/1 26/11/1 27/12/1 28/9/1
f 29/11/1 30/13/1 31/14/1 32/12/1
f 33/11/1 34/13/1 35/14/1 36/12/1
f 37/11/1 38/13/1 39/14/1 40/12/1
f 41/11/1 42/13/1 43/14/1 44/12/1
f 45/13/1 46/15/1 47/16/1 48/14/1
f 49/1/1 50/2/1 51/3/1 52/4/1
f 53/17/1 54/18/1 55/7/1 56/19/1
f 57/18/1 58/20/1 59/8/1 60/7/1
f 61/17/1 62/18/1 63/7/1 64/19/1
f 65/18/1 66/20/1 67/8/1 68/7/1
f 69/20/1 70/21/1 71/11/1 72/8/1
f 73/21/1 74/22/1 75/13/1 76/11/1
f 77/22/1 78/23/1 79/15/1 80/13/1
f 81/5/1 82/6/1 83/2/1 84/1/1
f 85/14/1 86/16/1 87/6/1 88/5/1
f 89/14/1 90/16/1 91/6/1 92/5/1
f 93/14/1 94/16/1 95/6/1 96/5/1
f 97/14/1 98/16/1 99/6/1 100/5/1
f 101/14/1 102/16/1 103/6/1 104/5/1
f 105/24/1 106/25/1 107/26/1 108/27/1
f 109/25/1 110/28/1 111/29/1 112/26/1
f 113/28/1 114/4/1 115/30/1 116/29/1
f 117/28/1 118/4/1 119/30/1 120/29/1
f 121/25/1 122/28/1 123/29/1 124/26/1
f 125/28/1 126/4/1 127/30/1 128/29/1
f 129/24/1 130/25/1 131/26/1 132/27/1
f 133/25/1 134/28/1 135/29/1 136/26/1
f 137/28/1 138/4/1 139/30/1 140/29/1
f 141/4/1 142/3/1 143/31/1 144/30/1
f 145/1/1 146/2/1 147/3/1 148/4/1
f 149/5/1 150/6/1 151/2/1 152/1/1

