# Tiled2Unity generated file. Do not modify by hand.
# Wavefront file for 'dungeonFinal_mesh_0036.obj'

# Vertices (Count = 148)
v -2 -1 0
v -3 -1 0
v -3 0 0
v -2 0 0
v -2 -2 0
v -3 -2 0
v -3 -1 0
v -2 -1 0
v -2 -3 0
v -3 -3 0
v -3 -2 0
v -2 -2 0
v -2 -4 0
v -3 -4 0
v -3 -3 0
v -2 -3 0
v -2 -5 0
v -3 -5 0
v -3 -4 0
v -2 -4 0
v -2 -6 0
v -3 -6 0
v -3 -5 0
v -2 -5 0
v -2 -7 0
v -3 -7 0
v -3 -6 0
v -2 -6 0
v -2 -8 0
v -3 -8 0
v -3 -7 0
v -2 -7 0
v -2 -9 0
v -3 -9 0
v -3 -8 0
v -2 -8 0
v -2 -10 0
v -3 -10 0
v -3 -9 0
v -2 -9 0
v -2 -11 0
v -3 -11 0
v -3 -10 0
v -2 -10 0
v -2 -12 0
v -3 -12 0
v -3 -11 0
v -2 -11 0
v -3 -12 0
v -4 -12 0
v -4 -11 0
v -3 -11 0
v -4 -12 0
v -5 -12 0
v -5 -11 0
v -4 -11 0
v -5 -12 0
v -6 -12 0
v -6 -11 0
v -5 -11 0
v -6 -12 0
v -7 -12 0
v -7 -11 0
v -6 -11 0
v -7 -12 0
v -8 -12 0
v -8 -11 0
v -7 -11 0
v -8 -12 0
v -9 -12 0
v -9 -11 0
v -8 -11 0
v -14 -12 0
v -15 -12 0
v -15 -11 0
v -14 -11 0
v -15 -12 0
v -16 -12 0
v -16 -11 0
v -15 -11 0
v -2 -13 0
v -3 -13 0
v -3 -12 0
v -2 -12 0
v -3 -13 0
v -4 -13 0
v -4 -12 0
v -3 -12 0
v -4 -13 0
v -5 -13 0
v -5 -12 0
v -4 -12 0
v -5 -13 0
v -6 -13 0
v -6 -12 0
v -5 -12 0
v -6 -13 0
v -7 -13 0
v -7 -12 0
v -6 -12 0
v -7 -13 0
v -8 -13 0
v -8 -12 0
v -7 -12 0
v -8 -13 0
v -9 -13 0
v -9 -12 0
v -8 -12 0
v -9 -13 0
v -10 -13 0
v -10 -12 0
v -9 -12 0
v -13 -13 0
v -14 -13 0
v -14 -12 0
v -13 -12 0
v -14 -13 0
v -15 -13 0
v -15 -12 0
v -14 -12 0
v -15 -13 0
v -16 -13 0
v -16 -12 0
v -15 -12 0
v -9 -14 0
v -10 -14 0
v -10 -13 0
v -9 -13 0
v -13 -14 0
v -14 -14 0
v -14 -13 0
v -13 -13 0
v -9 -15 0
v -10 -15 0
v -10 -14 0
v -9 -14 0
v -13 -15 0
v -14 -15 0
v -14 -14 0
v -13 -14 0
v -9 -16 0
v -10 -16 0
v -10 -15 0
v -9 -15 0
v -13 -16 0
v -14 -16 0
v -14 -15 0
v -13 -15 0

# Texture cooridinates (Count = 30)
vt 0.08695652 0.8333333
vt 0.1304348 0.8333333
vt 0.1304348 0.875
vt 0.08695652 0.875
vt 0.08695652 0.7916667
vt 0.1304348 0.7916667
vt 0.08695652 0.7083334
vt 0.1304348 0.7083334
vt 0.1304348 0.75
vt 0.08695652 0.75
vt 0.173913 0.7083334
vt 0.173913 0.75
vt 0.2173913 0.7083334
vt 0.2173913 0.75
vt 0.2608696 0.7083334
vt 0.2608696 0.75
vt 0.08695652 0.6666666
vt 0.1304348 0.6666666
vt 0.173913 0.6666666
vt 0.2173913 0.6666666
vt 0.2608696 0.6666666
vt 0.3043478 0.6666666
vt 0.3043478 0.7083334
vt 0.2608696 0.8333333
vt 0.3043478 0.8333333
vt 0.3043478 0.875
vt 0.2608696 0.875
vt 0.2608696 0.7916667
vt 0.3043478 0.7916667
vt 0.3043478 0.75

# Normal
vn 0 0 -1

# Mesh description
g dungeonFinal_mesh_0036

# Faces
f 1/1/1 2/2/1 3/3/1 4/4/1
f 5/1/1 6/2/1 7/3/1 8/4/1
f 9/1/1 10/2/1 11/3/1 12/4/1
f 13/1/1 14/2/1 15/3/1 16/4/1
f 17/1/1 18/2/1 19/3/1 20/4/1
f 21/1/1 22/2/1 23/3/1 24/4/1
f 25/1/1 26/2/1 27/3/1 28/4/1
f 29/1/1 30/2/1 31/3/1 32/4/1
f 33/1/1 34/2/1 35/3/1 36/4/1
f 37/1/1 38/2/1 39/3/1 40/4/1
f 41/5/1 42/6/1 43/2/1 44/1/1
f 45/7/1 46/8/1 47/9/1 48/10/1
f 49/8/1 50/11/1 51/12/1 52/9/1
f 53/8/1 54/11/1 55/12/1 56/9/1
f 57/8/1 58/11/1 59/12/1 60/9/1
f 61/8/1 62/11/1 63/12/1 64/9/1
f 65/11/1 66/13/1 67/14/1 68/12/1
f 69/13/1 70/15/1 71/16/1 72/14/1
f 73/8/1 74/11/1 75/12/1 76/9/1
f 77/8/1 78/11/1 79/12/1 80/9/1
f 81/17/1 82/18/1 83/8/1 84/7/1
f 85/17/1 86/18/1 87/8/1 88/7/1
f 89/17/1 90/18/1 91/8/1 92/7/1
f 93/18/1 94/19/1 95/11/1 96/8/1
f 97/19/1 98/20/1 99/13/1 100/11/1
f 101/20/1 102/21/1 103/15/1 104/13/1
f 105/21/1 106/22/1 107/23/1 108/15/1
f 109/1/1 110/2/1 111/3/1 112/4/1
f 113/24/1 114/25/1 115/26/1 116/27/1
f 117/17/1 118/18/1 119/8/1 120/7/1
f 121/17/1 122/18/1 123/8/1 124/7/1
f 125/5/1 126/6/1 127/2/1 128/1/1
f 129/28/1 130/29/1 131/25/1 132/24/1
f 133/10/1 134/9/1 135/6/1 136/5/1
f 137/16/1 138/30/1 139/29/1 140/28/1
f 141/10/1 142/9/1 143/6/1 144/5/1
f 145/16/1 146/30/1 147/29/1 148/28/1

