# Tiled2Unity generated file. Do not modify by hand.
# Wavefront file for 'dungeonFinal_mesh_0076.obj'

# Vertices (Count = 168)
v 0 -1 0
v -1 -1 0
v -1 0 0
v 0 0 0
v -1 -1 0
v -2 -1 0
v -2 0 0
v -1 0 0
v -12 -1 0
v -13 -1 0
v -13 0 0
v -12 0 0
v -12 -2 0
v -13 -2 0
v -13 -1 0
v -12 -1 0
v -12 -3 0
v -13 -3 0
v -13 -2 0
v -12 -2 0
v 0 -4 0
v -1 -4 0
v -1 -3 0
v 0 -3 0
v -1 -4 0
v -2 -4 0
v -2 -3 0
v -1 -3 0
v -12 -4 0
v -13 -4 0
v -13 -3 0
v -12 -3 0
v 0 -5 0
v -1 -5 0
v -1 -4 0
v 0 -4 0
v -1 -5 0
v -2 -5 0
v -2 -4 0
v -1 -4 0
v -2 -5 0
v -3 -5 0
v -3 -4 0
v -2 -4 0
v -12 -5 0
v -13 -5 0
v -13 -4 0
v -12 -4 0
v -2 -6 0
v -3 -6 0
v -3 -5 0
v -2 -5 0
v -12 -6 0
v -13 -6 0
v -13 -5 0
v -12 -5 0
v -2 -7 0
v -3 -7 0
v -3 -6 0
v -2 -6 0
v -12 -7 0
v -13 -7 0
v -13 -6 0
v -12 -6 0
v -2 -8 0
v -3 -8 0
v -3 -7 0
v -2 -7 0
v -12 -8 0
v -13 -8 0
v -13 -7 0
v -12 -7 0
v -2 -9 0
v -3 -9 0
v -3 -8 0
v -2 -8 0
v -12 -9 0
v -13 -9 0
v -13 -8 0
v -12 -8 0
v -2 -10 0
v -3 -10 0
v -3 -9 0
v -2 -9 0
v -3 -10 0
v -4 -10 0
v -4 -9 0
v -3 -9 0
v -4 -10 0
v -5 -10 0
v -5 -9 0
v -4 -9 0
v -5 -10 0
v -6 -10 0
v -6 -9 0
v -5 -9 0
v -6 -10 0
v -7 -10 0
v -7 -9 0
v -6 -9 0
v -7 -10 0
v -8 -10 0
v -8 -9 0
v -7 -9 0
v -8 -10 0
v -9 -10 0
v -9 -9 0
v -8 -9 0
v -9 -10 0
v -10 -10 0
v -10 -9 0
v -9 -9 0
v -10 -10 0
v -11 -10 0
v -11 -9 0
v -10 -9 0
v -11 -10 0
v -12 -10 0
v -12 -9 0
v -11 -9 0
v -12 -10 0
v -13 -10 0
v -13 -9 0
v -12 -9 0
v -2 -11 0
v -3 -11 0
v -3 -10 0
v -2 -10 0
v -3 -11 0
v -4 -11 0
v -4 -10 0
v -3 -10 0
v -4 -11 0
v -5 -11 0
v -5 -10 0
v -4 -10 0
v -5 -11 0
v -6 -11 0
v -6 -10 0
v -5 -10 0
v -6 -11 0
v -7 -11 0
v -7 -10 0
v -6 -10 0
v -7 -11 0
v -8 -11 0
v -8 -10 0
v -7 -10 0
v -8 -11 0
v -9 -11 0
v -9 -10 0
v -8 -10 0
v -9 -11 0
v -10 -11 0
v -10 -10 0
v -9 -10 0
v -10 -11 0
v -11 -11 0
v -11 -10 0
v -10 -10 0
v -11 -11 0
v -12 -11 0
v -12 -10 0
v -11 -10 0
v -12 -11 0
v -13 -11 0
v -13 -10 0
v -12 -10 0

# Texture cooridinates (Count = 6)
vt 0.5217391 0.5833334
vt 0.5652174 0.5833334
vt 0.5652174 0.625
vt 0.5217391 0.625
vt 0.5652174 0.6666666
vt 0.5217391 0.6666666

# Normal
vn 0 0 -1

# Mesh description
g dungeonFinal_mesh_0076

# Faces
f 1/1/1 2/2/1 3/3/1 4/4/1
f 5/1/1 6/2/1 7/3/1 8/4/1
f 9/4/1 10/3/1 11/5/1 12/6/1
f 13/4/1 14/3/1 15/5/1 16/6/1
f 17/4/1 18/3/1 19/5/1 20/6/1
f 21/4/1 22/3/1 23/5/1 24/6/1
f 25/4/1 26/3/1 27/5/1 28/6/1
f 29/4/1 30/3/1 31/5/1 32/6/1
f 33/1/1 34/2/1 35/3/1 36/4/1
f 37/1/1 38/2/1 39/3/1 40/4/1
f 41/4/1 42/3/1 43/5/1 44/6/1
f 45/4/1 46/3/1 47/5/1 48/6/1
f 49/4/1 50/3/1 51/5/1 52/6/1
f 53/4/1 54/3/1 55/5/1 56/6/1
f 57/4/1 58/3/1 59/5/1 60/6/1
f 61/4/1 62/3/1 63/5/1 64/6/1
f 65/4/1 66/3/1 67/5/1 68/6/1
f 69/4/1 70/3/1 71/5/1 72/6/1
f 73/4/1 74/3/1 75/5/1 76/6/1
f 77/4/1 78/3/1 79/5/1 80/6/1
f 81/4/1 82/3/1 83/5/1 84/6/1
f 85/4/1 86/3/1 87/5/1 88/6/1
f 89/4/1 90/3/1 91/5/1 92/6/1
f 93/4/1 94/3/1 95/5/1 96/6/1
f 97/4/1 98/3/1 99/5/1 100/6/1
f 101/4/1 102/3/1 103/5/1 104/6/1
f 105/4/1 106/3/1 107/5/1 108/6/1
f 109/4/1 110/3/1 111/5/1 112/6/1
f 113/4/1 114/3/1 115/5/1 116/6/1
f 117/4/1 118/3/1 119/5/1 120/6/1
f 121/4/1 122/3/1 123/5/1 124/6/1
f 125/1/1 126/2/1 127/3/1 128/4/1
f 129/1/1 130/2/1 131/3/1 132/4/1
f 133/1/1 134/2/1 135/3/1 136/4/1
f 137/1/1 138/2/1 139/3/1 140/4/1
f 141/1/1 142/2/1 143/3/1 144/4/1
f 145/1/1 146/2/1 147/3/1 148/4/1
f 149/1/1 150/2/1 151/3/1 152/4/1
f 153/1/1 154/2/1 155/3/1 156/4/1
f 157/1/1 158/2/1 159/3/1 160/4/1
f 161/1/1 162/2/1 163/3/1 164/4/1
f 165/1/1 166/2/1 167/3/1 168/4/1

