# Tiled2Unity generated file. Do not modify by hand.
# Wavefront file for 'dungeonFinal_mesh_0050.obj'

# Vertices (Count = 124)
v 0 -1 0
v -1 -1 0
v -1 0 0
v 0 0 0
v -1 -1 0
v -2 -1 0
v -2 0 0
v -1 0 0
v -2 -1 0
v -3 -1 0
v -3 0 0
v -2 0 0
v -3 -1 0
v -4 -1 0
v -4 0 0
v -3 0 0
v -4 -1 0
v -5 -1 0
v -5 0 0
v -4 0 0
v -4 -2 0
v -5 -2 0
v -5 -1 0
v -4 -1 0
v -4 -3 0
v -5 -3 0
v -5 -2 0
v -4 -2 0
v -4 -4 0
v -5 -4 0
v -5 -3 0
v -4 -3 0
v -5 -4 0
v -6 -4 0
v -6 -3 0
v -5 -3 0
v -6 -4 0
v -7 -4 0
v -7 -3 0
v -6 -3 0
v -7 -4 0
v -8 -4 0
v -8 -3 0
v -7 -3 0
v -8 -4 0
v -9 -4 0
v -9 -3 0
v -8 -3 0
v -9 -4 0
v -10 -4 0
v -10 -3 0
v -9 -3 0
v -10 -4 0
v -11 -4 0
v -11 -3 0
v -10 -3 0
v -11 -4 0
v -12 -4 0
v -12 -3 0
v -11 -3 0
v -12 -4 0
v -13 -4 0
v -13 -3 0
v -12 -3 0
v -13 -4 0
v -14 -4 0
v -14 -3 0
v -13 -3 0
v -14 -4 0
v -15 -4 0
v -15 -3 0
v -14 -3 0
v -15 -4 0
v -16 -4 0
v -16 -3 0
v -15 -3 0
v -4 -5 0
v -5 -5 0
v -5 -4 0
v -4 -4 0
v -5 -5 0
v -6 -5 0
v -6 -4 0
v -5 -4 0
v -6 -5 0
v -7 -5 0
v -7 -4 0
v -6 -4 0
v -7 -5 0
v -8 -5 0
v -8 -4 0
v -7 -4 0
v -8 -5 0
v -9 -5 0
v -9 -4 0
v -8 -4 0
v -9 -5 0
v -10 -5 0
v -10 -4 0
v -9 -4 0
v -10 -5 0
v -11 -5 0
v -11 -4 0
v -10 -4 0
v -11 -5 0
v -12 -5 0
v -12 -4 0
v -11 -4 0
v -12 -5 0
v -13 -5 0
v -13 -4 0
v -12 -4 0
v -13 -5 0
v -14 -5 0
v -14 -4 0
v -13 -4 0
v -14 -5 0
v -15 -5 0
v -15 -4 0
v -14 -4 0
v -15 -5 0
v -16 -5 0
v -16 -4 0
v -15 -4 0

# Texture cooridinates (Count = 21)
vt 0.1304348 0.6666666
vt 0.173913 0.6666666
vt 0.173913 0.7083334
vt 0.1304348 0.7083334
vt 0.2173913 0.6666666
vt 0.2173913 0.7083334
vt 0.2608696 0.6666666
vt 0.2608696 0.7083334
vt 0.3043478 0.6666666
vt 0.3043478 0.7083334
vt 0.08695652 0.8333333
vt 0.1304348 0.8333333
vt 0.1304348 0.875
vt 0.08695652 0.875
vt 0.08695652 0.7916667
vt 0.1304348 0.7916667
vt 0.08695652 0.75
vt 0.1304348 0.75
vt 0.08695652 0.7083334
vt 0.173913 0.75
vt 0.08695652 0.6666666

# Normal
vn 0 0 -1

# Mesh description
g dungeonFinal_mesh_0050

# Faces
f 1/1/1 2/2/1 3/3/1 4/4/1
f 5/2/1 6/5/1 7/6/1 8/3/1
f 9/5/1 10/7/1 11/8/1 12/6/1
f 13/7/1 14/9/1 15/10/1 16/8/1
f 17/11/1 18/12/1 19/13/1 20/14/1
f 21/15/1 22/16/1 23/12/1 24/11/1
f 25/17/1 26/18/1 27/16/1 28/15/1
f 29/19/1 30/4/1 31/18/1 32/17/1
f 33/4/1 34/3/1 35/20/1 36/18/1
f 37/4/1 38/3/1 39/20/1 40/18/1
f 41/4/1 42/3/1 43/20/1 44/18/1
f 45/4/1 46/3/1 47/20/1 48/18/1
f 49/4/1 50/3/1 51/20/1 52/18/1
f 53/4/1 54/3/1 55/20/1 56/18/1
f 57/4/1 58/3/1 59/20/1 60/18/1
f 61/4/1 62/3/1 63/20/1 64/18/1
f 65/4/1 66/3/1 67/20/1 68/18/1
f 69/4/1 70/3/1 71/20/1 72/18/1
f 73/4/1 74/3/1 75/20/1 76/18/1
f 77/21/1 78/1/1 79/4/1 80/19/1
f 81/21/1 82/1/1 83/4/1 84/19/1
f 85/21/1 86/1/1 87/4/1 88/19/1
f 89/21/1 90/1/1 91/4/1 92/19/1
f 93/21/1 94/1/1 95/4/1 96/19/1
f 97/21/1 98/1/1 99/4/1 100/19/1
f 101/21/1 102/1/1 103/4/1 104/19/1
f 105/21/1 106/1/1 107/4/1 108/19/1
f 109/21/1 110/1/1 111/4/1 112/19/1
f 113/21/1 114/1/1 115/4/1 116/19/1
f 117/1/1 118/2/1 119/3/1 120/4/1
f 121/2/1 122/5/1 123/6/1 124/3/1

