# Tiled2Unity generated file. Do not modify by hand.
# Wavefront file for 'dungeonFinal_mesh_0041.obj'

# Vertices (Count = 168)
v -3 -1 0
v -4 -1 0
v -4 0 0
v -3 0 0
v -15 -1 0
v -16 -1 0
v -16 0 0
v -15 0 0
v -3 -2 0
v -4 -2 0
v -4 -1 0
v -3 -1 0
v -15 -2 0
v -16 -2 0
v -16 -1 0
v -15 -1 0
v -3 -3 0
v -4 -3 0
v -4 -2 0
v -3 -2 0
v -15 -3 0
v -16 -3 0
v -16 -2 0
v -15 -2 0
v -3 -4 0
v -4 -4 0
v -4 -3 0
v -3 -3 0
v -15 -4 0
v -16 -4 0
v -16 -3 0
v -15 -3 0
v -3 -5 0
v -4 -5 0
v -4 -4 0
v -3 -4 0
v -15 -5 0
v -16 -5 0
v -16 -4 0
v -15 -4 0
v -3 -6 0
v -4 -6 0
v -4 -5 0
v -3 -5 0
v -15 -6 0
v -16 -6 0
v -16 -5 0
v -15 -5 0
v -3 -7 0
v -4 -7 0
v -4 -6 0
v -3 -6 0
v -15 -7 0
v -16 -7 0
v -16 -6 0
v -15 -6 0
v -3 -8 0
v -4 -8 0
v -4 -7 0
v -3 -7 0
v -15 -8 0
v -16 -8 0
v -16 -7 0
v -15 -7 0
v -3 -9 0
v -4 -9 0
v -4 -8 0
v -3 -8 0
v -4 -9 0
v -5 -9 0
v -5 -8 0
v -4 -8 0
v -5 -9 0
v -6 -9 0
v -6 -8 0
v -5 -8 0
v -6 -9 0
v -7 -9 0
v -7 -8 0
v -6 -8 0
v -7 -9 0
v -8 -9 0
v -8 -8 0
v -7 -8 0
v -8 -9 0
v -9 -9 0
v -9 -8 0
v -8 -8 0
v -9 -9 0
v -10 -9 0
v -10 -8 0
v -9 -8 0
v -10 -9 0
v -11 -9 0
v -11 -8 0
v -10 -8 0
v -11 -9 0
v -12 -9 0
v -12 -8 0
v -11 -8 0
v -12 -9 0
v -13 -9 0
v -13 -8 0
v -12 -8 0
v -13 -9 0
v -14 -9 0
v -14 -8 0
v -13 -8 0
v -14 -9 0
v -15 -9 0
v -15 -8 0
v -14 -8 0
v -15 -9 0
v -16 -9 0
v -16 -8 0
v -15 -8 0
v -3 -10 0
v -4 -10 0
v -4 -9 0
v -3 -9 0
v -4 -10 0
v -5 -10 0
v -5 -9 0
v -4 -9 0
v -5 -10 0
v -6 -10 0
v -6 -9 0
v -5 -9 0
v -6 -10 0
v -7 -10 0
v -7 -9 0
v -6 -9 0
v -7 -10 0
v -8 -10 0
v -8 -9 0
v -7 -9 0
v -8 -10 0
v -9 -10 0
v -9 -9 0
v -8 -9 0
v -9 -10 0
v -10 -10 0
v -10 -9 0
v -9 -9 0
v -10 -10 0
v -11 -10 0
v -11 -9 0
v -10 -9 0
v -11 -10 0
v -12 -10 0
v -12 -9 0
v -11 -9 0
v -12 -10 0
v -13 -10 0
v -13 -9 0
v -12 -9 0
v -13 -10 0
v -14 -10 0
v -14 -9 0
v -13 -9 0
v -14 -10 0
v -15 -10 0
v -15 -9 0
v -14 -9 0
v -15 -10 0
v -16 -10 0
v -16 -9 0
v -15 -9 0

# Texture cooridinates (Count = 26)
vt 0.08695652 0.75
vt 0.1304348 0.75
vt 0.1304348 0.7916667
vt 0.08695652 0.7916667
vt 0.2608696 0.8333333
vt 0.3043478 0.8333333
vt 0.3043478 0.875
vt 0.2608696 0.875
vt 0.2608696 0.7916667
vt 0.3043478 0.7916667
vt 0.2608696 0.75
vt 0.3043478 0.75
vt 0.08695652 0.7083334
vt 0.1304348 0.7083334
vt 0.173913 0.7083334
vt 0.173913 0.75
vt 0.2173913 0.7083334
vt 0.2173913 0.75
vt 0.2608696 0.7083334
vt 0.3043478 0.7083334
vt 0.08695652 0.6666666
vt 0.1304348 0.6666666
vt 0.173913 0.6666666
vt 0.2173913 0.6666666
vt 0.2608696 0.6666666
vt 0.3043478 0.6666666

# Normal
vn 0 0 -1

# Mesh description
g dungeonFinal_mesh_0041

# Faces
f 1/1/1 2/2/1 3/3/1 4/4/1
f 5/5/1 6/6/1 7/7/1 8/8/1
f 9/1/1 10/2/1 11/3/1 12/4/1
f 13/5/1 14/6/1 15/7/1 16/8/1
f 17/1/1 18/2/1 19/3/1 20/4/1
f 21/5/1 22/6/1 23/7/1 24/8/1
f 25/1/1 26/2/1 27/3/1 28/4/1
f 29/5/1 30/6/1 31/7/1 32/8/1
f 33/1/1 34/2/1 35/3/1 36/4/1
f 37/5/1 38/6/1 39/7/1 40/8/1
f 41/1/1 42/2/1 43/3/1 44/4/1
f 45/5/1 46/6/1 47/7/1 48/8/1
f 49/1/1 50/2/1 51/3/1 52/4/1
f 53/9/1 54/10/1 55/6/1 56/5/1
f 57/1/1 58/2/1 59/3/1 60/4/1
f 61/11/1 62/12/1 63/10/1 64/9/1
f 65/13/1 66/14/1 67/2/1 68/1/1
f 69/14/1 70/15/1 71/16/1 72/2/1
f 73/14/1 74/15/1 75/16/1 76/2/1
f 77/14/1 78/15/1 79/16/1 80/2/1
f 81/14/1 82/15/1 83/16/1 84/2/1
f 85/14/1 86/15/1 87/16/1 88/2/1
f 89/14/1 90/15/1 91/16/1 92/2/1
f 93/14/1 94/15/1 95/16/1 96/2/1
f 97/14/1 98/15/1 99/16/1 100/2/1
f 101/14/1 102/15/1 103/16/1 104/2/1
f 105/14/1 106/15/1 107/16/1 108/2/1
f 109/15/1 110/17/1 111/18/1 112/16/1
f 113/19/1 114/20/1 115/12/1 116/11/1
f 117/21/1 118/22/1 119/14/1 120/13/1
f 121/22/1 122/23/1 123/15/1 124/14/1
f 125/23/1 126/24/1 127/17/1 128/15/1
f 129/24/1 130/25/1 131/19/1 132/17/1
f 133/25/1 134/26/1 135/20/1 136/19/1
f 137/21/1 138/22/1 139/14/1 140/13/1
f 141/22/1 142/23/1 143/15/1 144/14/1
f 145/23/1 146/24/1 147/17/1 148/15/1
f 149/21/1 150/22/1 151/14/1 152/13/1
f 153/22/1 154/23/1 155/15/1 156/14/1
f 157/23/1 158/24/1 159/17/1 160/15/1
f 161/24/1 162/25/1 163/19/1 164/17/1
f 165/25/1 166/26/1 167/20/1 168/19/1

