# Tiled2Unity generated file. Do not modify by hand.
# Wavefront file for 'dungeonFinal_mesh_0005.obj'

# Vertices (Count = 516)
v -5 -1 0
v -6 -1 0
v -6 0 0
v -5 0 0
v -6 -1 0
v -7 -1 0
v -7 0 0
v -6 0 0
v -7 -1 0
v -8 -1 0
v -8 0 0
v -7 0 0
v -8 -1 0
v -9 -1 0
v -9 0 0
v -8 0 0
v -9 -1 0
v -10 -1 0
v -10 0 0
v -9 0 0
v -10 -1 0
v -11 -1 0
v -11 0 0
v -10 0 0
v -11 -1 0
v -12 -1 0
v -12 0 0
v -11 0 0
v -12 -1 0
v -13 -1 0
v -13 0 0
v -12 0 0
v -13 -1 0
v -14 -1 0
v -14 0 0
v -13 0 0
v -14 -1 0
v -15 -1 0
v -15 0 0
v -14 0 0
v -15 -1 0
v -16 -1 0
v -16 0 0
v -15 0 0
v -5 -2 0
v -6 -2 0
v -6 -1 0
v -5 -1 0
v -6 -2 0
v -7 -2 0
v -7 -1 0
v -6 -1 0
v -7 -2 0
v -8 -2 0
v -8 -1 0
v -7 -1 0
v -8 -2 0
v -9 -2 0
v -9 -1 0
v -8 -1 0
v -9 -2 0
v -10 -2 0
v -10 -1 0
v -9 -1 0
v -10 -2 0
v -11 -2 0
v -11 -1 0
v -10 -1 0
v -11 -2 0
v -12 -2 0
v -12 -1 0
v -11 -1 0
v -12 -2 0
v -13 -2 0
v -13 -1 0
v -12 -1 0
v -13 -2 0
v -14 -2 0
v -14 -1 0
v -13 -1 0
v -14 -2 0
v -15 -2 0
v -15 -1 0
v -14 -1 0
v -15 -2 0
v -16 -2 0
v -16 -1 0
v -15 -1 0
v -5 -3 0
v -6 -3 0
v -6 -2 0
v -5 -2 0
v -6 -3 0
v -7 -3 0
v -7 -2 0
v -6 -2 0
v -7 -3 0
v -8 -3 0
v -8 -2 0
v -7 -2 0
v -8 -3 0
v -9 -3 0
v -9 -2 0
v -8 -2 0
v -9 -3 0
v -10 -3 0
v -10 -2 0
v -9 -2 0
v -10 -3 0
v -11 -3 0
v -11 -2 0
v -10 -2 0
v -11 -3 0
v -12 -3 0
v -12 -2 0
v -11 -2 0
v -12 -3 0
v -13 -3 0
v -13 -2 0
v -12 -2 0
v -13 -3 0
v -14 -3 0
v -14 -2 0
v -13 -2 0
v -14 -3 0
v -15 -3 0
v -15 -2 0
v -14 -2 0
v -15 -3 0
v -16 -3 0
v -16 -2 0
v -15 -2 0
v -5 -4 0
v -6 -4 0
v -6 -3 0
v -5 -3 0
v -6 -4 0
v -7 -4 0
v -7 -3 0
v -6 -3 0
v -7 -4 0
v -8 -4 0
v -8 -3 0
v -7 -3 0
v -8 -4 0
v -9 -4 0
v -9 -3 0
v -8 -3 0
v -9 -4 0
v -10 -4 0
v -10 -3 0
v -9 -3 0
v -10 -4 0
v -11 -4 0
v -11 -3 0
v -10 -3 0
v -11 -4 0
v -12 -4 0
v -12 -3 0
v -11 -3 0
v -12 -4 0
v -13 -4 0
v -13 -3 0
v -12 -3 0
v -13 -4 0
v -14 -4 0
v -14 -3 0
v -13 -3 0
v -14 -4 0
v -15 -4 0
v -15 -3 0
v -14 -3 0
v -15 -4 0
v -16 -4 0
v -16 -3 0
v -15 -3 0
v -5 -5 0
v -6 -5 0
v -6 -4 0
v -5 -4 0
v -6 -5 0
v -7 -5 0
v -7 -4 0
v -6 -4 0
v -7 -5 0
v -8 -5 0
v -8 -4 0
v -7 -4 0
v -8 -5 0
v -9 -5 0
v -9 -4 0
v -8 -4 0
v -9 -5 0
v -10 -5 0
v -10 -4 0
v -9 -4 0
v -10 -5 0
v -11 -5 0
v -11 -4 0
v -10 -4 0
v -11 -5 0
v -12 -5 0
v -12 -4 0
v -11 -4 0
v -12 -5 0
v -13 -5 0
v -13 -4 0
v -12 -4 0
v -13 -5 0
v -14 -5 0
v -14 -4 0
v -13 -4 0
v -14 -5 0
v -15 -5 0
v -15 -4 0
v -14 -4 0
v -15 -5 0
v -16 -5 0
v -16 -4 0
v -15 -4 0
v -5 -6 0
v -6 -6 0
v -6 -5 0
v -5 -5 0
v -6 -6 0
v -7 -6 0
v -7 -5 0
v -6 -5 0
v -7 -6 0
v -8 -6 0
v -8 -5 0
v -7 -5 0
v -8 -6 0
v -9 -6 0
v -9 -5 0
v -8 -5 0
v -9 -6 0
v -10 -6 0
v -10 -5 0
v -9 -5 0
v -10 -6 0
v -11 -6 0
v -11 -5 0
v -10 -5 0
v -11 -6 0
v -12 -6 0
v -12 -5 0
v -11 -5 0
v -12 -6 0
v -13 -6 0
v -13 -5 0
v -12 -5 0
v -13 -6 0
v -14 -6 0
v -14 -5 0
v -13 -5 0
v -14 -6 0
v -15 -6 0
v -15 -5 0
v -14 -5 0
v -15 -6 0
v -16 -6 0
v -16 -5 0
v -15 -5 0
v -13 -7 0
v -14 -7 0
v -14 -6 0
v -13 -6 0
v -14 -7 0
v -15 -7 0
v -15 -6 0
v -14 -6 0
v -15 -7 0
v -16 -7 0
v -16 -6 0
v -15 -6 0
v -13 -8 0
v -14 -8 0
v -14 -7 0
v -13 -7 0
v -14 -8 0
v -15 -8 0
v -15 -7 0
v -14 -7 0
v -15 -8 0
v -16 -8 0
v -16 -7 0
v -15 -7 0
v -13 -9 0
v -14 -9 0
v -14 -8 0
v -13 -8 0
v -14 -9 0
v -15 -9 0
v -15 -8 0
v -14 -8 0
v -15 -9 0
v -16 -9 0
v -16 -8 0
v -15 -8 0
v -13 -10 0
v -14 -10 0
v -14 -9 0
v -13 -9 0
v -14 -10 0
v -15 -10 0
v -15 -9 0
v -14 -9 0
v -15 -10 0
v -16 -10 0
v -16 -9 0
v -15 -9 0
v -13 -11 0
v -14 -11 0
v -14 -10 0
v -13 -10 0
v -14 -11 0
v -15 -11 0
v -15 -10 0
v -14 -10 0
v -15 -11 0
v -16 -11 0
v -16 -10 0
v -15 -10 0
v -13 -12 0
v -14 -12 0
v -14 -11 0
v -13 -11 0
v -14 -12 0
v -15 -12 0
v -15 -11 0
v -14 -11 0
v -15 -12 0
v -16 -12 0
v -16 -11 0
v -15 -11 0
v -13 -13 0
v -14 -13 0
v -14 -12 0
v -13 -12 0
v -14 -13 0
v -15 -13 0
v -15 -12 0
v -14 -12 0
v -15 -13 0
v -16 -13 0
v -16 -12 0
v -15 -12 0
v -2 -14 0
v -3 -14 0
v -3 -13 0
v -2 -13 0
v -3 -14 0
v -4 -14 0
v -4 -13 0
v -3 -13 0
v -4 -14 0
v -5 -14 0
v -5 -13 0
v -4 -13 0
v -5 -14 0
v -6 -14 0
v -6 -13 0
v -5 -13 0
v -6 -14 0
v -7 -14 0
v -7 -13 0
v -6 -13 0
v -7 -14 0
v -8 -14 0
v -8 -13 0
v -7 -13 0
v -8 -14 0
v -9 -14 0
v -9 -13 0
v -8 -13 0
v -9 -14 0
v -10 -14 0
v -10 -13 0
v -9 -13 0
v -10 -14 0
v -11 -14 0
v -11 -13 0
v -10 -13 0
v -11 -14 0
v -12 -14 0
v -12 -13 0
v -11 -13 0
v -12 -14 0
v -13 -14 0
v -13 -13 0
v -12 -13 0
v -13 -14 0
v -14 -14 0
v -14 -13 0
v -13 -13 0
v -14 -14 0
v -15 -14 0
v -15 -13 0
v -14 -13 0
v -15 -14 0
v -16 -14 0
v -16 -13 0
v -15 -13 0
v -2 -15 0
v -3 -15 0
v -3 -14 0
v -2 -14 0
v -3 -15 0
v -4 -15 0
v -4 -14 0
v -3 -14 0
v -4 -15 0
v -5 -15 0
v -5 -14 0
v -4 -14 0
v -5 -15 0
v -6 -15 0
v -6 -14 0
v -5 -14 0
v -6 -15 0
v -7 -15 0
v -7 -14 0
v -6 -14 0
v -7 -15 0
v -8 -15 0
v -8 -14 0
v -7 -14 0
v -8 -15 0
v -9 -15 0
v -9 -14 0
v -8 -14 0
v -9 -15 0
v -10 -15 0
v -10 -14 0
v -9 -14 0
v -10 -15 0
v -11 -15 0
v -11 -14 0
v -10 -14 0
v -11 -15 0
v -12 -15 0
v -12 -14 0
v -11 -14 0
v -12 -15 0
v -13 -15 0
v -13 -14 0
v -12 -14 0
v -13 -15 0
v -14 -15 0
v -14 -14 0
v -13 -14 0
v -14 -15 0
v -15 -15 0
v -15 -14 0
v -14 -14 0
v -15 -15 0
v -16 -15 0
v -16 -14 0
v -15 -14 0
v -2 -16 0
v -3 -16 0
v -3 -15 0
v -2 -15 0
v -3 -16 0
v -4 -16 0
v -4 -15 0
v -3 -15 0
v -4 -16 0
v -5 -16 0
v -5 -15 0
v -4 -15 0
v -5 -16 0
v -6 -16 0
v -6 -15 0
v -5 -15 0
v -6 -16 0
v -7 -16 0
v -7 -15 0
v -6 -15 0
v -7 -16 0
v -8 -16 0
v -8 -15 0
v -7 -15 0
v -8 -16 0
v -9 -16 0
v -9 -15 0
v -8 -15 0
v -9 -16 0
v -10 -16 0
v -10 -15 0
v -9 -15 0
v -10 -16 0
v -11 -16 0
v -11 -15 0
v -10 -15 0
v -11 -16 0
v -12 -16 0
v -12 -15 0
v -11 -15 0
v -12 -16 0
v -13 -16 0
v -13 -15 0
v -12 -15 0
v -13 -16 0
v -14 -16 0
v -14 -15 0
v -13 -15 0
v -14 -16 0
v -15 -16 0
v -15 -15 0
v -14 -15 0
v -15 -16 0
v -16 -16 0
v -16 -15 0
v -15 -15 0

# Texture cooridinates (Count = 16)
vt 0.1304348 0.75
vt 0.173913 0.75
vt 0.173913 0.7916667
vt 0.1304348 0.7916667
vt 0.2173913 0.75
vt 0.2173913 0.7916667
vt 0.1304348 0.8333333
vt 0.173913 0.8333333
vt 0.173913 0.875
vt 0.1304348 0.875
vt 0.2173913 0.8333333
vt 0.2173913 0.875
vt 0.2608696 0.8333333
vt 0.2608696 0.875
vt 0.2608696 0.7916667
vt 0.2608696 0.75

# Normal
vn 0 0 -1

# Mesh description
g dungeonFinal_mesh_0005

# Faces
f 1/1/1 2/2/1 3/3/1 4/4/1
f 5/2/1 6/5/1 7/6/1 8/3/1
f 9/7/1 10/8/1 11/9/1 12/10/1
f 13/7/1 14/8/1 15/9/1 16/10/1
f 17/8/1 18/11/1 19/12/1 20/9/1
f 21/11/1 22/13/1 23/14/1 24/12/1
f 25/11/1 26/13/1 27/14/1 28/12/1
f 29/11/1 30/13/1 31/14/1 32/12/1
f 33/11/1 34/13/1 35/14/1 36/12/1
f 37/11/1 38/13/1 39/14/1 40/12/1
f 41/11/1 42/13/1 43/14/1 44/12/1
f 45/1/1 46/2/1 47/3/1 48/4/1
f 49/2/1 50/5/1 51/6/1 52/3/1
f 53/4/1 54/3/1 55/8/1 56/7/1
f 57/7/1 58/8/1 59/9/1 60/10/1
f 61/7/1 62/8/1 63/9/1 64/10/1
f 65/7/1 66/8/1 67/9/1 68/10/1
f 69/7/1 70/8/1 71/9/1 72/10/1
f 73/7/1 74/8/1 75/9/1 76/10/1
f 77/8/1 78/11/1 79/12/1 80/9/1
f 81/11/1 82/13/1 83/14/1 84/12/1
f 85/6/1 86/15/1 87/13/1 88/11/1
f 89/1/1 90/2/1 91/3/1 92/4/1
f 93/2/1 94/5/1 95/6/1 96/3/1
f 97/1/1 98/2/1 99/3/1 100/4/1
f 101/4/1 102/3/1 103/8/1 104/7/1
f 105/4/1 106/3/1 107/8/1 108/7/1
f 109/4/1 110/3/1 111/8/1 112/7/1
f 113/4/1 114/3/1 115/8/1 116/7/1
f 117/4/1 118/3/1 119/8/1 120/7/1
f 121/7/1 122/8/1 123/9/1 124/10/1
f 125/7/1 126/8/1 127/9/1 128/10/1
f 129/7/1 130/8/1 131/9/1 132/10/1
f 133/7/1 134/8/1 135/9/1 136/10/1
f 137/8/1 138/11/1 139/12/1 140/9/1
f 141/11/1 142/13/1 143/14/1 144/12/1
f 145/1/1 146/2/1 147/3/1 148/4/1
f 149/1/1 150/2/1 151/3/1 152/4/1
f 153/1/1 154/2/1 155/3/1 156/4/1
f 157/1/1 158/2/1 159/3/1 160/4/1
f 161/1/1 162/2/1 163/3/1 164/4/1
f 165/4/1 166/3/1 167/8/1 168/7/1
f 169/4/1 170/3/1 171/8/1 172/7/1
f 173/4/1 174/3/1 175/8/1 176/7/1
f 177/4/1 178/3/1 179/8/1 180/7/1
f 181/3/1 182/6/1 183/11/1 184/8/1
f 185/6/1 186/15/1 187/13/1 188/11/1
f 189/6/1 190/15/1 191/13/1 192/11/1
f 193/6/1 194/15/1 195/13/1 196/11/1
f 197/6/1 198/15/1 199/13/1 200/11/1
f 201/6/1 202/15/1 203/13/1 204/11/1
f 205/6/1 206/15/1 207/13/1 208/11/1
f 209/1/1 210/2/1 211/3/1 212/4/1
f 213/1/1 214/2/1 215/3/1 216/4/1
f 217/1/1 218/2/1 219/3/1 220/4/1
f 221/1/1 222/2/1 223/3/1 224/4/1
f 225/2/1 226/5/1 227/6/1 228/3/1
f 229/5/1 230/16/1 231/15/1 232/6/1
f 233/5/1 234/16/1 235/15/1 236/6/1
f 237/5/1 238/16/1 239/15/1 240/6/1
f 241/5/1 242/16/1 243/15/1 244/6/1
f 245/5/1 246/16/1 247/15/1 248/6/1
f 249/5/1 250/16/1 251/15/1 252/6/1
f 253/4/1 254/3/1 255/8/1 256/7/1
f 257/3/1 258/6/1 259/11/1 260/8/1
f 261/6/1 262/15/1 263/13/1 264/11/1
f 265/1/1 266/2/1 267/3/1 268/4/1
f 269/2/1 270/5/1 271/6/1 272/3/1
f 273/5/1 274/16/1 275/15/1 276/6/1
f 277/1/1 278/2/1 279/3/1 280/4/1
f 281/1/1 282/2/1 283/3/1 284/4/1
f 285/2/1 286/5/1 287/6/1 288/3/1
f 289/1/1 290/2/1 291/3/1 292/4/1
f 293/2/1 294/5/1 295/6/1 296/3/1
f 297/1/1 298/2/1 299/3/1 300/4/1
f 301/1/1 302/2/1 303/3/1 304/4/1
f 305/2/1 306/5/1 307/6/1 308/3/1
f 309/1/1 310/2/1 311/3/1 312/4/1
f 313/1/1 314/2/1 315/3/1 316/4/1
f 317/2/1 318/5/1 319/6/1 320/3/1
f 321/1/1 322/2/1 323/3/1 324/4/1
f 325/1/1 326/2/1 327/3/1 328/4/1
f 329/2/1 330/5/1 331/6/1 332/3/1
f 333/1/1 334/2/1 335/3/1 336/4/1
f 337/1/1 338/2/1 339/3/1 340/4/1
f 341/2/1 342/5/1 343/6/1 344/3/1
f 345/1/1 346/2/1 347/3/1 348/4/1
f 349/7/1 350/8/1 351/9/1 352/10/1
f 353/8/1 354/11/1 355/12/1 356/9/1
f 357/11/1 358/13/1 359/14/1 360/12/1
f 361/7/1 362/8/1 363/9/1 364/10/1
f 365/8/1 366/11/1 367/12/1 368/9/1
f 369/11/1 370/13/1 371/14/1 372/12/1
f 373/11/1 374/13/1 375/14/1 376/12/1
f 377/11/1 378/13/1 379/14/1 380/12/1
f 381/11/1 382/13/1 383/14/1 384/12/1
f 385/11/1 386/13/1 387/14/1 388/12/1
f 389/11/1 390/13/1 391/14/1 392/12/1
f 393/11/1 394/13/1 395/14/1 396/12/1
f 397/11/1 398/13/1 399/14/1 400/12/1
f 401/11/1 402/13/1 403/14/1 404/12/1
f 405/4/1 406/3/1 407/8/1 408/7/1
f 409/3/1 410/6/1 411/11/1 412/8/1
f 413/6/1 414/15/1 415/13/1 416/11/1
f 417/7/1 418/8/1 419/9/1 420/10/1
f 421/8/1 422/11/1 423/12/1 424/9/1
f 425/11/1 426/13/1 427/14/1 428/12/1
f 429/6/1 430/15/1 431/13/1 432/11/1
f 433/6/1 434/15/1 435/13/1 436/11/1
f 437/6/1 438/15/1 439/13/1 440/11/1
f 441/6/1 442/15/1 443/13/1 444/11/1
f 445/6/1 446/15/1 447/13/1 448/11/1
f 449/6/1 450/15/1 451/13/1 452/11/1
f 453/6/1 454/15/1 455/13/1 456/11/1
f 457/6/1 458/15/1 459/13/1 460/11/1
f 461/1/1 462/2/1 463/3/1 464/4/1
f 465/2/1 466/5/1 467/6/1 468/3/1
f 469/5/1 470/16/1 471/15/1 472/6/1
f 473/7/1 474/8/1 475/9/1 476/10/1
f 477/8/1 478/11/1 479/12/1 480/9/1
f 481/11/1 482/13/1 483/14/1 484/12/1
f 485/5/1 486/16/1 487/15/1 488/6/1
f 489/5/1 490/16/1 491/15/1 492/6/1
f 493/5/1 494/16/1 495/15/1 496/6/1
f 497/5/1 498/16/1 499/15/1 500/6/1
f 501/5/1 502/16/1 503/15/1 504/6/1
f 505/5/1 506/16/1 507/15/1 508/6/1
f 509/5/1 510/16/1 511/15/1 512/6/1
f 513/5/1 514/16/1 515/15/1 516/6/1

