# Tiled2Unity generated file. Do not modify by hand.
# Wavefront file for 'dungeonFinal_mesh_0009.obj'

# Vertices (Count = 584)
v -11 -1 0
v -12 -1 0
v -12 0 0
v -11 0 0
v -12 -1 0
v -13 -1 0
v -13 0 0
v -12 0 0
v -13 -1 0
v -14 -1 0
v -14 0 0
v -13 0 0
v -14 -1 0
v -15 -1 0
v -15 0 0
v -14 0 0
v -15 -1 0
v -16 -1 0
v -16 0 0
v -15 0 0
v -11 -2 0
v -12 -2 0
v -12 -1 0
v -11 -1 0
v -12 -2 0
v -13 -2 0
v -13 -1 0
v -12 -1 0
v -13 -2 0
v -14 -2 0
v -14 -1 0
v -13 -1 0
v -14 -2 0
v -15 -2 0
v -15 -1 0
v -14 -1 0
v -15 -2 0
v -16 -2 0
v -16 -1 0
v -15 -1 0
v -11 -3 0
v -12 -3 0
v -12 -2 0
v -11 -2 0
v -12 -3 0
v -13 -3 0
v -13 -2 0
v -12 -2 0
v -13 -3 0
v -14 -3 0
v -14 -2 0
v -13 -2 0
v -14 -3 0
v -15 -3 0
v -15 -2 0
v -14 -2 0
v -15 -3 0
v -16 -3 0
v -16 -2 0
v -15 -2 0
v -11 -4 0
v -12 -4 0
v -12 -3 0
v -11 -3 0
v -12 -4 0
v -13 -4 0
v -13 -3 0
v -12 -3 0
v -13 -4 0
v -14 -4 0
v -14 -3 0
v -13 -3 0
v -14 -4 0
v -15 -4 0
v -15 -3 0
v -14 -3 0
v -15 -4 0
v -16 -4 0
v -16 -3 0
v -15 -3 0
v -11 -5 0
v -12 -5 0
v -12 -4 0
v -11 -4 0
v -12 -5 0
v -13 -5 0
v -13 -4 0
v -12 -4 0
v -13 -5 0
v -14 -5 0
v -14 -4 0
v -13 -4 0
v -14 -5 0
v -15 -5 0
v -15 -4 0
v -14 -4 0
v -15 -5 0
v -16 -5 0
v -16 -4 0
v -15 -4 0
v -11 -6 0
v -12 -6 0
v -12 -5 0
v -11 -5 0
v -12 -6 0
v -13 -6 0
v -13 -5 0
v -12 -5 0
v -13 -6 0
v -14 -6 0
v -14 -5 0
v -13 -5 0
v -14 -6 0
v -15 -6 0
v -15 -5 0
v -14 -5 0
v -15 -6 0
v -16 -6 0
v -16 -5 0
v -15 -5 0
v -11 -7 0
v -12 -7 0
v -12 -6 0
v -11 -6 0
v -12 -7 0
v -13 -7 0
v -13 -6 0
v -12 -6 0
v -13 -7 0
v -14 -7 0
v -14 -6 0
v -13 -6 0
v -14 -7 0
v -15 -7 0
v -15 -6 0
v -14 -6 0
v -15 -7 0
v -16 -7 0
v -16 -6 0
v -15 -6 0
v -11 -8 0
v -12 -8 0
v -12 -7 0
v -11 -7 0
v -12 -8 0
v -13 -8 0
v -13 -7 0
v -12 -7 0
v -13 -8 0
v -14 -8 0
v -14 -7 0
v -13 -7 0
v -14 -8 0
v -15 -8 0
v -15 -7 0
v -14 -7 0
v -15 -8 0
v -16 -8 0
v -16 -7 0
v -15 -7 0
v -11 -9 0
v -12 -9 0
v -12 -8 0
v -11 -8 0
v -12 -9 0
v -13 -9 0
v -13 -8 0
v -12 -8 0
v -13 -9 0
v -14 -9 0
v -14 -8 0
v -13 -8 0
v -14 -9 0
v -15 -9 0
v -15 -8 0
v -14 -8 0
v -15 -9 0
v -16 -9 0
v -16 -8 0
v -15 -8 0
v 0 -10 0
v -1 -10 0
v -1 -9 0
v 0 -9 0
v -1 -10 0
v -2 -10 0
v -2 -9 0
v -1 -9 0
v -2 -10 0
v -3 -10 0
v -3 -9 0
v -2 -9 0
v -3 -10 0
v -4 -10 0
v -4 -9 0
v -3 -9 0
v -4 -10 0
v -5 -10 0
v -5 -9 0
v -4 -9 0
v -5 -10 0
v -6 -10 0
v -6 -9 0
v -5 -9 0
v -6 -10 0
v -7 -10 0
v -7 -9 0
v -6 -9 0
v -7 -10 0
v -8 -10 0
v -8 -9 0
v -7 -9 0
v -8 -10 0
v -9 -10 0
v -9 -9 0
v -8 -9 0
v -9 -10 0
v -10 -10 0
v -10 -9 0
v -9 -9 0
v -10 -10 0
v -11 -10 0
v -11 -9 0
v -10 -9 0
v -11 -10 0
v -12 -10 0
v -12 -9 0
v -11 -9 0
v -12 -10 0
v -13 -10 0
v -13 -9 0
v -12 -9 0
v -13 -10 0
v -14 -10 0
v -14 -9 0
v -13 -9 0
v -14 -10 0
v -15 -10 0
v -15 -9 0
v -14 -9 0
v -15 -10 0
v -16 -10 0
v -16 -9 0
v -15 -9 0
v 0 -11 0
v -1 -11 0
v -1 -10 0
v 0 -10 0
v -1 -11 0
v -2 -11 0
v -2 -10 0
v -1 -10 0
v -2 -11 0
v -3 -11 0
v -3 -10 0
v -2 -10 0
v -3 -11 0
v -4 -11 0
v -4 -10 0
v -3 -10 0
v -4 -11 0
v -5 -11 0
v -5 -10 0
v -4 -10 0
v -5 -11 0
v -6 -11 0
v -6 -10 0
v -5 -10 0
v -6 -11 0
v -7 -11 0
v -7 -10 0
v -6 -10 0
v -7 -11 0
v -8 -11 0
v -8 -10 0
v -7 -10 0
v -8 -11 0
v -9 -11 0
v -9 -10 0
v -8 -10 0
v -9 -11 0
v -10 -11 0
v -10 -10 0
v -9 -10 0
v -10 -11 0
v -11 -11 0
v -11 -10 0
v -10 -10 0
v -11 -11 0
v -12 -11 0
v -12 -10 0
v -11 -10 0
v -12 -11 0
v -13 -11 0
v -13 -10 0
v -12 -10 0
v -13 -11 0
v -14 -11 0
v -14 -10 0
v -13 -10 0
v -14 -11 0
v -15 -11 0
v -15 -10 0
v -14 -10 0
v -15 -11 0
v -16 -11 0
v -16 -10 0
v -15 -10 0
v 0 -12 0
v -1 -12 0
v -1 -11 0
v 0 -11 0
v -1 -12 0
v -2 -12 0
v -2 -11 0
v -1 -11 0
v -2 -12 0
v -3 -12 0
v -3 -11 0
v -2 -11 0
v -3 -12 0
v -4 -12 0
v -4 -11 0
v -3 -11 0
v -4 -12 0
v -5 -12 0
v -5 -11 0
v -4 -11 0
v -5 -12 0
v -6 -12 0
v -6 -11 0
v -5 -11 0
v -6 -12 0
v -7 -12 0
v -7 -11 0
v -6 -11 0
v -7 -12 0
v -8 -12 0
v -8 -11 0
v -7 -11 0
v -8 -12 0
v -9 -12 0
v -9 -11 0
v -8 -11 0
v -9 -12 0
v -10 -12 0
v -10 -11 0
v -9 -11 0
v -10 -12 0
v -11 -12 0
v -11 -11 0
v -10 -11 0
v -11 -12 0
v -12 -12 0
v -12 -11 0
v -11 -11 0
v -12 -12 0
v -13 -12 0
v -13 -11 0
v -12 -11 0
v -13 -12 0
v -14 -12 0
v -14 -11 0
v -13 -11 0
v -14 -12 0
v -15 -12 0
v -15 -11 0
v -14 -11 0
v -15 -12 0
v -16 -12 0
v -16 -11 0
v -15 -11 0
v 0 -13 0
v -1 -13 0
v -1 -12 0
v 0 -12 0
v -1 -13 0
v -2 -13 0
v -2 -12 0
v -1 -12 0
v -2 -13 0
v -3 -13 0
v -3 -12 0
v -2 -12 0
v -3 -13 0
v -4 -13 0
v -4 -12 0
v -3 -12 0
v -4 -13 0
v -5 -13 0
v -5 -12 0
v -4 -12 0
v -5 -13 0
v -6 -13 0
v -6 -12 0
v -5 -12 0
v -6 -13 0
v -7 -13 0
v -7 -12 0
v -6 -12 0
v -7 -13 0
v -8 -13 0
v -8 -12 0
v -7 -12 0
v -8 -13 0
v -9 -13 0
v -9 -12 0
v -8 -12 0
v -9 -13 0
v -10 -13 0
v -10 -12 0
v -9 -12 0
v -10 -13 0
v -11 -13 0
v -11 -12 0
v -10 -12 0
v -11 -13 0
v -12 -13 0
v -12 -12 0
v -11 -12 0
v -12 -13 0
v -13 -13 0
v -13 -12 0
v -12 -12 0
v -13 -13 0
v -14 -13 0
v -14 -12 0
v -13 -12 0
v -14 -13 0
v -15 -13 0
v -15 -12 0
v -14 -12 0
v -15 -13 0
v -16 -13 0
v -16 -12 0
v -15 -12 0
v 0 -14 0
v -1 -14 0
v -1 -13 0
v 0 -13 0
v -1 -14 0
v -2 -14 0
v -2 -13 0
v -1 -13 0
v -2 -14 0
v -3 -14 0
v -3 -13 0
v -2 -13 0
v -3 -14 0
v -4 -14 0
v -4 -13 0
v -3 -13 0
v -4 -14 0
v -5 -14 0
v -5 -13 0
v -4 -13 0
v -5 -14 0
v -6 -14 0
v -6 -13 0
v -5 -13 0
v -6 -14 0
v -7 -14 0
v -7 -13 0
v -6 -13 0
v -7 -14 0
v -8 -14 0
v -8 -13 0
v -7 -13 0
v -8 -14 0
v -9 -14 0
v -9 -13 0
v -8 -13 0
v -9 -14 0
v -10 -14 0
v -10 -13 0
v -9 -13 0
v -10 -14 0
v -11 -14 0
v -11 -13 0
v -10 -13 0
v -11 -14 0
v -12 -14 0
v -12 -13 0
v -11 -13 0
v -12 -14 0
v -13 -14 0
v -13 -13 0
v -12 -13 0
v -13 -14 0
v -14 -14 0
v -14 -13 0
v -13 -13 0
v -14 -14 0
v -15 -14 0
v -15 -13 0
v -14 -13 0
v -15 -14 0
v -16 -14 0
v -16 -13 0
v -15 -13 0
v 0 -15 0
v -1 -15 0
v -1 -14 0
v 0 -14 0
v -1 -15 0
v -2 -15 0
v -2 -14 0
v -1 -14 0
v -2 -15 0
v -3 -15 0
v -3 -14 0
v -2 -14 0
v -3 -15 0
v -4 -15 0
v -4 -14 0
v -3 -14 0
v -4 -15 0
v -5 -15 0
v -5 -14 0
v -4 -14 0
v -5 -15 0
v -6 -15 0
v -6 -14 0
v -5 -14 0
v -6 -15 0
v -7 -15 0
v -7 -14 0
v -6 -14 0
v -7 -15 0
v -8 -15 0
v -8 -14 0
v -7 -14 0
v -8 -15 0
v -9 -15 0
v -9 -14 0
v -8 -14 0
v -9 -15 0
v -10 -15 0
v -10 -14 0
v -9 -14 0
v -10 -15 0
v -11 -15 0
v -11 -14 0
v -10 -14 0
v -11 -15 0
v -12 -15 0
v -12 -14 0
v -11 -14 0
v -12 -15 0
v -13 -15 0
v -13 -14 0
v -12 -14 0
v -13 -15 0
v -14 -15 0
v -14 -14 0
v -13 -14 0
v -14 -15 0
v -15 -15 0
v -15 -14 0
v -14 -14 0
v -15 -15 0
v -16 -15 0
v -16 -14 0
v -15 -14 0
v -11 -16 0
v -12 -16 0
v -12 -15 0
v -11 -15 0
v -12 -16 0
v -13 -16 0
v -13 -15 0
v -12 -15 0
v -13 -16 0
v -14 -16 0
v -14 -15 0
v -13 -15 0
v -14 -16 0
v -15 -16 0
v -15 -15 0
v -14 -15 0
v -15 -16 0
v -16 -16 0
v -16 -15 0
v -15 -15 0

# Texture cooridinates (Count = 16)
vt 0.1304348 0.8333333
vt 0.173913 0.8333333
vt 0.173913 0.875
vt 0.1304348 0.875
vt 0.1304348 0.7916667
vt 0.173913 0.7916667
vt 0.1304348 0.75
vt 0.173913 0.75
vt 0.2173913 0.8333333
vt 0.2173913 0.875
vt 0.2173913 0.75
vt 0.2173913 0.7916667
vt 0.2608696 0.75
vt 0.2608696 0.7916667
vt 0.2608696 0.8333333
vt 0.2608696 0.875

# Normal
vn 0 0 -1

# Mesh description
g dungeonFinal_mesh_0009

# Faces
f 1/1/1 2/2/1 3/3/1 4/4/1
f 5/1/1 6/2/1 7/3/1 8/4/1
f 9/1/1 10/2/1 11/3/1 12/4/1
f 13/1/1 14/2/1 15/3/1 16/4/1
f 17/1/1 18/2/1 19/3/1 20/4/1
f 21/5/1 22/6/1 23/2/1 24/1/1
f 25/5/1 26/6/1 27/2/1 28/1/1
f 29/5/1 30/6/1 31/2/1 32/1/1
f 33/5/1 34/6/1 35/2/1 36/1/1
f 37/5/1 38/6/1 39/2/1 40/1/1
f 41/7/1 42/8/1 43/6/1 44/5/1
f 45/7/1 46/8/1 47/6/1 48/5/1
f 49/7/1 50/8/1 51/6/1 52/5/1
f 53/1/1 54/2/1 55/3/1 56/4/1
f 57/2/1 58/9/1 59/10/1 60/3/1
f 61/5/1 62/6/1 63/2/1 64/1/1
f 65/7/1 66/8/1 67/6/1 68/5/1
f 69/8/1 70/11/1 71/12/1 72/6/1
f 73/1/1 74/2/1 75/3/1 76/4/1
f 77/2/1 78/9/1 79/10/1 80/3/1
f 81/7/1 82/8/1 83/6/1 84/5/1
f 85/7/1 86/8/1 87/6/1 88/5/1
f 89/8/1 90/11/1 91/12/1 92/6/1
f 93/1/1 94/2/1 95/3/1 96/4/1
f 97/2/1 98/9/1 99/10/1 100/3/1
f 101/7/1 102/8/1 103/6/1 104/5/1
f 105/8/1 106/11/1 107/12/1 108/6/1
f 109/11/1 110/13/1 111/14/1 112/12/1
f 113/1/1 114/2/1 115/3/1 116/4/1
f 117/2/1 118/9/1 119/10/1 120/3/1
f 121/7/1 122/8/1 123/6/1 124/5/1
f 125/8/1 126/11/1 127/12/1 128/6/1
f 129/11/1 130/13/1 131/14/1 132/12/1
f 133/1/1 134/2/1 135/3/1 136/4/1
f 137/2/1 138/9/1 139/10/1 140/3/1
f 141/1/1 142/2/1 143/3/1 144/4/1
f 145/2/1 146/9/1 147/10/1 148/3/1
f 149/9/1 150/15/1 151/16/1 152/10/1
f 153/1/1 154/2/1 155/3/1 156/4/1
f 157/1/1 158/2/1 159/3/1 160/4/1
f 161/5/1 162/6/1 163/2/1 164/1/1
f 165/6/1 166/12/1 167/9/1 168/2/1
f 169/12/1 170/14/1 171/15/1 172/9/1
f 173/1/1 174/2/1 175/3/1 176/4/1
f 177/5/1 178/6/1 179/2/1 180/1/1
f 181/1/1 182/2/1 183/3/1 184/4/1
f 185/1/1 186/2/1 187/3/1 188/4/1
f 189/1/1 190/2/1 191/3/1 192/4/1
f 193/1/1 194/2/1 195/3/1 196/4/1
f 197/1/1 198/2/1 199/3/1 200/4/1
f 201/1/1 202/2/1 203/3/1 204/4/1
f 205/1/1 206/2/1 207/3/1 208/4/1
f 209/1/1 210/2/1 211/3/1 212/4/1
f 213/1/1 214/2/1 215/3/1 216/4/1
f 217/2/1 218/9/1 219/10/1 220/3/1
f 221/9/1 222/15/1 223/16/1 224/10/1
f 225/1/1 226/2/1 227/3/1 228/4/1
f 229/2/1 230/9/1 231/10/1 232/3/1
f 233/9/1 234/15/1 235/16/1 236/10/1
f 237/1/1 238/2/1 239/3/1 240/4/1
f 241/7/1 242/8/1 243/6/1 244/5/1
f 245/5/1 246/6/1 247/2/1 248/1/1
f 249/5/1 250/6/1 251/2/1 252/1/1
f 253/5/1 254/6/1 255/2/1 256/1/1
f 257/5/1 258/6/1 259/2/1 260/1/1
f 261/5/1 262/6/1 263/2/1 264/1/1
f 265/5/1 266/6/1 267/2/1 268/1/1
f 269/5/1 270/6/1 271/2/1 272/1/1
f 273/5/1 274/6/1 275/2/1 276/1/1
f 277/5/1 278/6/1 279/2/1 280/1/1
f 281/6/1 282/12/1 283/9/1 284/2/1
f 285/12/1 286/14/1 287/15/1 288/9/1
f 289/1/1 290/2/1 291/3/1 292/4/1
f 293/2/1 294/9/1 295/10/1 296/3/1
f 297/1/1 298/2/1 299/3/1 300/4/1
f 301/2/1 302/9/1 303/10/1 304/3/1
f 305/7/1 306/8/1 307/6/1 308/5/1
f 309/7/1 310/8/1 311/6/1 312/5/1
f 313/7/1 314/8/1 315/6/1 316/5/1
f 317/7/1 318/8/1 319/6/1 320/5/1
f 321/7/1 322/8/1 323/6/1 324/5/1
f 325/7/1 326/8/1 327/6/1 328/5/1
f 329/7/1 330/8/1 331/6/1 332/5/1
f 333/7/1 334/8/1 335/6/1 336/5/1
f 337/7/1 338/8/1 339/6/1 340/5/1
f 341/7/1 342/8/1 343/6/1 344/5/1
f 345/8/1 346/11/1 347/12/1 348/6/1
f 349/11/1 350/13/1 351/14/1 352/12/1
f 353/1/1 354/2/1 355/3/1 356/4/1
f 357/2/1 358/9/1 359/10/1 360/3/1
f 361/1/1 362/2/1 363/3/1 364/4/1
f 365/2/1 366/9/1 367/10/1 368/3/1
f 369/7/1 370/8/1 371/6/1 372/5/1
f 373/1/1 374/2/1 375/3/1 376/4/1
f 377/1/1 378/2/1 379/3/1 380/4/1
f 381/1/1 382/2/1 383/3/1 384/4/1
f 385/1/1 386/2/1 387/3/1 388/4/1
f 389/1/1 390/2/1 391/3/1 392/4/1
f 393/1/1 394/2/1 395/3/1 396/4/1
f 397/1/1 398/2/1 399/3/1 400/4/1
f 401/1/1 402/2/1 403/3/1 404/4/1
f 405/1/1 406/2/1 407/3/1 408/4/1
f 409/1/1 410/2/1 411/3/1 412/4/1
f 413/2/1 414/9/1 415/10/1 416/3/1
f 417/1/1 418/2/1 419/3/1 420/4/1
f 421/2/1 422/9/1 423/10/1 424/3/1
f 425/1/1 426/2/1 427/3/1 428/4/1
f 429/2/1 430/9/1 431/10/1 432/3/1
f 433/1/1 434/2/1 435/3/1 436/4/1
f 437/5/1 438/6/1 439/2/1 440/1/1
f 441/5/1 442/6/1 443/2/1 444/1/1
f 445/5/1 446/6/1 447/2/1 448/1/1
f 449/5/1 450/6/1 451/2/1 452/1/1
f 453/5/1 454/6/1 455/2/1 456/1/1
f 457/5/1 458/6/1 459/2/1 460/1/1
f 461/5/1 462/6/1 463/2/1 464/1/1
f 465/5/1 466/6/1 467/2/1 468/1/1
f 469/5/1 470/6/1 471/2/1 472/1/1
f 473/5/1 474/6/1 475/2/1 476/1/1
f 477/6/1 478/12/1 479/9/1 480/2/1
f 481/1/1 482/2/1 483/3/1 484/4/1
f 485/2/1 486/9/1 487/10/1 488/3/1
f 489/1/1 490/2/1 491/3/1 492/4/1
f 493/2/1 494/9/1 495/10/1 496/3/1
f 497/1/1 498/2/1 499/3/1 500/4/1
f 501/7/1 502/8/1 503/6/1 504/5/1
f 505/7/1 506/8/1 507/6/1 508/5/1
f 509/7/1 510/8/1 511/6/1 512/5/1
f 513/7/1 514/8/1 515/6/1 516/5/1
f 517/7/1 518/8/1 519/6/1 520/5/1
f 521/7/1 522/8/1 523/6/1 524/5/1
f 525/7/1 526/8/1 527/6/1 528/5/1
f 529/7/1 530/8/1 531/6/1 532/5/1
f 533/7/1 534/8/1 535/6/1 536/5/1
f 537/7/1 538/8/1 539/6/1 540/5/1
f 541/8/1 542/11/1 543/12/1 544/6/1
f 545/1/1 546/2/1 547/3/1 548/4/1
f 549/2/1 550/9/1 551/10/1 552/3/1
f 553/1/1 554/2/1 555/3/1 556/4/1
f 557/2/1 558/9/1 559/10/1 560/3/1
f 561/5/1 562/6/1 563/2/1 564/1/1
f 565/1/1 566/2/1 567/3/1 568/4/1
f 569/2/1 570/9/1 571/10/1 572/3/1
f 573/1/1 574/2/1 575/3/1 576/4/1
f 577/1/1 578/2/1 579/3/1 580/4/1
f 581/7/1 582/8/1 583/6/1 584/5/1

