# Tiled2Unity generated file. Do not modify by hand.
# Wavefront file for 'Castle_mesh_0014.obj'

# Vertices (Count = 272)
v -6 -9 0
v -7 -9 0
v -7 -8 0
v -6 -8 0
v -7 -9 0
v -8 -9 0
v -8 -8 0
v -7 -8 0
v -8 -9 0
v -9 -9 0
v -9 -8 0
v -8 -8 0
v -9 -9 0
v -10 -9 0
v -10 -8 0
v -9 -8 0
v -10 -9 0
v -11 -9 0
v -11 -8 0
v -10 -8 0
v -11 -9 0
v -12 -9 0
v -12 -8 0
v -11 -8 0
v -12 -9 0
v -13 -9 0
v -13 -8 0
v -12 -8 0
v -13 -9 0
v -14 -9 0
v -14 -8 0
v -13 -8 0
v -6 -10 0
v -7 -10 0
v -7 -9 0
v -6 -9 0
v -7 -10 0
v -8 -10 0
v -8 -9 0
v -7 -9 0
v -8 -10 0
v -9 -10 0
v -9 -9 0
v -8 -9 0
v -9 -10 0
v -10 -10 0
v -10 -9 0
v -9 -9 0
v -10 -10 0
v -11 -10 0
v -11 -9 0
v -10 -9 0
v -11 -10 0
v -12 -10 0
v -12 -9 0
v -11 -9 0
v -12 -10 0
v -13 -10 0
v -13 -9 0
v -12 -9 0
v -13 -10 0
v -14 -10 0
v -14 -9 0
v -13 -9 0
v -6 -11 0
v -7 -11 0
v -7 -10 0
v -6 -10 0
v -7 -11 0
v -8 -11 0
v -8 -10 0
v -7 -10 0
v -8 -11 0
v -9 -11 0
v -9 -10 0
v -8 -10 0
v -9 -11 0
v -10 -11 0
v -10 -10 0
v -9 -10 0
v -10 -11 0
v -11 -11 0
v -11 -10 0
v -10 -10 0
v -11 -11 0
v -12 -11 0
v -12 -10 0
v -11 -10 0
v -12 -11 0
v -13 -11 0
v -13 -10 0
v -12 -10 0
v -13 -11 0
v -14 -11 0
v -14 -10 0
v -13 -10 0
v -6 -12 0
v -7 -12 0
v -7 -11 0
v -6 -11 0
v -7 -12 0
v -8 -12 0
v -8 -11 0
v -7 -11 0
v -8 -12 0
v -9 -12 0
v -9 -11 0
v -8 -11 0
v -9 -12 0
v -10 -12 0
v -10 -11 0
v -9 -11 0
v -10 -12 0
v -11 -12 0
v -11 -11 0
v -10 -11 0
v -11 -12 0
v -12 -12 0
v -12 -11 0
v -11 -11 0
v -12 -12 0
v -13 -12 0
v -13 -11 0
v -12 -11 0
v -13 -12 0
v -14 -12 0
v -14 -11 0
v -13 -11 0
v -6 -13 0
v -7 -13 0
v -7 -12 0
v -6 -12 0
v -7 -13 0
v -8 -13 0
v -8 -12 0
v -7 -12 0
v -8 -13 0
v -9 -13 0
v -9 -12 0
v -8 -12 0
v -9 -13 0
v -10 -13 0
v -10 -12 0
v -9 -12 0
v -10 -13 0
v -11 -13 0
v -11 -12 0
v -10 -12 0
v -11 -13 0
v -12 -13 0
v -12 -12 0
v -11 -12 0
v -12 -13 0
v -13 -13 0
v -13 -12 0
v -12 -12 0
v -13 -13 0
v -14 -13 0
v -14 -12 0
v -13 -12 0
v -6 -14 0
v -7 -14 0
v -7 -13 0
v -6 -13 0
v -7 -14 0
v -8 -14 0
v -8 -13 0
v -7 -13 0
v -8 -14 0
v -9 -14 0
v -9 -13 0
v -8 -13 0
v -9 -14 0
v -10 -14 0
v -10 -13 0
v -9 -13 0
v -10 -14 0
v -11 -14 0
v -11 -13 0
v -10 -13 0
v -11 -14 0
v -12 -14 0
v -12 -13 0
v -11 -13 0
v -12 -14 0
v -13 -14 0
v -13 -13 0
v -12 -13 0
v -13 -14 0
v -14 -14 0
v -14 -13 0
v -13 -13 0
v -6 -15 0
v -7 -15 0
v -7 -14 0
v -6 -14 0
v -7 -15 0
v -8 -15 0
v -8 -14 0
v -7 -14 0
v -8 -15 0
v -9 -15 0
v -9 -14 0
v -8 -14 0
v -9 -15 0
v -10 -15 0
v -10 -14 0
v -9 -14 0
v -10 -15 0
v -11 -15 0
v -11 -14 0
v -10 -14 0
v -11 -15 0
v -12 -15 0
v -12 -14 0
v -11 -14 0
v -12 -15 0
v -13 -15 0
v -13 -14 0
v -12 -14 0
v -13 -15 0
v -14 -15 0
v -14 -14 0
v -13 -14 0
v -14 -15 0
v -15 -15 0
v -15 -14 0
v -14 -14 0
v -15 -15 0
v -16 -15 0
v -16 -14 0
v -15 -14 0
v -6 -16 0
v -7 -16 0
v -7 -15 0
v -6 -15 0
v -7 -16 0
v -8 -16 0
v -8 -15 0
v -7 -15 0
v -8 -16 0
v -9 -16 0
v -9 -15 0
v -8 -15 0
v -9 -16 0
v -10 -16 0
v -10 -15 0
v -9 -15 0
v -10 -16 0
v -11 -16 0
v -11 -15 0
v -10 -15 0
v -11 -16 0
v -12 -16 0
v -12 -15 0
v -11 -15 0
v -12 -16 0
v -13 -16 0
v -13 -15 0
v -12 -15 0
v -13 -16 0
v -14 -16 0
v -14 -15 0
v -13 -15 0
v -14 -16 0
v -15 -16 0
v -15 -15 0
v -14 -15 0
v -15 -16 0
v -16 -16 0
v -16 -15 0
v -15 -15 0

# Texture cooridinates (Count = 91)
vt 0.375 0.96875
vt 0.40625 0.96875
vt 0.40625 1
vt 0.375 1
vt 0.4375 0.96875
vt 0.4375 1
vt 0.46875 0.96875
vt 0.46875 1
vt 0.5 0.96875
vt 0.5 1
vt 0.53125 0.96875
vt 0.53125 1
vt 0.5625 0.96875
vt 0.5625 1
vt 0.59375 0.96875
vt 0.59375 1
vt 0.625 0.96875
vt 0.625 1
vt 0.375 0.9375
vt 0.40625 0.9375
vt 0.4375 0.9375
vt 0.46875 0.9375
vt 0.5 0.9375
vt 0.53125 0.9375
vt 0.5625 0.9375
vt 0.59375 0.9375
vt 0.625 0.9375
vt 0.375 0.90625
vt 0.40625 0.90625
vt 0.4375 0.90625
vt 0.46875 0.90625
vt 0.5 0.90625
vt 0.53125 0.90625
vt 0.5625 0.90625
vt 0.59375 0.90625
vt 0.625 0.90625
vt 0.375 0.875
vt 0.40625 0.875
vt 0.4375 0.875
vt 0.46875 0.875
vt 0.5 0.875
vt 0.53125 0.875
vt 0.5625 0.875
vt 0.59375 0.875
vt 0.625 0.875
vt 0.375 0.84375
vt 0.40625 0.84375
vt 0.4375 0.84375
vt 0.46875 0.84375
vt 0.5 0.84375
vt 0.53125 0.84375
vt 0.5625 0.84375
vt 0.59375 0.84375
vt 0.625 0.84375
vt 0.375 0.8125
vt 0.40625 0.8125
vt 0.4375 0.8125
vt 0.46875 0.8125
vt 0.5 0.8125
vt 0.53125 0.8125
vt 0.5625 0.8125
vt 0.59375 0.8125
vt 0.625 0.8125
vt 0.375 0.78125
vt 0.40625 0.78125
vt 0.4375 0.78125
vt 0.46875 0.78125
vt 0.5 0.78125
vt 0.53125 0.78125
vt 0.5625 0.78125
vt 0.59375 0.78125
vt 0 0.84375
vt 0.03125 0.84375
vt 0.03125 0.875
vt 0 0.875
vt 0.0625 0.84375
vt 0.0625 0.875
vt 0.09375 0.84375
vt 0.09375 0.875
vt 0.375 0.75
vt 0.40625 0.75
vt 0.4375 0.75
vt 0.46875 0.75
vt 0.5 0.75
vt 0.53125 0.75
vt 0.5625 0.75
vt 0.59375 0.75
vt 0 0.8125
vt 0.03125 0.8125
vt 0.0625 0.8125
vt 0.09375 0.8125

# Normal
vn 0 0 -1

# Mesh description
g Castle_mesh_0014

# Faces
f 1/1/1 2/2/1 3/3/1 4/4/1
f 5/2/1 6/5/1 7/6/1 8/3/1
f 9/5/1 10/7/1 11/8/1 12/6/1
f 13/7/1 14/9/1 15/10/1 16/8/1
f 17/9/1 18/11/1 19/12/1 20/10/1
f 21/11/1 22/13/1 23/14/1 24/12/1
f 25/13/1 26/15/1 27/16/1 28/14/1
f 29/15/1 30/17/1 31/18/1 32/16/1
f 33/19/1 34/20/1 35/2/1 36/1/1
f 37/20/1 38/21/1 39/5/1 40/2/1
f 41/21/1 42/22/1 43/7/1 44/5/1
f 45/22/1 46/23/1 47/9/1 48/7/1
f 49/23/1 50/24/1 51/11/1 52/9/1
f 53/24/1 54/25/1 55/13/1 56/11/1
f 57/25/1 58/26/1 59/15/1 60/13/1
f 61/26/1 62/27/1 63/17/1 64/15/1
f 65/28/1 66/29/1 67/20/1 68/19/1
f 69/29/1 70/30/1 71/21/1 72/20/1
f 73/30/1 74/31/1 75/22/1 76/21/1
f 77/31/1 78/32/1 79/23/1 80/22/1
f 81/32/1 82/33/1 83/24/1 84/23/1
f 85/33/1 86/34/1 87/25/1 88/24/1
f 89/34/1 90/35/1 91/26/1 92/25/1
f 93/35/1 94/36/1 95/27/1 96/26/1
f 97/37/1 98/38/1 99/29/1 100/28/1
f 101/38/1 102/39/1 103/30/1 104/29/1
f 105/39/1 106/40/1 107/31/1 108/30/1
f 109/40/1 110/41/1 111/32/1 112/31/1
f 113/41/1 114/42/1 115/33/1 116/32/1
f 117/42/1 118/43/1 119/34/1 120/33/1
f 121/43/1 122/44/1 123/35/1 124/34/1
f 125/44/1 126/45/1 127/36/1 128/35/1
f 129/46/1 130/47/1 131/38/1 132/37/1
f 133/47/1 134/48/1 135/39/1 136/38/1
f 137/48/1 138/49/1 139/40/1 140/39/1
f 141/49/1 142/50/1 143/41/1 144/40/1
f 145/50/1 146/51/1 147/42/1 148/41/1
f 149/51/1 150/52/1 151/43/1 152/42/1
f 153/52/1 154/53/1 155/44/1 156/43/1
f 157/53/1 158/54/1 159/45/1 160/44/1
f 161/55/1 162/56/1 163/47/1 164/46/1
f 165/56/1 166/57/1 167/48/1 168/47/1
f 169/57/1 170/58/1 171/49/1 172/48/1
f 173/58/1 174/59/1 175/50/1 176/49/1
f 177/59/1 178/60/1 179/51/1 180/50/1
f 181/60/1 182/61/1 183/52/1 184/51/1
f 185/61/1 186/62/1 187/53/1 188/52/1
f 189/62/1 190/63/1 191/54/1 192/53/1
f 193/64/1 194/65/1 195/56/1 196/55/1
f 197/65/1 198/66/1 199/57/1 200/56/1
f 201/66/1 202/67/1 203/58/1 204/57/1
f 205/67/1 206/68/1 207/59/1 208/58/1
f 209/68/1 210/69/1 211/60/1 212/59/1
f 213/69/1 214/70/1 215/61/1 216/60/1
f 217/70/1 218/71/1 219/62/1 220/61/1
f 221/72/1 222/73/1 223/74/1 224/75/1
f 225/73/1 226/76/1 227/77/1 228/74/1
f 229/76/1 230/78/1 231/79/1 232/77/1
f 233/80/1 234/81/1 235/65/1 236/64/1
f 237/81/1 238/82/1 239/66/1 240/65/1
f 241/82/1 242/83/1 243/67/1 244/66/1
f 245/83/1 246/84/1 247/68/1 248/67/1
f 249/84/1 250/85/1 251/69/1 252/68/1
f 253/85/1 254/86/1 255/70/1 256/69/1
f 257/86/1 258/87/1 259/71/1 260/70/1
f 261/88/1 262/89/1 263/73/1 264/72/1
f 265/89/1 266/90/1 267/76/1 268/73/1
f 269/90/1 270/91/1 271/78/1 272/76/1

