# Tiled2Unity generated file. Do not modify by hand.
# Wavefront file for 'Castle_mesh_0013.obj'

# Vertices (Count = 56)
v -5 -1 0
v -6 -1 0
v -6 0 0
v -5 0 0
v -6 -1 0
v -7 -1 0
v -7 0 0
v -6 0 0
v -4 -9 0
v -5 -9 0
v -5 -8 0
v -4 -8 0
v -5 -9 0
v -6 -9 0
v -6 -8 0
v -5 -8 0
v -4 -10 0
v -5 -10 0
v -5 -9 0
v -4 -9 0
v -5 -10 0
v -6 -10 0
v -6 -9 0
v -5 -9 0
v -4 -11 0
v -5 -11 0
v -5 -10 0
v -4 -10 0
v -5 -11 0
v -6 -11 0
v -6 -10 0
v -5 -10 0
v -4 -12 0
v -5 -12 0
v -5 -11 0
v -4 -11 0
v -5 -12 0
v -6 -12 0
v -6 -11 0
v -5 -11 0
v -4 -13 0
v -5 -13 0
v -5 -12 0
v -4 -12 0
v -5 -13 0
v -6 -13 0
v -6 -12 0
v -5 -12 0
v -4 -14 0
v -5 -14 0
v -5 -13 0
v -4 -13 0
v -5 -14 0
v -6 -14 0
v -6 -13 0
v -5 -13 0

# Texture cooridinates (Count = 27)
vt 0.59375 0.34375
vt 0.625 0.34375
vt 0.625 0.375
vt 0.59375 0.375
vt 0.65625 0.34375
vt 0.65625 0.375
vt 0.6875 0.15625
vt 0.71875 0.15625
vt 0.71875 0.1875
vt 0.6875 0.1875
vt 0.75 0.15625
vt 0.75 0.1875
vt 0.6875 0.125
vt 0.71875 0.125
vt 0.75 0.125
vt 0.6875 0.09375
vt 0.71875 0.09375
vt 0.75 0.09375
vt 0.6875 0.0625
vt 0.71875 0.0625
vt 0.75 0.0625
vt 0.6875 0.03125
vt 0.71875 0.03125
vt 0.75 0.03125
vt 0.6875 0
vt 0.71875 0
vt 0.75 0

# Normal
vn 0 0 -1

# Mesh description
g Castle_mesh_0013

# Faces
f 1/1/1 2/2/1 3/3/1 4/4/1
f 5/2/1 6/5/1 7/6/1 8/3/1
f 9/7/1 10/8/1 11/9/1 12/10/1
f 13/8/1 14/11/1 15/12/1 16/9/1
f 17/13/1 18/14/1 19/8/1 20/7/1
f 21/14/1 22/15/1 23/11/1 24/8/1
f 25/16/1 26/17/1 27/14/1 28/13/1
f 29/17/1 30/18/1 31/15/1 32/14/1
f 33/19/1 34/20/1 35/17/1 36/16/1
f 37/20/1 38/21/1 39/18/1 40/17/1
f 41/22/1 42/23/1 43/20/1 44/19/1
f 45/23/1 46/24/1 47/21/1 48/20/1
f 49/25/1 50/26/1 51/23/1 52/22/1
f 53/26/1 54/27/1 55/24/1 56/23/1

