# Tiled2Unity generated file. Do not modify by hand.
# Wavefront file for 'Castle_mesh_0026.obj'

# Vertices (Count = 156)
v -1 -2 0
v -2 -2 0
v -2 -1 0
v -1 -1 0
v -2 -2 0
v -3 -2 0
v -3 -1 0
v -2 -1 0
v -9 -2 0
v -10 -2 0
v -10 -1 0
v -9 -1 0
v -10 -2 0
v -11 -2 0
v -11 -1 0
v -10 -1 0
v -1 -3 0
v -2 -3 0
v -2 -2 0
v -1 -2 0
v -2 -3 0
v -3 -3 0
v -3 -2 0
v -2 -2 0
v -9 -3 0
v -10 -3 0
v -10 -2 0
v -9 -2 0
v -10 -3 0
v -11 -3 0
v -11 -2 0
v -10 -2 0
v -13 -3 0
v -14 -3 0
v -14 -2 0
v -13 -2 0
v -14 -3 0
v -15 -3 0
v -15 -2 0
v -14 -2 0
v -15 -3 0
v -16 -3 0
v -16 -2 0
v -15 -2 0
v -1 -4 0
v -2 -4 0
v -2 -3 0
v -1 -3 0
v -2 -4 0
v -3 -4 0
v -3 -3 0
v -2 -3 0
v -9 -4 0
v -10 -4 0
v -10 -3 0
v -9 -3 0
v -10 -4 0
v -11 -4 0
v -11 -3 0
v -10 -3 0
v -13 -4 0
v -14 -4 0
v -14 -3 0
v -13 -3 0
v -14 -4 0
v -15 -4 0
v -15 -3 0
v -14 -3 0
v -15 -4 0
v -16 -4 0
v -16 -3 0
v -15 -3 0
v -1 -5 0
v -2 -5 0
v -2 -4 0
v -1 -4 0
v -2 -5 0
v -3 -5 0
v -3 -4 0
v -2 -4 0
v -9 -5 0
v -10 -5 0
v -10 -4 0
v -9 -4 0
v -10 -5 0
v -11 -5 0
v -11 -4 0
v -10 -4 0
v -13 -5 0
v -14 -5 0
v -14 -4 0
v -13 -4 0
v -14 -5 0
v -15 -5 0
v -15 -4 0
v -14 -4 0
v -15 -5 0
v -16 -5 0
v -16 -4 0
v -15 -4 0
v -1 -6 0
v -2 -6 0
v -2 -5 0
v -1 -5 0
v -2 -6 0
v -3 -6 0
v -3 -5 0
v -2 -5 0
v -9 -6 0
v -10 -6 0
v -10 -5 0
v -9 -5 0
v -10 -6 0
v -11 -6 0
v -11 -5 0
v -10 -5 0
v -13 -6 0
v -14 -6 0
v -14 -5 0
v -13 -5 0
v -14 -6 0
v -15 -6 0
v -15 -5 0
v -14 -5 0
v -15 -6 0
v -16 -6 0
v -16 -5 0
v -15 -5 0
v -1 -7 0
v -2 -7 0
v -2 -6 0
v -1 -6 0
v -2 -7 0
v -3 -7 0
v -3 -6 0
v -2 -6 0
v -9 -7 0
v -10 -7 0
v -10 -6 0
v -9 -6 0
v -10 -7 0
v -11 -7 0
v -11 -6 0
v -10 -6 0
v -13 -7 0
v -14 -7 0
v -14 -6 0
v -13 -6 0
v -14 -7 0
v -15 -7 0
v -15 -6 0
v -14 -6 0
v -15 -7 0
v -16 -7 0
v -16 -6 0
v -15 -6 0

# Texture cooridinates (Count = 45)
vt 0.6875 0.34375
vt 0.71875 0.34375
vt 0.71875 0.375
vt 0.6875 0.375
vt 0.75 0.34375
vt 0.75 0.375
vt 0.6875 0.3125
vt 0.71875 0.3125
vt 0.75 0.3125
vt 0 0.4375
vt 0.03125 0.4375
vt 0.03125 0.46875
vt 0 0.46875
vt 0.0625 0.4375
vt 0.0625 0.46875
vt 0.09375 0.4375
vt 0.09375 0.46875
vt 0.6875 0.28125
vt 0.71875 0.28125
vt 0.75 0.28125
vt 0 0.40625
vt 0.03125 0.40625
vt 0.0625 0.40625
vt 0.09375 0.40625
vt 0.6875 0.25
vt 0.71875 0.25
vt 0.75 0.25
vt 0 0.375
vt 0.03125 0.375
vt 0.0625 0.375
vt 0.09375 0.375
vt 0.6875 0.21875
vt 0.71875 0.21875
vt 0.75 0.21875
vt 0 0.34375
vt 0.03125 0.34375
vt 0.0625 0.34375
vt 0.09375 0.34375
vt 0.6875 0.1875
vt 0.71875 0.1875
vt 0.75 0.1875
vt 0 0.3125
vt 0.03125 0.3125
vt 0.0625 0.3125
vt 0.09375 0.3125

# Normal
vn 0 0 -1

# Mesh description
g Castle_mesh_0026

# Faces
f 1/1/1 2/2/1 3/3/1 4/4/1
f 5/2/1 6/5/1 7/6/1 8/3/1
f 9/1/1 10/2/1 11/3/1 12/4/1
f 13/2/1 14/5/1 15/6/1 16/3/1
f 17/7/1 18/8/1 19/2/1 20/1/1
f 21/8/1 22/9/1 23/5/1 24/2/1
f 25/7/1 26/8/1 27/2/1 28/1/1
f 29/8/1 30/9/1 31/5/1 32/2/1
f 33/10/1 34/11/1 35/12/1 36/13/1
f 37/11/1 38/14/1 39/15/1 40/12/1
f 41/14/1 42/16/1 43/17/1 44/15/1
f 45/18/1 46/19/1 47/8/1 48/7/1
f 49/19/1 50/20/1 51/9/1 52/8/1
f 53/18/1 54/19/1 55/8/1 56/7/1
f 57/19/1 58/20/1 59/9/1 60/8/1
f 61/21/1 62/22/1 63/11/1 64/10/1
f 65/22/1 66/23/1 67/14/1 68/11/1
f 69/23/1 70/24/1 71/16/1 72/14/1
f 73/25/1 74/26/1 75/19/1 76/18/1
f 77/26/1 78/27/1 79/20/1 80/19/1
f 81/25/1 82/26/1 83/19/1 84/18/1
f 85/26/1 86/27/1 87/20/1 88/19/1
f 89/28/1 90/29/1 91/22/1 92/21/1
f 93/29/1 94/30/1 95/23/1 96/22/1
f 97/30/1 98/31/1 99/24/1 100/23/1
f 101/32/1 102/33/1 103/26/1 104/25/1
f 105/33/1 106/34/1 107/27/1 108/26/1
f 109/32/1 110/33/1 111/26/1 112/25/1
f 113/33/1 114/34/1 115/27/1 116/26/1
f 117/35/1 118/36/1 119/29/1 120/28/1
f 121/36/1 122/37/1 123/30/1 124/29/1
f 125/37/1 126/38/1 127/31/1 128/30/1
f 129/39/1 130/40/1 131/33/1 132/32/1
f 133/40/1 134/41/1 135/34/1 136/33/1
f 137/39/1 138/40/1 139/33/1 140/32/1
f 141/40/1 142/41/1 143/34/1 144/33/1
f 145/42/1 146/43/1 147/36/1 148/35/1
f 149/43/1 150/44/1 151/37/1 152/36/1
f 153/44/1 154/45/1 155/38/1 156/37/1

