# Tiled2Unity generated file. Do not modify by hand.
# Wavefront file for 'dungeonnivel2_mesh_0032.obj'

# Vertices (Count = 48)
v -12 -1 0
v -13.5 -1 0
v -13.5 0.5 0
v -12 0.5 0
v -13 -1 0
v -14.5 -1 0
v -14.5 0.5 0
v -13 0.5 0
v -14 -1 0
v -15.5 -1 0
v -15.5 0.5 0
v -14 0.5 0
v -15 -1 0
v -16.5 -1 0
v -16.5 0.5 0
v -15 0.5 0
v -12 -2 0
v -13.5 -2 0
v -13.5 -0.5 0
v -12 -0.5 0
v -13 -2 0
v -14.5 -2 0
v -14.5 -0.5 0
v -13 -0.5 0
v -14 -2 0
v -15.5 -2 0
v -15.5 -0.5 0
v -14 -0.5 0
v -15 -2 0
v -16.5 -2 0
v -16.5 -0.5 0
v -15 -0.5 0
v -12 -3 0
v -13.5 -3 0
v -13.5 -1.5 0
v -12 -1.5 0
v -13 -3 0
v -14.5 -3 0
v -14.5 -1.5 0
v -13 -1.5 0
v -14 -3 0
v -15.5 -3 0
v -15.5 -1.5 0
v -14 -1.5 0
v -15 -3 0
v -16.5 -3 0
v -16.5 -1.5 0
v -15 -1.5 0

# Texture cooridinates (Count = 6)
vt 0.1304348 0.8125
vt 0.1956522 0.8125
vt 0.1956522 0.875
vt 0.1304348 0.875
vt 0.1304348 0.75
vt 0.1956522 0.75

# Normal
vn 0 0 -1

# Mesh description
g dungeonnivel2_mesh_0032

# Faces
f 1/1/1 2/2/1 3/3/1 4/4/1
f 5/1/1 6/2/1 7/3/1 8/4/1
f 9/1/1 10/2/1 11/3/1 12/4/1
f 13/1/1 14/2/1 15/3/1 16/4/1
f 17/5/1 18/6/1 19/2/1 20/1/1
f 21/5/1 22/6/1 23/2/1 24/1/1
f 25/5/1 26/6/1 27/2/1 28/1/1
f 29/5/1 30/6/1 31/2/1 32/1/1
f 33/1/1 34/2/1 35/3/1 36/4/1
f 37/1/1 38/2/1 39/3/1 40/4/1
f 41/5/1 42/6/1 43/2/1 44/1/1
f 45/1/1 46/2/1 47/3/1 48/4/1

