# Tiled2Unity generated file. Do not modify by hand.
# Wavefront file for 'dungeonnivel2_mesh_0052.obj'

# Vertices (Count = 64)
v -10 -1 0
v -11 -1 0
v -11 0 0
v -10 0 0
v -10 -2 0
v -11 -2 0
v -11 -1 0
v -10 -1 0
v -10 -3 0
v -11 -3 0
v -11 -2 0
v -10 -2 0
v -10 -4 0
v -11 -4 0
v -11 -3 0
v -10 -3 0
v -10 -5 0
v -11 -5 0
v -11 -4 0
v -10 -4 0
v -10 -6 0
v -11 -6 0
v -11 -5 0
v -10 -5 0
v -10 -7 0
v -11 -7 0
v -11 -6 0
v -10 -6 0
v -10 -8 0
v -11 -8 0
v -11 -7 0
v -10 -7 0
v -10 -9 0
v -11 -9 0
v -11 -8 0
v -10 -8 0
v -10 -10 0
v -11 -10 0
v -11 -9 0
v -10 -9 0
v -10 -11 0
v -11 -11 0
v -11 -10 0
v -10 -10 0
v -10 -12 0
v -11 -12 0
v -11 -11 0
v -10 -11 0
v -10 -13 0
v -11 -13 0
v -11 -12 0
v -10 -12 0
v -10 -14 0
v -11 -14 0
v -11 -13 0
v -10 -13 0
v -10 -15 0
v -11 -15 0
v -11 -14 0
v -10 -14 0
v -10 -16 0
v -11 -16 0
v -11 -15 0
v -10 -15 0

# Texture cooridinates (Count = 6)
vt 0.5217391 0.625
vt 0.5652174 0.625
vt 0.5652174 0.6666666
vt 0.5217391 0.6666666
vt 0.5217391 0.5833334
vt 0.5652174 0.5833334

# Normal
vn 0 0 -1

# Mesh description
g dungeonnivel2_mesh_0052

# Faces
f 1/1/1 2/2/1 3/3/1 4/4/1
f 5/5/1 6/6/1 7/2/1 8/1/1
f 9/1/1 10/2/1 11/3/1 12/4/1
f 13/5/1 14/6/1 15/2/1 16/1/1
f 17/1/1 18/2/1 19/3/1 20/4/1
f 21/5/1 22/6/1 23/2/1 24/1/1
f 25/1/1 26/2/1 27/3/1 28/4/1
f 29/5/1 30/6/1 31/2/1 32/1/1
f 33/1/1 34/2/1 35/3/1 36/4/1
f 37/5/1 38/6/1 39/2/1 40/1/1
f 41/1/1 42/2/1 43/3/1 44/4/1
f 45/5/1 46/6/1 47/2/1 48/1/1
f 49/1/1 50/2/1 51/3/1 52/4/1
f 53/5/1 54/6/1 55/2/1 56/1/1
f 57/1/1 58/2/1 59/3/1 60/4/1
f 61/5/1 62/6/1 63/2/1 64/1/1

