# Tiled2Unity generated file. Do not modify by hand.
# Wavefront file for 'dungeonnivel2_mesh_0020.obj'

# Vertices (Count = 128)
v 0 -11 0
v -1 -11 0
v -1 -10 0
v 0 -10 0
v -1 -11 0
v -2 -11 0
v -2 -10 0
v -1 -10 0
v -2 -11 0
v -3 -11 0
v -3 -10 0
v -2 -10 0
v -3 -11 0
v -4 -11 0
v -4 -10 0
v -3 -10 0
v -4 -11 0
v -5 -11 0
v -5 -10 0
v -4 -10 0
v -5 -11 0
v -6 -11 0
v -6 -10 0
v -5 -10 0
v -6 -11 0
v -7 -11 0
v -7 -10 0
v -6 -10 0
v -7 -11 0
v -8 -11 0
v -8 -10 0
v -7 -10 0
v -8 -11 0
v -9 -11 0
v -9 -10 0
v -8 -10 0
v -9 -11 0
v -10 -11 0
v -10 -10 0
v -9 -10 0
v -10 -11 0
v -11 -11 0
v -11 -10 0
v -10 -10 0
v 0 -12 0
v -1 -12 0
v -1 -11 0
v 0 -11 0
v -1 -12 0
v -2 -12 0
v -2 -11 0
v -1 -11 0
v -2 -12 0
v -3 -12 0
v -3 -11 0
v -2 -11 0
v -3 -12 0
v -4 -12 0
v -4 -11 0
v -3 -11 0
v -4 -12 0
v -5 -12 0
v -5 -11 0
v -4 -11 0
v -5 -12 0
v -6 -12 0
v -6 -11 0
v -5 -11 0
v -6 -12 0
v -7 -12 0
v -7 -11 0
v -6 -11 0
v -7 -12 0
v -8 -12 0
v -8 -11 0
v -7 -11 0
v -8 -12 0
v -9 -12 0
v -9 -11 0
v -8 -11 0
v -9 -12 0
v -10 -12 0
v -10 -11 0
v -9 -11 0
v -10 -12 0
v -11 -12 0
v -11 -11 0
v -10 -11 0
v -11 -12 0
v -12 -12 0
v -12 -11 0
v -11 -11 0
v -15 -12 0
v -16 -12 0
v -16 -11 0
v -15 -11 0
v -11 -13 0
v -12 -13 0
v -12 -12 0
v -11 -12 0
v -15 -13 0
v -16 -13 0
v -16 -12 0
v -15 -12 0
v -11 -14 0
v -12 -14 0
v -12 -13 0
v -11 -13 0
v -15 -14 0
v -16 -14 0
v -16 -13 0
v -15 -13 0
v -11 -15 0
v -12 -15 0
v -12 -14 0
v -11 -14 0
v -15 -15 0
v -16 -15 0
v -16 -14 0
v -15 -14 0
v -11 -16 0
v -12 -16 0
v -12 -15 0
v -11 -15 0
v -15 -16 0
v -16 -16 0
v -16 -15 0
v -15 -15 0

# Texture cooridinates (Count = 19)
vt 0.1304348 0.7083334
vt 0.173913 0.7083334
vt 0.173913 0.75
vt 0.1304348 0.75
vt 0.1304348 0.6666666
vt 0.173913 0.6666666
vt 0.2173913 0.6666666
vt 0.2173913 0.7083334
vt 0.2608696 0.6666666
vt 0.2608696 0.7083334
vt 0.08695652 0.6666666
vt 0.08695652 0.7083334
vt 0.08695652 0.75
vt 0.1304348 0.7916667
vt 0.08695652 0.7916667
vt 0.2608696 0.75
vt 0.3043478 0.75
vt 0.3043478 0.7916667
vt 0.2608696 0.7916667

# Normal
vn 0 0 -1

# Mesh description
g dungeonnivel2_mesh_0020

# Faces
f 1/1/1 2/2/1 3/3/1 4/4/1
f 5/1/1 6/2/1 7/3/1 8/4/1
f 9/1/1 10/2/1 11/3/1 12/4/1
f 13/1/1 14/2/1 15/3/1 16/4/1
f 17/1/1 18/2/1 19/3/1 20/4/1
f 21/1/1 22/2/1 23/3/1 24/4/1
f 25/1/1 26/2/1 27/3/1 28/4/1
f 29/1/1 30/2/1 31/3/1 32/4/1
f 33/1/1 34/2/1 35/3/1 36/4/1
f 37/1/1 38/2/1 39/3/1 40/4/1
f 41/1/1 42/2/1 43/3/1 44/4/1
f 45/5/1 46/6/1 47/2/1 48/1/1
f 49/6/1 50/7/1 51/8/1 52/2/1
f 53/7/1 54/9/1 55/10/1 56/8/1
f 57/11/1 58/5/1 59/1/1 60/12/1
f 61/5/1 62/6/1 63/2/1 64/1/1
f 65/6/1 66/7/1 67/8/1 68/2/1
f 69/7/1 70/9/1 71/10/1 72/8/1
f 73/11/1 74/5/1 75/1/1 76/12/1
f 77/5/1 78/6/1 79/2/1 80/1/1
f 81/6/1 82/7/1 83/8/1 84/2/1
f 85/7/1 86/9/1 87/10/1 88/8/1
f 89/13/1 90/4/1 91/14/1 92/15/1
f 93/16/1 94/17/1 95/18/1 96/19/1
f 97/13/1 98/4/1 99/14/1 100/15/1
f 101/16/1 102/17/1 103/18/1 104/19/1
f 105/13/1 106/4/1 107/14/1 108/15/1
f 109/16/1 110/17/1 111/18/1 112/19/1
f 113/13/1 114/4/1 115/14/1 116/15/1
f 117/16/1 118/17/1 119/18/1 120/19/1
f 121/13/1 122/4/1 123/14/1 124/15/1
f 125/16/1 126/17/1 127/18/1 128/19/1

