# Tiled2Unity generated file. Do not modify by hand.
# Wavefront file for 'dungeonnivel2_mesh_0002.obj'

# Vertices (Count = 96)
v -8 -14 0
v -9.5 -14 0
v -9.5 -12.5 0
v -8 -12.5 0
v -9 -14 0
v -10.5 -14 0
v -10.5 -12.5 0
v -9 -12.5 0
v -10 -14 0
v -11.5 -14 0
v -11.5 -12.5 0
v -10 -12.5 0
v -11 -14 0
v -12.5 -14 0
v -12.5 -12.5 0
v -11 -12.5 0
v -12 -14 0
v -13.5 -14 0
v -13.5 -12.5 0
v -12 -12.5 0
v -13 -14 0
v -14.5 -14 0
v -14.5 -12.5 0
v -13 -12.5 0
v -14 -14 0
v -15.5 -14 0
v -15.5 -12.5 0
v -14 -12.5 0
v -15 -14 0
v -16.5 -14 0
v -16.5 -12.5 0
v -15 -12.5 0
v -8 -15 0
v -9.5 -15 0
v -9.5 -13.5 0
v -8 -13.5 0
v -9 -15 0
v -10.5 -15 0
v -10.5 -13.5 0
v -9 -13.5 0
v -10 -15 0
v -11.5 -15 0
v -11.5 -13.5 0
v -10 -13.5 0
v -11 -15 0
v -12.5 -15 0
v -12.5 -13.5 0
v -11 -13.5 0
v -12 -15 0
v -13.5 -15 0
v -13.5 -13.5 0
v -12 -13.5 0
v -13 -15 0
v -14.5 -15 0
v -14.5 -13.5 0
v -13 -13.5 0
v -14 -15 0
v -15.5 -15 0
v -15.5 -13.5 0
v -14 -13.5 0
v -15 -15 0
v -16.5 -15 0
v -16.5 -13.5 0
v -15 -13.5 0
v -8 -16 0
v -9.5 -16 0
v -9.5 -14.5 0
v -8 -14.5 0
v -9 -16 0
v -10.5 -16 0
v -10.5 -14.5 0
v -9 -14.5 0
v -10 -16 0
v -11.5 -16 0
v -11.5 -14.5 0
v -10 -14.5 0
v -11 -16 0
v -12.5 -16 0
v -12.5 -14.5 0
v -11 -14.5 0
v -12 -16 0
v -13.5 -16 0
v -13.5 -14.5 0
v -12 -14.5 0
v -13 -16 0
v -14.5 -16 0
v -14.5 -14.5 0
v -13 -14.5 0
v -14 -16 0
v -15.5 -16 0
v -15.5 -14.5 0
v -14 -14.5 0
v -15 -16 0
v -16.5 -16 0
v -16.5 -14.5 0
v -15 -14.5 0

# Texture cooridinates (Count = 8)
vt 0.1304348 0.8125
vt 0.1956522 0.8125
vt 0.1956522 0.875
vt 0.1304348 0.875
vt 0.1304348 0.75
vt 0.1956522 0.75
vt 0.2608696 0.8125
vt 0.2608696 0.875

# Normal
vn 0 0 -1

# Mesh description
g dungeonnivel2_mesh_0002

# Faces
f 1/1/1 2/2/1 3/3/1 4/4/1
f 5/1/1 6/2/1 7/3/1 8/4/1
f 9/1/1 10/2/1 11/3/1 12/4/1
f 13/1/1 14/2/1 15/3/1 16/4/1
f 17/1/1 18/2/1 19/3/1 20/4/1
f 21/1/1 22/2/1 23/3/1 24/4/1
f 25/1/1 26/2/1 27/3/1 28/4/1
f 29/1/1 30/2/1 31/3/1 32/4/1
f 33/5/1 34/6/1 35/2/1 36/1/1
f 37/5/1 38/6/1 39/2/1 40/1/1
f 41/5/1 42/6/1 43/2/1 44/1/1
f 45/5/1 46/6/1 47/2/1 48/1/1
f 49/5/1 50/6/1 51/2/1 52/1/1
f 53/5/1 54/6/1 55/2/1 56/1/1
f 57/5/1 58/6/1 59/2/1 60/1/1
f 61/5/1 62/6/1 63/2/1 64/1/1
f 65/1/1 66/2/1 67/3/1 68/4/1
f 69/2/1 70/7/1 71/8/1 72/3/1
f 73/2/1 74/7/1 75/8/1 76/3/1
f 77/2/1 78/7/1 79/8/1 80/3/1
f 81/2/1 82/7/1 83/8/1 84/3/1
f 85/2/1 86/7/1 87/8/1 88/3/1
f 89/2/1 90/7/1 91/8/1 92/3/1
f 93/2/1 94/7/1 95/8/1 96/3/1

