# Tiled2Unity generated file. Do not modify by hand.
# Wavefront file for 'dungeonnivel2_mesh_0008.obj'

# Vertices (Count = 812)
v 0 -1 0
v -1.5 -1 0
v -1.5 0.5 0
v 0 0.5 0
v -1 -1 0
v -2.5 -1 0
v -2.5 0.5 0
v -1 0.5 0
v -2 -1 0
v -3.5 -1 0
v -3.5 0.5 0
v -2 0.5 0
v -3 -1 0
v -4.5 -1 0
v -4.5 0.5 0
v -3 0.5 0
v -4 -1 0
v -5.5 -1 0
v -5.5 0.5 0
v -4 0.5 0
v -5 -1 0
v -6.5 -1 0
v -6.5 0.5 0
v -5 0.5 0
v -6 -1 0
v -7.5 -1 0
v -7.5 0.5 0
v -6 0.5 0
v -7 -1 0
v -8.5 -1 0
v -8.5 0.5 0
v -7 0.5 0
v -8 -1 0
v -9.5 -1 0
v -9.5 0.5 0
v -8 0.5 0
v -9 -1 0
v -10.5 -1 0
v -10.5 0.5 0
v -9 0.5 0
v -10 -1 0
v -11.5 -1 0
v -11.5 0.5 0
v -10 0.5 0
v -11 -1 0
v -12.5 -1 0
v -12.5 0.5 0
v -11 0.5 0
v -12 -1 0
v -13.5 -1 0
v -13.5 0.5 0
v -12 0.5 0
v -13 -1 0
v -14.5 -1 0
v -14.5 0.5 0
v -13 0.5 0
v -14 -1 0
v -15.5 -1 0
v -15.5 0.5 0
v -14 0.5 0
v -15 -1 0
v -16.5 -1 0
v -16.5 0.5 0
v -15 0.5 0
v 0 -2 0
v -1.5 -2 0
v -1.5 -0.5 0
v 0 -0.5 0
v -1 -2 0
v -2.5 -2 0
v -2.5 -0.5 0
v -1 -0.5 0
v -2 -2 0
v -3.5 -2 0
v -3.5 -0.5 0
v -2 -0.5 0
v -3 -2 0
v -4.5 -2 0
v -4.5 -0.5 0
v -3 -0.5 0
v -4 -2 0
v -5.5 -2 0
v -5.5 -0.5 0
v -4 -0.5 0
v -5 -2 0
v -6.5 -2 0
v -6.5 -0.5 0
v -5 -0.5 0
v -6 -2 0
v -7.5 -2 0
v -7.5 -0.5 0
v -6 -0.5 0
v -7 -2 0
v -8.5 -2 0
v -8.5 -0.5 0
v -7 -0.5 0
v -8 -2 0
v -9.5 -2 0
v -9.5 -0.5 0
v -8 -0.5 0
v -9 -2 0
v -10.5 -2 0
v -10.5 -0.5 0
v -9 -0.5 0
v -10 -2 0
v -11.5 -2 0
v -11.5 -0.5 0
v -10 -0.5 0
v -11 -2 0
v -12.5 -2 0
v -12.5 -0.5 0
v -11 -0.5 0
v -12 -2 0
v -13.5 -2 0
v -13.5 -0.5 0
v -12 -0.5 0
v -13 -2 0
v -14.5 -2 0
v -14.5 -0.5 0
v -13 -0.5 0
v -14 -2 0
v -15.5 -2 0
v -15.5 -0.5 0
v -14 -0.5 0
v -15 -2 0
v -16.5 -2 0
v -16.5 -0.5 0
v -15 -0.5 0
v 0 -3 0
v -1.5 -3 0
v -1.5 -1.5 0
v 0 -1.5 0
v -1 -3 0
v -2.5 -3 0
v -2.5 -1.5 0
v -1 -1.5 0
v -2 -3 0
v -3.5 -3 0
v -3.5 -1.5 0
v -2 -1.5 0
v -3 -3 0
v -4.5 -3 0
v -4.5 -1.5 0
v -3 -1.5 0
v -4 -3 0
v -5.5 -3 0
v -5.5 -1.5 0
v -4 -1.5 0
v -5 -3 0
v -6.5 -3 0
v -6.5 -1.5 0
v -5 -1.5 0
v -6 -3 0
v -7.5 -3 0
v -7.5 -1.5 0
v -6 -1.5 0
v -7 -3 0
v -8.5 -3 0
v -8.5 -1.5 0
v -7 -1.5 0
v -8 -3 0
v -9.5 -3 0
v -9.5 -1.5 0
v -8 -1.5 0
v -9 -3 0
v -10.5 -3 0
v -10.5 -1.5 0
v -9 -1.5 0
v -10 -3 0
v -11.5 -3 0
v -11.5 -1.5 0
v -10 -1.5 0
v -11 -3 0
v -12.5 -3 0
v -12.5 -1.5 0
v -11 -1.5 0
v -12 -3 0
v -13.5 -3 0
v -13.5 -1.5 0
v -12 -1.5 0
v -13 -3 0
v -14.5 -3 0
v -14.5 -1.5 0
v -13 -1.5 0
v -14 -3 0
v -15.5 -3 0
v -15.5 -1.5 0
v -14 -1.5 0
v -15 -3 0
v -16.5 -3 0
v -16.5 -1.5 0
v -15 -1.5 0
v 0 -4 0
v -1.5 -4 0
v -1.5 -2.5 0
v 0 -2.5 0
v -1 -4 0
v -2.5 -4 0
v -2.5 -2.5 0
v -1 -2.5 0
v -2 -4 0
v -3.5 -4 0
v -3.5 -2.5 0
v -2 -2.5 0
v -3 -4 0
v -4.5 -4 0
v -4.5 -2.5 0
v -3 -2.5 0
v -4 -4 0
v -5.5 -4 0
v -5.5 -2.5 0
v -4 -2.5 0
v -5 -4 0
v -6.5 -4 0
v -6.5 -2.5 0
v -5 -2.5 0
v -6 -4 0
v -7.5 -4 0
v -7.5 -2.5 0
v -6 -2.5 0
v -7 -4 0
v -8.5 -4 0
v -8.5 -2.5 0
v -7 -2.5 0
v -8 -4 0
v -9.5 -4 0
v -9.5 -2.5 0
v -8 -2.5 0
v -9 -4 0
v -10.5 -4 0
v -10.5 -2.5 0
v -9 -2.5 0
v -10 -4 0
v -11.5 -4 0
v -11.5 -2.5 0
v -10 -2.5 0
v -11 -4 0
v -12.5 -4 0
v -12.5 -2.5 0
v -11 -2.5 0
v -12 -4 0
v -13.5 -4 0
v -13.5 -2.5 0
v -12 -2.5 0
v -13 -4 0
v -14.5 -4 0
v -14.5 -2.5 0
v -13 -2.5 0
v -14 -4 0
v -15.5 -4 0
v -15.5 -2.5 0
v -14 -2.5 0
v -15 -4 0
v -16.5 -4 0
v -16.5 -2.5 0
v -15 -2.5 0
v 0 -5 0
v -1.5 -5 0
v -1.5 -3.5 0
v 0 -3.5 0
v -1 -5 0
v -2.5 -5 0
v -2.5 -3.5 0
v -1 -3.5 0
v -2 -5 0
v -3.5 -5 0
v -3.5 -3.5 0
v -2 -3.5 0
v -3 -5 0
v -4.5 -5 0
v -4.5 -3.5 0
v -3 -3.5 0
v -4 -5 0
v -5.5 -5 0
v -5.5 -3.5 0
v -4 -3.5 0
v -5 -5 0
v -6.5 -5 0
v -6.5 -3.5 0
v -5 -3.5 0
v -6 -5 0
v -7.5 -5 0
v -7.5 -3.5 0
v -6 -3.5 0
v -7 -5 0
v -8.5 -5 0
v -8.5 -3.5 0
v -7 -3.5 0
v -8 -5 0
v -9.5 -5 0
v -9.5 -3.5 0
v -8 -3.5 0
v -9 -5 0
v -10.5 -5 0
v -10.5 -3.5 0
v -9 -3.5 0
v -10 -5 0
v -11.5 -5 0
v -11.5 -3.5 0
v -10 -3.5 0
v -11 -5 0
v -12.5 -5 0
v -12.5 -3.5 0
v -11 -3.5 0
v -12 -5 0
v -13.5 -5 0
v -13.5 -3.5 0
v -12 -3.5 0
v -13 -5 0
v -14.5 -5 0
v -14.5 -3.5 0
v -13 -3.5 0
v -14 -5 0
v -15.5 -5 0
v -15.5 -3.5 0
v -14 -3.5 0
v -15 -5 0
v -16.5 -5 0
v -16.5 -3.5 0
v -15 -3.5 0
v 0 -6 0
v -1.5 -6 0
v -1.5 -4.5 0
v 0 -4.5 0
v -1 -6 0
v -2.5 -6 0
v -2.5 -4.5 0
v -1 -4.5 0
v -2 -6 0
v -3.5 -6 0
v -3.5 -4.5 0
v -2 -4.5 0
v -3 -6 0
v -4.5 -6 0
v -4.5 -4.5 0
v -3 -4.5 0
v -4 -6 0
v -5.5 -6 0
v -5.5 -4.5 0
v -4 -4.5 0
v -5 -6 0
v -6.5 -6 0
v -6.5 -4.5 0
v -5 -4.5 0
v -6 -6 0
v -7.5 -6 0
v -7.5 -4.5 0
v -6 -4.5 0
v -7 -6 0
v -8.5 -6 0
v -8.5 -4.5 0
v -7 -4.5 0
v -8 -6 0
v -9.5 -6 0
v -9.5 -4.5 0
v -8 -4.5 0
v -9 -6 0
v -10.5 -6 0
v -10.5 -4.5 0
v -9 -4.5 0
v -10 -6 0
v -11.5 -6 0
v -11.5 -4.5 0
v -10 -4.5 0
v -11 -6 0
v -12.5 -6 0
v -12.5 -4.5 0
v -11 -4.5 0
v -12 -6 0
v -13.5 -6 0
v -13.5 -4.5 0
v -12 -4.5 0
v -13 -6 0
v -14.5 -6 0
v -14.5 -4.5 0
v -13 -4.5 0
v -14 -6 0
v -15.5 -6 0
v -15.5 -4.5 0
v -14 -4.5 0
v -15 -6 0
v -16.5 -6 0
v -16.5 -4.5 0
v -15 -4.5 0
v 0 -7 0
v -1.5 -7 0
v -1.5 -5.5 0
v 0 -5.5 0
v -1 -7 0
v -2.5 -7 0
v -2.5 -5.5 0
v -1 -5.5 0
v -2 -7 0
v -3.5 -7 0
v -3.5 -5.5 0
v -2 -5.5 0
v -3 -7 0
v -4.5 -7 0
v -4.5 -5.5 0
v -3 -5.5 0
v -4 -7 0
v -5.5 -7 0
v -5.5 -5.5 0
v -4 -5.5 0
v -5 -7 0
v -6.5 -7 0
v -6.5 -5.5 0
v -5 -5.5 0
v -6 -7 0
v -7.5 -7 0
v -7.5 -5.5 0
v -6 -5.5 0
v -7 -7 0
v -8.5 -7 0
v -8.5 -5.5 0
v -7 -5.5 0
v -8 -7 0
v -9.5 -7 0
v -9.5 -5.5 0
v -8 -5.5 0
v -9 -7 0
v -10.5 -7 0
v -10.5 -5.5 0
v -9 -5.5 0
v -10 -7 0
v -11.5 -7 0
v -11.5 -5.5 0
v -10 -5.5 0
v -11 -7 0
v -12.5 -7 0
v -12.5 -5.5 0
v -11 -5.5 0
v -12 -7 0
v -13.5 -7 0
v -13.5 -5.5 0
v -12 -5.5 0
v -13 -7 0
v -14.5 -7 0
v -14.5 -5.5 0
v -13 -5.5 0
v -14 -7 0
v -15.5 -7 0
v -15.5 -5.5 0
v -14 -5.5 0
v -15 -7 0
v -16.5 -7 0
v -16.5 -5.5 0
v -15 -5.5 0
v 0 -8 0
v -1.5 -8 0
v -1.5 -6.5 0
v 0 -6.5 0
v -1 -8 0
v -2.5 -8 0
v -2.5 -6.5 0
v -1 -6.5 0
v -2 -8 0
v -3.5 -8 0
v -3.5 -6.5 0
v -2 -6.5 0
v -3 -8 0
v -4.5 -8 0
v -4.5 -6.5 0
v -3 -6.5 0
v -4 -8 0
v -5.5 -8 0
v -5.5 -6.5 0
v -4 -6.5 0
v -5 -8 0
v -6.5 -8 0
v -6.5 -6.5 0
v -5 -6.5 0
v -6 -8 0
v -7.5 -8 0
v -7.5 -6.5 0
v -6 -6.5 0
v -7 -8 0
v -8.5 -8 0
v -8.5 -6.5 0
v -7 -6.5 0
v -8 -8 0
v -9.5 -8 0
v -9.5 -6.5 0
v -8 -6.5 0
v -9 -8 0
v -10.5 -8 0
v -10.5 -6.5 0
v -9 -6.5 0
v -10 -8 0
v -11.5 -8 0
v -11.5 -6.5 0
v -10 -6.5 0
v -11 -8 0
v -12.5 -8 0
v -12.5 -6.5 0
v -11 -6.5 0
v -12 -8 0
v -13.5 -8 0
v -13.5 -6.5 0
v -12 -6.5 0
v -13 -8 0
v -14.5 -8 0
v -14.5 -6.5 0
v -13 -6.5 0
v -14 -8 0
v -15.5 -8 0
v -15.5 -6.5 0
v -14 -6.5 0
v -15 -8 0
v -16.5 -8 0
v -16.5 -6.5 0
v -15 -6.5 0
v 0 -9 0
v -1.5 -9 0
v -1.5 -7.5 0
v 0 -7.5 0
v -1 -9 0
v -2.5 -9 0
v -2.5 -7.5 0
v -1 -7.5 0
v -2 -9 0
v -3.5 -9 0
v -3.5 -7.5 0
v -2 -7.5 0
v -3 -9 0
v -4.5 -9 0
v -4.5 -7.5 0
v -3 -7.5 0
v -4 -9 0
v -5.5 -9 0
v -5.5 -7.5 0
v -4 -7.5 0
v -5 -9 0
v -6.5 -9 0
v -6.5 -7.5 0
v -5 -7.5 0
v -6 -9 0
v -7.5 -9 0
v -7.5 -7.5 0
v -6 -7.5 0
v -7 -9 0
v -8.5 -9 0
v -8.5 -7.5 0
v -7 -7.5 0
v -8 -9 0
v -9.5 -9 0
v -9.5 -7.5 0
v -8 -7.5 0
v -9 -9 0
v -10.5 -9 0
v -10.5 -7.5 0
v -9 -7.5 0
v -10 -9 0
v -11.5 -9 0
v -11.5 -7.5 0
v -10 -7.5 0
v -11 -9 0
v -12.5 -9 0
v -12.5 -7.5 0
v -11 -7.5 0
v -12 -9 0
v -13.5 -9 0
v -13.5 -7.5 0
v -12 -7.5 0
v -13 -9 0
v -14.5 -9 0
v -14.5 -7.5 0
v -13 -7.5 0
v -14 -9 0
v -15.5 -9 0
v -15.5 -7.5 0
v -14 -7.5 0
v -15 -9 0
v -16.5 -9 0
v -16.5 -7.5 0
v -15 -7.5 0
v 0 -10 0
v -1.5 -10 0
v -1.5 -8.5 0
v 0 -8.5 0
v -1 -10 0
v -2.5 -10 0
v -2.5 -8.5 0
v -1 -8.5 0
v -2 -10 0
v -3.5 -10 0
v -3.5 -8.5 0
v -2 -8.5 0
v -3 -10 0
v -4.5 -10 0
v -4.5 -8.5 0
v -3 -8.5 0
v -4 -10 0
v -5.5 -10 0
v -5.5 -8.5 0
v -4 -8.5 0
v -5 -10 0
v -6.5 -10 0
v -6.5 -8.5 0
v -5 -8.5 0
v -6 -10 0
v -7.5 -10 0
v -7.5 -8.5 0
v -6 -8.5 0
v -7 -10 0
v -8.5 -10 0
v -8.5 -8.5 0
v -7 -8.5 0
v -8 -10 0
v -9.5 -10 0
v -9.5 -8.5 0
v -8 -8.5 0
v -9 -10 0
v -10.5 -10 0
v -10.5 -8.5 0
v -9 -8.5 0
v -10 -10 0
v -11.5 -10 0
v -11.5 -8.5 0
v -10 -8.5 0
v -11 -10 0
v -12.5 -10 0
v -12.5 -8.5 0
v -11 -8.5 0
v -12 -10 0
v -13.5 -10 0
v -13.5 -8.5 0
v -12 -8.5 0
v -13 -10 0
v -14.5 -10 0
v -14.5 -8.5 0
v -13 -8.5 0
v -14 -10 0
v -15.5 -10 0
v -15.5 -8.5 0
v -14 -8.5 0
v -15 -10 0
v -16.5 -10 0
v -16.5 -8.5 0
v -15 -8.5 0
v 0 -11 0
v -1.5 -11 0
v -1.5 -9.5 0
v 0 -9.5 0
v -1 -11 0
v -2.5 -11 0
v -2.5 -9.5 0
v -1 -9.5 0
v -2 -11 0
v -3.5 -11 0
v -3.5 -9.5 0
v -2 -9.5 0
v -3 -11 0
v -4.5 -11 0
v -4.5 -9.5 0
v -3 -9.5 0
v -4 -11 0
v -5.5 -11 0
v -5.5 -9.5 0
v -4 -9.5 0
v -5 -11 0
v -6.5 -11 0
v -6.5 -9.5 0
v -5 -9.5 0
v -6 -11 0
v -7.5 -11 0
v -7.5 -9.5 0
v -6 -9.5 0
v -7 -11 0
v -8.5 -11 0
v -8.5 -9.5 0
v -7 -9.5 0
v -8 -11 0
v -9.5 -11 0
v -9.5 -9.5 0
v -8 -9.5 0
v -9 -11 0
v -10.5 -11 0
v -10.5 -9.5 0
v -9 -9.5 0
v -10 -11 0
v -11.5 -11 0
v -11.5 -9.5 0
v -10 -9.5 0
v -11 -11 0
v -12.5 -11 0
v -12.5 -9.5 0
v -11 -9.5 0
v -12 -11 0
v -13.5 -11 0
v -13.5 -9.5 0
v -12 -9.5 0
v -13 -11 0
v -14.5 -11 0
v -14.5 -9.5 0
v -13 -9.5 0
v -14 -11 0
v -15.5 -11 0
v -15.5 -9.5 0
v -14 -9.5 0
v -15 -11 0
v -16.5 -11 0
v -16.5 -9.5 0
v -15 -9.5 0
v 0 -12 0
v -1.5 -12 0
v -1.5 -10.5 0
v 0 -10.5 0
v -1 -12 0
v -2.5 -12 0
v -2.5 -10.5 0
v -1 -10.5 0
v -2 -12 0
v -3.5 -12 0
v -3.5 -10.5 0
v -2 -10.5 0
v -3 -12 0
v -4.5 -12 0
v -4.5 -10.5 0
v -3 -10.5 0
v -4 -12 0
v -5.5 -12 0
v -5.5 -10.5 0
v -4 -10.5 0
v -5 -12 0
v -6.5 -12 0
v -6.5 -10.5 0
v -5 -10.5 0
v -6 -12 0
v -7.5 -12 0
v -7.5 -10.5 0
v -6 -10.5 0
v -1 -13 0
v -2.5 -13 0
v -2.5 -11.5 0
v -1 -11.5 0
v -2 -13 0
v -3.5 -13 0
v -3.5 -11.5 0
v -2 -11.5 0
v -3 -13 0
v -4.5 -13 0
v -4.5 -11.5 0
v -3 -11.5 0
v -4 -13 0
v -5.5 -13 0
v -5.5 -11.5 0
v -4 -11.5 0
v -5 -13 0
v -6.5 -13 0
v -6.5 -11.5 0
v -5 -11.5 0
v -1 -14 0
v -2.5 -14 0
v -2.5 -12.5 0
v -1 -12.5 0
v -2 -14 0
v -3.5 -14 0
v -3.5 -12.5 0
v -2 -12.5 0
v -3 -14 0
v -4.5 -14 0
v -4.5 -12.5 0
v -3 -12.5 0
v -4 -14 0
v -5.5 -14 0
v -5.5 -12.5 0
v -4 -12.5 0
v -5 -14 0
v -6.5 -14 0
v -6.5 -12.5 0
v -5 -12.5 0
v -1 -15 0
v -2.5 -15 0
v -2.5 -13.5 0
v -1 -13.5 0
v -2 -15 0
v -3.5 -15 0
v -3.5 -13.5 0
v -2 -13.5 0
v -3 -15 0
v -4.5 -15 0
v -4.5 -13.5 0
v -3 -13.5 0
v -4 -15 0
v -5.5 -15 0
v -5.5 -13.5 0
v -4 -13.5 0
v -5 -15 0
v -6.5 -15 0
v -6.5 -13.5 0
v -5 -13.5 0
v -1 -16 0
v -2.5 -16 0
v -2.5 -14.5 0
v -1 -14.5 0
v -2 -16 0
v -3.5 -16 0
v -3.5 -14.5 0
v -2 -14.5 0
v -3 -16 0
v -4.5 -16 0
v -4.5 -14.5 0
v -3 -14.5 0
v -4 -16 0
v -5.5 -16 0
v -5.5 -14.5 0
v -4 -14.5 0
v -5 -16 0
v -6.5 -16 0
v -6.5 -14.5 0
v -5 -14.5 0

# Texture cooridinates (Count = 9)
vt 0.1956522 0.75
vt 0.2608696 0.75
vt 0.2608696 0.8125
vt 0.1956522 0.8125
vt 0.1304348 0.8125
vt 0.1956522 0.875
vt 0.1304348 0.875
vt 0.2608696 0.875
vt 0.1304348 0.75

# Normal
vn 0 0 -1

# Mesh description
g dungeonnivel2_mesh_0008

# Faces
f 1/1/1 2/2/1 3/3/1 4/4/1
f 5/1/1 6/2/1 7/3/1 8/4/1
f 9/1/1 10/2/1 11/3/1 12/4/1
f 13/5/1 14/4/1 15/6/1 16/7/1
f 17/4/1 18/3/1 19/8/1 20/6/1
f 21/4/1 22/3/1 23/8/1 24/6/1
f 25/4/1 26/3/1 27/8/1 28/6/1
f 29/4/1 30/3/1 31/8/1 32/6/1
f 33/1/1 34/2/1 35/3/1 36/4/1
f 37/1/1 38/2/1 39/3/1 40/4/1
f 41/1/1 42/2/1 43/3/1 44/4/1
f 45/1/1 46/2/1 47/3/1 48/4/1
f 49/1/1 50/2/1 51/3/1 52/4/1
f 53/4/1 54/3/1 55/8/1 56/6/1
f 57/5/1 58/4/1 59/6/1 60/7/1
f 61/4/1 62/3/1 63/8/1 64/6/1
f 65/4/1 66/3/1 67/8/1 68/6/1
f 69/4/1 70/3/1 71/8/1 72/6/1
f 73/4/1 74/3/1 75/8/1 76/6/1
f 77/4/1 78/3/1 79/8/1 80/6/1
f 81/4/1 82/3/1 83/8/1 84/6/1
f 85/1/1 86/2/1 87/3/1 88/4/1
f 89/1/1 90/2/1 91/3/1 92/4/1
f 93/1/1 94/2/1 95/3/1 96/4/1
f 97/4/1 98/3/1 99/8/1 100/6/1
f 101/9/1 102/1/1 103/4/1 104/5/1
f 105/9/1 106/1/1 107/4/1 108/5/1
f 109/9/1 110/1/1 111/4/1 112/5/1
f 113/1/1 114/2/1 115/3/1 116/4/1
f 117/4/1 118/3/1 119/8/1 120/6/1
f 121/5/1 122/4/1 123/6/1 124/7/1
f 125/4/1 126/3/1 127/8/1 128/6/1
f 129/1/1 130/2/1 131/3/1 132/4/1
f 133/1/1 134/2/1 135/3/1 136/4/1
f 137/1/1 138/2/1 139/3/1 140/4/1
f 141/1/1 142/2/1 143/3/1 144/4/1
f 145/1/1 146/2/1 147/3/1 148/4/1
f 149/4/1 150/3/1 151/8/1 152/6/1
f 153/5/1 154/4/1 155/6/1 156/7/1
f 157/9/1 158/1/1 159/4/1 160/5/1
f 161/1/1 162/2/1 163/3/1 164/4/1
f 165/1/1 166/2/1 167/3/1 168/4/1
f 169/1/1 170/2/1 171/3/1 172/4/1
f 173/9/1 174/1/1 175/4/1 176/5/1
f 177/1/1 178/2/1 179/3/1 180/4/1
f 181/4/1 182/3/1 183/8/1 184/6/1
f 185/4/1 186/3/1 187/8/1 188/6/1
f 189/4/1 190/3/1 191/8/1 192/6/1
f 193/9/1 194/1/1 195/4/1 196/5/1
f 197/9/1 198/1/1 199/4/1 200/5/1
f 201/9/1 202/1/1 203/4/1 204/5/1
f 205/1/1 206/2/1 207/3/1 208/4/1
f 209/5/1 210/4/1 211/6/1 212/7/1
f 213/5/1 214/4/1 215/6/1 216/7/1
f 217/9/1 218/1/1 219/4/1 220/5/1
f 221/9/1 222/1/1 223/4/1 224/5/1
f 225/1/1 226/2/1 227/3/1 228/4/1
f 229/4/1 230/3/1 231/8/1 232/6/1
f 233/4/1 234/3/1 235/8/1 236/6/1
f 237/9/1 238/1/1 239/4/1 240/5/1
f 241/1/1 242/2/1 243/3/1 244/4/1
f 245/5/1 246/4/1 247/6/1 248/7/1
f 249/4/1 250/3/1 251/8/1 252/6/1
f 253/4/1 254/3/1 255/8/1 256/6/1
f 257/4/1 258/3/1 259/8/1 260/6/1
f 261/9/1 262/1/1 263/4/1 264/5/1
f 265/9/1 266/1/1 267/4/1 268/5/1
f 269/9/1 270/1/1 271/4/1 272/5/1
f 273/9/1 274/1/1 275/4/1 276/5/1
f 277/9/1 278/1/1 279/4/1 280/5/1
f 281/1/1 282/2/1 283/3/1 284/4/1
f 285/4/1 286/3/1 287/8/1 288/6/1
f 289/1/1 290/2/1 291/3/1 292/4/1
f 293/1/1 294/2/1 295/3/1 296/4/1
f 297/1/1 298/2/1 299/3/1 300/4/1
f 301/9/1 302/1/1 303/4/1 304/5/1
f 305/1/1 306/2/1 307/3/1 308/4/1
f 309/5/1 310/4/1 311/6/1 312/7/1
f 313/4/1 314/3/1 315/8/1 316/6/1
f 317/4/1 318/3/1 319/8/1 320/6/1
f 321/5/1 322/4/1 323/6/1 324/7/1
f 325/5/1 326/4/1 327/6/1 328/7/1
f 329/5/1 330/4/1 331/6/1 332/7/1
f 333/9/1 334/1/1 335/4/1 336/5/1
f 337/5/1 338/4/1 339/6/1 340/7/1
f 341/9/1 342/1/1 343/4/1 344/5/1
f 345/1/1 346/2/1 347/3/1 348/4/1
f 349/1/1 350/2/1 351/3/1 352/4/1
f 353/9/1 354/1/1 355/4/1 356/5/1
f 357/9/1 358/1/1 359/4/1 360/5/1
f 361/1/1 362/2/1 363/3/1 364/4/1
f 365/9/1 366/1/1 367/4/1 368/5/1
f 369/1/1 370/2/1 371/3/1 372/4/1
f 373/4/1 374/3/1 375/8/1 376/6/1
f 377/1/1 378/2/1 379/3/1 380/4/1
f 381/4/1 382/3/1 383/8/1 384/6/1
f 385/9/1 386/1/1 387/4/1 388/5/1
f 389/9/1 390/1/1 391/4/1 392/5/1
f 393/9/1 394/1/1 395/4/1 396/5/1
f 397/1/1 398/2/1 399/3/1 400/4/1
f 401/9/1 402/1/1 403/4/1 404/5/1
f 405/9/1 406/1/1 407/4/1 408/5/1
f 409/9/1 410/1/1 411/4/1 412/5/1
f 413/1/1 414/2/1 415/3/1 416/4/1
f 417/5/1 418/4/1 419/6/1 420/7/1
f 421/5/1 422/4/1 423/6/1 424/7/1
f 425/5/1 426/4/1 427/6/1 428/7/1
f 429/9/1 430/1/1 431/4/1 432/5/1
f 433/1/1 434/2/1 435/3/1 436/4/1
f 437/4/1 438/3/1 439/8/1 440/6/1
f 441/5/1 442/4/1 443/6/1 444/7/1
f 445/4/1 446/3/1 447/8/1 448/6/1
f 449/1/1 450/2/1 451/3/1 452/4/1
f 453/5/1 454/4/1 455/6/1 456/7/1
f 457/5/1 458/4/1 459/6/1 460/7/1
f 461/5/1 462/4/1 463/6/1 464/7/1
f 465/5/1 466/4/1 467/6/1 468/7/1
f 469/9/1 470/1/1 471/4/1 472/5/1
f 473/9/1 474/1/1 475/4/1 476/5/1
f 477/9/1 478/1/1 479/4/1 480/5/1
f 481/9/1 482/1/1 483/4/1 484/5/1
f 485/9/1 486/1/1 487/4/1 488/5/1
f 489/9/1 490/1/1 491/4/1 492/5/1
f 493/9/1 494/1/1 495/4/1 496/5/1
f 497/1/1 498/2/1 499/3/1 500/4/1
f 501/1/1 502/2/1 503/3/1 504/4/1
f 505/5/1 506/4/1 507/6/1 508/7/1
f 509/4/1 510/3/1 511/8/1 512/6/1
f 513/9/1 514/1/1 515/4/1 516/5/1
f 517/9/1 518/1/1 519/4/1 520/5/1
f 521/9/1 522/1/1 523/4/1 524/5/1
f 525/9/1 526/1/1 527/4/1 528/5/1
f 529/9/1 530/1/1 531/4/1 532/5/1
f 533/9/1 534/1/1 535/4/1 536/5/1
f 537/1/1 538/2/1 539/3/1 540/4/1
f 541/4/1 542/3/1 543/8/1 544/6/1
f 545/4/1 546/3/1 547/8/1 548/6/1
f 549/4/1 550/3/1 551/8/1 552/6/1
f 553/4/1 554/3/1 555/8/1 556/6/1
f 557/4/1 558/3/1 559/8/1 560/6/1
f 561/9/1 562/1/1 563/4/1 564/5/1
f 565/1/1 566/2/1 567/3/1 568/4/1
f 569/4/1 570/3/1 571/8/1 572/6/1
f 573/4/1 574/3/1 575/8/1 576/6/1
f 577/1/1 578/2/1 579/3/1 580/4/1
f 581/1/1 582/2/1 583/3/1 584/4/1
f 585/1/1 586/2/1 587/3/1 588/4/1
f 589/1/1 590/2/1 591/3/1 592/4/1
f 593/1/1 594/2/1 595/3/1 596/4/1
f 597/1/1 598/2/1 599/3/1 600/4/1
f 601/1/1 602/2/1 603/3/1 604/4/1
f 605/1/1 606/2/1 607/3/1 608/4/1
f 609/1/1 610/2/1 611/3/1 612/4/1
f 613/1/1 614/2/1 615/3/1 616/4/1
f 617/1/1 618/2/1 619/3/1 620/4/1
f 621/1/1 622/2/1 623/3/1 624/4/1
f 625/1/1 626/2/1 627/3/1 628/4/1
f 629/1/1 630/2/1 631/3/1 632/4/1
f 633/1/1 634/2/1 635/3/1 636/4/1
f 637/1/1 638/2/1 639/3/1 640/4/1
f 641/4/1 642/3/1 643/8/1 644/6/1
f 645/4/1 646/3/1 647/8/1 648/6/1
f 649/5/1 650/4/1 651/6/1 652/7/1
f 653/5/1 654/4/1 655/6/1 656/7/1
f 657/5/1 658/4/1 659/6/1 660/7/1
f 661/5/1 662/4/1 663/6/1 664/7/1
f 665/5/1 666/4/1 667/6/1 668/7/1
f 669/5/1 670/4/1 671/6/1 672/7/1
f 673/5/1 674/4/1 675/6/1 676/7/1
f 677/5/1 678/4/1 679/6/1 680/7/1
f 681/5/1 682/4/1 683/6/1 684/7/1
f 685/5/1 686/4/1 687/6/1 688/7/1
f 689/5/1 690/4/1 691/6/1 692/7/1
f 693/5/1 694/4/1 695/6/1 696/7/1
f 697/5/1 698/4/1 699/6/1 700/7/1
f 701/4/1 702/3/1 703/8/1 704/6/1
f 705/1/1 706/2/1 707/3/1 708/4/1
f 709/1/1 710/2/1 711/3/1 712/4/1
f 713/9/1 714/1/1 715/4/1 716/5/1
f 717/9/1 718/1/1 719/4/1 720/5/1
f 721/9/1 722/1/1 723/4/1 724/5/1
f 725/9/1 726/1/1 727/4/1 728/5/1
f 729/9/1 730/1/1 731/4/1 732/5/1
f 733/4/1 734/3/1 735/8/1 736/6/1
f 737/4/1 738/3/1 739/8/1 740/6/1
f 741/5/1 742/4/1 743/6/1 744/7/1
f 745/4/1 746/3/1 747/8/1 748/6/1
f 749/4/1 750/3/1 751/8/1 752/6/1
f 753/5/1 754/4/1 755/6/1 756/7/1
f 757/4/1 758/3/1 759/8/1 760/6/1
f 761/9/1 762/1/1 763/4/1 764/5/1
f 765/1/1 766/2/1 767/3/1 768/4/1
f 769/1/1 770/2/1 771/3/1 772/4/1
f 773/5/1 774/4/1 775/6/1 776/7/1
f 777/5/1 778/4/1 779/6/1 780/7/1
f 781/4/1 782/3/1 783/8/1 784/6/1
f 785/9/1 786/1/1 787/4/1 788/5/1
f 789/1/1 790/2/1 791/3/1 792/4/1
f 793/9/1 794/1/1 795/4/1 796/5/1
f 797/5/1 798/4/1 799/6/1 800/7/1
f 801/4/1 802/3/1 803/8/1 804/6/1
f 805/9/1 806/1/1 807/4/1 808/5/1
f 809/1/1 810/2/1 811/3/1 812/4/1

