# Tiled2Unity generated file. Do not modify by hand.
# Wavefront file for 'dungeonnivel2_mesh_0046.obj'

# Vertices (Count = 96)
v -11 -3 0
v -12 -3 0
v -12 -2 0
v -11 -2 0
v -12 -3 0
v -13 -3 0
v -13 -2 0
v -12 -2 0
v -13 -3 0
v -14 -3 0
v -14 -2 0
v -13 -2 0
v -14 -3 0
v -15 -3 0
v -15 -2 0
v -14 -2 0
v -15 -3 0
v -16 -3 0
v -16 -2 0
v -15 -2 0
v -11 -4 0
v -12 -4 0
v -12 -3 0
v -11 -3 0
v -12 -4 0
v -13 -4 0
v -13 -3 0
v -12 -3 0
v -13 -4 0
v -14 -4 0
v -14 -3 0
v -13 -3 0
v -14 -4 0
v -15 -4 0
v -15 -3 0
v -14 -3 0
v -15 -4 0
v -16 -4 0
v -16 -3 0
v -15 -3 0
v -11 -5 0
v -12 -5 0
v -12 -4 0
v -11 -4 0
v -11 -6 0
v -12 -6 0
v -12 -5 0
v -11 -5 0
v -11 -7 0
v -12 -7 0
v -12 -6 0
v -11 -6 0
v -11 -8 0
v -12 -8 0
v -12 -7 0
v -11 -7 0
v -11 -9 0
v -12 -9 0
v -12 -8 0
v -11 -8 0
v -11 -10 0
v -12 -10 0
v -12 -9 0
v -11 -9 0
v -11 -11 0
v -12 -11 0
v -12 -10 0
v -11 -10 0
v -11 -12 0
v -12 -12 0
v -12 -11 0
v -11 -11 0
v -11 -13 0
v -12 -13 0
v -12 -12 0
v -11 -12 0
v -11 -14 0
v -12 -14 0
v -12 -13 0
v -11 -13 0
v 0 -15 0
v -1 -15 0
v -1 -14 0
v 0 -14 0
v -11 -15 0
v -12 -15 0
v -12 -14 0
v -11 -14 0
v 0 -16 0
v -1 -16 0
v -1 -15 0
v 0 -15 0
v -11 -16 0
v -12 -16 0
v -12 -15 0
v -11 -15 0

# Texture cooridinates (Count = 6)
vt 0.5217391 0.625
vt 0.5652174 0.625
vt 0.5652174 0.6666666
vt 0.5217391 0.6666666
vt 0.5217391 0.5833334
vt 0.5652174 0.5833334

# Normal
vn 0 0 -1

# Mesh description
g dungeonnivel2_mesh_0046

# Faces
f 1/1/1 2/2/1 3/3/1 4/4/1
f 5/1/1 6/2/1 7/3/1 8/4/1
f 9/1/1 10/2/1 11/3/1 12/4/1
f 13/1/1 14/2/1 15/3/1 16/4/1
f 17/1/1 18/2/1 19/3/1 20/4/1
f 21/1/1 22/2/1 23/3/1 24/4/1
f 25/5/1 26/6/1 27/2/1 28/1/1
f 29/5/1 30/6/1 31/2/1 32/1/1
f 33/5/1 34/6/1 35/2/1 36/1/1
f 37/5/1 38/6/1 39/2/1 40/1/1
f 41/1/1 42/2/1 43/3/1 44/4/1
f 45/1/1 46/2/1 47/3/1 48/4/1
f 49/1/1 50/2/1 51/3/1 52/4/1
f 53/1/1 54/2/1 55/3/1 56/4/1
f 57/1/1 58/2/1 59/3/1 60/4/1
f 61/1/1 62/2/1 63/3/1 64/4/1
f 65/1/1 66/2/1 67/3/1 68/4/1
f 69/1/1 70/2/1 71/3/1 72/4/1
f 73/1/1 74/2/1 75/3/1 76/4/1
f 77/1/1 78/2/1 79/3/1 80/4/1
f 81/1/1 82/2/1 83/3/1 84/4/1
f 85/1/1 86/2/1 87/3/1 88/4/1
f 89/1/1 90/2/1 91/3/1 92/4/1
f 93/1/1 94/2/1 95/3/1 96/4/1

