# Tiled2Unity generated file. Do not modify by hand.
# Wavefront file for 'dungeonnivel2_mesh_0006.obj'

# Vertices (Count = 116)
v -7 -1 0
v -8 -1 0
v -8 0 0
v -7 0 0
v -7 -2 0
v -8 -2 0
v -8 -1 0
v -7 -1 0
v -7 -3 0
v -8 -3 0
v -8 -2 0
v -7 -2 0
v -7 -4 0
v -8 -4 0
v -8 -3 0
v -7 -3 0
v -7 -5 0
v -8 -5 0
v -8 -4 0
v -7 -4 0
v -7 -6 0
v -8 -6 0
v -8 -5 0
v -7 -5 0
v -7 -7 0
v -8 -7 0
v -8 -6 0
v -7 -6 0
v -7 -8 0
v -8 -8 0
v -8 -7 0
v -7 -7 0
v -7 -9 0
v -8 -9 0
v -8 -8 0
v -7 -8 0
v -7 -10 0
v -8 -10 0
v -8 -9 0
v -7 -9 0
v -7 -11 0
v -8 -11 0
v -8 -10 0
v -7 -10 0
v -7 -12 0
v -8 -12 0
v -8 -11 0
v -7 -11 0
v -8 -12 0
v -9 -12 0
v -9 -11 0
v -8 -11 0
v -9 -12 0
v -10 -12 0
v -10 -11 0
v -9 -11 0
v -10 -12 0
v -11 -12 0
v -11 -11 0
v -10 -11 0
v -11 -12 0
v -12 -12 0
v -12 -11 0
v -11 -11 0
v -12 -12 0
v -13 -12 0
v -13 -11 0
v -12 -11 0
v -13 -12 0
v -14 -12 0
v -14 -11 0
v -13 -11 0
v -14 -12 0
v -15 -12 0
v -15 -11 0
v -14 -11 0
v -15 -12 0
v -16 -12 0
v -16 -11 0
v -15 -11 0
v -7 -13 0
v -8 -13 0
v -8 -12 0
v -7 -12 0
v -8 -13 0
v -9 -13 0
v -9 -12 0
v -8 -12 0
v -9 -13 0
v -10 -13 0
v -10 -12 0
v -9 -12 0
v -10 -13 0
v -11 -13 0
v -11 -12 0
v -10 -12 0
v -11 -13 0
v -12 -13 0
v -12 -12 0
v -11 -12 0
v -12 -13 0
v -13 -13 0
v -13 -12 0
v -12 -12 0
v -13 -13 0
v -14 -13 0
v -14 -12 0
v -13 -12 0
v -14 -13 0
v -15 -13 0
v -15 -12 0
v -14 -12 0
v -15 -13 0
v -16 -13 0
v -16 -12 0
v -15 -12 0

# Texture cooridinates (Count = 19)
vt 0.08695652 0.8333333
vt 0.1304348 0.8333333
vt 0.1304348 0.875
vt 0.08695652 0.875
vt 0.08695652 0.7083334
vt 0.1304348 0.7083334
vt 0.1304348 0.75
vt 0.08695652 0.75
vt 0.173913 0.7083334
vt 0.173913 0.75
vt 0.08695652 0.6666666
vt 0.1304348 0.6666666
vt 0.173913 0.6666666
vt 0.2173913 0.6666666
vt 0.2173913 0.7083334
vt 0.2608696 0.6666666
vt 0.2608696 0.7083334
vt 0.3043478 0.6666666
vt 0.3043478 0.7083334

# Normal
vn 0 0 -1

# Mesh description
g dungeonnivel2_mesh_0006

# Faces
f 1/1/1 2/2/1 3/3/1 4/4/1
f 5/1/1 6/2/1 7/3/1 8/4/1
f 9/1/1 10/2/1 11/3/1 12/4/1
f 13/1/1 14/2/1 15/3/1 16/4/1
f 17/1/1 18/2/1 19/3/1 20/4/1
f 21/1/1 22/2/1 23/3/1 24/4/1
f 25/1/1 26/2/1 27/3/1 28/4/1
f 29/1/1 30/2/1 31/3/1 32/4/1
f 33/1/1 34/2/1 35/3/1 36/4/1
f 37/1/1 38/2/1 39/3/1 40/4/1
f 41/1/1 42/2/1 43/3/1 44/4/1
f 45/5/1 46/6/1 47/7/1 48/8/1
f 49/6/1 50/9/1 51/10/1 52/7/1
f 53/6/1 54/9/1 55/10/1 56/7/1
f 57/6/1 58/9/1 59/10/1 60/7/1
f 61/6/1 62/9/1 63/10/1 64/7/1
f 65/6/1 66/9/1 67/10/1 68/7/1
f 69/6/1 70/9/1 71/10/1 72/7/1
f 73/6/1 74/9/1 75/10/1 76/7/1
f 77/6/1 78/9/1 79/10/1 80/7/1
f 81/11/1 82/12/1 83/6/1 84/5/1
f 85/12/1 86/13/1 87/9/1 88/6/1
f 89/13/1 90/14/1 91/15/1 92/9/1
f 93/14/1 94/16/1 95/17/1 96/15/1
f 97/11/1 98/12/1 99/6/1 100/5/1
f 101/12/1 102/13/1 103/9/1 104/6/1
f 105/13/1 106/14/1 107/15/1 108/9/1
f 109/14/1 110/16/1 111/17/1 112/15/1
f 113/16/1 114/18/1 115/19/1 116/17/1

