# Tiled2Unity generated file. Do not modify by hand.
# Wavefront file for 'dungeonnivel2_mesh_0030.obj'

# Vertices (Count = 528)
v 0 -4 0
v -1.5 -4 0
v -1.5 -2.5 0
v 0 -2.5 0
v -1 -4 0
v -2.5 -4 0
v -2.5 -2.5 0
v -1 -2.5 0
v -2 -4 0
v -3.5 -4 0
v -3.5 -2.5 0
v -2 -2.5 0
v -3 -4 0
v -4.5 -4 0
v -4.5 -2.5 0
v -3 -2.5 0
v -4 -4 0
v -5.5 -4 0
v -5.5 -2.5 0
v -4 -2.5 0
v -5 -4 0
v -6.5 -4 0
v -6.5 -2.5 0
v -5 -2.5 0
v -6 -4 0
v -7.5 -4 0
v -7.5 -2.5 0
v -6 -2.5 0
v -7 -4 0
v -8.5 -4 0
v -8.5 -2.5 0
v -7 -2.5 0
v -8 -4 0
v -9.5 -4 0
v -9.5 -2.5 0
v -8 -2.5 0
v -9 -4 0
v -10.5 -4 0
v -10.5 -2.5 0
v -9 -2.5 0
v -10 -4 0
v -11.5 -4 0
v -11.5 -2.5 0
v -10 -2.5 0
v 0 -5 0
v -1.5 -5 0
v -1.5 -3.5 0
v 0 -3.5 0
v -1 -5 0
v -2.5 -5 0
v -2.5 -3.5 0
v -1 -3.5 0
v -2 -5 0
v -3.5 -5 0
v -3.5 -3.5 0
v -2 -3.5 0
v -3 -5 0
v -4.5 -5 0
v -4.5 -3.5 0
v -3 -3.5 0
v -4 -5 0
v -5.5 -5 0
v -5.5 -3.5 0
v -4 -3.5 0
v -5 -5 0
v -6.5 -5 0
v -6.5 -3.5 0
v -5 -3.5 0
v -6 -5 0
v -7.5 -5 0
v -7.5 -3.5 0
v -6 -3.5 0
v -7 -5 0
v -8.5 -5 0
v -8.5 -3.5 0
v -7 -3.5 0
v -8 -5 0
v -9.5 -5 0
v -9.5 -3.5 0
v -8 -3.5 0
v -9 -5 0
v -10.5 -5 0
v -10.5 -3.5 0
v -9 -3.5 0
v -10 -5 0
v -11.5 -5 0
v -11.5 -3.5 0
v -10 -3.5 0
v 0 -6 0
v -1.5 -6 0
v -1.5 -4.5 0
v 0 -4.5 0
v -1 -6 0
v -2.5 -6 0
v -2.5 -4.5 0
v -1 -4.5 0
v -2 -6 0
v -3.5 -6 0
v -3.5 -4.5 0
v -2 -4.5 0
v -3 -6 0
v -4.5 -6 0
v -4.5 -4.5 0
v -3 -4.5 0
v -4 -6 0
v -5.5 -6 0
v -5.5 -4.5 0
v -4 -4.5 0
v -5 -6 0
v -6.5 -6 0
v -6.5 -4.5 0
v -5 -4.5 0
v -6 -6 0
v -7.5 -6 0
v -7.5 -4.5 0
v -6 -4.5 0
v -7 -6 0
v -8.5 -6 0
v -8.5 -4.5 0
v -7 -4.5 0
v -8 -6 0
v -9.5 -6 0
v -9.5 -4.5 0
v -8 -4.5 0
v -9 -6 0
v -10.5 -6 0
v -10.5 -4.5 0
v -9 -4.5 0
v -10 -6 0
v -11.5 -6 0
v -11.5 -4.5 0
v -10 -4.5 0
v 0 -7 0
v -1.5 -7 0
v -1.5 -5.5 0
v 0 -5.5 0
v -1 -7 0
v -2.5 -7 0
v -2.5 -5.5 0
v -1 -5.5 0
v -2 -7 0
v -3.5 -7 0
v -3.5 -5.5 0
v -2 -5.5 0
v -3 -7 0
v -4.5 -7 0
v -4.5 -5.5 0
v -3 -5.5 0
v -4 -7 0
v -5.5 -7 0
v -5.5 -5.5 0
v -4 -5.5 0
v -5 -7 0
v -6.5 -7 0
v -6.5 -5.5 0
v -5 -5.5 0
v -6 -7 0
v -7.5 -7 0
v -7.5 -5.5 0
v -6 -5.5 0
v -7 -7 0
v -8.5 -7 0
v -8.5 -5.5 0
v -7 -5.5 0
v -8 -7 0
v -9.5 -7 0
v -9.5 -5.5 0
v -8 -5.5 0
v -9 -7 0
v -10.5 -7 0
v -10.5 -5.5 0
v -9 -5.5 0
v -10 -7 0
v -11.5 -7 0
v -11.5 -5.5 0
v -10 -5.5 0
v 0 -8 0
v -1.5 -8 0
v -1.5 -6.5 0
v 0 -6.5 0
v -1 -8 0
v -2.5 -8 0
v -2.5 -6.5 0
v -1 -6.5 0
v -2 -8 0
v -3.5 -8 0
v -3.5 -6.5 0
v -2 -6.5 0
v -3 -8 0
v -4.5 -8 0
v -4.5 -6.5 0
v -3 -6.5 0
v -4 -8 0
v -5.5 -8 0
v -5.5 -6.5 0
v -4 -6.5 0
v -5 -8 0
v -6.5 -8 0
v -6.5 -6.5 0
v -5 -6.5 0
v -6 -8 0
v -7.5 -8 0
v -7.5 -6.5 0
v -6 -6.5 0
v -7 -8 0
v -8.5 -8 0
v -8.5 -6.5 0
v -7 -6.5 0
v -8 -8 0
v -9.5 -8 0
v -9.5 -6.5 0
v -8 -6.5 0
v -9 -8 0
v -10.5 -8 0
v -10.5 -6.5 0
v -9 -6.5 0
v -10 -8 0
v -11.5 -8 0
v -11.5 -6.5 0
v -10 -6.5 0
v 0 -9 0
v -1.5 -9 0
v -1.5 -7.5 0
v 0 -7.5 0
v -1 -9 0
v -2.5 -9 0
v -2.5 -7.5 0
v -1 -7.5 0
v -2 -9 0
v -3.5 -9 0
v -3.5 -7.5 0
v -2 -7.5 0
v -3 -9 0
v -4.5 -9 0
v -4.5 -7.5 0
v -3 -7.5 0
v -4 -9 0
v -5.5 -9 0
v -5.5 -7.5 0
v -4 -7.5 0
v -5 -9 0
v -6.5 -9 0
v -6.5 -7.5 0
v -5 -7.5 0
v -6 -9 0
v -7.5 -9 0
v -7.5 -7.5 0
v -6 -7.5 0
v -7 -9 0
v -8.5 -9 0
v -8.5 -7.5 0
v -7 -7.5 0
v -8 -9 0
v -9.5 -9 0
v -9.5 -7.5 0
v -8 -7.5 0
v -9 -9 0
v -10.5 -9 0
v -10.5 -7.5 0
v -9 -7.5 0
v -10 -9 0
v -11.5 -9 0
v -11.5 -7.5 0
v -10 -7.5 0
v 0 -10 0
v -1.5 -10 0
v -1.5 -8.5 0
v 0 -8.5 0
v -1 -10 0
v -2.5 -10 0
v -2.5 -8.5 0
v -1 -8.5 0
v -2 -10 0
v -3.5 -10 0
v -3.5 -8.5 0
v -2 -8.5 0
v -3 -10 0
v -4.5 -10 0
v -4.5 -8.5 0
v -3 -8.5 0
v -4 -10 0
v -5.5 -10 0
v -5.5 -8.5 0
v -4 -8.5 0
v -5 -10 0
v -6.5 -10 0
v -6.5 -8.5 0
v -5 -8.5 0
v -6 -10 0
v -7.5 -10 0
v -7.5 -8.5 0
v -6 -8.5 0
v -7 -10 0
v -8.5 -10 0
v -8.5 -8.5 0
v -7 -8.5 0
v -8 -10 0
v -9.5 -10 0
v -9.5 -8.5 0
v -8 -8.5 0
v -9 -10 0
v -10.5 -10 0
v -10.5 -8.5 0
v -9 -8.5 0
v -10 -10 0
v -11.5 -10 0
v -11.5 -8.5 0
v -10 -8.5 0
v 0 -11 0
v -1.5 -11 0
v -1.5 -9.5 0
v 0 -9.5 0
v -1 -11 0
v -2.5 -11 0
v -2.5 -9.5 0
v -1 -9.5 0
v -2 -11 0
v -3.5 -11 0
v -3.5 -9.5 0
v -2 -9.5 0
v -3 -11 0
v -4.5 -11 0
v -4.5 -9.5 0
v -3 -9.5 0
v -4 -11 0
v -5.5 -11 0
v -5.5 -9.5 0
v -4 -9.5 0
v -5 -11 0
v -6.5 -11 0
v -6.5 -9.5 0
v -5 -9.5 0
v -6 -11 0
v -7.5 -11 0
v -7.5 -9.5 0
v -6 -9.5 0
v -7 -11 0
v -8.5 -11 0
v -8.5 -9.5 0
v -7 -9.5 0
v -8 -11 0
v -9.5 -11 0
v -9.5 -9.5 0
v -8 -9.5 0
v -9 -11 0
v -10.5 -11 0
v -10.5 -9.5 0
v -9 -9.5 0
v -10 -11 0
v -11.5 -11 0
v -11.5 -9.5 0
v -10 -9.5 0
v 0 -12 0
v -1.5 -12 0
v -1.5 -10.5 0
v 0 -10.5 0
v -1 -12 0
v -2.5 -12 0
v -2.5 -10.5 0
v -1 -10.5 0
v -2 -12 0
v -3.5 -12 0
v -3.5 -10.5 0
v -2 -10.5 0
v -3 -12 0
v -4.5 -12 0
v -4.5 -10.5 0
v -3 -10.5 0
v -4 -12 0
v -5.5 -12 0
v -5.5 -10.5 0
v -4 -10.5 0
v -5 -12 0
v -6.5 -12 0
v -6.5 -10.5 0
v -5 -10.5 0
v -6 -12 0
v -7.5 -12 0
v -7.5 -10.5 0
v -6 -10.5 0
v -7 -12 0
v -8.5 -12 0
v -8.5 -10.5 0
v -7 -10.5 0
v -8 -12 0
v -9.5 -12 0
v -9.5 -10.5 0
v -8 -10.5 0
v -9 -12 0
v -10.5 -12 0
v -10.5 -10.5 0
v -9 -10.5 0
v -10 -12 0
v -11.5 -12 0
v -11.5 -10.5 0
v -10 -10.5 0
v 0 -13 0
v -1.5 -13 0
v -1.5 -11.5 0
v 0 -11.5 0
v -1 -13 0
v -2.5 -13 0
v -2.5 -11.5 0
v -1 -11.5 0
v -2 -13 0
v -3.5 -13 0
v -3.5 -11.5 0
v -2 -11.5 0
v -3 -13 0
v -4.5 -13 0
v -4.5 -11.5 0
v -3 -11.5 0
v -4 -13 0
v -5.5 -13 0
v -5.5 -11.5 0
v -4 -11.5 0
v -5 -13 0
v -6.5 -13 0
v -6.5 -11.5 0
v -5 -11.5 0
v -6 -13 0
v -7.5 -13 0
v -7.5 -11.5 0
v -6 -11.5 0
v -7 -13 0
v -8.5 -13 0
v -8.5 -11.5 0
v -7 -11.5 0
v -8 -13 0
v -9.5 -13 0
v -9.5 -11.5 0
v -8 -11.5 0
v -9 -13 0
v -10.5 -13 0
v -10.5 -11.5 0
v -9 -11.5 0
v -10 -13 0
v -11.5 -13 0
v -11.5 -11.5 0
v -10 -11.5 0
v 0 -14 0
v -1.5 -14 0
v -1.5 -12.5 0
v 0 -12.5 0
v -1 -14 0
v -2.5 -14 0
v -2.5 -12.5 0
v -1 -12.5 0
v -2 -14 0
v -3.5 -14 0
v -3.5 -12.5 0
v -2 -12.5 0
v -3 -14 0
v -4.5 -14 0
v -4.5 -12.5 0
v -3 -12.5 0
v -4 -14 0
v -5.5 -14 0
v -5.5 -12.5 0
v -4 -12.5 0
v -5 -14 0
v -6.5 -14 0
v -6.5 -12.5 0
v -5 -12.5 0
v -6 -14 0
v -7.5 -14 0
v -7.5 -12.5 0
v -6 -12.5 0
v -7 -14 0
v -8.5 -14 0
v -8.5 -12.5 0
v -7 -12.5 0
v -8 -14 0
v -9.5 -14 0
v -9.5 -12.5 0
v -8 -12.5 0
v -9 -14 0
v -10.5 -14 0
v -10.5 -12.5 0
v -9 -12.5 0
v -10 -14 0
v -11.5 -14 0
v -11.5 -12.5 0
v -10 -12.5 0
v 0 -15 0
v -1.5 -15 0
v -1.5 -13.5 0
v 0 -13.5 0
v -1 -15 0
v -2.5 -15 0
v -2.5 -13.5 0
v -1 -13.5 0
v -2 -15 0
v -3.5 -15 0
v -3.5 -13.5 0
v -2 -13.5 0
v -3 -15 0
v -4.5 -15 0
v -4.5 -13.5 0
v -3 -13.5 0
v -4 -15 0
v -5.5 -15 0
v -5.5 -13.5 0
v -4 -13.5 0
v -5 -15 0
v -6.5 -15 0
v -6.5 -13.5 0
v -5 -13.5 0
v -6 -15 0
v -7.5 -15 0
v -7.5 -13.5 0
v -6 -13.5 0
v -7 -15 0
v -8.5 -15 0
v -8.5 -13.5 0
v -7 -13.5 0
v -8 -15 0
v -9.5 -15 0
v -9.5 -13.5 0
v -8 -13.5 0
v -9 -15 0
v -10.5 -15 0
v -10.5 -13.5 0
v -9 -13.5 0
v -10 -15 0
v -11.5 -15 0
v -11.5 -13.5 0
v -10 -13.5 0

# Texture cooridinates (Count = 9)
vt 0.1304348 0.8125
vt 0.1956522 0.8125
vt 0.1956522 0.875
vt 0.1304348 0.875
vt 0.2608696 0.8125
vt 0.2608696 0.875
vt 0.1304348 0.75
vt 0.1956522 0.75
vt 0.2608696 0.75

# Normal
vn 0 0 -1

# Mesh description
g dungeonnivel2_mesh_0030

# Faces
f 1/1/1 2/2/1 3/3/1 4/4/1
f 5/2/1 6/5/1 7/6/1 8/3/1
f 9/1/1 10/2/1 11/3/1 12/4/1
f 13/1/1 14/2/1 15/3/1 16/4/1
f 17/1/1 18/2/1 19/3/1 20/4/1
f 21/1/1 22/2/1 23/3/1 24/4/1
f 25/1/1 26/2/1 27/3/1 28/4/1
f 29/1/1 30/2/1 31/3/1 32/4/1
f 33/1/1 34/2/1 35/3/1 36/4/1
f 37/1/1 38/2/1 39/3/1 40/4/1
f 41/2/1 42/5/1 43/6/1 44/3/1
f 45/1/1 46/2/1 47/3/1 48/4/1
f 49/1/1 50/2/1 51/3/1 52/4/1
f 53/7/1 54/8/1 55/2/1 56/1/1
f 57/7/1 58/8/1 59/2/1 60/1/1
f 61/7/1 62/8/1 63/2/1 64/1/1
f 65/1/1 66/2/1 67/3/1 68/4/1
f 69/2/1 70/5/1 71/6/1 72/3/1
f 73/2/1 74/5/1 75/6/1 76/3/1
f 77/1/1 78/2/1 79/3/1 80/4/1
f 81/1/1 82/2/1 83/3/1 84/4/1
f 85/2/1 86/5/1 87/6/1 88/3/1
f 89/2/1 90/5/1 91/6/1 92/3/1
f 93/1/1 94/2/1 95/3/1 96/4/1
f 97/2/1 98/5/1 99/6/1 100/3/1
f 101/2/1 102/5/1 103/6/1 104/3/1
f 105/2/1 106/5/1 107/6/1 108/3/1
f 109/2/1 110/5/1 111/6/1 112/3/1
f 113/2/1 114/5/1 115/6/1 116/3/1
f 117/8/1 118/9/1 119/5/1 120/2/1
f 121/1/1 122/2/1 123/3/1 124/4/1
f 125/1/1 126/2/1 127/3/1 128/4/1
f 129/2/1 130/5/1 131/6/1 132/3/1
f 133/2/1 134/5/1 135/6/1 136/3/1
f 137/2/1 138/5/1 139/6/1 140/3/1
f 141/2/1 142/5/1 143/6/1 144/3/1
f 145/8/1 146/9/1 147/5/1 148/2/1
f 149/2/1 150/5/1 151/6/1 152/3/1
f 153/2/1 154/5/1 155/6/1 156/3/1
f 157/2/1 158/5/1 159/6/1 160/3/1
f 161/8/1 162/9/1 163/5/1 164/2/1
f 165/1/1 166/2/1 167/3/1 168/4/1
f 169/1/1 170/2/1 171/3/1 172/4/1
f 173/2/1 174/5/1 175/6/1 176/3/1
f 177/8/1 178/9/1 179/5/1 180/2/1
f 181/8/1 182/9/1 183/5/1 184/2/1
f 185/8/1 186/9/1 187/5/1 188/2/1
f 189/8/1 190/9/1 191/5/1 192/2/1
f 193/8/1 194/9/1 195/5/1 196/2/1
f 197/8/1 198/9/1 199/5/1 200/2/1
f 201/8/1 202/9/1 203/5/1 204/2/1
f 205/8/1 206/9/1 207/5/1 208/2/1
f 209/2/1 210/5/1 211/6/1 212/3/1
f 213/1/1 214/2/1 215/3/1 216/4/1
f 217/2/1 218/5/1 219/6/1 220/3/1
f 221/7/1 222/8/1 223/2/1 224/1/1
f 225/7/1 226/8/1 227/2/1 228/1/1
f 229/7/1 230/8/1 231/2/1 232/1/1
f 233/7/1 234/8/1 235/2/1 236/1/1
f 237/7/1 238/8/1 239/2/1 240/1/1
f 241/7/1 242/8/1 243/2/1 244/1/1
f 245/8/1 246/9/1 247/5/1 248/2/1
f 249/8/1 250/9/1 251/5/1 252/2/1
f 253/8/1 254/9/1 255/5/1 256/2/1
f 257/1/1 258/2/1 259/3/1 260/4/1
f 261/2/1 262/5/1 263/6/1 264/3/1
f 265/1/1 266/2/1 267/3/1 268/4/1
f 269/1/1 270/2/1 271/3/1 272/4/1
f 273/1/1 274/2/1 275/3/1 276/4/1
f 277/2/1 278/5/1 279/6/1 280/3/1
f 281/7/1 282/8/1 283/2/1 284/1/1
f 285/7/1 286/8/1 287/2/1 288/1/1
f 289/7/1 290/8/1 291/2/1 292/1/1
f 293/7/1 294/8/1 295/2/1 296/1/1
f 297/1/1 298/2/1 299/3/1 300/4/1
f 301/1/1 302/2/1 303/3/1 304/4/1
f 305/2/1 306/5/1 307/6/1 308/3/1
f 309/7/1 310/8/1 311/2/1 312/1/1
f 313/7/1 314/8/1 315/2/1 316/1/1
f 317/7/1 318/8/1 319/2/1 320/1/1
f 321/1/1 322/2/1 323/3/1 324/4/1
f 325/1/1 326/2/1 327/3/1 328/4/1
f 329/1/1 330/2/1 331/3/1 332/4/1
f 333/1/1 334/2/1 335/3/1 336/4/1
f 337/1/1 338/2/1 339/3/1 340/4/1
f 341/7/1 342/8/1 343/2/1 344/1/1
f 345/1/1 346/2/1 347/3/1 348/4/1
f 349/2/1 350/5/1 351/6/1 352/3/1
f 353/7/1 354/8/1 355/2/1 356/1/1
f 357/7/1 358/8/1 359/2/1 360/1/1
f 361/7/1 362/8/1 363/2/1 364/1/1
f 365/7/1 366/8/1 367/2/1 368/1/1
f 369/7/1 370/8/1 371/2/1 372/1/1
f 373/7/1 374/8/1 375/2/1 376/1/1
f 377/7/1 378/8/1 379/2/1 380/1/1
f 381/7/1 382/8/1 383/2/1 384/1/1
f 385/7/1 386/8/1 387/2/1 388/1/1
f 389/1/1 390/2/1 391/3/1 392/4/1
f 393/2/1 394/5/1 395/6/1 396/3/1
f 397/1/1 398/2/1 399/3/1 400/4/1
f 401/1/1 402/2/1 403/3/1 404/4/1
f 405/1/1 406/2/1 407/3/1 408/4/1
f 409/7/1 410/8/1 411/2/1 412/1/1
f 413/8/1 414/9/1 415/5/1 416/2/1
f 417/8/1 418/9/1 419/5/1 420/2/1
f 421/8/1 422/9/1 423/5/1 424/2/1
f 425/8/1 426/9/1 427/5/1 428/2/1
f 429/8/1 430/9/1 431/5/1 432/2/1
f 433/1/1 434/2/1 435/3/1 436/4/1
f 437/2/1 438/5/1 439/6/1 440/3/1
f 441/7/1 442/8/1 443/2/1 444/1/1
f 445/7/1 446/8/1 447/2/1 448/1/1
f 449/7/1 450/8/1 451/2/1 452/1/1
f 453/7/1 454/8/1 455/2/1 456/1/1
f 457/7/1 458/8/1 459/2/1 460/1/1
f 461/7/1 462/8/1 463/2/1 464/1/1
f 465/7/1 466/8/1 467/2/1 468/1/1
f 469/8/1 470/9/1 471/5/1 472/2/1
f 473/8/1 474/9/1 475/5/1 476/2/1
f 477/1/1 478/2/1 479/3/1 480/4/1
f 481/2/1 482/5/1 483/6/1 484/3/1
f 485/7/1 486/8/1 487/2/1 488/1/1
f 489/7/1 490/8/1 491/2/1 492/1/1
f 493/7/1 494/8/1 495/2/1 496/1/1
f 497/7/1 498/8/1 499/2/1 500/1/1
f 501/7/1 502/8/1 503/2/1 504/1/1
f 505/7/1 506/8/1 507/2/1 508/1/1
f 509/8/1 510/9/1 511/5/1 512/2/1
f 513/2/1 514/5/1 515/6/1 516/3/1
f 517/2/1 518/5/1 519/6/1 520/3/1
f 521/1/1 522/2/1 523/3/1 524/4/1
f 525/2/1 526/5/1 527/6/1 528/3/1

