# Tiled2Unity generated file. Do not modify by hand.
# Wavefront file for 'dungeonnivel2_mesh_0029.obj'

# Vertices (Count = 144)
v 0 -3 0
v -1 -3 0
v -1 -2 0
v 0 -2 0
v -1 -3 0
v -2 -3 0
v -2 -2 0
v -1 -2 0
v -2 -3 0
v -3 -3 0
v -3 -2 0
v -2 -2 0
v -3 -3 0
v -4 -3 0
v -4 -2 0
v -3 -2 0
v -4 -3 0
v -5 -3 0
v -5 -2 0
v -4 -2 0
v -5 -3 0
v -6 -3 0
v -6 -2 0
v -5 -2 0
v -6 -3 0
v -7 -3 0
v -7 -2 0
v -6 -2 0
v -7 -3 0
v -8 -3 0
v -8 -2 0
v -7 -2 0
v -8 -3 0
v -9 -3 0
v -9 -2 0
v -8 -2 0
v -9 -3 0
v -10 -3 0
v -10 -2 0
v -9 -2 0
v -10 -3 0
v -11 -3 0
v -11 -2 0
v -10 -2 0
v -11 -3 0
v -12 -3 0
v -12 -2 0
v -11 -2 0
v -11 -4 0
v -12 -4 0
v -12 -3 0
v -11 -3 0
v -11 -5 0
v -12 -5 0
v -12 -4 0
v -11 -4 0
v -11 -6 0
v -12 -6 0
v -12 -5 0
v -11 -5 0
v -11 -7 0
v -12 -7 0
v -12 -6 0
v -11 -6 0
v -11 -8 0
v -12 -8 0
v -12 -7 0
v -11 -7 0
v -11 -9 0
v -12 -9 0
v -12 -8 0
v -11 -8 0
v -11 -10 0
v -12 -10 0
v -12 -9 0
v -11 -9 0
v -11 -11 0
v -12 -11 0
v -12 -10 0
v -11 -10 0
v -11 -12 0
v -12 -12 0
v -12 -11 0
v -11 -11 0
v -11 -13 0
v -12 -13 0
v -12 -12 0
v -11 -12 0
v -11 -14 0
v -12 -14 0
v -12 -13 0
v -11 -13 0
v -11 -15 0
v -12 -15 0
v -12 -14 0
v -11 -14 0
v 0 -16 0
v -1 -16 0
v -1 -15 0
v 0 -15 0
v -1 -16 0
v -2 -16 0
v -2 -15 0
v -1 -15 0
v -2 -16 0
v -3 -16 0
v -3 -15 0
v -2 -15 0
v -3 -16 0
v -4 -16 0
v -4 -15 0
v -3 -15 0
v -4 -16 0
v -5 -16 0
v -5 -15 0
v -4 -15 0
v -5 -16 0
v -6 -16 0
v -6 -15 0
v -5 -15 0
v -6 -16 0
v -7 -16 0
v -7 -15 0
v -6 -15 0
v -7 -16 0
v -8 -16 0
v -8 -15 0
v -7 -15 0
v -8 -16 0
v -9 -16 0
v -9 -15 0
v -8 -15 0
v -9 -16 0
v -10 -16 0
v -10 -15 0
v -9 -15 0
v -10 -16 0
v -11 -16 0
v -11 -15 0
v -10 -15 0
v -11 -16 0
v -12 -16 0
v -12 -15 0
v -11 -15 0

# Texture cooridinates (Count = 16)
vt 0.1304348 0.875
vt 0.173913 0.875
vt 0.173913 0.9166667
vt 0.1304348 0.9166667
vt 0.2608696 0.875
vt 0.3043478 0.875
vt 0.3043478 0.9166667
vt 0.2608696 0.9166667
vt 0.2608696 0.8333333
vt 0.3043478 0.8333333
vt 0.2173913 0.7083334
vt 0.2608696 0.7083334
vt 0.2608696 0.75
vt 0.2173913 0.75
vt 0.3043478 0.7083334
vt 0.3043478 0.75

# Normal
vn 0 0 -1

# Mesh description
g dungeonnivel2_mesh_0029

# Faces
f 1/1/1 2/2/1 3/3/1 4/4/1
f 5/1/1 6/2/1 7/3/1 8/4/1
f 9/1/1 10/2/1 11/3/1 12/4/1
f 13/1/1 14/2/1 15/3/1 16/4/1
f 17/1/1 18/2/1 19/3/1 20/4/1
f 21/1/1 22/2/1 23/3/1 24/4/1
f 25/1/1 26/2/1 27/3/1 28/4/1
f 29/1/1 30/2/1 31/3/1 32/4/1
f 33/1/1 34/2/1 35/3/1 36/4/1
f 37/1/1 38/2/1 39/3/1 40/4/1
f 41/1/1 42/2/1 43/3/1 44/4/1
f 45/5/1 46/6/1 47/7/1 48/8/1
f 49/9/1 50/10/1 51/6/1 52/5/1
f 53/9/1 54/10/1 55/6/1 56/5/1
f 57/9/1 58/10/1 59/6/1 60/5/1
f 61/9/1 62/10/1 63/6/1 64/5/1
f 65/9/1 66/10/1 67/6/1 68/5/1
f 69/9/1 70/10/1 71/6/1 72/5/1
f 73/9/1 74/10/1 75/6/1 76/5/1
f 77/9/1 78/10/1 79/6/1 80/5/1
f 81/9/1 82/10/1 83/6/1 84/5/1
f 85/9/1 86/10/1 87/6/1 88/5/1
f 89/9/1 90/10/1 91/6/1 92/5/1
f 93/9/1 94/10/1 95/6/1 96/5/1
f 97/11/1 98/12/1 99/13/1 100/14/1
f 101/11/1 102/12/1 103/13/1 104/14/1
f 105/11/1 106/12/1 107/13/1 108/14/1
f 109/11/1 110/12/1 111/13/1 112/14/1
f 113/11/1 114/12/1 115/13/1 116/14/1
f 117/11/1 118/12/1 119/13/1 120/14/1
f 121/11/1 122/12/1 123/13/1 124/14/1
f 125/11/1 126/12/1 127/13/1 128/14/1
f 129/11/1 130/12/1 131/13/1 132/14/1
f 133/11/1 134/12/1 135/13/1 136/14/1
f 137/11/1 138/12/1 139/13/1 140/14/1
f 141/12/1 142/15/1 143/16/1 144/13/1

