# Tiled2Unity generated file. Do not modify by hand.
# Wavefront file for 'dungeonnivel2_mesh_0028.obj'

# Vertices (Count = 760)
v -12 -1 0
v -13.5 -1 0
v -13.5 0.5 0
v -12 0.5 0
v -13 -1 0
v -14.5 -1 0
v -14.5 0.5 0
v -13 0.5 0
v -14 -1 0
v -15.5 -1 0
v -15.5 0.5 0
v -14 0.5 0
v -12 -2 0
v -13.5 -2 0
v -13.5 -0.5 0
v -12 -0.5 0
v -13 -2 0
v -14.5 -2 0
v -14.5 -0.5 0
v -13 -0.5 0
v -14 -2 0
v -15.5 -2 0
v -15.5 -0.5 0
v -14 -0.5 0
v -11 -3 0
v -12.5 -3 0
v -12.5 -1.5 0
v -11 -1.5 0
v -12 -3 0
v -13.5 -3 0
v -13.5 -1.5 0
v -12 -1.5 0
v -13 -3 0
v -14.5 -3 0
v -14.5 -1.5 0
v -13 -1.5 0
v -14 -3 0
v -15.5 -3 0
v -15.5 -1.5 0
v -14 -1.5 0
v -1 -4 0
v -2.5 -4 0
v -2.5 -2.5 0
v -1 -2.5 0
v -2 -4 0
v -3.5 -4 0
v -3.5 -2.5 0
v -2 -2.5 0
v -3 -4 0
v -4.5 -4 0
v -4.5 -2.5 0
v -3 -2.5 0
v -4 -4 0
v -5.5 -4 0
v -5.5 -2.5 0
v -4 -2.5 0
v -5 -4 0
v -6.5 -4 0
v -6.5 -2.5 0
v -5 -2.5 0
v -6 -4 0
v -7.5 -4 0
v -7.5 -2.5 0
v -6 -2.5 0
v -7 -4 0
v -8.5 -4 0
v -8.5 -2.5 0
v -7 -2.5 0
v -8 -4 0
v -9.5 -4 0
v -9.5 -2.5 0
v -8 -2.5 0
v -9 -4 0
v -10.5 -4 0
v -10.5 -2.5 0
v -9 -2.5 0
v -10 -4 0
v -11.5 -4 0
v -11.5 -2.5 0
v -10 -2.5 0
v -11 -4 0
v -12.5 -4 0
v -12.5 -2.5 0
v -11 -2.5 0
v -12 -4 0
v -13.5 -4 0
v -13.5 -2.5 0
v -12 -2.5 0
v -13 -4 0
v -14.5 -4 0
v -14.5 -2.5 0
v -13 -2.5 0
v -14 -4 0
v -15.5 -4 0
v -15.5 -2.5 0
v -14 -2.5 0
v -15 -4 0
v -16.5 -4 0
v -16.5 -2.5 0
v -15 -2.5 0
v -1 -5 0
v -2.5 -5 0
v -2.5 -3.5 0
v -1 -3.5 0
v -2 -5 0
v -3.5 -5 0
v -3.5 -3.5 0
v -2 -3.5 0
v -3 -5 0
v -4.5 -5 0
v -4.5 -3.5 0
v -3 -3.5 0
v -4 -5 0
v -5.5 -5 0
v -5.5 -3.5 0
v -4 -3.5 0
v -5 -5 0
v -6.5 -5 0
v -6.5 -3.5 0
v -5 -3.5 0
v -6 -5 0
v -7.5 -5 0
v -7.5 -3.5 0
v -6 -3.5 0
v -7 -5 0
v -8.5 -5 0
v -8.5 -3.5 0
v -7 -3.5 0
v -8 -5 0
v -9.5 -5 0
v -9.5 -3.5 0
v -8 -3.5 0
v -9 -5 0
v -10.5 -5 0
v -10.5 -3.5 0
v -9 -3.5 0
v -10 -5 0
v -11.5 -5 0
v -11.5 -3.5 0
v -10 -3.5 0
v -11 -5 0
v -12.5 -5 0
v -12.5 -3.5 0
v -11 -3.5 0
v -12 -5 0
v -13.5 -5 0
v -13.5 -3.5 0
v -12 -3.5 0
v -13 -5 0
v -14.5 -5 0
v -14.5 -3.5 0
v -13 -3.5 0
v -14 -5 0
v -15.5 -5 0
v -15.5 -3.5 0
v -14 -3.5 0
v -15 -5 0
v -16.5 -5 0
v -16.5 -3.5 0
v -15 -3.5 0
v -1 -6 0
v -2.5 -6 0
v -2.5 -4.5 0
v -1 -4.5 0
v -2 -6 0
v -3.5 -6 0
v -3.5 -4.5 0
v -2 -4.5 0
v -3 -6 0
v -4.5 -6 0
v -4.5 -4.5 0
v -3 -4.5 0
v -4 -6 0
v -5.5 -6 0
v -5.5 -4.5 0
v -4 -4.5 0
v -5 -6 0
v -6.5 -6 0
v -6.5 -4.5 0
v -5 -4.5 0
v -6 -6 0
v -7.5 -6 0
v -7.5 -4.5 0
v -6 -4.5 0
v -7 -6 0
v -8.5 -6 0
v -8.5 -4.5 0
v -7 -4.5 0
v -8 -6 0
v -9.5 -6 0
v -9.5 -4.5 0
v -8 -4.5 0
v -9 -6 0
v -10.5 -6 0
v -10.5 -4.5 0
v -9 -4.5 0
v -10 -6 0
v -11.5 -6 0
v -11.5 -4.5 0
v -10 -4.5 0
v -11 -6 0
v -12.5 -6 0
v -12.5 -4.5 0
v -11 -4.5 0
v -12 -6 0
v -13.5 -6 0
v -13.5 -4.5 0
v -12 -4.5 0
v -13 -6 0
v -14.5 -6 0
v -14.5 -4.5 0
v -13 -4.5 0
v -14 -6 0
v -15.5 -6 0
v -15.5 -4.5 0
v -14 -4.5 0
v -15 -6 0
v -16.5 -6 0
v -16.5 -4.5 0
v -15 -4.5 0
v -1 -7 0
v -2.5 -7 0
v -2.5 -5.5 0
v -1 -5.5 0
v -2 -7 0
v -3.5 -7 0
v -3.5 -5.5 0
v -2 -5.5 0
v -3 -7 0
v -4.5 -7 0
v -4.5 -5.5 0
v -3 -5.5 0
v -4 -7 0
v -5.5 -7 0
v -5.5 -5.5 0
v -4 -5.5 0
v -5 -7 0
v -6.5 -7 0
v -6.5 -5.5 0
v -5 -5.5 0
v -6 -7 0
v -7.5 -7 0
v -7.5 -5.5 0
v -6 -5.5 0
v -7 -7 0
v -8.5 -7 0
v -8.5 -5.5 0
v -7 -5.5 0
v -8 -7 0
v -9.5 -7 0
v -9.5 -5.5 0
v -8 -5.5 0
v -9 -7 0
v -10.5 -7 0
v -10.5 -5.5 0
v -9 -5.5 0
v -10 -7 0
v -11.5 -7 0
v -11.5 -5.5 0
v -10 -5.5 0
v -11 -7 0
v -12.5 -7 0
v -12.5 -5.5 0
v -11 -5.5 0
v -12 -7 0
v -13.5 -7 0
v -13.5 -5.5 0
v -12 -5.5 0
v -13 -7 0
v -14.5 -7 0
v -14.5 -5.5 0
v -13 -5.5 0
v -14 -7 0
v -15.5 -7 0
v -15.5 -5.5 0
v -14 -5.5 0
v -15 -7 0
v -16.5 -7 0
v -16.5 -5.5 0
v -15 -5.5 0
v -1 -8 0
v -2.5 -8 0
v -2.5 -6.5 0
v -1 -6.5 0
v -2 -8 0
v -3.5 -8 0
v -3.5 -6.5 0
v -2 -6.5 0
v -3 -8 0
v -4.5 -8 0
v -4.5 -6.5 0
v -3 -6.5 0
v -4 -8 0
v -5.5 -8 0
v -5.5 -6.5 0
v -4 -6.5 0
v -5 -8 0
v -6.5 -8 0
v -6.5 -6.5 0
v -5 -6.5 0
v -6 -8 0
v -7.5 -8 0
v -7.5 -6.5 0
v -6 -6.5 0
v -7 -8 0
v -8.5 -8 0
v -8.5 -6.5 0
v -7 -6.5 0
v -8 -8 0
v -9.5 -8 0
v -9.5 -6.5 0
v -8 -6.5 0
v -9 -8 0
v -10.5 -8 0
v -10.5 -6.5 0
v -9 -6.5 0
v -10 -8 0
v -11.5 -8 0
v -11.5 -6.5 0
v -10 -6.5 0
v -11 -8 0
v -12.5 -8 0
v -12.5 -6.5 0
v -11 -6.5 0
v -12 -8 0
v -13.5 -8 0
v -13.5 -6.5 0
v -12 -6.5 0
v -13 -8 0
v -14.5 -8 0
v -14.5 -6.5 0
v -13 -6.5 0
v -14 -8 0
v -15.5 -8 0
v -15.5 -6.5 0
v -14 -6.5 0
v -15 -8 0
v -16.5 -8 0
v -16.5 -6.5 0
v -15 -6.5 0
v -1 -9 0
v -2.5 -9 0
v -2.5 -7.5 0
v -1 -7.5 0
v -2 -9 0
v -3.5 -9 0
v -3.5 -7.5 0
v -2 -7.5 0
v -3 -9 0
v -4.5 -9 0
v -4.5 -7.5 0
v -3 -7.5 0
v -4 -9 0
v -5.5 -9 0
v -5.5 -7.5 0
v -4 -7.5 0
v -5 -9 0
v -6.5 -9 0
v -6.5 -7.5 0
v -5 -7.5 0
v -6 -9 0
v -7.5 -9 0
v -7.5 -7.5 0
v -6 -7.5 0
v -7 -9 0
v -8.5 -9 0
v -8.5 -7.5 0
v -7 -7.5 0
v -8 -9 0
v -9.5 -9 0
v -9.5 -7.5 0
v -8 -7.5 0
v -9 -9 0
v -10.5 -9 0
v -10.5 -7.5 0
v -9 -7.5 0
v -10 -9 0
v -11.5 -9 0
v -11.5 -7.5 0
v -10 -7.5 0
v -11 -9 0
v -12.5 -9 0
v -12.5 -7.5 0
v -11 -7.5 0
v -12 -9 0
v -13.5 -9 0
v -13.5 -7.5 0
v -12 -7.5 0
v -13 -9 0
v -14.5 -9 0
v -14.5 -7.5 0
v -13 -7.5 0
v -14 -9 0
v -15.5 -9 0
v -15.5 -7.5 0
v -14 -7.5 0
v -15 -9 0
v -16.5 -9 0
v -16.5 -7.5 0
v -15 -7.5 0
v -1 -10 0
v -2.5 -10 0
v -2.5 -8.5 0
v -1 -8.5 0
v -2 -10 0
v -3.5 -10 0
v -3.5 -8.5 0
v -2 -8.5 0
v -3 -10 0
v -4.5 -10 0
v -4.5 -8.5 0
v -3 -8.5 0
v -4 -10 0
v -5.5 -10 0
v -5.5 -8.5 0
v -4 -8.5 0
v -5 -10 0
v -6.5 -10 0
v -6.5 -8.5 0
v -5 -8.5 0
v -6 -10 0
v -7.5 -10 0
v -7.5 -8.5 0
v -6 -8.5 0
v -7 -10 0
v -8.5 -10 0
v -8.5 -8.5 0
v -7 -8.5 0
v -8 -10 0
v -9.5 -10 0
v -9.5 -8.5 0
v -8 -8.5 0
v -9 -10 0
v -10.5 -10 0
v -10.5 -8.5 0
v -9 -8.5 0
v -10 -10 0
v -11.5 -10 0
v -11.5 -8.5 0
v -10 -8.5 0
v -11 -10 0
v -12.5 -10 0
v -12.5 -8.5 0
v -11 -8.5 0
v -12 -10 0
v -13.5 -10 0
v -13.5 -8.5 0
v -12 -8.5 0
v -13 -10 0
v -14.5 -10 0
v -14.5 -8.5 0
v -13 -8.5 0
v -14 -10 0
v -15.5 -10 0
v -15.5 -8.5 0
v -14 -8.5 0
v -15 -10 0
v -16.5 -10 0
v -16.5 -8.5 0
v -15 -8.5 0
v -1 -11 0
v -2.5 -11 0
v -2.5 -9.5 0
v -1 -9.5 0
v -2 -11 0
v -3.5 -11 0
v -3.5 -9.5 0
v -2 -9.5 0
v -3 -11 0
v -4.5 -11 0
v -4.5 -9.5 0
v -3 -9.5 0
v -4 -11 0
v -5.5 -11 0
v -5.5 -9.5 0
v -4 -9.5 0
v -5 -11 0
v -6.5 -11 0
v -6.5 -9.5 0
v -5 -9.5 0
v -6 -11 0
v -7.5 -11 0
v -7.5 -9.5 0
v -6 -9.5 0
v -7 -11 0
v -8.5 -11 0
v -8.5 -9.5 0
v -7 -9.5 0
v -8 -11 0
v -9.5 -11 0
v -9.5 -9.5 0
v -8 -9.5 0
v -9 -11 0
v -10.5 -11 0
v -10.5 -9.5 0
v -9 -9.5 0
v -10 -11 0
v -11.5 -11 0
v -11.5 -9.5 0
v -10 -9.5 0
v -11 -11 0
v -12.5 -11 0
v -12.5 -9.5 0
v -11 -9.5 0
v -12 -11 0
v -13.5 -11 0
v -13.5 -9.5 0
v -12 -9.5 0
v -13 -11 0
v -14.5 -11 0
v -14.5 -9.5 0
v -13 -9.5 0
v -14 -11 0
v -15.5 -11 0
v -15.5 -9.5 0
v -14 -9.5 0
v -15 -11 0
v -16.5 -11 0
v -16.5 -9.5 0
v -15 -9.5 0
v -1 -12 0
v -2.5 -12 0
v -2.5 -10.5 0
v -1 -10.5 0
v -2 -12 0
v -3.5 -12 0
v -3.5 -10.5 0
v -2 -10.5 0
v -3 -12 0
v -4.5 -12 0
v -4.5 -10.5 0
v -3 -10.5 0
v -4 -12 0
v -5.5 -12 0
v -5.5 -10.5 0
v -4 -10.5 0
v -5 -12 0
v -6.5 -12 0
v -6.5 -10.5 0
v -5 -10.5 0
v -6 -12 0
v -7.5 -12 0
v -7.5 -10.5 0
v -6 -10.5 0
v -7 -12 0
v -8.5 -12 0
v -8.5 -10.5 0
v -7 -10.5 0
v -8 -12 0
v -9.5 -12 0
v -9.5 -10.5 0
v -8 -10.5 0
v -9 -12 0
v -10.5 -12 0
v -10.5 -10.5 0
v -9 -10.5 0
v -10 -12 0
v -11.5 -12 0
v -11.5 -10.5 0
v -10 -10.5 0
v -11 -12 0
v -12.5 -12 0
v -12.5 -10.5 0
v -11 -10.5 0
v -12 -12 0
v -13.5 -12 0
v -13.5 -10.5 0
v -12 -10.5 0
v -13 -12 0
v -14.5 -12 0
v -14.5 -10.5 0
v -13 -10.5 0
v -14 -12 0
v -15.5 -12 0
v -15.5 -10.5 0
v -14 -10.5 0
v -15 -12 0
v -16.5 -12 0
v -16.5 -10.5 0
v -15 -10.5 0
v -1 -13 0
v -2.5 -13 0
v -2.5 -11.5 0
v -1 -11.5 0
v -2 -13 0
v -3.5 -13 0
v -3.5 -11.5 0
v -2 -11.5 0
v -3 -13 0
v -4.5 -13 0
v -4.5 -11.5 0
v -3 -11.5 0
v -4 -13 0
v -5.5 -13 0
v -5.5 -11.5 0
v -4 -11.5 0
v -5 -13 0
v -6.5 -13 0
v -6.5 -11.5 0
v -5 -11.5 0
v -6 -13 0
v -7.5 -13 0
v -7.5 -11.5 0
v -6 -11.5 0
v -7 -13 0
v -8.5 -13 0
v -8.5 -11.5 0
v -7 -11.5 0
v -8 -13 0
v -9.5 -13 0
v -9.5 -11.5 0
v -8 -11.5 0
v -9 -13 0
v -10.5 -13 0
v -10.5 -11.5 0
v -9 -11.5 0
v -10 -13 0
v -11.5 -13 0
v -11.5 -11.5 0
v -10 -11.5 0
v -11 -13 0
v -12.5 -13 0
v -12.5 -11.5 0
v -11 -11.5 0
v -12 -13 0
v -13.5 -13 0
v -13.5 -11.5 0
v -12 -11.5 0
v -13 -13 0
v -14.5 -13 0
v -14.5 -11.5 0
v -13 -11.5 0
v -14 -13 0
v -15.5 -13 0
v -15.5 -11.5 0
v -14 -11.5 0
v -15 -13 0
v -16.5 -13 0
v -16.5 -11.5 0
v -15 -11.5 0
v -1 -14 0
v -2.5 -14 0
v -2.5 -12.5 0
v -1 -12.5 0
v -2 -14 0
v -3.5 -14 0
v -3.5 -12.5 0
v -2 -12.5 0
v -3 -14 0
v -4.5 -14 0
v -4.5 -12.5 0
v -3 -12.5 0
v -4 -14 0
v -5.5 -14 0
v -5.5 -12.5 0
v -4 -12.5 0
v -5 -14 0
v -6.5 -14 0
v -6.5 -12.5 0
v -5 -12.5 0
v -6 -14 0
v -7.5 -14 0
v -7.5 -12.5 0
v -6 -12.5 0
v -7 -14 0
v -8.5 -14 0
v -8.5 -12.5 0
v -7 -12.5 0
v -8 -14 0
v -9.5 -14 0
v -9.5 -12.5 0
v -8 -12.5 0
v -9 -14 0
v -10.5 -14 0
v -10.5 -12.5 0
v -9 -12.5 0
v -10 -14 0
v -11.5 -14 0
v -11.5 -12.5 0
v -10 -12.5 0
v -11 -14 0
v -12.5 -14 0
v -12.5 -12.5 0
v -11 -12.5 0
v -12 -14 0
v -13.5 -14 0
v -13.5 -12.5 0
v -12 -12.5 0
v -13 -14 0
v -14.5 -14 0
v -14.5 -12.5 0
v -13 -12.5 0
v -14 -14 0
v -15.5 -14 0
v -15.5 -12.5 0
v -14 -12.5 0
v -15 -14 0
v -16.5 -14 0
v -16.5 -12.5 0
v -15 -12.5 0
v -1 -15 0
v -2.5 -15 0
v -2.5 -13.5 0
v -1 -13.5 0
v -2 -15 0
v -3.5 -15 0
v -3.5 -13.5 0
v -2 -13.5 0
v -3 -15 0
v -4.5 -15 0
v -4.5 -13.5 0
v -3 -13.5 0
v -4 -15 0
v -5.5 -15 0
v -5.5 -13.5 0
v -4 -13.5 0
v -5 -15 0
v -6.5 -15 0
v -6.5 -13.5 0
v -5 -13.5 0
v -6 -15 0
v -7.5 -15 0
v -7.5 -13.5 0
v -6 -13.5 0
v -7 -15 0
v -8.5 -15 0
v -8.5 -13.5 0
v -7 -13.5 0
v -8 -15 0
v -9.5 -15 0
v -9.5 -13.5 0
v -8 -13.5 0
v -9 -15 0
v -10.5 -15 0
v -10.5 -13.5 0
v -9 -13.5 0
v -10 -15 0
v -11.5 -15 0
v -11.5 -13.5 0
v -10 -13.5 0
v -11 -15 0
v -12.5 -15 0
v -12.5 -13.5 0
v -11 -13.5 0
v -12 -15 0
v -13.5 -15 0
v -13.5 -13.5 0
v -12 -13.5 0
v -13 -15 0
v -14.5 -15 0
v -14.5 -13.5 0
v -13 -13.5 0
v -14 -15 0
v -15.5 -15 0
v -15.5 -13.5 0
v -14 -13.5 0
v -15 -15 0
v -16.5 -15 0
v -16.5 -13.5 0
v -15 -13.5 0

# Texture cooridinates (Count = 9)
vt 0.1956522 0.75
vt 0.2608696 0.75
vt 0.2608696 0.8125
vt 0.1956522 0.8125
vt 0.1304348 0.8125
vt 0.1956522 0.875
vt 0.1304348 0.875
vt 0.2608696 0.875
vt 0.1304348 0.75

# Normal
vn 0 0 -1

# Mesh description
g dungeonnivel2_mesh_0028

# Faces
f 1/1/1 2/2/1 3/3/1 4/4/1
f 5/5/1 6/4/1 7/6/1 8/7/1
f 9/4/1 10/3/1 11/8/1 12/6/1
f 13/4/1 14/3/1 15/8/1 16/6/1
f 17/5/1 18/4/1 19/6/1 20/7/1
f 21/4/1 22/3/1 23/8/1 24/6/1
f 25/9/1 26/1/1 27/4/1 28/5/1
f 29/1/1 30/2/1 31/3/1 32/4/1
f 33/9/1 34/1/1 35/4/1 36/5/1
f 37/1/1 38/2/1 39/3/1 40/4/1
f 41/5/1 42/4/1 43/6/1 44/7/1
f 45/5/1 46/4/1 47/6/1 48/7/1
f 49/5/1 50/4/1 51/6/1 52/7/1
f 53/5/1 54/4/1 55/6/1 56/7/1
f 57/5/1 58/4/1 59/6/1 60/7/1
f 61/5/1 62/4/1 63/6/1 64/7/1
f 65/5/1 66/4/1 67/6/1 68/7/1
f 69/5/1 70/4/1 71/6/1 72/7/1
f 73/5/1 74/4/1 75/6/1 76/7/1
f 77/5/1 78/4/1 79/6/1 80/7/1
f 81/5/1 82/4/1 83/6/1 84/7/1
f 85/5/1 86/4/1 87/6/1 88/7/1
f 89/5/1 90/4/1 91/6/1 92/7/1
f 93/5/1 94/4/1 95/6/1 96/7/1
f 97/5/1 98/4/1 99/6/1 100/7/1
f 101/9/1 102/1/1 103/4/1 104/5/1
f 105/9/1 106/1/1 107/4/1 108/5/1
f 109/9/1 110/1/1 111/4/1 112/5/1
f 113/9/1 114/1/1 115/4/1 116/5/1
f 117/9/1 118/1/1 119/4/1 120/5/1
f 121/9/1 122/1/1 123/4/1 124/5/1
f 125/9/1 126/1/1 127/4/1 128/5/1
f 129/9/1 130/1/1 131/4/1 132/5/1
f 133/9/1 134/1/1 135/4/1 136/5/1
f 137/9/1 138/1/1 139/4/1 140/5/1
f 141/9/1 142/1/1 143/4/1 144/5/1
f 145/9/1 146/1/1 147/4/1 148/5/1
f 149/9/1 150/1/1 151/4/1 152/5/1
f 153/9/1 154/1/1 155/4/1 156/5/1
f 157/9/1 158/1/1 159/4/1 160/5/1
f 161/5/1 162/4/1 163/6/1 164/7/1
f 165/5/1 166/4/1 167/6/1 168/7/1
f 169/5/1 170/4/1 171/6/1 172/7/1
f 173/5/1 174/4/1 175/6/1 176/7/1
f 177/5/1 178/4/1 179/6/1 180/7/1
f 181/5/1 182/4/1 183/6/1 184/7/1
f 185/5/1 186/4/1 187/6/1 188/7/1
f 189/5/1 190/4/1 191/6/1 192/7/1
f 193/5/1 194/4/1 195/6/1 196/7/1
f 197/5/1 198/4/1 199/6/1 200/7/1
f 201/5/1 202/4/1 203/6/1 204/7/1
f 205/5/1 206/4/1 207/6/1 208/7/1
f 209/4/1 210/3/1 211/8/1 212/6/1
f 213/4/1 214/3/1 215/8/1 216/6/1
f 217/5/1 218/4/1 219/6/1 220/7/1
f 221/9/1 222/1/1 223/4/1 224/5/1
f 225/5/1 226/4/1 227/6/1 228/7/1
f 229/5/1 230/4/1 231/6/1 232/7/1
f 233/5/1 234/4/1 235/6/1 236/7/1
f 237/5/1 238/4/1 239/6/1 240/7/1
f 241/5/1 242/4/1 243/6/1 244/7/1
f 245/5/1 246/4/1 247/6/1 248/7/1
f 249/4/1 250/3/1 251/8/1 252/6/1
f 253/5/1 254/4/1 255/6/1 256/7/1
f 257/4/1 258/3/1 259/8/1 260/6/1
f 261/4/1 262/3/1 263/8/1 264/6/1
f 265/4/1 266/3/1 267/8/1 268/6/1
f 269/1/1 270/2/1 271/3/1 272/4/1
f 273/5/1 274/4/1 275/6/1 276/7/1
f 277/5/1 278/4/1 279/6/1 280/7/1
f 281/5/1 282/4/1 283/6/1 284/7/1
f 285/9/1 286/1/1 287/4/1 288/5/1
f 289/9/1 290/1/1 291/4/1 292/5/1
f 293/9/1 294/1/1 295/4/1 296/5/1
f 297/9/1 298/1/1 299/4/1 300/5/1
f 301/9/1 302/1/1 303/4/1 304/5/1
f 305/5/1 306/4/1 307/6/1 308/7/1
f 309/5/1 310/4/1 311/6/1 312/7/1
f 313/4/1 314/3/1 315/8/1 316/6/1
f 317/1/1 318/2/1 319/3/1 320/4/1
f 321/5/1 322/4/1 323/6/1 324/7/1
f 325/4/1 326/3/1 327/8/1 328/6/1
f 329/4/1 330/3/1 331/8/1 332/6/1
f 333/4/1 334/3/1 335/8/1 336/6/1
f 337/4/1 338/3/1 339/8/1 340/6/1
f 341/9/1 342/1/1 343/4/1 344/5/1
f 345/9/1 346/1/1 347/4/1 348/5/1
f 349/1/1 350/2/1 351/3/1 352/4/1
f 353/4/1 354/3/1 355/8/1 356/6/1
f 357/4/1 358/3/1 359/8/1 360/6/1
f 361/5/1 362/4/1 363/6/1 364/7/1
f 365/4/1 366/3/1 367/8/1 368/6/1
f 369/4/1 370/3/1 371/8/1 372/6/1
f 373/5/1 374/4/1 375/6/1 376/7/1
f 377/5/1 378/4/1 379/6/1 380/7/1
f 381/5/1 382/4/1 383/6/1 384/7/1
f 385/4/1 386/3/1 387/8/1 388/6/1
f 389/4/1 390/3/1 391/8/1 392/6/1
f 393/4/1 394/3/1 395/8/1 396/6/1
f 397/1/1 398/2/1 399/3/1 400/4/1
f 401/1/1 402/2/1 403/3/1 404/4/1
f 405/9/1 406/1/1 407/4/1 408/5/1
f 409/5/1 410/4/1 411/6/1 412/7/1
f 413/4/1 414/3/1 415/8/1 416/6/1
f 417/4/1 418/3/1 419/8/1 420/6/1
f 421/4/1 422/3/1 423/8/1 424/6/1
f 425/4/1 426/3/1 427/8/1 428/6/1
f 429/5/1 430/4/1 431/6/1 432/7/1
f 433/9/1 434/1/1 435/4/1 436/5/1
f 437/5/1 438/4/1 439/6/1 440/7/1
f 441/5/1 442/4/1 443/6/1 444/7/1
f 445/5/1 446/4/1 447/6/1 448/7/1
f 449/5/1 450/4/1 451/6/1 452/7/1
f 453/5/1 454/4/1 455/6/1 456/7/1
f 457/5/1 458/4/1 459/6/1 460/7/1
f 461/5/1 462/4/1 463/6/1 464/7/1
f 465/4/1 466/3/1 467/8/1 468/6/1
f 469/4/1 470/3/1 471/8/1 472/6/1
f 473/4/1 474/3/1 475/8/1 476/6/1
f 477/4/1 478/3/1 479/8/1 480/6/1
f 481/4/1 482/3/1 483/8/1 484/6/1
f 485/5/1 486/4/1 487/6/1 488/7/1
f 489/9/1 490/1/1 491/4/1 492/5/1
f 493/9/1 494/1/1 495/4/1 496/5/1
f 497/9/1 498/1/1 499/4/1 500/5/1
f 501/9/1 502/1/1 503/4/1 504/5/1
f 505/9/1 506/1/1 507/4/1 508/5/1
f 509/9/1 510/1/1 511/4/1 512/5/1
f 513/9/1 514/1/1 515/4/1 516/5/1
f 517/9/1 518/1/1 519/4/1 520/5/1
f 521/5/1 522/4/1 523/6/1 524/7/1
f 525/5/1 526/4/1 527/6/1 528/7/1
f 529/4/1 530/3/1 531/8/1 532/6/1
f 533/1/1 534/2/1 535/3/1 536/4/1
f 537/5/1 538/4/1 539/6/1 540/7/1
f 541/5/1 542/4/1 543/6/1 544/7/1
f 545/5/1 546/4/1 547/6/1 548/7/1
f 549/5/1 550/4/1 551/6/1 552/7/1
f 553/5/1 554/4/1 555/6/1 556/7/1
f 557/5/1 558/4/1 559/6/1 560/7/1
f 561/4/1 562/3/1 563/8/1 564/6/1
f 565/9/1 566/1/1 567/4/1 568/5/1
f 569/9/1 570/1/1 571/4/1 572/5/1
f 573/9/1 574/1/1 575/4/1 576/5/1
f 577/9/1 578/1/1 579/4/1 580/5/1
f 581/9/1 582/1/1 583/4/1 584/5/1
f 585/5/1 586/4/1 587/6/1 588/7/1
f 589/5/1 590/4/1 591/6/1 592/7/1
f 593/5/1 594/4/1 595/6/1 596/7/1
f 597/9/1 598/1/1 599/4/1 600/5/1
f 601/9/1 602/1/1 603/4/1 604/5/1
f 605/9/1 606/1/1 607/4/1 608/5/1
f 609/5/1 610/4/1 611/6/1 612/7/1
f 613/5/1 614/4/1 615/6/1 616/7/1
f 617/5/1 618/4/1 619/6/1 620/7/1
f 621/5/1 622/4/1 623/6/1 624/7/1
f 625/5/1 626/4/1 627/6/1 628/7/1
f 629/5/1 630/4/1 631/6/1 632/7/1
f 633/5/1 634/4/1 635/6/1 636/7/1
f 637/5/1 638/4/1 639/6/1 640/7/1
f 641/1/1 642/2/1 643/3/1 644/4/1
f 645/9/1 646/1/1 647/4/1 648/5/1
f 649/5/1 650/4/1 651/6/1 652/7/1
f 653/9/1 654/1/1 655/4/1 656/5/1
f 657/9/1 658/1/1 659/4/1 660/5/1
f 661/9/1 662/1/1 663/4/1 664/5/1
f 665/1/1 666/2/1 667/3/1 668/4/1
f 669/9/1 670/1/1 671/4/1 672/5/1
f 673/9/1 674/1/1 675/4/1 676/5/1
f 677/9/1 678/1/1 679/4/1 680/5/1
f 681/9/1 682/1/1 683/4/1 684/5/1
f 685/9/1 686/1/1 687/4/1 688/5/1
f 689/9/1 690/1/1 691/4/1 692/5/1
f 693/9/1 694/1/1 695/4/1 696/5/1
f 697/9/1 698/1/1 699/4/1 700/5/1
f 701/1/1 702/2/1 703/3/1 704/4/1
f 705/4/1 706/3/1 707/8/1 708/6/1
f 709/9/1 710/1/1 711/4/1 712/5/1
f 713/9/1 714/1/1 715/4/1 716/5/1
f 717/1/1 718/2/1 719/3/1 720/4/1
f 721/4/1 722/3/1 723/8/1 724/6/1
f 725/4/1 726/3/1 727/8/1 728/6/1
f 729/4/1 730/3/1 731/8/1 732/6/1
f 733/4/1 734/3/1 735/8/1 736/6/1
f 737/4/1 738/3/1 739/8/1 740/6/1
f 741/4/1 742/3/1 743/8/1 744/6/1
f 745/4/1 746/3/1 747/8/1 748/6/1
f 749/4/1 750/3/1 751/8/1 752/6/1
f 753/4/1 754/3/1 755/8/1 756/6/1
f 757/4/1 758/3/1 759/8/1 760/6/1

