# Tiled2Unity generated file. Do not modify by hand.
# Wavefront file for 'dungeonnivel2_mesh_0042.obj'

# Vertices (Count = 48)
v 0 -1 0
v -1 -1 0
v -1 0 0
v 0 0 0
v 0 -2 0
v -1 -2 0
v -1 -1 0
v 0 -1 0
v 0 -3 0
v -1 -3 0
v -1 -2 0
v 0 -2 0
v 0 -4 0
v -1 -4 0
v -1 -3 0
v 0 -3 0
v 0 -5 0
v -1 -5 0
v -1 -4 0
v 0 -4 0
v 0 -6 0
v -1 -6 0
v -1 -5 0
v 0 -5 0
v 0 -7 0
v -1 -7 0
v -1 -6 0
v 0 -6 0
v 0 -8 0
v -1 -8 0
v -1 -7 0
v 0 -7 0
v 0 -9 0
v -1 -9 0
v -1 -8 0
v 0 -8 0
v 0 -10 0
v -1 -10 0
v -1 -9 0
v 0 -9 0
v 0 -11 0
v -1 -11 0
v -1 -10 0
v 0 -10 0
v 0 -12 0
v -1 -12 0
v -1 -11 0
v 0 -11 0

# Texture cooridinates (Count = 6)
vt 0.5217391 0.625
vt 0.5652174 0.625
vt 0.5652174 0.6666666
vt 0.5217391 0.6666666
vt 0.5217391 0.5833334
vt 0.5652174 0.5833334

# Normal
vn 0 0 -1

# Mesh description
g dungeonnivel2_mesh_0042

# Faces
f 1/1/1 2/2/1 3/3/1 4/4/1
f 5/5/1 6/6/1 7/2/1 8/1/1
f 9/1/1 10/2/1 11/3/1 12/4/1
f 13/5/1 14/6/1 15/2/1 16/1/1
f 17/1/1 18/2/1 19/3/1 20/4/1
f 21/5/1 22/6/1 23/2/1 24/1/1
f 25/1/1 26/2/1 27/3/1 28/4/1
f 29/5/1 30/6/1 31/2/1 32/1/1
f 33/1/1 34/2/1 35/3/1 36/4/1
f 37/5/1 38/6/1 39/2/1 40/1/1
f 41/1/1 42/2/1 43/3/1 44/4/1
f 45/5/1 46/6/1 47/2/1 48/1/1

