# Tiled2Unity generated file. Do not modify by hand.
# Wavefront file for 'Mundo2_mesh_0017.obj'

# Vertices (Count = 24)
v -1 -7 0
v -2 -7 0
v -2 -6 0
v -1 -6 0
v -2 -7 0
v -3 -7 0
v -3 -6 0
v -2 -6 0
v -1 -8 0
v -2 -8 0
v -2 -7 0
v -1 -7 0
v -2 -8 0
v -3 -8 0
v -3 -7 0
v -2 -7 0
v -1 -9 0
v -2 -9 0
v -2 -8 0
v -1 -8 0
v -2 -9 0
v -3 -9 0
v -3 -8 0
v -2 -8 0

# Texture cooridinates (Count = 11)
vt 0.3125 0.9375
vt 0.375 0.9375
vt 0.375 1
vt 0.3125 1
vt 0.3125 0.875
vt 0.375 0.875
vt 0.4375 0.875
vt 0.4375 0.9375
vt 0.3125 0.8125
vt 0.375 0.8125
vt 0.4375 0.8125

# Normal
vn 0 0 -1

# Mesh description
g Mundo2_mesh_0017

# Faces
f 1/1/1 2/2/1 3/3/1 4/4/1
f 5/1/1 6/2/1 7/3/1 8/4/1
f 9/5/1 10/6/1 11/2/1 12/1/1
f 13/6/1 14/7/1 15/8/1 16/2/1
f 17/9/1 18/10/1 19/6/1 20/5/1
f 21/10/1 22/11/1 23/7/1 24/6/1

