# Tiled2Unity generated file. Do not modify by hand.
# Wavefront file for 'Mundo2_mesh_0008.obj'

# Vertices (Count = 48)
v -10 -10 0
v -11 -10 0
v -11 -9 0
v -10 -9 0
v -11 -10 0
v -12 -10 0
v -12 -9 0
v -11 -9 0
v -12 -10 0
v -13 -10 0
v -13 -9 0
v -12 -9 0
v -13 -10 0
v -14 -10 0
v -14 -9 0
v -13 -9 0
v -14 -10 0
v -15 -10 0
v -15 -9 0
v -14 -9 0
v -15 -10 0
v -16 -10 0
v -16 -9 0
v -15 -9 0
v -10 -11 0
v -11 -11 0
v -11 -10 0
v -10 -10 0
v -10 -12 0
v -11 -12 0
v -11 -11 0
v -10 -11 0
v -10 -13 0
v -11 -13 0
v -11 -12 0
v -10 -12 0
v -10 -14 0
v -11 -14 0
v -11 -13 0
v -10 -13 0
v -10 -15 0
v -11 -15 0
v -11 -14 0
v -10 -14 0
v -10 -16 0
v -11 -16 0
v -11 -15 0
v -10 -15 0

# Texture cooridinates (Count = 10)
vt 0 0.9375
vt 0.0625 0.9375
vt 0.0625 1
vt 0 1
vt 0.125 0.9375
vt 0.125 1
vt 0 0.8125
vt 0.0625 0.8125
vt 0.0625 0.875
vt 0 0.875

# Normal
vn 0 0 -1

# Mesh description
g Mundo2_mesh_0008

# Faces
f 1/1/1 2/2/1 3/3/1 4/4/1
f 5/2/1 6/5/1 7/6/1 8/3/1
f 9/2/1 10/5/1 11/6/1 12/3/1
f 13/2/1 14/5/1 15/6/1 16/3/1
f 17/2/1 18/5/1 19/6/1 20/3/1
f 21/2/1 22/5/1 23/6/1 24/3/1
f 25/7/1 26/8/1 27/9/1 28/10/1
f 29/7/1 30/8/1 31/9/1 32/10/1
f 33/7/1 34/8/1 35/9/1 36/10/1
f 37/7/1 38/8/1 39/9/1 40/10/1
f 41/7/1 42/8/1 43/9/1 44/10/1
f 45/7/1 46/8/1 47/9/1 48/10/1

