# Tiled2Unity generated file. Do not modify by hand.
# Wavefront file for 'dungeon_mesh_0004.obj'

# Vertices (Count = 732)
v -4 -1 0
v -5 -1 0
v -5 0 0
v -4 0 0
v -5 -1 0
v -6 -1 0
v -6 0 0
v -5 0 0
v -6 -1 0
v -7 -1 0
v -7 0 0
v -6 0 0
v -7 -1 0
v -8 -1 0
v -8 0 0
v -7 0 0
v -8 -1 0
v -9 -1 0
v -9 0 0
v -8 0 0
v -9 -1 0
v -10 -1 0
v -10 0 0
v -9 0 0
v -10 -1 0
v -11 -1 0
v -11 0 0
v -10 0 0
v -11 -1 0
v -12 -1 0
v -12 0 0
v -11 0 0
v -12 -1 0
v -13 -1 0
v -13 0 0
v -12 0 0
v -13 -1 0
v -14 -1 0
v -14 0 0
v -13 0 0
v -14 -1 0
v -15 -1 0
v -15 0 0
v -14 0 0
v -15 -1 0
v -16 -1 0
v -16 0 0
v -15 0 0
v -4 -2 0
v -5 -2 0
v -5 -1 0
v -4 -1 0
v -5 -2 0
v -6 -2 0
v -6 -1 0
v -5 -1 0
v -6 -2 0
v -7 -2 0
v -7 -1 0
v -6 -1 0
v -7 -2 0
v -8 -2 0
v -8 -1 0
v -7 -1 0
v -8 -2 0
v -9 -2 0
v -9 -1 0
v -8 -1 0
v -9 -2 0
v -10 -2 0
v -10 -1 0
v -9 -1 0
v -10 -2 0
v -11 -2 0
v -11 -1 0
v -10 -1 0
v -11 -2 0
v -12 -2 0
v -12 -1 0
v -11 -1 0
v -12 -2 0
v -13 -2 0
v -13 -1 0
v -12 -1 0
v -13 -2 0
v -14 -2 0
v -14 -1 0
v -13 -1 0
v -14 -2 0
v -15 -2 0
v -15 -1 0
v -14 -1 0
v -15 -2 0
v -16 -2 0
v -16 -1 0
v -15 -1 0
v -4 -3 0
v -5 -3 0
v -5 -2 0
v -4 -2 0
v -5 -3 0
v -6 -3 0
v -6 -2 0
v -5 -2 0
v -6 -3 0
v -7 -3 0
v -7 -2 0
v -6 -2 0
v -7 -3 0
v -8 -3 0
v -8 -2 0
v -7 -2 0
v -8 -3 0
v -9 -3 0
v -9 -2 0
v -8 -2 0
v -9 -3 0
v -10 -3 0
v -10 -2 0
v -9 -2 0
v -10 -3 0
v -11 -3 0
v -11 -2 0
v -10 -2 0
v -11 -3 0
v -12 -3 0
v -12 -2 0
v -11 -2 0
v -12 -3 0
v -13 -3 0
v -13 -2 0
v -12 -2 0
v -13 -3 0
v -14 -3 0
v -14 -2 0
v -13 -2 0
v -14 -3 0
v -15 -3 0
v -15 -2 0
v -14 -2 0
v -15 -3 0
v -16 -3 0
v -16 -2 0
v -15 -2 0
v -4 -4 0
v -5 -4 0
v -5 -3 0
v -4 -3 0
v -5 -4 0
v -6 -4 0
v -6 -3 0
v -5 -3 0
v -6 -4 0
v -7 -4 0
v -7 -3 0
v -6 -3 0
v -7 -4 0
v -8 -4 0
v -8 -3 0
v -7 -3 0
v -8 -4 0
v -9 -4 0
v -9 -3 0
v -8 -3 0
v -9 -4 0
v -10 -4 0
v -10 -3 0
v -9 -3 0
v -10 -4 0
v -11 -4 0
v -11 -3 0
v -10 -3 0
v -11 -4 0
v -12 -4 0
v -12 -3 0
v -11 -3 0
v -12 -4 0
v -13 -4 0
v -13 -3 0
v -12 -3 0
v -13 -4 0
v -14 -4 0
v -14 -3 0
v -13 -3 0
v -14 -4 0
v -15 -4 0
v -15 -3 0
v -14 -3 0
v -15 -4 0
v -16 -4 0
v -16 -3 0
v -15 -3 0
v -4 -5 0
v -5 -5 0
v -5 -4 0
v -4 -4 0
v -5 -5 0
v -6 -5 0
v -6 -4 0
v -5 -4 0
v -6 -5 0
v -7 -5 0
v -7 -4 0
v -6 -4 0
v -7 -5 0
v -8 -5 0
v -8 -4 0
v -7 -4 0
v -8 -5 0
v -9 -5 0
v -9 -4 0
v -8 -4 0
v -9 -5 0
v -10 -5 0
v -10 -4 0
v -9 -4 0
v -10 -5 0
v -11 -5 0
v -11 -4 0
v -10 -4 0
v -11 -5 0
v -12 -5 0
v -12 -4 0
v -11 -4 0
v -12 -5 0
v -13 -5 0
v -13 -4 0
v -12 -4 0
v -13 -5 0
v -14 -5 0
v -14 -4 0
v -13 -4 0
v -14 -5 0
v -15 -5 0
v -15 -4 0
v -14 -4 0
v -15 -5 0
v -16 -5 0
v -16 -4 0
v -15 -4 0
v -4 -6 0
v -5 -6 0
v -5 -5 0
v -4 -5 0
v -5 -6 0
v -6 -6 0
v -6 -5 0
v -5 -5 0
v -6 -6 0
v -7 -6 0
v -7 -5 0
v -6 -5 0
v -7 -6 0
v -8 -6 0
v -8 -5 0
v -7 -5 0
v -8 -6 0
v -9 -6 0
v -9 -5 0
v -8 -5 0
v -9 -6 0
v -10 -6 0
v -10 -5 0
v -9 -5 0
v -10 -6 0
v -11 -6 0
v -11 -5 0
v -10 -5 0
v -11 -6 0
v -12 -6 0
v -12 -5 0
v -11 -5 0
v -12 -6 0
v -13 -6 0
v -13 -5 0
v -12 -5 0
v -13 -6 0
v -14 -6 0
v -14 -5 0
v -13 -5 0
v -14 -6 0
v -15 -6 0
v -15 -5 0
v -14 -5 0
v -15 -6 0
v -16 -6 0
v -16 -5 0
v -15 -5 0
v -4 -7 0
v -5 -7 0
v -5 -6 0
v -4 -6 0
v -5 -7 0
v -6 -7 0
v -6 -6 0
v -5 -6 0
v -6 -7 0
v -7 -7 0
v -7 -6 0
v -6 -6 0
v -7 -7 0
v -8 -7 0
v -8 -6 0
v -7 -6 0
v -8 -7 0
v -9 -7 0
v -9 -6 0
v -8 -6 0
v -9 -7 0
v -10 -7 0
v -10 -6 0
v -9 -6 0
v -10 -7 0
v -11 -7 0
v -11 -6 0
v -10 -6 0
v -11 -7 0
v -12 -7 0
v -12 -6 0
v -11 -6 0
v -12 -7 0
v -13 -7 0
v -13 -6 0
v -12 -6 0
v -13 -7 0
v -14 -7 0
v -14 -6 0
v -13 -6 0
v -14 -7 0
v -15 -7 0
v -15 -6 0
v -14 -6 0
v -15 -7 0
v -16 -7 0
v -16 -6 0
v -15 -6 0
v -4 -8 0
v -5 -8 0
v -5 -7 0
v -4 -7 0
v -5 -8 0
v -6 -8 0
v -6 -7 0
v -5 -7 0
v -6 -8 0
v -7 -8 0
v -7 -7 0
v -6 -7 0
v -7 -8 0
v -8 -8 0
v -8 -7 0
v -7 -7 0
v -8 -8 0
v -9 -8 0
v -9 -7 0
v -8 -7 0
v -9 -8 0
v -10 -8 0
v -10 -7 0
v -9 -7 0
v -10 -8 0
v -11 -8 0
v -11 -7 0
v -10 -7 0
v -11 -8 0
v -12 -8 0
v -12 -7 0
v -11 -7 0
v -12 -8 0
v -13 -8 0
v -13 -7 0
v -12 -7 0
v -13 -8 0
v -14 -8 0
v -14 -7 0
v -13 -7 0
v -14 -8 0
v -15 -8 0
v -15 -7 0
v -14 -7 0
v -15 -8 0
v -16 -8 0
v -16 -7 0
v -15 -7 0
v -4 -9 0
v -5 -9 0
v -5 -8 0
v -4 -8 0
v -5 -9 0
v -6 -9 0
v -6 -8 0
v -5 -8 0
v -6 -9 0
v -7 -9 0
v -7 -8 0
v -6 -8 0
v -7 -9 0
v -8 -9 0
v -8 -8 0
v -7 -8 0
v -8 -9 0
v -9 -9 0
v -9 -8 0
v -8 -8 0
v -9 -9 0
v -10 -9 0
v -10 -8 0
v -9 -8 0
v -10 -9 0
v -11 -9 0
v -11 -8 0
v -10 -8 0
v -11 -9 0
v -12 -9 0
v -12 -8 0
v -11 -8 0
v -12 -9 0
v -13 -9 0
v -13 -8 0
v -12 -8 0
v -13 -9 0
v -14 -9 0
v -14 -8 0
v -13 -8 0
v -14 -9 0
v -15 -9 0
v -15 -8 0
v -14 -8 0
v -15 -9 0
v -16 -9 0
v -16 -8 0
v -15 -8 0
v -4 -10 0
v -5 -10 0
v -5 -9 0
v -4 -9 0
v -5 -10 0
v -6 -10 0
v -6 -9 0
v -5 -9 0
v -6 -10 0
v -7 -10 0
v -7 -9 0
v -6 -9 0
v -7 -10 0
v -8 -10 0
v -8 -9 0
v -7 -9 0
v -8 -10 0
v -9 -10 0
v -9 -9 0
v -8 -9 0
v -9 -10 0
v -10 -10 0
v -10 -9 0
v -9 -9 0
v -10 -10 0
v -11 -10 0
v -11 -9 0
v -10 -9 0
v -11 -10 0
v -12 -10 0
v -12 -9 0
v -11 -9 0
v -12 -10 0
v -13 -10 0
v -13 -9 0
v -12 -9 0
v -13 -10 0
v -14 -10 0
v -14 -9 0
v -13 -9 0
v -14 -10 0
v -15 -10 0
v -15 -9 0
v -14 -9 0
v -15 -10 0
v -16 -10 0
v -16 -9 0
v -15 -9 0
v -4 -11 0
v -5 -11 0
v -5 -10 0
v -4 -10 0
v -5 -11 0
v -6 -11 0
v -6 -10 0
v -5 -10 0
v -6 -11 0
v -7 -11 0
v -7 -10 0
v -6 -10 0
v -7 -11 0
v -8 -11 0
v -8 -10 0
v -7 -10 0
v -8 -11 0
v -9 -11 0
v -9 -10 0
v -8 -10 0
v -9 -11 0
v -10 -11 0
v -10 -10 0
v -9 -10 0
v -10 -11 0
v -11 -11 0
v -11 -10 0
v -10 -10 0
v -11 -11 0
v -12 -11 0
v -12 -10 0
v -11 -10 0
v -12 -11 0
v -13 -11 0
v -13 -10 0
v -12 -10 0
v -13 -11 0
v -14 -11 0
v -14 -10 0
v -13 -10 0
v -14 -11 0
v -15 -11 0
v -15 -10 0
v -14 -10 0
v -15 -11 0
v -16 -11 0
v -16 -10 0
v -15 -10 0
v -4 -12 0
v -5 -12 0
v -5 -11 0
v -4 -11 0
v -5 -12 0
v -6 -12 0
v -6 -11 0
v -5 -11 0
v -6 -12 0
v -7 -12 0
v -7 -11 0
v -6 -11 0
v -7 -12 0
v -8 -12 0
v -8 -11 0
v -7 -11 0
v -8 -12 0
v -9 -12 0
v -9 -11 0
v -8 -11 0
v -9 -12 0
v -10 -12 0
v -10 -11 0
v -9 -11 0
v -10 -12 0
v -11 -12 0
v -11 -11 0
v -10 -11 0
v -11 -12 0
v -12 -12 0
v -12 -11 0
v -11 -11 0
v -12 -12 0
v -13 -12 0
v -13 -11 0
v -12 -11 0
v -13 -12 0
v -14 -12 0
v -14 -11 0
v -13 -11 0
v -14 -12 0
v -15 -12 0
v -15 -11 0
v -14 -11 0
v -15 -12 0
v -16 -12 0
v -16 -11 0
v -15 -11 0
v -4 -13 0
v -5 -13 0
v -5 -12 0
v -4 -12 0
v -5 -13 0
v -6 -13 0
v -6 -12 0
v -5 -12 0
v -6 -13 0
v -7 -13 0
v -7 -12 0
v -6 -12 0
v -7 -13 0
v -8 -13 0
v -8 -12 0
v -7 -12 0
v -8 -13 0
v -9 -13 0
v -9 -12 0
v -8 -12 0
v -9 -13 0
v -10 -13 0
v -10 -12 0
v -9 -12 0
v -10 -13 0
v -11 -13 0
v -11 -12 0
v -10 -12 0
v -11 -13 0
v -12 -13 0
v -12 -12 0
v -11 -12 0
v -12 -13 0
v -13 -13 0
v -13 -12 0
v -12 -12 0
v -13 -13 0
v -14 -13 0
v -14 -12 0
v -13 -12 0
v -14 -13 0
v -15 -13 0
v -15 -12 0
v -14 -12 0
v -15 -13 0
v -16 -13 0
v -16 -12 0
v -15 -12 0
v -4 -14 0
v -5 -14 0
v -5 -13 0
v -4 -13 0
v -5 -14 0
v -6 -14 0
v -6 -13 0
v -5 -13 0
v -6 -14 0
v -7 -14 0
v -7 -13 0
v -6 -13 0
v -7 -14 0
v -8 -14 0
v -8 -13 0
v -7 -13 0
v -8 -14 0
v -9 -14 0
v -9 -13 0
v -8 -13 0
v -9 -14 0
v -10 -14 0
v -10 -13 0
v -9 -13 0
v -10 -14 0
v -11 -14 0
v -11 -13 0
v -10 -13 0
v -11 -14 0
v -12 -14 0
v -12 -13 0
v -11 -13 0
v -12 -14 0
v -13 -14 0
v -13 -13 0
v -12 -13 0
v -13 -14 0
v -14 -14 0
v -14 -13 0
v -13 -13 0
v -14 -14 0
v -15 -14 0
v -15 -13 0
v -14 -13 0
v -15 -14 0
v -16 -14 0
v -16 -13 0
v -15 -13 0
v -4 -15 0
v -5 -15 0
v -5 -14 0
v -4 -14 0
v -5 -15 0
v -6 -15 0
v -6 -14 0
v -5 -14 0
v -6 -15 0
v -7 -15 0
v -7 -14 0
v -6 -14 0
v -7 -15 0
v -8 -15 0
v -8 -14 0
v -7 -14 0
v -8 -15 0
v -9 -15 0
v -9 -14 0
v -8 -14 0
v -9 -15 0
v -10 -15 0
v -10 -14 0
v -9 -14 0
v -10 -15 0
v -11 -15 0
v -11 -14 0
v -10 -14 0
v -11 -15 0
v -12 -15 0
v -12 -14 0
v -11 -14 0
v -12 -15 0
v -13 -15 0
v -13 -14 0
v -12 -14 0
v -13 -15 0
v -14 -15 0
v -14 -14 0
v -13 -14 0
v -14 -15 0
v -15 -15 0
v -15 -14 0
v -14 -14 0
v -15 -15 0
v -16 -15 0
v -16 -14 0
v -15 -14 0
v -13 -16 0
v -14 -16 0
v -14 -15 0
v -13 -15 0
v -14 -16 0
v -15 -16 0
v -15 -15 0
v -14 -15 0
v -15 -16 0
v -16 -16 0
v -16 -15 0
v -15 -15 0

# Texture cooridinates (Count = 34)
vt 0.08695652 0.8333333
vt 0.1304348 0.8333333
vt 0.1304348 0.875
vt 0.08695652 0.875
vt 0.173913 0.7916667
vt 0.2173913 0.7916667
vt 0.2173913 0.8333333
vt 0.173913 0.8333333
vt 0.2608696 0.7916667
vt 0.2608696 0.8333333
vt 0.2173913 0.75
vt 0.2608696 0.75
vt 0.1304348 0.7916667
vt 0.1304348 0.75
vt 0.173913 0.75
vt 0.173913 0.875
vt 0.2173913 0.875
vt 0.2608696 0.875
vt 0.08695652 0.7916667
vt 0.08695652 0.75
vt 0.08695652 0.7083334
vt 0.1304348 0.7083334
vt 0.08695652 0.2083333
vt 0.1304348 0.2083333
vt 0.1304348 0.25
vt 0.08695652 0.25
vt 0.173913 0.2083333
vt 0.173913 0.25
vt 0.2173913 0.2083333
vt 0.2173913 0.25
vt 0.08695652 0.1666667
vt 0.1304348 0.1666667
vt 0.173913 0.1666667
vt 0.2173913 0.1666667

# Normal
vn 0 0 -1

# Mesh description
g dungeon_mesh_0004

# Faces
f 1/1/1 2/2/1 3/3/1 4/4/1
f 5/5/1 6/6/1 7/7/1 8/8/1
f 9/6/1 10/9/1 11/10/1 12/7/1
f 13/11/1 14/12/1 15/9/1 16/6/1
f 17/13/1 18/5/1 19/8/1 20/2/1
f 21/13/1 22/5/1 23/8/1 24/2/1
f 25/14/1 26/15/1 27/5/1 28/13/1
f 29/14/1 30/15/1 31/5/1 32/13/1
f 33/2/1 34/8/1 35/16/1 36/3/1
f 37/8/1 38/7/1 39/17/1 40/16/1
f 41/7/1 42/10/1 43/18/1 44/17/1
f 45/2/1 46/8/1 47/16/1 48/3/1
f 49/1/1 50/2/1 51/3/1 52/4/1
f 53/15/1 54/11/1 55/6/1 56/5/1
f 57/11/1 58/12/1 59/9/1 60/6/1
f 61/15/1 62/11/1 63/6/1 64/5/1
f 65/14/1 66/15/1 67/5/1 68/13/1
f 69/14/1 70/15/1 71/5/1 72/13/1
f 73/15/1 74/11/1 75/6/1 76/5/1
f 77/11/1 78/12/1 79/9/1 80/6/1
f 81/2/1 82/8/1 83/16/1 84/3/1
f 85/8/1 86/7/1 87/17/1 88/16/1
f 89/7/1 90/10/1 91/18/1 92/17/1
f 93/2/1 94/8/1 95/16/1 96/3/1
f 97/1/1 98/2/1 99/3/1 100/4/1
f 101/8/1 102/7/1 103/17/1 104/16/1
f 105/7/1 106/10/1 107/18/1 108/17/1
f 109/15/1 110/11/1 111/6/1 112/5/1
f 113/11/1 114/12/1 115/9/1 116/6/1
f 117/2/1 118/8/1 119/16/1 120/3/1
f 121/2/1 122/8/1 123/16/1 124/3/1
f 125/2/1 126/8/1 127/16/1 128/3/1
f 129/8/1 130/7/1 131/17/1 132/16/1
f 133/7/1 134/10/1 135/18/1 136/17/1
f 137/7/1 138/10/1 139/18/1 140/17/1
f 141/13/1 142/5/1 143/8/1 144/2/1
f 145/1/1 146/2/1 147/3/1 148/4/1
f 149/8/1 150/7/1 151/17/1 152/16/1
f 153/7/1 154/10/1 155/18/1 156/17/1
f 157/11/1 158/12/1 159/9/1 160/6/1
f 161/2/1 162/8/1 163/16/1 164/3/1
f 165/13/1 166/5/1 167/8/1 168/2/1
f 169/13/1 170/5/1 171/8/1 172/2/1
f 173/2/1 174/8/1 175/16/1 176/3/1
f 177/8/1 178/7/1 179/17/1 180/16/1
f 181/7/1 182/10/1 183/18/1 184/17/1
f 185/6/1 186/9/1 187/10/1 188/7/1
f 189/14/1 190/15/1 191/5/1 192/13/1
f 193/1/1 194/2/1 195/3/1 196/4/1
f 197/5/1 198/6/1 199/7/1 200/8/1
f 201/6/1 202/9/1 203/10/1 204/7/1
f 205/11/1 206/12/1 207/9/1 208/6/1
f 209/13/1 210/5/1 211/8/1 212/2/1
f 213/14/1 214/15/1 215/5/1 216/13/1
f 217/14/1 218/15/1 219/5/1 220/13/1
f 221/2/1 222/8/1 223/16/1 224/3/1
f 225/8/1 226/7/1 227/17/1 228/16/1
f 229/7/1 230/10/1 231/18/1 232/17/1
f 233/11/1 234/12/1 235/9/1 236/6/1
f 237/14/1 238/15/1 239/5/1 240/13/1
f 241/1/1 242/2/1 243/3/1 244/4/1
f 245/8/1 246/7/1 247/17/1 248/16/1
f 249/7/1 250/10/1 251/18/1 252/17/1
f 253/11/1 254/12/1 255/9/1 256/6/1
f 257/14/1 258/15/1 259/5/1 260/13/1
f 261/14/1 262/15/1 263/5/1 264/13/1
f 265/2/1 266/8/1 267/16/1 268/3/1
f 269/8/1 270/7/1 271/17/1 272/16/1
f 273/7/1 274/10/1 275/18/1 276/17/1
f 277/7/1 278/10/1 279/18/1 280/17/1
f 281/2/1 282/8/1 283/16/1 284/3/1
f 285/8/1 286/7/1 287/17/1 288/16/1
f 289/1/1 290/2/1 291/3/1 292/4/1
f 293/5/1 294/6/1 295/7/1 296/8/1
f 297/6/1 298/9/1 299/10/1 300/7/1
f 301/11/1 302/12/1 303/9/1 304/6/1
f 305/14/1 306/15/1 307/5/1 308/13/1
f 309/15/1 310/11/1 311/6/1 312/5/1
f 313/2/1 314/8/1 315/16/1 316/3/1
f 317/8/1 318/7/1 319/17/1 320/16/1
f 321/7/1 322/10/1 323/18/1 324/17/1
f 325/6/1 326/9/1 327/10/1 328/7/1
f 329/2/1 330/8/1 331/16/1 332/3/1
f 333/8/1 334/7/1 335/17/1 336/16/1
f 337/19/1 338/13/1 339/2/1 340/1/1
f 341/8/1 342/7/1 343/17/1 344/16/1
f 345/7/1 346/10/1 347/18/1 348/17/1
f 349/2/1 350/8/1 351/16/1 352/3/1
f 353/8/1 354/7/1 355/17/1 356/16/1
f 357/7/1 358/10/1 359/18/1 360/17/1
f 361/7/1 362/10/1 363/18/1 364/17/1
f 365/7/1 366/10/1 367/18/1 368/17/1
f 369/6/1 370/9/1 371/10/1 372/7/1
f 373/11/1 374/12/1 375/9/1 376/6/1
f 377/7/1 378/10/1 379/18/1 380/17/1
f 381/7/1 382/10/1 383/18/1 384/17/1
f 385/1/1 386/2/1 387/3/1 388/4/1
f 389/5/1 390/6/1 391/7/1 392/8/1
f 393/6/1 394/9/1 395/10/1 396/7/1
f 397/13/1 398/5/1 399/8/1 400/2/1
f 401/5/1 402/6/1 403/7/1 404/8/1
f 405/6/1 406/9/1 407/10/1 408/7/1
f 409/6/1 410/9/1 411/10/1 412/7/1
f 413/6/1 414/9/1 415/10/1 416/7/1
f 417/11/1 418/12/1 419/9/1 420/6/1
f 421/6/1 422/9/1 423/10/1 424/7/1
f 425/6/1 426/9/1 427/10/1 428/7/1
f 429/6/1 430/9/1 431/10/1 432/7/1
f 433/1/1 434/2/1 435/3/1 436/4/1
f 437/15/1 438/11/1 439/6/1 440/5/1
f 441/11/1 442/12/1 443/9/1 444/6/1
f 445/14/1 446/15/1 447/5/1 448/13/1
f 449/15/1 450/11/1 451/6/1 452/5/1
f 453/11/1 454/12/1 455/9/1 456/6/1
f 457/11/1 458/12/1 459/9/1 460/6/1
f 461/11/1 462/12/1 463/9/1 464/6/1
f 465/11/1 466/12/1 467/9/1 468/6/1
f 469/11/1 470/12/1 471/9/1 472/6/1
f 473/11/1 474/12/1 475/9/1 476/6/1
f 477/11/1 478/12/1 479/9/1 480/6/1
f 481/19/1 482/13/1 483/2/1 484/1/1
f 485/8/1 486/7/1 487/17/1 488/16/1
f 489/7/1 490/10/1 491/18/1 492/17/1
f 493/7/1 494/10/1 495/18/1 496/17/1
f 497/2/1 498/8/1 499/16/1 500/3/1
f 501/8/1 502/7/1 503/17/1 504/16/1
f 505/7/1 506/10/1 507/18/1 508/17/1
f 509/7/1 510/10/1 511/18/1 512/17/1
f 513/7/1 514/10/1 515/18/1 516/17/1
f 517/7/1 518/10/1 519/18/1 520/17/1
f 521/2/1 522/8/1 523/16/1 524/3/1
f 525/2/1 526/8/1 527/16/1 528/3/1
f 529/20/1 530/14/1 531/13/1 532/19/1
f 533/5/1 534/6/1 535/7/1 536/8/1
f 537/6/1 538/9/1 539/10/1 540/7/1
f 541/6/1 542/9/1 543/10/1 544/7/1
f 545/13/1 546/5/1 547/8/1 548/2/1
f 549/5/1 550/6/1 551/7/1 552/8/1
f 553/6/1 554/9/1 555/10/1 556/7/1
f 557/6/1 558/9/1 559/10/1 560/7/1
f 561/6/1 562/9/1 563/10/1 564/7/1
f 565/6/1 566/9/1 567/10/1 568/7/1
f 569/13/1 570/5/1 571/8/1 572/2/1
f 573/13/1 574/5/1 575/8/1 576/2/1
f 577/21/1 578/22/1 579/14/1 580/20/1
f 581/15/1 582/11/1 583/6/1 584/5/1
f 585/11/1 586/12/1 587/9/1 588/6/1
f 589/11/1 590/12/1 591/9/1 592/6/1
f 593/14/1 594/15/1 595/5/1 596/13/1
f 597/15/1 598/11/1 599/6/1 600/5/1
f 601/11/1 602/12/1 603/9/1 604/6/1
f 605/11/1 606/12/1 607/9/1 608/6/1
f 609/11/1 610/12/1 611/9/1 612/6/1
f 613/11/1 614/12/1 615/9/1 616/6/1
f 617/14/1 618/15/1 619/5/1 620/13/1
f 621/14/1 622/15/1 623/5/1 624/13/1
f 625/23/1 626/24/1 627/25/1 628/26/1
f 629/23/1 630/24/1 631/25/1 632/26/1
f 633/24/1 634/27/1 635/28/1 636/25/1
f 637/27/1 638/29/1 639/30/1 640/28/1
f 641/23/1 642/24/1 643/25/1 644/26/1
f 645/24/1 646/27/1 647/28/1 648/25/1
f 649/23/1 650/24/1 651/25/1 652/26/1
f 653/24/1 654/27/1 655/28/1 656/25/1
f 657/27/1 658/29/1 659/30/1 660/28/1
f 661/1/1 662/2/1 663/3/1 664/4/1
f 665/5/1 666/6/1 667/7/1 668/8/1
f 669/5/1 670/6/1 671/7/1 672/8/1
f 673/31/1 674/32/1 675/24/1 676/23/1
f 677/31/1 678/32/1 679/24/1 680/23/1
f 681/32/1 682/33/1 683/27/1 684/24/1
f 685/33/1 686/34/1 687/29/1 688/27/1
f 689/31/1 690/32/1 691/24/1 692/23/1
f 693/32/1 694/33/1 695/27/1 696/24/1
f 697/31/1 698/32/1 699/24/1 700/23/1
f 701/32/1 702/33/1 703/27/1 704/24/1
f 705/33/1 706/34/1 707/29/1 708/27/1
f 709/1/1 710/2/1 711/3/1 712/4/1
f 713/5/1 714/6/1 715/7/1 716/8/1
f 717/2/1 718/8/1 719/16/1 720/3/1
f 721/1/1 722/2/1 723/3/1 724/4/1
f 725/5/1 726/6/1 727/7/1 728/8/1
f 729/13/1 730/5/1 731/8/1 732/2/1

