# Tiled2Unity generated file. Do not modify by hand.
# Wavefront file for 'dungeon_mesh_0009.obj'

# Vertices (Count = 24)
v -14 -8 0
v -15 -8 0
v -15 -7 0
v -14 -7 0
v -15 -8 0
v -16 -8 0
v -16 -7 0
v -15 -7 0
v -14 -9 0
v -15 -9 0
v -15 -8 0
v -14 -8 0
v -14 -10 0
v -15 -10 0
v -15 -9 0
v -14 -9 0
v -14 -11 0
v -15 -11 0
v -15 -10 0
v -14 -10 0
v -14 -12 0
v -15 -12 0
v -15 -11 0
v -14 -11 0

# Texture cooridinates (Count = 10)
vt 0.6875 0.5
vt 0.75 0.5
vt 0.75 0.5625
vt 0.6875 0.5625
vt 0.5625 0.5
vt 0.625 0.5
vt 0.625 0.5625
vt 0.5625 0.5625
vt 0.625 0.4375
vt 0.6875 0.4375

# Normal
vn 0 0 -1

# Mesh description
g dungeon_mesh_0009

# Faces
f 1/1/1 2/2/1 3/3/1 4/4/1
f 5/5/1 6/6/1 7/7/1 8/8/1
f 9/6/1 10/1/1 11/4/1 12/7/1
f 13/9/1 14/10/1 15/1/1 16/6/1
f 17/6/1 18/1/1 19/4/1 20/7/1
f 21/9/1 22/10/1 23/1/1 24/6/1

