# Tiled2Unity generated file. Do not modify by hand.
# Wavefront file for 'dungeon_mesh_0010.obj'

# Vertices (Count = 16)
v -15 -9 0
v -16 -9 0
v -16 -8 0
v -15 -8 0
v -15 -10 0
v -16 -10 0
v -16 -9 0
v -15 -9 0
v -15 -11 0
v -16 -11 0
v -16 -10 0
v -15 -10 0
v -15 -12 0
v -16 -12 0
v -16 -11 0
v -15 -11 0

# Texture cooridinates (Count = 10)
vt 0.84375 0.53125
vt 0.875 0.53125
vt 0.875 0.5625
vt 0.84375 0.5625
vt 0.84375 0.5
vt 0.875 0.5
vt 0.84375 0.46875
vt 0.875 0.46875
vt 0.84375 0.4375
vt 0.875 0.4375

# Normal
vn 0 0 -1

# Mesh description
g dungeon_mesh_0010

# Faces
f 1/1/1 2/2/1 3/3/1 4/4/1
f 5/5/1 6/6/1 7/2/1 8/1/1
f 9/7/1 10/8/1 11/6/1 12/5/1
f 13/9/1 14/10/1 15/8/1 16/7/1

