# Tiled2Unity generated file. Do not modify by hand.
# Wavefront file for 'dungeon_mesh_0006.obj'

# Vertices (Count = 360)
v -10 -2 0
v -11 -2 0
v -11 -1 0
v -10 -1 0
v -11 -2 0
v -12 -2 0
v -12 -1 0
v -11 -1 0
v -12 -2 0
v -13 -2 0
v -13 -1 0
v -12 -1 0
v -13 -2 0
v -14 -2 0
v -14 -1 0
v -13 -1 0
v -14 -2 0
v -15 -2 0
v -15 -1 0
v -14 -1 0
v -15 -2 0
v -16 -2 0
v -16 -1 0
v -15 -1 0
v -10 -3 0
v -11 -3 0
v -11 -2 0
v -10 -2 0
v -11 -3 0
v -12 -3 0
v -12 -2 0
v -11 -2 0
v -12 -3 0
v -13 -3 0
v -13 -2 0
v -12 -2 0
v -13 -3 0
v -14 -3 0
v -14 -2 0
v -13 -2 0
v -14 -3 0
v -15 -3 0
v -15 -2 0
v -14 -2 0
v -15 -3 0
v -16 -3 0
v -16 -2 0
v -15 -2 0
v -10 -4 0
v -11 -4 0
v -11 -3 0
v -10 -3 0
v -11 -4 0
v -12 -4 0
v -12 -3 0
v -11 -3 0
v -12 -4 0
v -13 -4 0
v -13 -3 0
v -12 -3 0
v -13 -4 0
v -14 -4 0
v -14 -3 0
v -13 -3 0
v -14 -4 0
v -15 -4 0
v -15 -3 0
v -14 -3 0
v -15 -4 0
v -16 -4 0
v -16 -3 0
v -15 -3 0
v -10 -5 0
v -11 -5 0
v -11 -4 0
v -10 -4 0
v -11 -5 0
v -12 -5 0
v -12 -4 0
v -11 -4 0
v -12 -5 0
v -13 -5 0
v -13 -4 0
v -12 -4 0
v -13 -5 0
v -14 -5 0
v -14 -4 0
v -13 -4 0
v -14 -5 0
v -15 -5 0
v -15 -4 0
v -14 -4 0
v -15 -5 0
v -16 -5 0
v -16 -4 0
v -15 -4 0
v -10 -6 0
v -11 -6 0
v -11 -5 0
v -10 -5 0
v -11 -6 0
v -12 -6 0
v -12 -5 0
v -11 -5 0
v -12 -6 0
v -13 -6 0
v -13 -5 0
v -12 -5 0
v -13 -6 0
v -14 -6 0
v -14 -5 0
v -13 -5 0
v -14 -6 0
v -15 -6 0
v -15 -5 0
v -14 -5 0
v -15 -6 0
v -16 -6 0
v -16 -5 0
v -15 -5 0
v -10 -7 0
v -11 -7 0
v -11 -6 0
v -10 -6 0
v -11 -7 0
v -12 -7 0
v -12 -6 0
v -11 -6 0
v -12 -7 0
v -13 -7 0
v -13 -6 0
v -12 -6 0
v -13 -7 0
v -14 -7 0
v -14 -6 0
v -13 -6 0
v -14 -7 0
v -15 -7 0
v -15 -6 0
v -14 -6 0
v -15 -7 0
v -16 -7 0
v -16 -6 0
v -15 -6 0
v -10 -8 0
v -11 -8 0
v -11 -7 0
v -10 -7 0
v -11 -8 0
v -12 -8 0
v -12 -7 0
v -11 -7 0
v -12 -8 0
v -13 -8 0
v -13 -7 0
v -12 -7 0
v -13 -8 0
v -14 -8 0
v -14 -7 0
v -13 -7 0
v -14 -8 0
v -15 -8 0
v -15 -7 0
v -14 -7 0
v -15 -8 0
v -16 -8 0
v -16 -7 0
v -15 -7 0
v -10 -9 0
v -11 -9 0
v -11 -8 0
v -10 -8 0
v -11 -9 0
v -12 -9 0
v -12 -8 0
v -11 -8 0
v -12 -9 0
v -13 -9 0
v -13 -8 0
v -12 -8 0
v -13 -9 0
v -14 -9 0
v -14 -8 0
v -13 -8 0
v -14 -9 0
v -15 -9 0
v -15 -8 0
v -14 -8 0
v -15 -9 0
v -16 -9 0
v -16 -8 0
v -15 -8 0
v -10 -10 0
v -11 -10 0
v -11 -9 0
v -10 -9 0
v -11 -10 0
v -12 -10 0
v -12 -9 0
v -11 -9 0
v -12 -10 0
v -13 -10 0
v -13 -9 0
v -12 -9 0
v -13 -10 0
v -14 -10 0
v -14 -9 0
v -13 -9 0
v -14 -10 0
v -15 -10 0
v -15 -9 0
v -14 -9 0
v -15 -10 0
v -16 -10 0
v -16 -9 0
v -15 -9 0
v -10 -11 0
v -11 -11 0
v -11 -10 0
v -10 -10 0
v -11 -11 0
v -12 -11 0
v -12 -10 0
v -11 -10 0
v -12 -11 0
v -13 -11 0
v -13 -10 0
v -12 -10 0
v -13 -11 0
v -14 -11 0
v -14 -10 0
v -13 -10 0
v -14 -11 0
v -15 -11 0
v -15 -10 0
v -14 -10 0
v -15 -11 0
v -16 -11 0
v -16 -10 0
v -15 -10 0
v -10 -12 0
v -11 -12 0
v -11 -11 0
v -10 -11 0
v -11 -12 0
v -12 -12 0
v -12 -11 0
v -11 -11 0
v -12 -12 0
v -13 -12 0
v -13 -11 0
v -12 -11 0
v -13 -12 0
v -14 -12 0
v -14 -11 0
v -13 -11 0
v -14 -12 0
v -15 -12 0
v -15 -11 0
v -14 -11 0
v -15 -12 0
v -16 -12 0
v -16 -11 0
v -15 -11 0
v -10 -13 0
v -11 -13 0
v -11 -12 0
v -10 -12 0
v -11 -13 0
v -12 -13 0
v -12 -12 0
v -11 -12 0
v -12 -13 0
v -13 -13 0
v -13 -12 0
v -12 -12 0
v -13 -13 0
v -14 -13 0
v -14 -12 0
v -13 -12 0
v -14 -13 0
v -15 -13 0
v -15 -12 0
v -14 -12 0
v -15 -13 0
v -16 -13 0
v -16 -12 0
v -15 -12 0
v -10 -14 0
v -11 -14 0
v -11 -13 0
v -10 -13 0
v -11 -14 0
v -12 -14 0
v -12 -13 0
v -11 -13 0
v -12 -14 0
v -13 -14 0
v -13 -13 0
v -12 -13 0
v -13 -14 0
v -14 -14 0
v -14 -13 0
v -13 -13 0
v -14 -14 0
v -15 -14 0
v -15 -13 0
v -14 -13 0
v -15 -14 0
v -16 -14 0
v -16 -13 0
v -15 -13 0
v -10 -15 0
v -11 -15 0
v -11 -14 0
v -10 -14 0
v -11 -15 0
v -12 -15 0
v -12 -14 0
v -11 -14 0
v -12 -15 0
v -13 -15 0
v -13 -14 0
v -12 -14 0
v -13 -15 0
v -14 -15 0
v -14 -14 0
v -13 -14 0
v -14 -15 0
v -15 -15 0
v -15 -14 0
v -14 -14 0
v -15 -15 0
v -16 -15 0
v -16 -14 0
v -15 -14 0
v -10 -16 0
v -11 -16 0
v -11 -15 0
v -10 -15 0
v -11 -16 0
v -12 -16 0
v -12 -15 0
v -11 -15 0
v -12 -16 0
v -13 -16 0
v -13 -15 0
v -12 -15 0
v -13 -16 0
v -14 -16 0
v -14 -15 0
v -13 -15 0
v -14 -16 0
v -15 -16 0
v -15 -15 0
v -14 -15 0
v -15 -16 0
v -16 -16 0
v -16 -15 0
v -15 -15 0

# Texture cooridinates (Count = 32)
vt 0.08695652 0.875
vt 0.1304348 0.875
vt 0.1304348 0.9166667
vt 0.08695652 0.9166667
vt 0.173913 0.875
vt 0.173913 0.9166667
vt 0.08695652 0.7916667
vt 0.1304348 0.7916667
vt 0.1304348 0.8333333
vt 0.08695652 0.8333333
vt 0.173913 0.8333333
vt 0.2173913 0.8333333
vt 0.2173913 0.875
vt 0.2608696 0.8333333
vt 0.2608696 0.875
vt 0.2173913 0.7916667
vt 0.2608696 0.7916667
vt 0.08695652 0.75
vt 0.1304348 0.75
vt 0.2173913 0.75
vt 0.2608696 0.75
vt 0.173913 0.7916667
vt 0.173913 0.75
vt 0.08695652 0.7083334
vt 0.1304348 0.7083334
vt 0.173913 0.7083334
vt 0.08695652 0.2083333
vt 0.1304348 0.2083333
vt 0.1304348 0.25
vt 0.08695652 0.25
vt 0.08695652 0.1666667
vt 0.1304348 0.1666667

# Normal
vn 0 0 -1

# Mesh description
g dungeon_mesh_0006

# Faces
f 1/1/1 2/2/1 3/3/1 4/4/1
f 5/2/1 6/5/1 7/6/1 8/3/1
f 9/2/1 10/5/1 11/6/1 12/3/1
f 13/2/1 14/5/1 15/6/1 16/3/1
f 17/2/1 18/5/1 19/6/1 20/3/1
f 21/2/1 22/5/1 23/6/1 24/3/1
f 25/7/1 26/8/1 27/9/1 28/10/1
f 29/11/1 30/12/1 31/13/1 32/5/1
f 33/12/1 34/14/1 35/15/1 36/13/1
f 37/16/1 38/17/1 39/14/1 40/12/1
f 41/16/1 42/17/1 43/14/1 44/12/1
f 45/12/1 46/14/1 47/15/1 48/13/1
f 49/18/1 50/19/1 51/8/1 52/7/1
f 53/9/1 54/11/1 55/5/1 56/2/1
f 57/11/1 58/12/1 59/13/1 60/5/1
f 61/12/1 62/14/1 63/15/1 64/13/1
f 65/20/1 66/21/1 67/17/1 68/16/1
f 69/12/1 70/14/1 71/15/1 72/13/1
f 73/18/1 74/19/1 75/8/1 76/7/1
f 77/9/1 78/11/1 79/5/1 80/2/1
f 81/11/1 82/12/1 83/13/1 84/5/1
f 85/12/1 86/14/1 87/15/1 88/13/1
f 89/20/1 90/21/1 91/17/1 92/16/1
f 93/9/1 94/11/1 95/5/1 96/2/1
f 97/18/1 98/19/1 99/8/1 100/7/1
f 101/11/1 102/12/1 103/13/1 104/5/1
f 105/9/1 106/11/1 107/5/1 108/2/1
f 109/11/1 110/12/1 111/13/1 112/5/1
f 113/12/1 114/14/1 115/15/1 116/13/1
f 117/12/1 118/14/1 119/15/1 120/13/1
f 121/18/1 122/19/1 123/8/1 124/7/1
f 125/9/1 126/11/1 127/5/1 128/2/1
f 129/9/1 130/11/1 131/5/1 132/2/1
f 133/9/1 134/11/1 135/5/1 136/2/1
f 137/11/1 138/12/1 139/13/1 140/5/1
f 141/12/1 142/14/1 143/15/1 144/13/1
f 145/18/1 146/19/1 147/8/1 148/7/1
f 149/9/1 150/11/1 151/5/1 152/2/1
f 153/11/1 154/12/1 155/13/1 156/5/1
f 157/12/1 158/14/1 159/15/1 160/13/1
f 161/12/1 162/14/1 163/15/1 164/13/1
f 165/12/1 166/14/1 167/15/1 168/13/1
f 169/18/1 170/19/1 171/8/1 172/7/1
f 173/9/1 174/11/1 175/5/1 176/2/1
f 177/9/1 178/11/1 179/5/1 180/2/1
f 181/9/1 182/11/1 183/5/1 184/2/1
f 185/9/1 186/11/1 187/5/1 188/2/1
f 189/9/1 190/11/1 191/5/1 192/2/1
f 193/18/1 194/19/1 195/8/1 196/7/1
f 197/8/1 198/22/1 199/11/1 200/9/1
f 201/8/1 202/22/1 203/11/1 204/9/1
f 205/8/1 206/22/1 207/11/1 208/9/1
f 209/8/1 210/22/1 211/11/1 212/9/1
f 213/8/1 214/22/1 215/11/1 216/9/1
f 217/18/1 218/19/1 219/8/1 220/7/1
f 221/19/1 222/23/1 223/22/1 224/8/1
f 225/19/1 226/23/1 227/22/1 228/8/1
f 229/19/1 230/23/1 231/22/1 232/8/1
f 233/19/1 234/23/1 235/22/1 236/8/1
f 237/19/1 238/23/1 239/22/1 240/8/1
f 241/18/1 242/19/1 243/8/1 244/7/1
f 245/8/1 246/22/1 247/11/1 248/9/1
f 249/8/1 250/22/1 251/11/1 252/9/1
f 253/8/1 254/22/1 255/11/1 256/9/1
f 257/8/1 258/22/1 259/11/1 260/9/1
f 261/8/1 262/22/1 263/11/1 264/9/1
f 265/18/1 266/19/1 267/8/1 268/7/1
f 269/19/1 270/23/1 271/22/1 272/8/1
f 273/19/1 274/23/1 275/22/1 276/8/1
f 277/19/1 278/23/1 279/22/1 280/8/1
f 281/19/1 282/23/1 283/22/1 284/8/1
f 285/19/1 286/23/1 287/22/1 288/8/1
f 289/24/1 290/25/1 291/19/1 292/18/1
f 293/25/1 294/26/1 295/23/1 296/19/1
f 297/25/1 298/26/1 299/23/1 300/19/1
f 301/25/1 302/26/1 303/23/1 304/19/1
f 305/25/1 306/26/1 307/23/1 308/19/1
f 309/25/1 310/26/1 311/23/1 312/19/1
f 313/27/1 314/28/1 315/29/1 316/30/1
f 317/27/1 318/28/1 319/29/1 320/30/1
f 321/27/1 322/28/1 323/29/1 324/30/1
f 325/27/1 326/28/1 327/29/1 328/30/1
f 329/27/1 330/28/1 331/29/1 332/30/1
f 333/27/1 334/28/1 335/29/1 336/30/1
f 337/31/1 338/32/1 339/28/1 340/27/1
f 341/31/1 342/32/1 343/28/1 344/27/1
f 345/31/1 346/32/1 347/28/1 348/27/1
f 349/31/1 350/32/1 351/28/1 352/27/1
f 353/31/1 354/32/1 355/28/1 356/27/1
f 357/31/1 358/32/1 359/28/1 360/27/1

