# Tiled2Unity generated file. Do not modify by hand.
# Wavefront file for 'dungeon_mesh_0025.obj'

# Vertices (Count = 8)
v -14 -12 0
v -15 -12 0
v -15 -11 0
v -14 -11 0
v -14 -13 0
v -15 -13 0
v -15 -12 0
v -14 -12 0

# Texture cooridinates (Count = 6)
vt 0.5217391 0.625
vt 0.5652174 0.625
vt 0.5652174 0.6666666
vt 0.5217391 0.6666666
vt 0.5217391 0.5833334
vt 0.5652174 0.5833334

# Normal
vn 0 0 -1

# Mesh description
g dungeon_mesh_0025

# Faces
f 1/1/1 2/2/1 3/3/1 4/4/1
f 5/5/1 6/6/1 7/2/1 8/1/1

