# Tiled2Unity generated file. Do not modify by hand.
# Wavefront file for 'dungeon_mesh_0023.obj'

# Vertices (Count = 64)
v -2 -2 0
v -4 -2 0
v -4 0 0
v -2 0 0
v -4 -2 0
v -6 -2 0
v -6 0 0
v -4 0 0
v -4 -3 0
v -6 -3 0
v -6 -1 0
v -4 -1 0
v -4 -4 0
v -6 -4 0
v -6 -2 0
v -4 -2 0
v -4 -5 0
v -6 -5 0
v -6 -3 0
v -4 -3 0
v -4 -6 0
v -6 -6 0
v -6 -4 0
v -4 -4 0
v -4 -7 0
v -6 -7 0
v -6 -5 0
v -4 -5 0
v -4 -8 0
v -6 -8 0
v -6 -6 0
v -4 -6 0
v -4 -9 0
v -6 -9 0
v -6 -7 0
v -4 -7 0
v -4 -12 0
v -6 -12 0
v -6 -10 0
v -4 -10 0
v -4 -13 0
v -6 -13 0
v -6 -11 0
v -4 -11 0
v 0 -14 0
v -2 -14 0
v -2 -12 0
v 0 -12 0
v -1 -14 0
v -3 -14 0
v -3 -12 0
v -1 -12 0
v -2 -14 0
v -4 -14 0
v -4 -12 0
v -2 -12 0
v -3 -14 0
v -5 -14 0
v -5 -12 0
v -3 -12 0
v -4 -14 0
v -6 -14 0
v -6 -12 0
v -4 -12 0

# Texture cooridinates (Count = 6)
vt 0.5217391 0.6666666
vt 0.6086956 0.6666666
vt 0.6086956 0.75
vt 0.5217391 0.75
vt 0.5217391 0.5833334
vt 0.6086956 0.5833334

# Normal
vn 0 0 -1

# Mesh description
g dungeon_mesh_0023

# Faces
f 1/1/1 2/2/1 3/3/1 4/4/1
f 5/5/1 6/6/1 7/2/1 8/1/1
f 9/5/1 10/6/1 11/2/1 12/1/1
f 13/5/1 14/6/1 15/2/1 16/1/1
f 17/5/1 18/6/1 19/2/1 20/1/1
f 21/5/1 22/6/1 23/2/1 24/1/1
f 25/5/1 26/6/1 27/2/1 28/1/1
f 29/5/1 30/6/1 31/2/1 32/1/1
f 33/5/1 34/6/1 35/2/1 36/1/1
f 37/5/1 38/6/1 39/2/1 40/1/1
f 41/5/1 42/6/1 43/2/1 44/1/1
f 45/5/1 46/6/1 47/2/1 48/1/1
f 49/5/1 50/6/1 51/2/1 52/1/1
f 53/5/1 54/6/1 55/2/1 56/1/1
f 57/5/1 58/6/1 59/2/1 60/1/1
f 61/5/1 62/6/1 63/2/1 64/1/1

