# Tiled2Unity generated file. Do not modify by hand.
# Wavefront file for 'dungeon_mesh_0002.obj'

# Vertices (Count = 192)
v -4 -13 0
v -5 -13 0
v -5 -12 0
v -4 -12 0
v -5 -13 0
v -6 -13 0
v -6 -12 0
v -5 -12 0
v -6 -13 0
v -7 -13 0
v -7 -12 0
v -6 -12 0
v -7 -13 0
v -8 -13 0
v -8 -12 0
v -7 -12 0
v -8 -13 0
v -9 -13 0
v -9 -12 0
v -8 -12 0
v -9 -13 0
v -10 -13 0
v -10 -12 0
v -9 -12 0
v -10 -13 0
v -11 -13 0
v -11 -12 0
v -10 -12 0
v -11 -13 0
v -12 -13 0
v -12 -12 0
v -11 -12 0
v -12 -13 0
v -13 -13 0
v -13 -12 0
v -12 -12 0
v -13 -13 0
v -14 -13 0
v -14 -12 0
v -13 -12 0
v -14 -13 0
v -15 -13 0
v -15 -12 0
v -14 -12 0
v -15 -13 0
v -16 -13 0
v -16 -12 0
v -15 -12 0
v -4 -14 0
v -5 -14 0
v -5 -13 0
v -4 -13 0
v -5 -14 0
v -6 -14 0
v -6 -13 0
v -5 -13 0
v -6 -14 0
v -7 -14 0
v -7 -13 0
v -6 -13 0
v -7 -14 0
v -8 -14 0
v -8 -13 0
v -7 -13 0
v -8 -14 0
v -9 -14 0
v -9 -13 0
v -8 -13 0
v -9 -14 0
v -10 -14 0
v -10 -13 0
v -9 -13 0
v -10 -14 0
v -11 -14 0
v -11 -13 0
v -10 -13 0
v -11 -14 0
v -12 -14 0
v -12 -13 0
v -11 -13 0
v -12 -14 0
v -13 -14 0
v -13 -13 0
v -12 -13 0
v -13 -14 0
v -14 -14 0
v -14 -13 0
v -13 -13 0
v -14 -14 0
v -15 -14 0
v -15 -13 0
v -14 -13 0
v -15 -14 0
v -16 -14 0
v -16 -13 0
v -15 -13 0
v -4 -15 0
v -5 -15 0
v -5 -14 0
v -4 -14 0
v -5 -15 0
v -6 -15 0
v -6 -14 0
v -5 -14 0
v -6 -15 0
v -7 -15 0
v -7 -14 0
v -6 -14 0
v -7 -15 0
v -8 -15 0
v -8 -14 0
v -7 -14 0
v -8 -15 0
v -9 -15 0
v -9 -14 0
v -8 -14 0
v -9 -15 0
v -10 -15 0
v -10 -14 0
v -9 -14 0
v -10 -15 0
v -11 -15 0
v -11 -14 0
v -10 -14 0
v -11 -15 0
v -12 -15 0
v -12 -14 0
v -11 -14 0
v -12 -15 0
v -13 -15 0
v -13 -14 0
v -12 -14 0
v -13 -15 0
v -14 -15 0
v -14 -14 0
v -13 -14 0
v -14 -15 0
v -15 -15 0
v -15 -14 0
v -14 -14 0
v -15 -15 0
v -16 -15 0
v -16 -14 0
v -15 -14 0
v -4 -16 0
v -5 -16 0
v -5 -15 0
v -4 -15 0
v -5 -16 0
v -6 -16 0
v -6 -15 0
v -5 -15 0
v -6 -16 0
v -7 -16 0
v -7 -15 0
v -6 -15 0
v -7 -16 0
v -8 -16 0
v -8 -15 0
v -7 -15 0
v -8 -16 0
v -9 -16 0
v -9 -15 0
v -8 -15 0
v -9 -16 0
v -10 -16 0
v -10 -15 0
v -9 -15 0
v -10 -16 0
v -11 -16 0
v -11 -15 0
v -10 -15 0
v -11 -16 0
v -12 -16 0
v -12 -15 0
v -11 -15 0
v -12 -16 0
v -13 -16 0
v -13 -15 0
v -12 -15 0
v -13 -16 0
v -14 -16 0
v -14 -15 0
v -13 -15 0
v -14 -16 0
v -15 -16 0
v -15 -15 0
v -14 -15 0
v -15 -16 0
v -16 -16 0
v -16 -15 0
v -15 -15 0

# Texture cooridinates (Count = 25)
vt 0.08695652 0.875
vt 0.1304348 0.875
vt 0.1304348 0.9166667
vt 0.08695652 0.9166667
vt 0.173913 0.875
vt 0.173913 0.9166667
vt 0.2173913 0.875
vt 0.2173913 0.9166667
vt 0.2608696 0.875
vt 0.2608696 0.9166667
vt 0.08695652 0.8333333
vt 0.1304348 0.8333333
vt 0.173913 0.7916667
vt 0.2173913 0.7916667
vt 0.2173913 0.8333333
vt 0.173913 0.8333333
vt 0.2608696 0.7916667
vt 0.2608696 0.8333333
vt 0.1304348 0.7916667
vt 0.08695652 0.7916667
vt 0.173913 0.75
vt 0.2173913 0.75
vt 0.2608696 0.75
vt 0.1304348 0.75
vt 0.08695652 0.75

# Normal
vn 0 0 -1

# Mesh description
g dungeon_mesh_0002

# Faces
f 1/1/1 2/2/1 3/3/1 4/4/1
f 5/2/1 6/5/1 7/6/1 8/3/1
f 9/5/1 10/7/1 11/8/1 12/6/1
f 13/7/1 14/9/1 15/10/1 16/8/1
f 17/7/1 18/9/1 19/10/1 20/8/1
f 21/7/1 22/9/1 23/10/1 24/8/1
f 25/7/1 26/9/1 27/10/1 28/8/1
f 29/7/1 30/9/1 31/10/1 32/8/1
f 33/7/1 34/9/1 35/10/1 36/8/1
f 37/7/1 38/9/1 39/10/1 40/8/1
f 41/7/1 42/9/1 43/10/1 44/8/1
f 45/7/1 46/9/1 47/10/1 48/8/1
f 49/11/1 50/12/1 51/2/1 52/1/1
f 53/13/1 54/14/1 55/15/1 56/16/1
f 57/14/1 58/17/1 59/18/1 60/15/1
f 61/14/1 62/17/1 63/18/1 64/15/1
f 65/19/1 66/13/1 67/16/1 68/12/1
f 69/19/1 70/13/1 71/16/1 72/12/1
f 73/19/1 74/13/1 75/16/1 76/12/1
f 77/19/1 78/13/1 79/16/1 80/12/1
f 81/19/1 82/13/1 83/16/1 84/12/1
f 85/19/1 86/13/1 87/16/1 88/12/1
f 89/12/1 90/16/1 91/5/1 92/2/1
f 93/16/1 94/15/1 95/7/1 96/5/1
f 97/20/1 98/19/1 99/12/1 100/11/1
f 101/21/1 102/22/1 103/14/1 104/13/1
f 105/22/1 106/23/1 107/17/1 108/14/1
f 109/22/1 110/23/1 111/17/1 112/14/1
f 113/24/1 114/21/1 115/13/1 116/19/1
f 117/24/1 118/21/1 119/13/1 120/19/1
f 121/12/1 122/16/1 123/5/1 124/2/1
f 125/12/1 126/16/1 127/5/1 128/2/1
f 129/12/1 130/16/1 131/5/1 132/2/1
f 133/12/1 134/16/1 135/5/1 136/2/1
f 137/16/1 138/15/1 139/7/1 140/5/1
f 141/15/1 142/18/1 143/9/1 144/7/1
f 145/25/1 146/24/1 147/19/1 148/20/1
f 149/16/1 150/15/1 151/7/1 152/5/1
f 153/15/1 154/18/1 155/9/1 156/7/1
f 157/14/1 158/17/1 159/18/1 160/15/1
f 161/12/1 162/16/1 163/5/1 164/2/1
f 165/12/1 166/16/1 167/5/1 168/2/1
f 169/19/1 170/13/1 171/16/1 172/12/1
f 173/19/1 174/13/1 175/16/1 176/12/1
f 177/12/1 178/16/1 179/5/1 180/2/1
f 181/16/1 182/15/1 183/7/1 184/5/1
f 185/15/1 186/18/1 187/9/1 188/7/1
f 189/15/1 190/18/1 191/9/1 192/7/1

