# Tiled2Unity generated file. Do not modify by hand.
# Wavefront file for 'dungeon_mesh_0013.obj'

# Vertices (Count = 32)
v 0 -8 0
v -1 -8 0
v -1 -7 0
v 0 -7 0
v -1 -8 0
v -2 -8 0
v -2 -7 0
v -1 -7 0
v -2 -8 0
v -3 -8 0
v -3 -7 0
v -2 -7 0
v -3 -8 0
v -4 -8 0
v -4 -7 0
v -3 -7 0
v -3 -9 0
v -4 -9 0
v -4 -8 0
v -3 -8 0
v -3 -10 0
v -4 -10 0
v -4 -9 0
v -3 -9 0
v -3 -11 0
v -4 -11 0
v -4 -10 0
v -3 -10 0
v -3 -12 0
v -4 -12 0
v -4 -11 0
v -3 -11 0

# Texture cooridinates (Count = 10)
vt 0.5625 0.5
vt 0.625 0.5
vt 0.625 0.5625
vt 0.5625 0.5625
vt 0.75 0.5
vt 0.8125 0.5
vt 0.8125 0.5625
vt 0.75 0.5625
vt 0.875 0.5
vt 0.875 0.5625

# Normal
vn 0 0 -1

# Mesh description
g dungeon_mesh_0013

# Faces
f 1/1/1 2/2/1 3/3/1 4/4/1
f 5/1/1 6/2/1 7/3/1 8/4/1
f 9/1/1 10/2/1 11/3/1 12/4/1
f 13/5/1 14/6/1 15/7/1 16/8/1
f 17/6/1 18/9/1 19/10/1 20/7/1
f 21/6/1 22/9/1 23/10/1 24/7/1
f 25/6/1 26/9/1 27/10/1 28/7/1
f 29/6/1 30/9/1 31/10/1 32/7/1

