# Tiled2Unity generated file. Do not modify by hand.
# Wavefront file for 'dungeon4_mesh_0036.obj'

# Vertices (Count = 384)
v -10 -1 0
v -11 -1 0
v -11 0 0
v -10 0 0
v -11 -1 0
v -12 -1 0
v -12 0 0
v -11 0 0
v -12 -1 0
v -13 -1 0
v -13 0 0
v -12 0 0
v -15 -1 0
v -16 -1 0
v -16 0 0
v -15 0 0
v -10 -2 0
v -11 -2 0
v -11 -1 0
v -10 -1 0
v -11 -2 0
v -12 -2 0
v -12 -1 0
v -11 -1 0
v -12 -2 0
v -13 -2 0
v -13 -1 0
v -12 -1 0
v 0 -3 0
v -1 -3 0
v -1 -2 0
v 0 -2 0
v -1 -3 0
v -2 -3 0
v -2 -2 0
v -1 -2 0
v -2 -3 0
v -3 -3 0
v -3 -2 0
v -2 -2 0
v -3 -3 0
v -4 -3 0
v -4 -2 0
v -3 -2 0
v -4 -3 0
v -5 -3 0
v -5 -2 0
v -4 -2 0
v -5 -3 0
v -6 -3 0
v -6 -2 0
v -5 -2 0
v -6 -3 0
v -7 -3 0
v -7 -2 0
v -6 -2 0
v -7 -3 0
v -8 -3 0
v -8 -2 0
v -7 -2 0
v -8 -3 0
v -9 -3 0
v -9 -2 0
v -8 -2 0
v -9 -3 0
v -10 -3 0
v -10 -2 0
v -9 -2 0
v -10 -3 0
v -11 -3 0
v -11 -2 0
v -10 -2 0
v -11 -3 0
v -12 -3 0
v -12 -2 0
v -11 -2 0
v -12 -3 0
v -13 -3 0
v -13 -2 0
v -12 -2 0
v -15 -3 0
v -16 -3 0
v -16 -2 0
v -15 -2 0
v 0 -4 0
v -1 -4 0
v -1 -3 0
v 0 -3 0
v -1 -4 0
v -2 -4 0
v -2 -3 0
v -1 -3 0
v -2 -4 0
v -3 -4 0
v -3 -3 0
v -2 -3 0
v -3 -4 0
v -4 -4 0
v -4 -3 0
v -3 -3 0
v -4 -4 0
v -5 -4 0
v -5 -3 0
v -4 -3 0
v -5 -4 0
v -6 -4 0
v -6 -3 0
v -5 -3 0
v -6 -4 0
v -7 -4 0
v -7 -3 0
v -6 -3 0
v -7 -4 0
v -8 -4 0
v -8 -3 0
v -7 -3 0
v -8 -4 0
v -9 -4 0
v -9 -3 0
v -8 -3 0
v -9 -4 0
v -10 -4 0
v -10 -3 0
v -9 -3 0
v -10 -4 0
v -11 -4 0
v -11 -3 0
v -10 -3 0
v -11 -4 0
v -12 -4 0
v -12 -3 0
v -11 -3 0
v -12 -4 0
v -13 -4 0
v -13 -3 0
v -12 -3 0
v -15 -4 0
v -16 -4 0
v -16 -3 0
v -15 -3 0
v 0 -5 0
v -1 -5 0
v -1 -4 0
v 0 -4 0
v -1 -5 0
v -2 -5 0
v -2 -4 0
v -1 -4 0
v -2 -5 0
v -3 -5 0
v -3 -4 0
v -2 -4 0
v -3 -5 0
v -4 -5 0
v -4 -4 0
v -3 -4 0
v -4 -5 0
v -5 -5 0
v -5 -4 0
v -4 -4 0
v -5 -5 0
v -6 -5 0
v -6 -4 0
v -5 -4 0
v -6 -5 0
v -7 -5 0
v -7 -4 0
v -6 -4 0
v -7 -5 0
v -8 -5 0
v -8 -4 0
v -7 -4 0
v -8 -5 0
v -9 -5 0
v -9 -4 0
v -8 -4 0
v -9 -5 0
v -10 -5 0
v -10 -4 0
v -9 -4 0
v -10 -5 0
v -11 -5 0
v -11 -4 0
v -10 -4 0
v -11 -5 0
v -12 -5 0
v -12 -4 0
v -11 -4 0
v -12 -5 0
v -13 -5 0
v -13 -4 0
v -12 -4 0
v -15 -5 0
v -16 -5 0
v -16 -4 0
v -15 -4 0
v -10 -6 0
v -11 -6 0
v -11 -5 0
v -10 -5 0
v -11 -6 0
v -12 -6 0
v -12 -5 0
v -11 -5 0
v -12 -6 0
v -13 -6 0
v -13 -5 0
v -12 -5 0
v -15 -6 0
v -16 -6 0
v -16 -5 0
v -15 -5 0
v -10 -7 0
v -11 -7 0
v -11 -6 0
v -10 -6 0
v -11 -7 0
v -12 -7 0
v -12 -6 0
v -11 -6 0
v -12 -7 0
v -13 -7 0
v -13 -6 0
v -12 -6 0
v -15 -7 0
v -16 -7 0
v -16 -6 0
v -15 -6 0
v -10 -8 0
v -11 -8 0
v -11 -7 0
v -10 -7 0
v -11 -8 0
v -12 -8 0
v -12 -7 0
v -11 -7 0
v -12 -8 0
v -13 -8 0
v -13 -7 0
v -12 -7 0
v -10 -9 0
v -11 -9 0
v -11 -8 0
v -10 -8 0
v -11 -9 0
v -12 -9 0
v -12 -8 0
v -11 -8 0
v -12 -9 0
v -13 -9 0
v -13 -8 0
v -12 -8 0
v -10 -10 0
v -11 -10 0
v -11 -9 0
v -10 -9 0
v -11 -10 0
v -12 -10 0
v -12 -9 0
v -11 -9 0
v -12 -10 0
v -13 -10 0
v -13 -9 0
v -12 -9 0
v -10 -11 0
v -11 -11 0
v -11 -10 0
v -10 -10 0
v -11 -11 0
v -12 -11 0
v -12 -10 0
v -11 -10 0
v -12 -11 0
v -13 -11 0
v -13 -10 0
v -12 -10 0
v -13 -11 0
v -14 -11 0
v -14 -10 0
v -13 -10 0
v -14 -11 0
v -15 -11 0
v -15 -10 0
v -14 -10 0
v -15 -11 0
v -16 -11 0
v -16 -10 0
v -15 -10 0
v -10 -12 0
v -11 -12 0
v -11 -11 0
v -10 -11 0
v -11 -12 0
v -12 -12 0
v -12 -11 0
v -11 -11 0
v -12 -12 0
v -13 -12 0
v -13 -11 0
v -12 -11 0
v -13 -12 0
v -14 -12 0
v -14 -11 0
v -13 -11 0
v -14 -12 0
v -15 -12 0
v -15 -11 0
v -14 -11 0
v -15 -12 0
v -16 -12 0
v -16 -11 0
v -15 -11 0
v -10 -13 0
v -11 -13 0
v -11 -12 0
v -10 -12 0
v -11 -13 0
v -12 -13 0
v -12 -12 0
v -11 -12 0
v -12 -13 0
v -13 -13 0
v -13 -12 0
v -12 -12 0
v -10 -14 0
v -11 -14 0
v -11 -13 0
v -10 -13 0
v -11 -14 0
v -12 -14 0
v -12 -13 0
v -11 -13 0
v -12 -14 0
v -13 -14 0
v -13 -13 0
v -12 -13 0
v -10 -15 0
v -11 -15 0
v -11 -14 0
v -10 -14 0
v -11 -15 0
v -12 -15 0
v -12 -14 0
v -11 -14 0
v -12 -15 0
v -13 -15 0
v -13 -14 0
v -12 -14 0
v -13 -15 0
v -14 -15 0
v -14 -14 0
v -13 -14 0
v -14 -15 0
v -15 -15 0
v -15 -14 0
v -14 -14 0
v -15 -15 0
v -16 -15 0
v -16 -14 0
v -15 -14 0
v -10 -16 0
v -11 -16 0
v -11 -15 0
v -10 -15 0
v -11 -16 0
v -12 -16 0
v -12 -15 0
v -11 -15 0
v -12 -16 0
v -13 -16 0
v -13 -15 0
v -12 -15 0
v -13 -16 0
v -14 -16 0
v -14 -15 0
v -13 -15 0
v -14 -16 0
v -15 -16 0
v -15 -15 0
v -14 -15 0
v -15 -16 0
v -16 -16 0
v -16 -15 0
v -15 -15 0

# Texture cooridinates (Count = 12)
vt 0.0625 0.5
vt 0.125 0.5
vt 0.125 0.5625
vt 0.0625 0.5625
vt 0.1875 0.5
vt 0.1875 0.5625
vt 0.25 0.5
vt 0.25 0.5625
vt 0.125 0.625
vt 0.0625 0.625
vt 0.1875 0.625
vt 0.25 0.625

# Normal
vn 0 0 -1

# Mesh description
g dungeon4_mesh_0036

# Faces
f 1/1/1 2/2/1 3/3/1 4/4/1
f 5/2/1 6/5/1 7/6/1 8/3/1
f 9/5/1 10/7/1 11/8/1 12/6/1
f 13/1/1 14/2/1 15/3/1 16/4/1
f 17/1/1 18/2/1 19/3/1 20/4/1
f 21/2/1 22/5/1 23/6/1 24/3/1
f 25/5/1 26/7/1 27/8/1 28/6/1
f 29/4/1 30/3/1 31/9/1 32/10/1
f 33/4/1 34/3/1 35/9/1 36/10/1
f 37/4/1 38/3/1 39/9/1 40/10/1
f 41/3/1 42/6/1 43/11/1 44/9/1
f 45/6/1 46/8/1 47/12/1 48/11/1
f 49/3/1 50/6/1 51/11/1 52/9/1
f 53/6/1 54/8/1 55/12/1 56/11/1
f 57/4/1 58/3/1 59/9/1 60/10/1
f 61/4/1 62/3/1 63/9/1 64/10/1
f 65/4/1 66/3/1 67/9/1 68/10/1
f 69/4/1 70/3/1 71/9/1 72/10/1
f 73/3/1 74/6/1 75/11/1 76/9/1
f 77/6/1 78/8/1 79/12/1 80/11/1
f 81/4/1 82/3/1 83/9/1 84/10/1
f 85/4/1 86/3/1 87/9/1 88/10/1
f 89/4/1 90/3/1 91/9/1 92/10/1
f 93/4/1 94/3/1 95/9/1 96/10/1
f 97/4/1 98/3/1 99/9/1 100/10/1
f 101/4/1 102/3/1 103/9/1 104/10/1
f 105/4/1 106/3/1 107/9/1 108/10/1
f 109/4/1 110/3/1 111/9/1 112/10/1
f 113/4/1 114/3/1 115/9/1 116/10/1
f 117/4/1 118/3/1 119/9/1 120/10/1
f 121/3/1 122/6/1 123/11/1 124/9/1
f 125/1/1 126/2/1 127/3/1 128/4/1
f 129/2/1 130/5/1 131/6/1 132/3/1
f 133/5/1 134/7/1 135/8/1 136/6/1
f 137/1/1 138/2/1 139/3/1 140/4/1
f 141/1/1 142/2/1 143/3/1 144/4/1
f 145/1/1 146/2/1 147/3/1 148/4/1
f 149/1/1 150/2/1 151/3/1 152/4/1
f 153/1/1 154/2/1 155/3/1 156/4/1
f 157/1/1 158/2/1 159/3/1 160/4/1
f 161/1/1 162/2/1 163/3/1 164/4/1
f 165/1/1 166/2/1 167/3/1 168/4/1
f 169/1/1 170/2/1 171/3/1 172/4/1
f 173/1/1 174/2/1 175/3/1 176/4/1
f 177/2/1 178/5/1 179/6/1 180/3/1
f 181/4/1 182/3/1 183/9/1 184/10/1
f 185/3/1 186/6/1 187/11/1 188/9/1
f 189/6/1 190/8/1 191/12/1 192/11/1
f 193/1/1 194/2/1 195/3/1 196/4/1
f 197/4/1 198/3/1 199/9/1 200/10/1
f 201/3/1 202/6/1 203/11/1 204/9/1
f 205/6/1 206/8/1 207/12/1 208/11/1
f 209/1/1 210/2/1 211/3/1 212/4/1
f 213/4/1 214/3/1 215/9/1 216/10/1
f 217/3/1 218/6/1 219/11/1 220/9/1
f 221/6/1 222/8/1 223/12/1 224/11/1
f 225/1/1 226/2/1 227/3/1 228/4/1
f 229/4/1 230/3/1 231/9/1 232/10/1
f 233/3/1 234/6/1 235/11/1 236/9/1
f 237/6/1 238/8/1 239/12/1 240/11/1
f 241/4/1 242/3/1 243/9/1 244/10/1
f 245/3/1 246/6/1 247/11/1 248/9/1
f 249/6/1 250/8/1 251/12/1 252/11/1
f 253/4/1 254/3/1 255/9/1 256/10/1
f 257/3/1 258/6/1 259/11/1 260/9/1
f 261/6/1 262/8/1 263/12/1 264/11/1
f 265/4/1 266/3/1 267/9/1 268/10/1
f 269/3/1 270/6/1 271/11/1 272/9/1
f 273/4/1 274/3/1 275/9/1 276/10/1
f 277/3/1 278/6/1 279/11/1 280/9/1
f 281/4/1 282/3/1 283/9/1 284/10/1
f 285/3/1 286/6/1 287/11/1 288/9/1
f 289/1/1 290/2/1 291/3/1 292/4/1
f 293/2/1 294/5/1 295/6/1 296/3/1
f 297/1/1 298/2/1 299/3/1 300/4/1
f 301/2/1 302/5/1 303/6/1 304/3/1
f 305/1/1 306/2/1 307/3/1 308/4/1
f 309/2/1 310/5/1 311/6/1 312/3/1
f 313/4/1 314/3/1 315/9/1 316/10/1
f 317/3/1 318/6/1 319/11/1 320/9/1
f 321/6/1 322/8/1 323/12/1 324/11/1
f 325/4/1 326/3/1 327/9/1 328/10/1
f 329/3/1 330/6/1 331/11/1 332/9/1
f 333/6/1 334/8/1 335/12/1 336/11/1
f 337/4/1 338/3/1 339/9/1 340/10/1
f 341/3/1 342/6/1 343/11/1 344/9/1
f 345/6/1 346/8/1 347/12/1 348/11/1
f 349/4/1 350/3/1 351/9/1 352/10/1
f 353/4/1 354/3/1 355/9/1 356/10/1
f 357/4/1 358/3/1 359/9/1 360/10/1
f 361/4/1 362/3/1 363/9/1 364/10/1
f 365/4/1 366/3/1 367/9/1 368/10/1
f 369/4/1 370/3/1 371/9/1 372/10/1
f 373/1/1 374/2/1 375/3/1 376/4/1
f 377/1/1 378/2/1 379/3/1 380/4/1
f 381/1/1 382/2/1 383/3/1 384/4/1

