# Tiled2Unity generated file. Do not modify by hand.
# Wavefront file for 'dungeon4_mesh_0023.obj'

# Vertices (Count = 20)
v 0 -16 0
v -1 -16 0
v -1 -15 0
v 0 -15 0
v -1 -16 0
v -2 -16 0
v -2 -15 0
v -1 -15 0
v -2 -16 0
v -3 -16 0
v -3 -15 0
v -2 -15 0
v -3 -16 0
v -4 -16 0
v -4 -15 0
v -3 -15 0
v -4 -16 0
v -5 -16 0
v -5 -15 0
v -4 -15 0

# Texture cooridinates (Count = 8)
vt 0.0625 0.5
vt 0.125 0.5
vt 0.125 0.5625
vt 0.0625 0.5625
vt 0.1875 0.5
vt 0.1875 0.5625
vt 0.25 0.5
vt 0.25 0.5625

# Normal
vn 0 0 -1

# Mesh description
g dungeon4_mesh_0023

# Faces
f 1/1/1 2/2/1 3/3/1 4/4/1
f 5/1/1 6/2/1 7/3/1 8/4/1
f 9/1/1 10/2/1 11/3/1 12/4/1
f 13/2/1 14/5/1 15/6/1 16/3/1
f 17/5/1 18/7/1 19/8/1 20/6/1

