# Tiled2Unity generated file. Do not modify by hand.
# Wavefront file for 'dungeon4_mesh_0078.obj'

# Vertices (Count = 32)
v 0 -10 0
v -1 -10 0
v -1 -9 0
v 0 -9 0
v -3 -13 0
v -4 -13 0
v -4 -12 0
v -3 -12 0
v -4 -13 0
v -5 -13 0
v -5 -12 0
v -4 -12 0
v -5 -13 0
v -6 -13 0
v -6 -12 0
v -5 -12 0
v -6 -13 0
v -7 -13 0
v -7 -12 0
v -6 -12 0
v -7 -13 0
v -8 -13 0
v -8 -12 0
v -7 -12 0
v -12 -13 0
v -13 -13 0
v -13 -12 0
v -12 -12 0
v -12 -14 0
v -13 -14 0
v -13 -13 0
v -12 -13 0

# Texture cooridinates (Count = 10)
vt 0.0625 0.9375
vt 0.125 0.9375
vt 0.125 1
vt 0.0625 1
vt 0.0625 0.8125
vt 0.125 0.8125
vt 0.125 0.875
vt 0.0625 0.875
vt 0 0.8125
vt 0 0.875

# Normal
vn 0 0 -1

# Mesh description
g dungeon4_mesh_0078

# Faces
f 1/1/1 2/2/1 3/3/1 4/4/1
f 5/5/1 6/6/1 7/7/1 8/8/1
f 9/5/1 10/6/1 11/7/1 12/8/1
f 13/5/1 14/6/1 15/7/1 16/8/1
f 17/5/1 18/6/1 19/7/1 20/8/1
f 21/5/1 22/6/1 23/7/1 24/8/1
f 25/9/1 26/5/1 27/8/1 28/10/1
f 29/9/1 30/5/1 31/8/1 32/10/1

