# Tiled2Unity generated file. Do not modify by hand.
# Wavefront file for 'dungeon4_mesh_0047.obj'

# Vertices (Count = 20)
v -11 -2 0
v -12 -2 0
v -12 -1 0
v -11 -1 0
v -12 -2 0
v -13 -2 0
v -13 -1 0
v -12 -1 0
v -13 -2 0
v -14 -2 0
v -14 -1 0
v -13 -1 0
v -14 -2 0
v -15 -2 0
v -15 -1 0
v -14 -1 0
v -15 -2 0
v -16 -2 0
v -16 -1 0
v -15 -1 0

# Texture cooridinates (Count = 6)
vt 0.1304348 0.7916667
vt 0.173913 0.7916667
vt 0.173913 0.8333333
vt 0.1304348 0.8333333
vt 0.173913 0.875
vt 0.1304348 0.875

# Normal
vn 0 0 -1

# Mesh description
g dungeon4_mesh_0047

# Faces
f 1/1/1 2/2/1 3/3/1 4/4/1
f 5/4/1 6/3/1 7/5/1 8/6/1
f 9/4/1 10/3/1 11/5/1 12/6/1
f 13/4/1 14/3/1 15/5/1 16/6/1
f 17/4/1 18/3/1 19/5/1 20/6/1

