# Tiled2Unity generated file. Do not modify by hand.
# Wavefront file for 'dungeon4_mesh_0095.obj'

# Vertices (Count = 24)
v 0 -7 0
v -1 -7 0
v -1 -6 0
v 0 -6 0
v -7 -7 0
v -8 -7 0
v -8 -6 0
v -7 -6 0
v -8 -7 0
v -9 -7 0
v -9 -6 0
v -8 -6 0
v -9 -7 0
v -10 -7 0
v -10 -6 0
v -9 -6 0
v -10 -7 0
v -11 -7 0
v -11 -6 0
v -10 -6 0
v -11 -7 0
v -12 -7 0
v -12 -6 0
v -11 -6 0

# Texture cooridinates (Count = 7)
vt 0 0.875
vt 0.0625 0.875
vt 0.0625 0.9375
vt 0 0.9375
vt 0.125 0.9375
vt 0.125 1
vt 0.0625 1

# Normal
vn 0 0 -1

# Mesh description
g dungeon4_mesh_0095

# Faces
f 1/1/1 2/2/1 3/3/1 4/4/1
f 5/3/1 6/5/1 7/6/1 8/7/1
f 9/3/1 10/5/1 11/6/1 12/7/1
f 13/3/1 14/5/1 15/6/1 16/7/1
f 17/3/1 18/5/1 19/6/1 20/7/1
f 21/3/1 22/5/1 23/6/1 24/7/1

