# Tiled2Unity generated file. Do not modify by hand.
# Wavefront file for 'dungeon4_mesh_0099.obj'

# Vertices (Count = 32)
v -4 -1 0
v -5 -1 0
v -5 0 0
v -4 0 0
v -4 -2 0
v -5 -2 0
v -5 -1 0
v -4 -1 0
v -4 -3 0
v -5 -3 0
v -5 -2 0
v -4 -2 0
v -4 -4 0
v -5 -4 0
v -5 -3 0
v -4 -3 0
v -4 -5 0
v -5 -5 0
v -5 -4 0
v -4 -4 0
v -4 -6 0
v -5 -6 0
v -5 -5 0
v -4 -5 0
v -4 -7 0
v -5 -7 0
v -5 -6 0
v -4 -6 0
v -7 -10 0
v -8 -10 0
v -8 -9 0
v -7 -9 0

# Texture cooridinates (Count = 6)
vt 0.125 0.8125
vt 0.1875 0.8125
vt 0.1875 0.875
vt 0.125 0.875
vt 0.125 0.75
vt 0.1875 0.75

# Normal
vn 0 0 -1

# Mesh description
g dungeon4_mesh_0099

# Faces
f 1/1/1 2/2/1 3/3/1 4/4/1
f 5/1/1 6/2/1 7/3/1 8/4/1
f 9/1/1 10/2/1 11/3/1 12/4/1
f 13/1/1 14/2/1 15/3/1 16/4/1
f 17/1/1 18/2/1 19/3/1 20/4/1
f 21/1/1 22/2/1 23/3/1 24/4/1
f 25/5/1 26/6/1 27/2/1 28/1/1
f 29/5/1 30/6/1 31/2/1 32/1/1

