# Tiled2Unity generated file. Do not modify by hand.
# Wavefront file for 'dungeon4_mesh_0056.obj'

# Vertices (Count = 20)
v -3 -1 0
v -4 -1 0
v -4 0 0
v -3 0 0
v 0 -2 0
v -1 -2 0
v -1 -1 0
v 0 -1 0
v -3 -6 0
v -4 -6 0
v -4 -5 0
v -3 -5 0
v -4 -6 0
v -5 -6 0
v -5 -5 0
v -4 -5 0
v -5 -6 0
v -6 -6 0
v -6 -5 0
v -5 -5 0

# Texture cooridinates (Count = 6)
vt 0.125 0.9375
vt 0.1875 0.9375
vt 0.1875 1
vt 0.125 1
vt 0.0625 0.9375
vt 0.0625 1

# Normal
vn 0 0 -1

# Mesh description
g dungeon4_mesh_0056

# Faces
f 1/1/1 2/2/1 3/3/1 4/4/1
f 5/1/1 6/2/1 7/3/1 8/4/1
f 9/5/1 10/1/1 11/4/1 12/6/1
f 13/5/1 14/1/1 15/4/1 16/6/1
f 17/5/1 18/1/1 19/4/1 20/6/1

