# Tiled2Unity generated file. Do not modify by hand.
# Wavefront file for 'dungeon4_mesh_0093.obj'

# Vertices (Count = 136)
v 0 -3 0
v -1 -3 0
v -1 -2 0
v 0 -2 0
v 0 -4 0
v -1 -4 0
v -1 -3 0
v 0 -3 0
v 0 -5 0
v -1 -5 0
v -1 -4 0
v 0 -4 0
v 0 -6 0
v -1 -6 0
v -1 -5 0
v 0 -5 0
v -9 -8 0
v -10 -8 0
v -10 -7 0
v -9 -7 0
v -9 -9 0
v -10 -9 0
v -10 -8 0
v -9 -8 0
v -9 -10 0
v -10 -10 0
v -10 -9 0
v -9 -9 0
v -6 -11 0
v -7 -11 0
v -7 -10 0
v -6 -10 0
v -9 -11 0
v -10 -11 0
v -10 -10 0
v -9 -10 0
v -6 -12 0
v -7 -12 0
v -7 -11 0
v -6 -11 0
v -9 -12 0
v -10 -12 0
v -10 -11 0
v -9 -11 0
v -10 -12 0
v -11 -12 0
v -11 -11 0
v -10 -11 0
v -6 -13 0
v -7 -13 0
v -7 -12 0
v -6 -12 0
v -7 -13 0
v -8 -13 0
v -8 -12 0
v -7 -12 0
v -11 -13 0
v -12 -13 0
v -12 -12 0
v -11 -12 0
v -8 -14 0
v -9 -14 0
v -9 -13 0
v -8 -13 0
v -11 -14 0
v -12 -14 0
v -12 -13 0
v -11 -13 0
v -12 -14 0
v -13 -14 0
v -13 -13 0
v -12 -13 0
v -13 -14 0
v -14 -14 0
v -14 -13 0
v -13 -13 0
v -14 -14 0
v -15 -14 0
v -15 -13 0
v -14 -13 0
v -15 -14 0
v -16 -14 0
v -16 -13 0
v -15 -13 0
v -8 -15 0
v -9 -15 0
v -9 -14 0
v -8 -14 0
v 0 -16 0
v -1 -16 0
v -1 -15 0
v 0 -15 0
v -1 -16 0
v -2 -16 0
v -2 -15 0
v -1 -15 0
v -2 -16 0
v -3 -16 0
v -3 -15 0
v -2 -15 0
v -3 -16 0
v -4 -16 0
v -4 -15 0
v -3 -15 0
v -8 -16 0
v -9 -16 0
v -9 -15 0
v -8 -15 0
v -9 -16 0
v -10 -16 0
v -10 -15 0
v -9 -15 0
v -10 -16 0
v -11 -16 0
v -11 -15 0
v -10 -15 0
v -11 -16 0
v -12 -16 0
v -12 -15 0
v -11 -15 0
v -12 -16 0
v -13 -16 0
v -13 -15 0
v -12 -15 0
v -13 -16 0
v -14 -16 0
v -14 -15 0
v -13 -15 0
v -14 -16 0
v -15 -16 0
v -15 -15 0
v -14 -15 0
v -15 -16 0
v -16 -16 0
v -16 -15 0
v -15 -15 0

# Texture cooridinates (Count = 13)
vt 0.125 0.8125
vt 0.1875 0.8125
vt 0.1875 0.875
vt 0.125 0.875
vt 0.125 0.75
vt 0.1875 0.75
vt 0.1875 0.9375
vt 0.125 0.9375
vt 0.0625 0.9375
vt 0.125 1
vt 0.0625 1
vt 0.0625 0.8125
vt 0.0625 0.875

# Normal
vn 0 0 -1

# Mesh description
g dungeon4_mesh_0093

# Faces
f 1/1/1 2/2/1 3/3/1 4/4/1
f 5/1/1 6/2/1 7/3/1 8/4/1
f 9/1/1 10/2/1 11/3/1 12/4/1
f 13/5/1 14/6/1 15/2/1 16/1/1
f 17/4/1 18/3/1 19/7/1 20/8/1
f 21/4/1 22/3/1 23/7/1 24/8/1
f 25/4/1 26/3/1 27/7/1 28/8/1
f 29/4/1 30/3/1 31/7/1 32/8/1
f 33/4/1 34/3/1 35/7/1 36/8/1
f 37/4/1 38/3/1 39/7/1 40/8/1
f 41/4/1 42/3/1 43/7/1 44/8/1
f 45/9/1 46/8/1 47/10/1 48/11/1
f 49/9/1 50/8/1 51/10/1 52/11/1
f 53/9/1 54/8/1 55/10/1 56/11/1
f 57/4/1 58/3/1 59/7/1 60/8/1
f 61/4/1 62/3/1 63/7/1 64/8/1
f 65/4/1 66/3/1 67/7/1 68/8/1
f 69/12/1 70/1/1 71/4/1 72/13/1
f 73/12/1 74/1/1 75/4/1 76/13/1
f 77/12/1 78/1/1 79/4/1 80/13/1
f 81/12/1 82/1/1 83/4/1 84/13/1
f 85/4/1 86/3/1 87/7/1 88/8/1
f 89/9/1 90/8/1 91/10/1 92/11/1
f 93/9/1 94/8/1 95/10/1 96/11/1
f 97/9/1 98/8/1 99/10/1 100/11/1
f 101/9/1 102/8/1 103/10/1 104/11/1
f 105/12/1 106/1/1 107/4/1 108/13/1
f 109/12/1 110/1/1 111/4/1 112/13/1
f 113/12/1 114/1/1 115/4/1 116/13/1
f 117/12/1 118/1/1 119/4/1 120/13/1
f 121/12/1 122/1/1 123/4/1 124/13/1
f 125/12/1 126/1/1 127/4/1 128/13/1
f 129/12/1 130/1/1 131/4/1 132/13/1
f 133/12/1 134/1/1 135/4/1 136/13/1

