# Tiled2Unity generated file. Do not modify by hand.
# Wavefront file for 'Mundo_mesh_0013.obj'

# Vertices (Count = 12)
v -2 -1 0
v -3 -1 0
v -3 0 0
v -2 0 0
v -10 -1 0
v -11 -1 0
v -11 0 0
v -10 0 0
v -15 -1 0
v -16 -1 0
v -16 0 0
v -15 0 0

# Texture cooridinates (Count = 6)
vt 0.5 0.3125
vt 0.5625 0.3125
vt 0.5625 0.375
vt 0.5 0.375
vt 0.625 0.3125
vt 0.625 0.375

# Normal
vn 0 0 -1

# Mesh description
g Mundo_mesh_0013

# Faces
f 1/1/1 2/2/1 3/3/1 4/4/1
f 5/2/1 6/5/1 7/6/1 8/3/1
f 9/1/1 10/2/1 11/3/1 12/4/1

