# Tiled2Unity generated file. Do not modify by hand.
# Wavefront file for 'Mundo_mesh_0018.obj'

# Vertices (Count = 228)
v 0 -1 0
v -1 -1 0
v -1 0 0
v 0 0 0
v 0 -2 0
v -1 -2 0
v -1 -1 0
v 0 -1 0
v 0 -3 0
v -1 -3 0
v -1 -2 0
v 0 -2 0
v 0 -4 0
v -1 -4 0
v -1 -3 0
v 0 -3 0
v 0 -5 0
v -1 -5 0
v -1 -4 0
v 0 -4 0
v 0 -6 0
v -1 -6 0
v -1 -5 0
v 0 -5 0
v 0 -7 0
v -1 -7 0
v -1 -6 0
v 0 -6 0
v 0 -8 0
v -1 -8 0
v -1 -7 0
v 0 -7 0
v 0 -9 0
v -1 -9 0
v -1 -8 0
v 0 -8 0
v 0 -10 0
v -1 -10 0
v -1 -9 0
v 0 -9 0
v -1 -10 0
v -2 -10 0
v -2 -9 0
v -1 -9 0
v -2 -10 0
v -3 -10 0
v -3 -9 0
v -2 -9 0
v -3 -10 0
v -4 -10 0
v -4 -9 0
v -3 -9 0
v -4 -10 0
v -5 -10 0
v -5 -9 0
v -4 -9 0
v -5 -10 0
v -6 -10 0
v -6 -9 0
v -5 -9 0
v -6 -10 0
v -7 -10 0
v -7 -9 0
v -6 -9 0
v -7 -10 0
v -8 -10 0
v -8 -9 0
v -7 -9 0
v -8 -10 0
v -9 -10 0
v -9 -9 0
v -8 -9 0
v -9 -10 0
v -10 -10 0
v -10 -9 0
v -9 -9 0
v -10 -10 0
v -11 -10 0
v -11 -9 0
v -10 -9 0
v -11 -10 0
v -12 -10 0
v -12 -9 0
v -11 -9 0
v -12 -10 0
v -13 -10 0
v -13 -9 0
v -12 -9 0
v -13 -10 0
v -14 -10 0
v -14 -9 0
v -13 -9 0
v -14 -10 0
v -15 -10 0
v -15 -9 0
v -14 -9 0
v -15 -10 0
v -16 -10 0
v -16 -9 0
v -15 -9 0
v 0 -11 0
v -1 -11 0
v -1 -10 0
v 0 -10 0
v -1 -11 0
v -2 -11 0
v -2 -10 0
v -1 -10 0
v -2 -11 0
v -3 -11 0
v -3 -10 0
v -2 -10 0
v -3 -11 0
v -4 -11 0
v -4 -10 0
v -3 -10 0
v -4 -11 0
v -5 -11 0
v -5 -10 0
v -4 -10 0
v -5 -11 0
v -6 -11 0
v -6 -10 0
v -5 -10 0
v -6 -11 0
v -7 -11 0
v -7 -10 0
v -6 -10 0
v -7 -11 0
v -8 -11 0
v -8 -10 0
v -7 -10 0
v -8 -11 0
v -9 -11 0
v -9 -10 0
v -8 -10 0
v -9 -11 0
v -10 -11 0
v -10 -10 0
v -9 -10 0
v -10 -11 0
v -11 -11 0
v -11 -10 0
v -10 -10 0
v -11 -11 0
v -12 -11 0
v -12 -10 0
v -11 -10 0
v -12 -11 0
v -13 -11 0
v -13 -10 0
v -12 -10 0
v -13 -11 0
v -14 -11 0
v -14 -10 0
v -13 -10 0
v -14 -11 0
v -15 -11 0
v -15 -10 0
v -14 -10 0
v -15 -11 0
v -16 -11 0
v -16 -10 0
v -15 -10 0
v 0 -12 0
v -1 -12 0
v -1 -11 0
v 0 -11 0
v -1 -12 0
v -2 -12 0
v -2 -11 0
v -1 -11 0
v -2 -12 0
v -3 -12 0
v -3 -11 0
v -2 -11 0
v -3 -12 0
v -4 -12 0
v -4 -11 0
v -3 -11 0
v -4 -12 0
v -5 -12 0
v -5 -11 0
v -4 -11 0
v -5 -12 0
v -6 -12 0
v -6 -11 0
v -5 -11 0
v -6 -12 0
v -7 -12 0
v -7 -11 0
v -6 -11 0
v -7 -12 0
v -8 -12 0
v -8 -11 0
v -7 -11 0
v -8 -12 0
v -9 -12 0
v -9 -11 0
v -8 -11 0
v -9 -12 0
v -10 -12 0
v -10 -11 0
v -9 -11 0
v -10 -12 0
v -11 -12 0
v -11 -11 0
v -10 -11 0
v -11 -12 0
v -12 -12 0
v -12 -11 0
v -11 -11 0
v -12 -12 0
v -13 -12 0
v -13 -11 0
v -12 -11 0
v -13 -12 0
v -14 -12 0
v -14 -11 0
v -13 -11 0
v -14 -12 0
v -15 -12 0
v -15 -11 0
v -14 -11 0
v -15 -12 0
v -16 -12 0
v -16 -11 0
v -15 -11 0

# Texture cooridinates (Count = 11)
vt 0 0.875
vt 0.0625 0.875
vt 0.0625 0.9375
vt 0 0.9375
vt 0.0625 0.8125
vt 0.125 0.8125
vt 0.125 0.875
vt 0 0.75
vt 0.0625 0.75
vt 0 0.8125
vt 0.125 0.75

# Normal
vn 0 0 -1

# Mesh description
g Mundo_mesh_0018

# Faces
f 1/1/1 2/2/1 3/3/1 4/4/1
f 5/1/1 6/2/1 7/3/1 8/4/1
f 9/1/1 10/2/1 11/3/1 12/4/1
f 13/1/1 14/2/1 15/3/1 16/4/1
f 17/1/1 18/2/1 19/3/1 20/4/1
f 21/1/1 22/2/1 23/3/1 24/4/1
f 25/1/1 26/2/1 27/3/1 28/4/1
f 29/1/1 30/2/1 31/3/1 32/4/1
f 33/1/1 34/2/1 35/3/1 36/4/1
f 37/1/1 38/2/1 39/3/1 40/4/1
f 41/5/1 42/6/1 43/7/1 44/2/1
f 45/5/1 46/6/1 47/7/1 48/2/1
f 49/5/1 50/6/1 51/7/1 52/2/1
f 53/5/1 54/6/1 55/7/1 56/2/1
f 57/5/1 58/6/1 59/7/1 60/2/1
f 61/5/1 62/6/1 63/7/1 64/2/1
f 65/5/1 66/6/1 67/7/1 68/2/1
f 69/5/1 70/6/1 71/7/1 72/2/1
f 73/5/1 74/6/1 75/7/1 76/2/1
f 77/5/1 78/6/1 79/7/1 80/2/1
f 81/5/1 82/6/1 83/7/1 84/2/1
f 85/5/1 86/6/1 87/7/1 88/2/1
f 89/5/1 90/6/1 91/7/1 92/2/1
f 93/5/1 94/6/1 95/7/1 96/2/1
f 97/5/1 98/6/1 99/7/1 100/2/1
f 101/8/1 102/9/1 103/5/1 104/10/1
f 105/9/1 106/11/1 107/6/1 108/5/1
f 109/9/1 110/11/1 111/6/1 112/5/1
f 113/9/1 114/11/1 115/6/1 116/5/1
f 117/9/1 118/11/1 119/6/1 120/5/1
f 121/9/1 122/11/1 123/6/1 124/5/1
f 125/9/1 126/11/1 127/6/1 128/5/1
f 129/9/1 130/11/1 131/6/1 132/5/1
f 133/9/1 134/11/1 135/6/1 136/5/1
f 137/9/1 138/11/1 139/6/1 140/5/1
f 141/9/1 142/11/1 143/6/1 144/5/1
f 145/9/1 146/11/1 147/6/1 148/5/1
f 149/9/1 150/11/1 151/6/1 152/5/1
f 153/9/1 154/11/1 155/6/1 156/5/1
f 157/9/1 158/11/1 159/6/1 160/5/1
f 161/9/1 162/11/1 163/6/1 164/5/1
f 165/8/1 166/9/1 167/5/1 168/10/1
f 169/9/1 170/11/1 171/6/1 172/5/1
f 173/9/1 174/11/1 175/6/1 176/5/1
f 177/9/1 178/11/1 179/6/1 180/5/1
f 181/9/1 182/11/1 183/6/1 184/5/1
f 185/9/1 186/11/1 187/6/1 188/5/1
f 189/9/1 190/11/1 191/6/1 192/5/1
f 193/9/1 194/11/1 195/6/1 196/5/1
f 197/9/1 198/11/1 199/6/1 200/5/1
f 201/9/1 202/11/1 203/6/1 204/5/1
f 205/9/1 206/11/1 207/6/1 208/5/1
f 209/9/1 210/11/1 211/6/1 212/5/1
f 213/9/1 214/11/1 215/6/1 216/5/1
f 217/9/1 218/11/1 219/6/1 220/5/1
f 221/9/1 222/11/1 223/6/1 224/5/1
f 225/9/1 226/11/1 227/6/1 228/5/1

