# Tiled2Unity generated file. Do not modify by hand.
# Wavefront file for 'Mundo_mesh_0011.obj'

# Vertices (Count = 12)
v -2 -16 0
v -3 -16 0
v -3 -15 0
v -2 -15 0
v -10 -16 0
v -11 -16 0
v -11 -15 0
v -10 -15 0
v -15 -16 0
v -16 -16 0
v -16 -15 0
v -15 -15 0

# Texture cooridinates (Count = 4)
vt 0.5 0.375
vt 0.5625 0.375
vt 0.5625 0.4375
vt 0.5 0.4375

# Normal
vn 0 0 -1

# Mesh description
g Mundo_mesh_0011

# Faces
f 1/1/1 2/2/1 3/3/1 4/4/1
f 5/1/1 6/2/1 7/3/1 8/4/1
f 9/1/1 10/2/1 11/3/1 12/4/1

