# Tiled2Unity generated file. Do not modify by hand.
# Wavefront file for 'Dungeon-2_mesh_0011.obj'

# Vertices (Count = 40)
v -6 -1 0
v -7 -1 0
v -7 0 0
v -6 0 0
v -7 -1 0
v -8 -1 0
v -8 0 0
v -7 0 0
v -8 -1 0
v -9 -1 0
v -9 0 0
v -8 0 0
v -9 -1 0
v -10 -1 0
v -10 0 0
v -9 0 0
v -10 -1 0
v -11 -1 0
v -11 0 0
v -10 0 0
v -11 -1 0
v -12 -1 0
v -12 0 0
v -11 0 0
v -12 -1 0
v -13 -1 0
v -13 0 0
v -12 0 0
v -13 -1 0
v -14 -1 0
v -14 0 0
v -13 0 0
v -14 -1 0
v -15 -1 0
v -15 0 0
v -14 0 0
v -15 -1 0
v -16 -1 0
v -16 0 0
v -15 0 0

# Texture cooridinates (Count = 12)
vt 0.08695652 0.6666666
vt 0.1304348 0.6666666
vt 0.1304348 0.7083334
vt 0.08695652 0.7083334
vt 0.173913 0.6666666
vt 0.173913 0.7083334
vt 0.2173913 0.6666666
vt 0.2173913 0.7083334
vt 0.2608696 0.6666666
vt 0.2608696 0.7083334
vt 0.3043478 0.6666666
vt 0.3043478 0.7083334

# Normal
vn 0 0 -1

# Mesh description
g Dungeon-2_mesh_0011

# Faces
f 1/1/1 2/2/1 3/3/1 4/4/1
f 5/2/1 6/5/1 7/6/1 8/3/1
f 9/5/1 10/7/1 11/8/1 12/6/1
f 13/7/1 14/9/1 15/10/1 16/8/1
f 17/9/1 18/11/1 19/12/1 20/10/1
f 21/1/1 22/2/1 23/3/1 24/4/1
f 25/2/1 26/5/1 27/6/1 28/3/1
f 29/5/1 30/7/1 31/8/1 32/6/1
f 33/7/1 34/9/1 35/10/1 36/8/1
f 37/9/1 38/11/1 39/12/1 40/10/1

