# Tiled2Unity generated file. Do not modify by hand.
# Wavefront file for 'Dungeon-2_mesh_0003.obj'

# Vertices (Count = 392)
v -9 -3 0
v -10 -3 0
v -10 -2 0
v -9 -2 0
v -10 -3 0
v -11 -3 0
v -11 -2 0
v -10 -2 0
v -11 -3 0
v -12 -3 0
v -12 -2 0
v -11 -2 0
v -12 -3 0
v -13 -3 0
v -13 -2 0
v -12 -2 0
v -13 -3 0
v -14 -3 0
v -14 -2 0
v -13 -2 0
v -14 -3 0
v -15 -3 0
v -15 -2 0
v -14 -2 0
v -15 -3 0
v -16 -3 0
v -16 -2 0
v -15 -2 0
v -9 -4 0
v -10 -4 0
v -10 -3 0
v -9 -3 0
v -10 -4 0
v -11 -4 0
v -11 -3 0
v -10 -3 0
v -11 -4 0
v -12 -4 0
v -12 -3 0
v -11 -3 0
v -12 -4 0
v -13 -4 0
v -13 -3 0
v -12 -3 0
v -13 -4 0
v -14 -4 0
v -14 -3 0
v -13 -3 0
v -14 -4 0
v -15 -4 0
v -15 -3 0
v -14 -3 0
v -15 -4 0
v -16 -4 0
v -16 -3 0
v -15 -3 0
v -9 -5 0
v -10 -5 0
v -10 -4 0
v -9 -4 0
v -10 -5 0
v -11 -5 0
v -11 -4 0
v -10 -4 0
v -11 -5 0
v -12 -5 0
v -12 -4 0
v -11 -4 0
v -12 -5 0
v -13 -5 0
v -13 -4 0
v -12 -4 0
v -13 -5 0
v -14 -5 0
v -14 -4 0
v -13 -4 0
v -14 -5 0
v -15 -5 0
v -15 -4 0
v -14 -4 0
v -15 -5 0
v -16 -5 0
v -16 -4 0
v -15 -4 0
v -9 -6 0
v -10 -6 0
v -10 -5 0
v -9 -5 0
v -10 -6 0
v -11 -6 0
v -11 -5 0
v -10 -5 0
v -11 -6 0
v -12 -6 0
v -12 -5 0
v -11 -5 0
v -12 -6 0
v -13 -6 0
v -13 -5 0
v -12 -5 0
v -13 -6 0
v -14 -6 0
v -14 -5 0
v -13 -5 0
v -14 -6 0
v -15 -6 0
v -15 -5 0
v -14 -5 0
v -15 -6 0
v -16 -6 0
v -16 -5 0
v -15 -5 0
v -9 -7 0
v -10 -7 0
v -10 -6 0
v -9 -6 0
v -10 -7 0
v -11 -7 0
v -11 -6 0
v -10 -6 0
v -11 -7 0
v -12 -7 0
v -12 -6 0
v -11 -6 0
v -12 -7 0
v -13 -7 0
v -13 -6 0
v -12 -6 0
v -13 -7 0
v -14 -7 0
v -14 -6 0
v -13 -6 0
v -14 -7 0
v -15 -7 0
v -15 -6 0
v -14 -6 0
v -15 -7 0
v -16 -7 0
v -16 -6 0
v -15 -6 0
v -9 -8 0
v -10 -8 0
v -10 -7 0
v -9 -7 0
v -10 -8 0
v -11 -8 0
v -11 -7 0
v -10 -7 0
v -11 -8 0
v -12 -8 0
v -12 -7 0
v -11 -7 0
v -12 -8 0
v -13 -8 0
v -13 -7 0
v -12 -7 0
v -13 -8 0
v -14 -8 0
v -14 -7 0
v -13 -7 0
v -14 -8 0
v -15 -8 0
v -15 -7 0
v -14 -7 0
v -15 -8 0
v -16 -8 0
v -16 -7 0
v -15 -7 0
v -9 -9 0
v -10 -9 0
v -10 -8 0
v -9 -8 0
v -10 -9 0
v -11 -9 0
v -11 -8 0
v -10 -8 0
v -11 -9 0
v -12 -9 0
v -12 -8 0
v -11 -8 0
v -12 -9 0
v -13 -9 0
v -13 -8 0
v -12 -8 0
v -13 -9 0
v -14 -9 0
v -14 -8 0
v -13 -8 0
v -14 -9 0
v -15 -9 0
v -15 -8 0
v -14 -8 0
v -15 -9 0
v -16 -9 0
v -16 -8 0
v -15 -8 0
v -9 -10 0
v -10 -10 0
v -10 -9 0
v -9 -9 0
v -10 -10 0
v -11 -10 0
v -11 -9 0
v -10 -9 0
v -11 -10 0
v -12 -10 0
v -12 -9 0
v -11 -9 0
v -12 -10 0
v -13 -10 0
v -13 -9 0
v -12 -9 0
v -13 -10 0
v -14 -10 0
v -14 -9 0
v -13 -9 0
v -14 -10 0
v -15 -10 0
v -15 -9 0
v -14 -9 0
v -15 -10 0
v -16 -10 0
v -16 -9 0
v -15 -9 0
v -9 -11 0
v -10 -11 0
v -10 -10 0
v -9 -10 0
v -10 -11 0
v -11 -11 0
v -11 -10 0
v -10 -10 0
v -11 -11 0
v -12 -11 0
v -12 -10 0
v -11 -10 0
v -12 -11 0
v -13 -11 0
v -13 -10 0
v -12 -10 0
v -13 -11 0
v -14 -11 0
v -14 -10 0
v -13 -10 0
v -14 -11 0
v -15 -11 0
v -15 -10 0
v -14 -10 0
v -15 -11 0
v -16 -11 0
v -16 -10 0
v -15 -10 0
v -9 -12 0
v -10 -12 0
v -10 -11 0
v -9 -11 0
v -10 -12 0
v -11 -12 0
v -11 -11 0
v -10 -11 0
v -11 -12 0
v -12 -12 0
v -12 -11 0
v -11 -11 0
v -12 -12 0
v -13 -12 0
v -13 -11 0
v -12 -11 0
v -13 -12 0
v -14 -12 0
v -14 -11 0
v -13 -11 0
v -14 -12 0
v -15 -12 0
v -15 -11 0
v -14 -11 0
v -15 -12 0
v -16 -12 0
v -16 -11 0
v -15 -11 0
v -9 -13 0
v -10 -13 0
v -10 -12 0
v -9 -12 0
v -10 -13 0
v -11 -13 0
v -11 -12 0
v -10 -12 0
v -11 -13 0
v -12 -13 0
v -12 -12 0
v -11 -12 0
v -12 -13 0
v -13 -13 0
v -13 -12 0
v -12 -12 0
v -13 -13 0
v -14 -13 0
v -14 -12 0
v -13 -12 0
v -14 -13 0
v -15 -13 0
v -15 -12 0
v -14 -12 0
v -15 -13 0
v -16 -13 0
v -16 -12 0
v -15 -12 0
v -9 -14 0
v -10 -14 0
v -10 -13 0
v -9 -13 0
v -10 -14 0
v -11 -14 0
v -11 -13 0
v -10 -13 0
v -11 -14 0
v -12 -14 0
v -12 -13 0
v -11 -13 0
v -12 -14 0
v -13 -14 0
v -13 -13 0
v -12 -13 0
v -13 -14 0
v -14 -14 0
v -14 -13 0
v -13 -13 0
v -14 -14 0
v -15 -14 0
v -15 -13 0
v -14 -13 0
v -15 -14 0
v -16 -14 0
v -16 -13 0
v -15 -13 0
v -9 -15 0
v -10 -15 0
v -10 -14 0
v -9 -14 0
v -10 -15 0
v -11 -15 0
v -11 -14 0
v -10 -14 0
v -11 -15 0
v -12 -15 0
v -12 -14 0
v -11 -14 0
v -12 -15 0
v -13 -15 0
v -13 -14 0
v -12 -14 0
v -13 -15 0
v -14 -15 0
v -14 -14 0
v -13 -14 0
v -14 -15 0
v -15 -15 0
v -15 -14 0
v -14 -14 0
v -15 -15 0
v -16 -15 0
v -16 -14 0
v -15 -14 0
v -9 -16 0
v -10 -16 0
v -10 -15 0
v -9 -15 0
v -10 -16 0
v -11 -16 0
v -11 -15 0
v -10 -15 0
v -11 -16 0
v -12 -16 0
v -12 -15 0
v -11 -15 0
v -12 -16 0
v -13 -16 0
v -13 -15 0
v -12 -15 0
v -13 -16 0
v -14 -16 0
v -14 -15 0
v -13 -15 0
v -14 -16 0
v -15 -16 0
v -15 -15 0
v -14 -15 0
v -15 -16 0
v -16 -16 0
v -16 -15 0
v -15 -15 0

# Texture cooridinates (Count = 21)
vt 0.08695652 0.875
vt 0.1304348 0.875
vt 0.1304348 0.9166667
vt 0.08695652 0.9166667
vt 0.173913 0.875
vt 0.173913 0.9166667
vt 0.08695652 0.75
vt 0.1304348 0.75
vt 0.1304348 0.7916667
vt 0.08695652 0.7916667
vt 0.173913 0.7916667
vt 0.2173913 0.7916667
vt 0.2173913 0.8333333
vt 0.173913 0.8333333
vt 0.1304348 0.8333333
vt 0.2608696 0.7916667
vt 0.2608696 0.8333333
vt 0.173913 0.75
vt 0.2173913 0.75
vt 0.2173913 0.875
vt 0.2608696 0.875

# Normal
vn 0 0 -1

# Mesh description
g Dungeon-2_mesh_0003

# Faces
f 1/1/1 2/2/1 3/3/1 4/4/1
f 5/2/1 6/5/1 7/6/1 8/3/1
f 9/2/1 10/5/1 11/6/1 12/3/1
f 13/2/1 14/5/1 15/6/1 16/3/1
f 17/2/1 18/5/1 19/6/1 20/3/1
f 21/2/1 22/5/1 23/6/1 24/3/1
f 25/2/1 26/5/1 27/6/1 28/3/1
f 29/7/1 30/8/1 31/9/1 32/10/1
f 33/11/1 34/12/1 35/13/1 36/14/1
f 37/9/1 38/11/1 39/14/1 40/15/1
f 41/11/1 42/12/1 43/13/1 44/14/1
f 45/12/1 46/16/1 47/17/1 48/13/1
f 49/12/1 50/16/1 51/17/1 52/13/1
f 53/12/1 54/16/1 55/17/1 56/13/1
f 57/7/1 58/8/1 59/9/1 60/10/1
f 61/18/1 62/19/1 63/12/1 64/11/1
f 65/15/1 66/14/1 67/5/1 68/2/1
f 69/15/1 70/14/1 71/5/1 72/2/1
f 73/15/1 74/14/1 75/5/1 76/2/1
f 77/15/1 78/14/1 79/5/1 80/2/1
f 81/15/1 82/14/1 83/5/1 84/2/1
f 85/7/1 86/8/1 87/9/1 88/10/1
f 89/18/1 90/19/1 91/12/1 92/11/1
f 93/9/1 94/11/1 95/14/1 96/15/1
f 97/9/1 98/11/1 99/14/1 100/15/1
f 101/9/1 102/11/1 103/14/1 104/15/1
f 105/9/1 106/11/1 107/14/1 108/15/1
f 109/9/1 110/11/1 111/14/1 112/15/1
f 113/7/1 114/8/1 115/9/1 116/10/1
f 117/18/1 118/19/1 119/12/1 120/11/1
f 121/8/1 122/18/1 123/11/1 124/9/1
f 125/15/1 126/14/1 127/5/1 128/2/1
f 129/14/1 130/13/1 131/20/1 132/5/1
f 133/13/1 134/17/1 135/21/1 136/20/1
f 137/13/1 138/17/1 139/21/1 140/20/1
f 141/7/1 142/8/1 143/9/1 144/10/1
f 145/18/1 146/19/1 147/12/1 148/11/1
f 149/15/1 150/14/1 151/5/1 152/2/1
f 153/14/1 154/13/1 155/20/1 156/5/1
f 157/13/1 158/17/1 159/21/1 160/20/1
f 161/13/1 162/17/1 163/21/1 164/20/1
f 165/12/1 166/16/1 167/17/1 168/13/1
f 169/7/1 170/8/1 171/9/1 172/10/1
f 173/18/1 174/19/1 175/12/1 176/11/1
f 177/9/1 178/11/1 179/14/1 180/15/1
f 181/15/1 182/14/1 183/5/1 184/2/1
f 185/15/1 186/14/1 187/5/1 188/2/1
f 189/15/1 190/14/1 191/5/1 192/2/1
f 193/14/1 194/13/1 195/20/1 196/5/1
f 197/7/1 198/8/1 199/9/1 200/10/1
f 201/18/1 202/19/1 203/12/1 204/11/1
f 205/8/1 206/18/1 207/11/1 208/9/1
f 209/9/1 210/11/1 211/14/1 212/15/1
f 213/15/1 214/14/1 215/5/1 216/2/1
f 217/14/1 218/13/1 219/20/1 220/5/1
f 221/13/1 222/17/1 223/21/1 224/20/1
f 225/7/1 226/8/1 227/9/1 228/10/1
f 229/18/1 230/19/1 231/12/1 232/11/1
f 233/15/1 234/14/1 235/5/1 236/2/1
f 237/14/1 238/13/1 239/20/1 240/5/1
f 241/13/1 242/17/1 243/21/1 244/20/1
f 245/13/1 246/17/1 247/21/1 248/20/1
f 249/12/1 250/16/1 251/17/1 252/13/1
f 253/7/1 254/8/1 255/9/1 256/10/1
f 257/18/1 258/19/1 259/12/1 260/11/1
f 261/15/1 262/14/1 263/5/1 264/2/1
f 265/14/1 266/13/1 267/20/1 268/5/1
f 269/13/1 270/17/1 271/21/1 272/20/1
f 273/13/1 274/17/1 275/21/1 276/20/1
f 277/13/1 278/17/1 279/21/1 280/20/1
f 281/7/1 282/8/1 283/9/1 284/10/1
f 285/15/1 286/14/1 287/5/1 288/2/1
f 289/15/1 290/14/1 291/5/1 292/2/1
f 293/15/1 294/14/1 295/5/1 296/2/1
f 297/14/1 298/13/1 299/20/1 300/5/1
f 301/13/1 302/17/1 303/21/1 304/20/1
f 305/15/1 306/14/1 307/5/1 308/2/1
f 309/15/1 310/14/1 311/5/1 312/2/1
f 313/9/1 314/11/1 315/14/1 316/15/1
f 317/9/1 318/11/1 319/14/1 320/15/1
f 321/15/1 322/14/1 323/5/1 324/2/1
f 325/15/1 326/14/1 327/5/1 328/2/1
f 329/15/1 330/14/1 331/5/1 332/2/1
f 333/15/1 334/14/1 335/5/1 336/2/1
f 337/15/1 338/14/1 339/5/1 340/2/1
f 341/8/1 342/18/1 343/11/1 344/9/1
f 345/8/1 346/18/1 347/11/1 348/9/1
f 349/9/1 350/11/1 351/14/1 352/15/1
f 353/9/1 354/11/1 355/14/1 356/15/1
f 357/15/1 358/14/1 359/5/1 360/2/1
f 361/14/1 362/13/1 363/20/1 364/5/1
f 365/15/1 366/14/1 367/5/1 368/2/1
f 369/14/1 370/13/1 371/20/1 372/5/1
f 373/13/1 374/17/1 375/21/1 376/20/1
f 377/15/1 378/14/1 379/5/1 380/2/1
f 381/14/1 382/13/1 383/20/1 384/5/1
f 385/13/1 386/17/1 387/21/1 388/20/1
f 389/13/1 390/17/1 391/21/1 392/20/1

