# Tiled2Unity generated file. Do not modify by hand.
# Wavefront file for 'Dungeon-2_mesh_0027.obj'

# Vertices (Count = 40)
v 0 -1 0
v -1 -1 0
v -1 0 0
v 0 0 0
v -1 -1 0
v -2 -1 0
v -2 0 0
v -1 0 0
v -2 -1 0
v -3 -1 0
v -3 0 0
v -2 0 0
v -3 -1 0
v -4 -1 0
v -4 0 0
v -3 0 0
v -4 -1 0
v -5 -1 0
v -5 0 0
v -4 0 0
v -5 -1 0
v -6 -1 0
v -6 0 0
v -5 0 0
v -6 -1 0
v -7 -1 0
v -7 0 0
v -6 0 0
v -7 -1 0
v -8 -1 0
v -8 0 0
v -7 0 0
v -8 -1 0
v -9 -1 0
v -9 0 0
v -8 0 0
v -8 -2 0
v -9 -2 0
v -9 -1 0
v -8 -1 0

# Texture cooridinates (Count = 12)
vt 0.1304348 0.7916667
vt 0.173913 0.7916667
vt 0.173913 0.8333333
vt 0.1304348 0.8333333
vt 0.2173913 0.7916667
vt 0.2173913 0.8333333
vt 0.2173913 0.875
vt 0.173913 0.875
vt 0.173913 0.6666666
vt 0.2173913 0.6666666
vt 0.2173913 0.7083334
vt 0.173913 0.7083334

# Normal
vn 0 0 -1

# Mesh description
g Dungeon-2_mesh_0027

# Faces
f 1/1/1 2/2/1 3/3/1 4/4/1
f 5/2/1 6/5/1 7/6/1 8/3/1
f 9/1/1 10/2/1 11/3/1 12/4/1
f 13/1/1 14/2/1 15/3/1 16/4/1
f 17/1/1 18/2/1 19/3/1 20/4/1
f 21/1/1 22/2/1 23/3/1 24/4/1
f 25/1/1 26/2/1 27/3/1 28/4/1
f 29/2/1 30/5/1 31/6/1 32/3/1
f 33/3/1 34/6/1 35/7/1 36/8/1
f 37/9/1 38/10/1 39/11/1 40/12/1

