# Tiled2Unity generated file. Do not modify by hand.
# Wavefront file for 'Dungeon-2_mesh_0010.obj'

# Vertices (Count = 496)
v -1 -1 0
v -2 -1 0
v -2 0 0
v -1 0 0
v -1 -2 0
v -2 -2 0
v -2 -1 0
v -1 -1 0
v -1 -3 0
v -2 -3 0
v -2 -2 0
v -1 -2 0
v -1 -4 0
v -2 -4 0
v -2 -3 0
v -1 -3 0
v 0 -5 0
v -1 -5 0
v -1 -4 0
v 0 -4 0
v -1 -5 0
v -2 -5 0
v -2 -4 0
v -1 -4 0
v -2 -5 0
v -3 -5 0
v -3 -4 0
v -2 -4 0
v -3 -5 0
v -4 -5 0
v -4 -4 0
v -3 -4 0
v -4 -5 0
v -5 -5 0
v -5 -4 0
v -4 -4 0
v -5 -5 0
v -6 -5 0
v -6 -4 0
v -5 -4 0
v -6 -5 0
v -7 -5 0
v -7 -4 0
v -6 -4 0
v -7 -5 0
v -8 -5 0
v -8 -4 0
v -7 -4 0
v -8 -5 0
v -9 -5 0
v -9 -4 0
v -8 -4 0
v -9 -5 0
v -10 -5 0
v -10 -4 0
v -9 -4 0
v 0 -6 0
v -1 -6 0
v -1 -5 0
v 0 -5 0
v -1 -6 0
v -2 -6 0
v -2 -5 0
v -1 -5 0
v -2 -6 0
v -3 -6 0
v -3 -5 0
v -2 -5 0
v -3 -6 0
v -4 -6 0
v -4 -5 0
v -3 -5 0
v -4 -6 0
v -5 -6 0
v -5 -5 0
v -4 -5 0
v -5 -6 0
v -6 -6 0
v -6 -5 0
v -5 -5 0
v -6 -6 0
v -7 -6 0
v -7 -5 0
v -6 -5 0
v -7 -6 0
v -8 -6 0
v -8 -5 0
v -7 -5 0
v -8 -6 0
v -9 -6 0
v -9 -5 0
v -8 -5 0
v -9 -6 0
v -10 -6 0
v -10 -5 0
v -9 -5 0
v 0 -7 0
v -1 -7 0
v -1 -6 0
v 0 -6 0
v -1 -7 0
v -2 -7 0
v -2 -6 0
v -1 -6 0
v -2 -7 0
v -3 -7 0
v -3 -6 0
v -2 -6 0
v -3 -7 0
v -4 -7 0
v -4 -6 0
v -3 -6 0
v -4 -7 0
v -5 -7 0
v -5 -6 0
v -4 -6 0
v -5 -7 0
v -6 -7 0
v -6 -6 0
v -5 -6 0
v -6 -7 0
v -7 -7 0
v -7 -6 0
v -6 -6 0
v -7 -7 0
v -8 -7 0
v -8 -6 0
v -7 -6 0
v -8 -7 0
v -9 -7 0
v -9 -6 0
v -8 -6 0
v -9 -7 0
v -10 -7 0
v -10 -6 0
v -9 -6 0
v 0 -8 0
v -1 -8 0
v -1 -7 0
v 0 -7 0
v -1 -8 0
v -2 -8 0
v -2 -7 0
v -1 -7 0
v -2 -8 0
v -3 -8 0
v -3 -7 0
v -2 -7 0
v -3 -8 0
v -4 -8 0
v -4 -7 0
v -3 -7 0
v -4 -8 0
v -5 -8 0
v -5 -7 0
v -4 -7 0
v -5 -8 0
v -6 -8 0
v -6 -7 0
v -5 -7 0
v -6 -8 0
v -7 -8 0
v -7 -7 0
v -6 -7 0
v -7 -8 0
v -8 -8 0
v -8 -7 0
v -7 -7 0
v -8 -8 0
v -9 -8 0
v -9 -7 0
v -8 -7 0
v -9 -8 0
v -10 -8 0
v -10 -7 0
v -9 -7 0
v 0 -9 0
v -1 -9 0
v -1 -8 0
v 0 -8 0
v -1 -9 0
v -2 -9 0
v -2 -8 0
v -1 -8 0
v -2 -9 0
v -3 -9 0
v -3 -8 0
v -2 -8 0
v -3 -9 0
v -4 -9 0
v -4 -8 0
v -3 -8 0
v -4 -9 0
v -5 -9 0
v -5 -8 0
v -4 -8 0
v -5 -9 0
v -6 -9 0
v -6 -8 0
v -5 -8 0
v -6 -9 0
v -7 -9 0
v -7 -8 0
v -6 -8 0
v -7 -9 0
v -8 -9 0
v -8 -8 0
v -7 -8 0
v -8 -9 0
v -9 -9 0
v -9 -8 0
v -8 -8 0
v -9 -9 0
v -10 -9 0
v -10 -8 0
v -9 -8 0
v 0 -10 0
v -1 -10 0
v -1 -9 0
v 0 -9 0
v -1 -10 0
v -2 -10 0
v -2 -9 0
v -1 -9 0
v -2 -10 0
v -3 -10 0
v -3 -9 0
v -2 -9 0
v -3 -10 0
v -4 -10 0
v -4 -9 0
v -3 -9 0
v -4 -10 0
v -5 -10 0
v -5 -9 0
v -4 -9 0
v -5 -10 0
v -6 -10 0
v -6 -9 0
v -5 -9 0
v -6 -10 0
v -7 -10 0
v -7 -9 0
v -6 -9 0
v -7 -10 0
v -8 -10 0
v -8 -9 0
v -7 -9 0
v -8 -10 0
v -9 -10 0
v -9 -9 0
v -8 -9 0
v -9 -10 0
v -10 -10 0
v -10 -9 0
v -9 -9 0
v 0 -11 0
v -1 -11 0
v -1 -10 0
v 0 -10 0
v -1 -11 0
v -2 -11 0
v -2 -10 0
v -1 -10 0
v -2 -11 0
v -3 -11 0
v -3 -10 0
v -2 -10 0
v -3 -11 0
v -4 -11 0
v -4 -10 0
v -3 -10 0
v -4 -11 0
v -5 -11 0
v -5 -10 0
v -4 -10 0
v -5 -11 0
v -6 -11 0
v -6 -10 0
v -5 -10 0
v -6 -11 0
v -7 -11 0
v -7 -10 0
v -6 -10 0
v -7 -11 0
v -8 -11 0
v -8 -10 0
v -7 -10 0
v -8 -11 0
v -9 -11 0
v -9 -10 0
v -8 -10 0
v -9 -11 0
v -10 -11 0
v -10 -10 0
v -9 -10 0
v 0 -12 0
v -1 -12 0
v -1 -11 0
v 0 -11 0
v -1 -12 0
v -2 -12 0
v -2 -11 0
v -1 -11 0
v -2 -12 0
v -3 -12 0
v -3 -11 0
v -2 -11 0
v -3 -12 0
v -4 -12 0
v -4 -11 0
v -3 -11 0
v -4 -12 0
v -5 -12 0
v -5 -11 0
v -4 -11 0
v -5 -12 0
v -6 -12 0
v -6 -11 0
v -5 -11 0
v -6 -12 0
v -7 -12 0
v -7 -11 0
v -6 -11 0
v -7 -12 0
v -8 -12 0
v -8 -11 0
v -7 -11 0
v -8 -12 0
v -9 -12 0
v -9 -11 0
v -8 -11 0
v -9 -12 0
v -10 -12 0
v -10 -11 0
v -9 -11 0
v 0 -13 0
v -1 -13 0
v -1 -12 0
v 0 -12 0
v -1 -13 0
v -2 -13 0
v -2 -12 0
v -1 -12 0
v -2 -13 0
v -3 -13 0
v -3 -12 0
v -2 -12 0
v -3 -13 0
v -4 -13 0
v -4 -12 0
v -3 -12 0
v -4 -13 0
v -5 -13 0
v -5 -12 0
v -4 -12 0
v -5 -13 0
v -6 -13 0
v -6 -12 0
v -5 -12 0
v -6 -13 0
v -7 -13 0
v -7 -12 0
v -6 -12 0
v -7 -13 0
v -8 -13 0
v -8 -12 0
v -7 -12 0
v -8 -13 0
v -9 -13 0
v -9 -12 0
v -8 -12 0
v -9 -13 0
v -10 -13 0
v -10 -12 0
v -9 -12 0
v 0 -14 0
v -1 -14 0
v -1 -13 0
v 0 -13 0
v -1 -14 0
v -2 -14 0
v -2 -13 0
v -1 -13 0
v -2 -14 0
v -3 -14 0
v -3 -13 0
v -2 -13 0
v -3 -14 0
v -4 -14 0
v -4 -13 0
v -3 -13 0
v -4 -14 0
v -5 -14 0
v -5 -13 0
v -4 -13 0
v -5 -14 0
v -6 -14 0
v -6 -13 0
v -5 -13 0
v -6 -14 0
v -7 -14 0
v -7 -13 0
v -6 -13 0
v -7 -14 0
v -8 -14 0
v -8 -13 0
v -7 -13 0
v -8 -14 0
v -9 -14 0
v -9 -13 0
v -8 -13 0
v -9 -14 0
v -10 -14 0
v -10 -13 0
v -9 -13 0
v 0 -15 0
v -1 -15 0
v -1 -14 0
v 0 -14 0
v -1 -15 0
v -2 -15 0
v -2 -14 0
v -1 -14 0
v -2 -15 0
v -3 -15 0
v -3 -14 0
v -2 -14 0
v -3 -15 0
v -4 -15 0
v -4 -14 0
v -3 -14 0
v -4 -15 0
v -5 -15 0
v -5 -14 0
v -4 -14 0
v -5 -15 0
v -6 -15 0
v -6 -14 0
v -5 -14 0
v -6 -15 0
v -7 -15 0
v -7 -14 0
v -6 -14 0
v -7 -15 0
v -8 -15 0
v -8 -14 0
v -7 -14 0
v -8 -15 0
v -9 -15 0
v -9 -14 0
v -8 -14 0
v -9 -15 0
v -10 -15 0
v -10 -14 0
v -9 -14 0
v 0 -16 0
v -1 -16 0
v -1 -15 0
v 0 -15 0
v -1 -16 0
v -2 -16 0
v -2 -15 0
v -1 -15 0
v -2 -16 0
v -3 -16 0
v -3 -15 0
v -2 -15 0
v -3 -16 0
v -4 -16 0
v -4 -15 0
v -3 -15 0
v -4 -16 0
v -5 -16 0
v -5 -15 0
v -4 -15 0
v -5 -16 0
v -6 -16 0
v -6 -15 0
v -5 -15 0
v -6 -16 0
v -7 -16 0
v -7 -15 0
v -6 -15 0
v -7 -16 0
v -8 -16 0
v -8 -15 0
v -7 -15 0
v -8 -16 0
v -9 -16 0
v -9 -15 0
v -8 -15 0
v -9 -16 0
v -10 -16 0
v -10 -15 0
v -9 -15 0

# Texture cooridinates (Count = 28)
vt 0.2608696 0.7916667
vt 0.3043478 0.7916667
vt 0.3043478 0.8333333
vt 0.2608696 0.8333333
vt 0.173913 0.7916667
vt 0.2173913 0.7916667
vt 0.2173913 0.8333333
vt 0.173913 0.8333333
vt 0.1304348 0.875
vt 0.173913 0.875
vt 0.173913 0.9166667
vt 0.1304348 0.9166667
vt 0.2608696 0.875
vt 0.3043478 0.875
vt 0.3043478 0.9166667
vt 0.2608696 0.9166667
vt 0.1304348 0.7916667
vt 0.1304348 0.8333333
vt 0.2173913 0.875
vt 0.2608696 0.75
vt 0.3043478 0.75
vt 0.2173913 0.75
vt 0.1304348 0.75
vt 0.173913 0.75
vt 0.1304348 0.7083334
vt 0.173913 0.7083334
vt 0.2608696 0.7083334
vt 0.3043478 0.7083334

# Normal
vn 0 0 -1

# Mesh description
g Dungeon-2_mesh_0010

# Faces
f 1/1/1 2/2/1 3/3/1 4/4/1
f 5/1/1 6/2/1 7/3/1 8/4/1
f 9/1/1 10/2/1 11/3/1 12/4/1
f 13/1/1 14/2/1 15/3/1 16/4/1
f 17/5/1 18/6/1 19/7/1 20/8/1
f 21/5/1 22/6/1 23/7/1 24/8/1
f 25/9/1 26/10/1 27/11/1 28/12/1
f 29/9/1 30/10/1 31/11/1 32/12/1
f 33/9/1 34/10/1 35/11/1 36/12/1
f 37/9/1 38/10/1 39/11/1 40/12/1
f 41/9/1 42/10/1 43/11/1 44/12/1
f 45/9/1 46/10/1 47/11/1 48/12/1
f 49/9/1 50/10/1 51/11/1 52/12/1
f 53/13/1 54/14/1 55/15/1 56/16/1
f 57/17/1 58/5/1 59/8/1 60/18/1
f 61/17/1 62/5/1 63/8/1 64/18/1
f 65/17/1 66/5/1 67/8/1 68/18/1
f 69/17/1 70/5/1 71/8/1 72/18/1
f 73/17/1 74/5/1 75/8/1 76/18/1
f 77/17/1 78/5/1 79/8/1 80/18/1
f 81/17/1 82/5/1 83/8/1 84/18/1
f 85/18/1 86/8/1 87/10/1 88/9/1
f 89/8/1 90/7/1 91/19/1 92/10/1
f 93/20/1 94/21/1 95/2/1 96/1/1
f 97/18/1 98/8/1 99/10/1 100/9/1
f 101/8/1 102/7/1 103/19/1 104/10/1
f 105/7/1 106/4/1 107/13/1 108/19/1
f 109/7/1 110/4/1 111/13/1 112/19/1
f 113/7/1 114/4/1 115/13/1 116/19/1
f 117/7/1 118/4/1 119/13/1 120/19/1
f 121/7/1 122/4/1 123/13/1 124/19/1
f 125/18/1 126/8/1 127/10/1 128/9/1
f 129/8/1 130/7/1 131/19/1 132/10/1
f 133/20/1 134/21/1 135/2/1 136/1/1
f 137/18/1 138/8/1 139/10/1 140/9/1
f 141/18/1 142/8/1 143/10/1 144/9/1
f 145/18/1 146/8/1 147/10/1 148/9/1
f 149/18/1 150/8/1 151/10/1 152/9/1
f 153/8/1 154/7/1 155/19/1 156/10/1
f 157/7/1 158/4/1 159/13/1 160/19/1
f 161/6/1 162/1/1 163/4/1 164/7/1
f 165/18/1 166/8/1 167/10/1 168/9/1
f 169/8/1 170/7/1 171/19/1 172/10/1
f 173/20/1 174/21/1 175/2/1 176/1/1
f 177/17/1 178/5/1 179/8/1 180/18/1
f 181/17/1 182/5/1 183/8/1 184/18/1
f 185/17/1 186/5/1 187/8/1 188/18/1
f 189/18/1 190/8/1 191/10/1 192/9/1
f 193/8/1 194/7/1 195/19/1 196/10/1
f 197/7/1 198/4/1 199/13/1 200/19/1
f 201/22/1 202/20/1 203/1/1 204/6/1
f 205/18/1 206/8/1 207/10/1 208/9/1
f 209/8/1 210/7/1 211/19/1 212/10/1
f 213/20/1 214/21/1 215/2/1 216/1/1
f 217/23/1 218/24/1 219/5/1 220/17/1
f 221/23/1 222/24/1 223/5/1 224/17/1
f 225/23/1 226/24/1 227/5/1 228/17/1
f 229/17/1 230/5/1 231/8/1 232/18/1
f 233/5/1 234/6/1 235/7/1 236/8/1
f 237/6/1 238/1/1 239/4/1 240/7/1
f 241/22/1 242/20/1 243/1/1 244/6/1
f 245/18/1 246/8/1 247/10/1 248/9/1
f 249/8/1 250/7/1 251/19/1 252/10/1
f 253/20/1 254/21/1 255/2/1 256/1/1
f 257/22/1 258/20/1 259/1/1 260/6/1
f 261/18/1 262/8/1 263/10/1 264/9/1
f 265/18/1 266/8/1 267/10/1 268/9/1
f 269/23/1 270/24/1 271/5/1 272/17/1
f 273/24/1 274/22/1 275/6/1 276/5/1
f 277/22/1 278/20/1 279/1/1 280/6/1
f 281/22/1 282/20/1 283/1/1 284/6/1
f 285/18/1 286/8/1 287/10/1 288/9/1
f 289/8/1 290/7/1 291/19/1 292/10/1
f 293/20/1 294/21/1 295/2/1 296/1/1
f 297/17/1 298/5/1 299/8/1 300/18/1
f 301/17/1 302/5/1 303/8/1 304/18/1
f 305/17/1 306/5/1 307/8/1 308/18/1
f 309/17/1 310/5/1 311/8/1 312/18/1
f 313/23/1 314/24/1 315/5/1 316/17/1
f 317/24/1 318/22/1 319/6/1 320/5/1
f 321/22/1 322/20/1 323/1/1 324/6/1
f 325/18/1 326/8/1 327/10/1 328/9/1
f 329/8/1 330/7/1 331/19/1 332/10/1
f 333/20/1 334/21/1 335/2/1 336/1/1
f 337/23/1 338/24/1 339/5/1 340/17/1
f 341/23/1 342/24/1 343/5/1 344/17/1
f 345/23/1 346/24/1 347/5/1 348/17/1
f 349/23/1 350/24/1 351/5/1 352/17/1
f 353/23/1 354/24/1 355/5/1 356/17/1
f 357/24/1 358/22/1 359/6/1 360/5/1
f 361/22/1 362/20/1 363/1/1 364/6/1
f 365/18/1 366/8/1 367/10/1 368/9/1
f 369/8/1 370/7/1 371/19/1 372/10/1
f 373/20/1 374/21/1 375/2/1 376/1/1
f 377/7/1 378/4/1 379/13/1 380/19/1
f 381/7/1 382/4/1 383/13/1 384/19/1
f 385/7/1 386/4/1 387/13/1 388/19/1
f 389/7/1 390/4/1 391/13/1 392/19/1
f 393/7/1 394/4/1 395/13/1 396/19/1
f 397/7/1 398/4/1 399/13/1 400/19/1
f 401/7/1 402/4/1 403/13/1 404/19/1
f 405/7/1 406/4/1 407/13/1 408/19/1
f 409/7/1 410/4/1 411/13/1 412/19/1
f 413/20/1 414/21/1 415/2/1 416/1/1
f 417/6/1 418/1/1 419/4/1 420/7/1
f 421/6/1 422/1/1 423/4/1 424/7/1
f 425/6/1 426/1/1 427/4/1 428/7/1
f 429/6/1 430/1/1 431/4/1 432/7/1
f 433/6/1 434/1/1 435/4/1 436/7/1
f 437/6/1 438/1/1 439/4/1 440/7/1
f 441/6/1 442/1/1 443/4/1 444/7/1
f 445/6/1 446/1/1 447/4/1 448/7/1
f 449/6/1 450/1/1 451/4/1 452/7/1
f 453/20/1 454/21/1 455/2/1 456/1/1
f 457/25/1 458/26/1 459/24/1 460/23/1
f 461/25/1 462/26/1 463/24/1 464/23/1
f 465/25/1 466/26/1 467/24/1 468/23/1
f 469/25/1 470/26/1 471/24/1 472/23/1
f 473/25/1 474/26/1 475/24/1 476/23/1
f 477/25/1 478/26/1 479/24/1 480/23/1
f 481/25/1 482/26/1 483/24/1 484/23/1
f 485/25/1 486/26/1 487/24/1 488/23/1
f 489/25/1 490/26/1 491/24/1 492/23/1
f 493/27/1 494/28/1 495/21/1 496/20/1

