# Tiled2Unity generated file. Do not modify by hand.
# Wavefront file for 'Dungeon-2_mesh_0017.obj'

# Vertices (Count = 196)
v -13 -1 0
v -14 -1 0
v -14 0 0
v -13 0 0
v -14 -1 0
v -15 -1 0
v -15 0 0
v -14 0 0
v -15 -1 0
v -16 -1 0
v -16 0 0
v -15 0 0
v -13 -2 0
v -14 -2 0
v -14 -1 0
v -13 -1 0
v -14 -2 0
v -15 -2 0
v -15 -1 0
v -14 -1 0
v -15 -2 0
v -16 -2 0
v -16 -1 0
v -15 -1 0
v -13 -3 0
v -14 -3 0
v -14 -2 0
v -13 -2 0
v -14 -3 0
v -15 -3 0
v -15 -2 0
v -14 -2 0
v -15 -3 0
v -16 -3 0
v -16 -2 0
v -15 -2 0
v -6 -4 0
v -7 -4 0
v -7 -3 0
v -6 -3 0
v -7 -4 0
v -8 -4 0
v -8 -3 0
v -7 -3 0
v -8 -4 0
v -9 -4 0
v -9 -3 0
v -8 -3 0
v -9 -4 0
v -10 -4 0
v -10 -3 0
v -9 -3 0
v -10 -4 0
v -11 -4 0
v -11 -3 0
v -10 -3 0
v -11 -4 0
v -12 -4 0
v -12 -3 0
v -11 -3 0
v -13 -4 0
v -14 -4 0
v -14 -3 0
v -13 -3 0
v -14 -4 0
v -15 -4 0
v -15 -3 0
v -14 -3 0
v -15 -4 0
v -16 -4 0
v -16 -3 0
v -15 -3 0
v -6 -5 0
v -7 -5 0
v -7 -4 0
v -6 -4 0
v -7 -5 0
v -8 -5 0
v -8 -4 0
v -7 -4 0
v -8 -5 0
v -9 -5 0
v -9 -4 0
v -8 -4 0
v -9 -5 0
v -10 -5 0
v -10 -4 0
v -9 -4 0
v -10 -5 0
v -11 -5 0
v -11 -4 0
v -10 -4 0
v -11 -5 0
v -12 -5 0
v -12 -4 0
v -11 -4 0
v -6 -6 0
v -7 -6 0
v -7 -5 0
v -6 -5 0
v -6 -7 0
v -7 -7 0
v -7 -6 0
v -6 -6 0
v -6 -8 0
v -7 -8 0
v -7 -7 0
v -6 -7 0
v -6 -9 0
v -7 -9 0
v -7 -8 0
v -6 -8 0
v -6 -10 0
v -7 -10 0
v -7 -9 0
v -6 -9 0
v -6 -11 0
v -7 -11 0
v -7 -10 0
v -6 -10 0
v -6 -12 0
v -7 -12 0
v -7 -11 0
v -6 -11 0
v -6 -13 0
v -7 -13 0
v -7 -12 0
v -6 -12 0
v -6 -14 0
v -7 -14 0
v -7 -13 0
v -6 -13 0
v -6 -15 0
v -7 -15 0
v -7 -14 0
v -6 -14 0
v -7 -15 0
v -8 -15 0
v -8 -14 0
v -7 -14 0
v -8 -15 0
v -9 -15 0
v -9 -14 0
v -8 -14 0
v -9 -15 0
v -10 -15 0
v -10 -14 0
v -9 -14 0
v -10 -15 0
v -11 -15 0
v -11 -14 0
v -10 -14 0
v -11 -15 0
v -12 -15 0
v -12 -14 0
v -11 -14 0
v -12 -15 0
v -13 -15 0
v -13 -14 0
v -12 -14 0
v -13 -15 0
v -14 -15 0
v -14 -14 0
v -13 -14 0
v -6 -16 0
v -7 -16 0
v -7 -15 0
v -6 -15 0
v -7 -16 0
v -8 -16 0
v -8 -15 0
v -7 -15 0
v -8 -16 0
v -9 -16 0
v -9 -15 0
v -8 -15 0
v -9 -16 0
v -10 -16 0
v -10 -15 0
v -9 -15 0
v -10 -16 0
v -11 -16 0
v -11 -15 0
v -10 -15 0
v -11 -16 0
v -12 -16 0
v -12 -15 0
v -11 -15 0
v -12 -16 0
v -13 -16 0
v -13 -15 0
v -12 -15 0
v -13 -16 0
v -14 -16 0
v -14 -15 0
v -13 -15 0

# Texture cooridinates (Count = 17)
vt 0.08695652 0.8333333
vt 0.1304348 0.8333333
vt 0.1304348 0.875
vt 0.08695652 0.875
vt 0.173913 0.8333333
vt 0.2173913 0.8333333
vt 0.2173913 0.875
vt 0.173913 0.875
vt 0.173913 0.7916667
vt 0.2173913 0.7916667
vt 0.1304348 0.7916667
vt 0.5217391 0.625
vt 0.5652174 0.625
vt 0.5652174 0.6666666
vt 0.5217391 0.6666666
vt 0.5217391 0.5833334
vt 0.5652174 0.5833334

# Normal
vn 0 0 -1

# Mesh description
g Dungeon-2_mesh_0017

# Faces
f 1/1/1 2/2/1 3/3/1 4/4/1
f 5/5/1 6/6/1 7/7/1 8/8/1
f 9/2/1 10/5/1 11/8/1 12/3/1
f 13/1/1 14/2/1 15/3/1 16/4/1
f 17/9/1 18/10/1 19/6/1 20/5/1
f 21/11/1 22/9/1 23/5/1 24/2/1
f 25/1/1 26/2/1 27/3/1 28/4/1
f 29/5/1 30/6/1 31/7/1 32/8/1
f 33/2/1 34/5/1 35/8/1 36/3/1
f 37/12/1 38/13/1 39/14/1 40/15/1
f 41/12/1 42/13/1 43/14/1 44/15/1
f 45/12/1 46/13/1 47/14/1 48/15/1
f 49/12/1 50/13/1 51/14/1 52/15/1
f 53/12/1 54/13/1 55/14/1 56/15/1
f 57/12/1 58/13/1 59/14/1 60/15/1
f 61/1/1 62/2/1 63/3/1 64/4/1
f 65/9/1 66/10/1 67/6/1 68/5/1
f 69/11/1 70/9/1 71/5/1 72/2/1
f 73/12/1 74/13/1 75/14/1 76/15/1
f 77/16/1 78/17/1 79/13/1 80/12/1
f 81/16/1 82/17/1 83/13/1 84/12/1
f 85/16/1 86/17/1 87/13/1 88/12/1
f 89/16/1 90/17/1 91/13/1 92/12/1
f 93/16/1 94/17/1 95/13/1 96/12/1
f 97/12/1 98/13/1 99/14/1 100/15/1
f 101/12/1 102/13/1 103/14/1 104/15/1
f 105/12/1 106/13/1 107/14/1 108/15/1
f 109/12/1 110/13/1 111/14/1 112/15/1
f 113/12/1 114/13/1 115/14/1 116/15/1
f 117/12/1 118/13/1 119/14/1 120/15/1
f 121/12/1 122/13/1 123/14/1 124/15/1
f 125/12/1 126/13/1 127/14/1 128/15/1
f 129/12/1 130/13/1 131/14/1 132/15/1
f 133/12/1 134/13/1 135/14/1 136/15/1
f 137/12/1 138/13/1 139/14/1 140/15/1
f 141/12/1 142/13/1 143/14/1 144/15/1
f 145/12/1 146/13/1 147/14/1 148/15/1
f 149/12/1 150/13/1 151/14/1 152/15/1
f 153/12/1 154/13/1 155/14/1 156/15/1
f 157/12/1 158/13/1 159/14/1 160/15/1
f 161/12/1 162/13/1 163/14/1 164/15/1
f 165/16/1 166/17/1 167/13/1 168/12/1
f 169/16/1 170/17/1 171/13/1 172/12/1
f 173/16/1 174/17/1 175/13/1 176/12/1
f 177/16/1 178/17/1 179/13/1 180/12/1
f 181/16/1 182/17/1 183/13/1 184/12/1
f 185/16/1 186/17/1 187/13/1 188/12/1
f 189/16/1 190/17/1 191/13/1 192/12/1
f 193/16/1 194/17/1 195/13/1 196/12/1

