# Tiled2Unity generated file. Do not modify by hand.
# Wavefront file for 'HabitacionPuzle_mesh_0004.obj'

# Vertices (Count = 440)
v 0 -1 0
v -1 -1 0
v -1 0 0
v 0 0 0
v -1 -1 0
v -2 -1 0
v -2 0 0
v -1 0 0
v -2 -1 0
v -3 -1 0
v -3 0 0
v -2 0 0
v -3 -1 0
v -4 -1 0
v -4 0 0
v -3 0 0
v -4 -1 0
v -5 -1 0
v -5 0 0
v -4 0 0
v -5 -1 0
v -6 -1 0
v -6 0 0
v -5 0 0
v -6 -1 0
v -7 -1 0
v -7 0 0
v -6 0 0
v -7 -1 0
v -8 -1 0
v -8 0 0
v -7 0 0
v -8 -1 0
v -9 -1 0
v -9 0 0
v -8 0 0
v -9 -1 0
v -10 -1 0
v -10 0 0
v -9 0 0
v -10 -1 0
v -11 -1 0
v -11 0 0
v -10 0 0
v 0 -2 0
v -1 -2 0
v -1 -1 0
v 0 -1 0
v -1 -2 0
v -2 -2 0
v -2 -1 0
v -1 -1 0
v -2 -2 0
v -3 -2 0
v -3 -1 0
v -2 -1 0
v -3 -2 0
v -4 -2 0
v -4 -1 0
v -3 -1 0
v -4 -2 0
v -5 -2 0
v -5 -1 0
v -4 -1 0
v -5 -2 0
v -6 -2 0
v -6 -1 0
v -5 -1 0
v -6 -2 0
v -7 -2 0
v -7 -1 0
v -6 -1 0
v -7 -2 0
v -8 -2 0
v -8 -1 0
v -7 -1 0
v -8 -2 0
v -9 -2 0
v -9 -1 0
v -8 -1 0
v -9 -2 0
v -10 -2 0
v -10 -1 0
v -9 -1 0
v -10 -2 0
v -11 -2 0
v -11 -1 0
v -10 -1 0
v 0 -3 0
v -1 -3 0
v -1 -2 0
v 0 -2 0
v -1 -3 0
v -2 -3 0
v -2 -2 0
v -1 -2 0
v -2 -3 0
v -3 -3 0
v -3 -2 0
v -2 -2 0
v -3 -3 0
v -4 -3 0
v -4 -2 0
v -3 -2 0
v -4 -3 0
v -5 -3 0
v -5 -2 0
v -4 -2 0
v -5 -3 0
v -6 -3 0
v -6 -2 0
v -5 -2 0
v -6 -3 0
v -7 -3 0
v -7 -2 0
v -6 -2 0
v -7 -3 0
v -8 -3 0
v -8 -2 0
v -7 -2 0
v -8 -3 0
v -9 -3 0
v -9 -2 0
v -8 -2 0
v -9 -3 0
v -10 -3 0
v -10 -2 0
v -9 -2 0
v -10 -3 0
v -11 -3 0
v -11 -2 0
v -10 -2 0
v 0 -4 0
v -1 -4 0
v -1 -3 0
v 0 -3 0
v -1 -4 0
v -2 -4 0
v -2 -3 0
v -1 -3 0
v -2 -4 0
v -3 -4 0
v -3 -3 0
v -2 -3 0
v -3 -4 0
v -4 -4 0
v -4 -3 0
v -3 -3 0
v -4 -4 0
v -5 -4 0
v -5 -3 0
v -4 -3 0
v -5 -4 0
v -6 -4 0
v -6 -3 0
v -5 -3 0
v -6 -4 0
v -7 -4 0
v -7 -3 0
v -6 -3 0
v -7 -4 0
v -8 -4 0
v -8 -3 0
v -7 -3 0
v -8 -4 0
v -9 -4 0
v -9 -3 0
v -8 -3 0
v -9 -4 0
v -10 -4 0
v -10 -3 0
v -9 -3 0
v -10 -4 0
v -11 -4 0
v -11 -3 0
v -10 -3 0
v 0 -5 0
v -1 -5 0
v -1 -4 0
v 0 -4 0
v -1 -5 0
v -2 -5 0
v -2 -4 0
v -1 -4 0
v -2 -5 0
v -3 -5 0
v -3 -4 0
v -2 -4 0
v -3 -5 0
v -4 -5 0
v -4 -4 0
v -3 -4 0
v -4 -5 0
v -5 -5 0
v -5 -4 0
v -4 -4 0
v -5 -5 0
v -6 -5 0
v -6 -4 0
v -5 -4 0
v -6 -5 0
v -7 -5 0
v -7 -4 0
v -6 -4 0
v -7 -5 0
v -8 -5 0
v -8 -4 0
v -7 -4 0
v -8 -5 0
v -9 -5 0
v -9 -4 0
v -8 -4 0
v -9 -5 0
v -10 -5 0
v -10 -4 0
v -9 -4 0
v -10 -5 0
v -11 -5 0
v -11 -4 0
v -10 -4 0
v 0 -6 0
v -1 -6 0
v -1 -5 0
v 0 -5 0
v -1 -6 0
v -2 -6 0
v -2 -5 0
v -1 -5 0
v -2 -6 0
v -3 -6 0
v -3 -5 0
v -2 -5 0
v -3 -6 0
v -4 -6 0
v -4 -5 0
v -3 -5 0
v -4 -6 0
v -5 -6 0
v -5 -5 0
v -4 -5 0
v -5 -6 0
v -6 -6 0
v -6 -5 0
v -5 -5 0
v -6 -6 0
v -7 -6 0
v -7 -5 0
v -6 -5 0
v -7 -6 0
v -8 -6 0
v -8 -5 0
v -7 -5 0
v -8 -6 0
v -9 -6 0
v -9 -5 0
v -8 -5 0
v -9 -6 0
v -10 -6 0
v -10 -5 0
v -9 -5 0
v -10 -6 0
v -11 -6 0
v -11 -5 0
v -10 -5 0
v 0 -7 0
v -1 -7 0
v -1 -6 0
v 0 -6 0
v -1 -7 0
v -2 -7 0
v -2 -6 0
v -1 -6 0
v -2 -7 0
v -3 -7 0
v -3 -6 0
v -2 -6 0
v -3 -7 0
v -4 -7 0
v -4 -6 0
v -3 -6 0
v -4 -7 0
v -5 -7 0
v -5 -6 0
v -4 -6 0
v -5 -7 0
v -6 -7 0
v -6 -6 0
v -5 -6 0
v -6 -7 0
v -7 -7 0
v -7 -6 0
v -6 -6 0
v -7 -7 0
v -8 -7 0
v -8 -6 0
v -7 -6 0
v -8 -7 0
v -9 -7 0
v -9 -6 0
v -8 -6 0
v -9 -7 0
v -10 -7 0
v -10 -6 0
v -9 -6 0
v -10 -7 0
v -11 -7 0
v -11 -6 0
v -10 -6 0
v 0 -8 0
v -1 -8 0
v -1 -7 0
v 0 -7 0
v -1 -8 0
v -2 -8 0
v -2 -7 0
v -1 -7 0
v -2 -8 0
v -3 -8 0
v -3 -7 0
v -2 -7 0
v -3 -8 0
v -4 -8 0
v -4 -7 0
v -3 -7 0
v -4 -8 0
v -5 -8 0
v -5 -7 0
v -4 -7 0
v -5 -8 0
v -6 -8 0
v -6 -7 0
v -5 -7 0
v -6 -8 0
v -7 -8 0
v -7 -7 0
v -6 -7 0
v -7 -8 0
v -8 -8 0
v -8 -7 0
v -7 -7 0
v -8 -8 0
v -9 -8 0
v -9 -7 0
v -8 -7 0
v -9 -8 0
v -10 -8 0
v -10 -7 0
v -9 -7 0
v -10 -8 0
v -11 -8 0
v -11 -7 0
v -10 -7 0
v 0 -9 0
v -1 -9 0
v -1 -8 0
v 0 -8 0
v -1 -9 0
v -2 -9 0
v -2 -8 0
v -1 -8 0
v -2 -9 0
v -3 -9 0
v -3 -8 0
v -2 -8 0
v -3 -9 0
v -4 -9 0
v -4 -8 0
v -3 -8 0
v -4 -9 0
v -5 -9 0
v -5 -8 0
v -4 -8 0
v -5 -9 0
v -6 -9 0
v -6 -8 0
v -5 -8 0
v -6 -9 0
v -7 -9 0
v -7 -8 0
v -6 -8 0
v -7 -9 0
v -8 -9 0
v -8 -8 0
v -7 -8 0
v -8 -9 0
v -9 -9 0
v -9 -8 0
v -8 -8 0
v -9 -9 0
v -10 -9 0
v -10 -8 0
v -9 -8 0
v -10 -9 0
v -11 -9 0
v -11 -8 0
v -10 -8 0
v 0 -10 0
v -1 -10 0
v -1 -9 0
v 0 -9 0
v -1 -10 0
v -2 -10 0
v -2 -9 0
v -1 -9 0
v -2 -10 0
v -3 -10 0
v -3 -9 0
v -2 -9 0
v -3 -10 0
v -4 -10 0
v -4 -9 0
v -3 -9 0
v -4 -10 0
v -5 -10 0
v -5 -9 0
v -4 -9 0
v -5 -10 0
v -6 -10 0
v -6 -9 0
v -5 -9 0
v -6 -10 0
v -7 -10 0
v -7 -9 0
v -6 -9 0
v -7 -10 0
v -8 -10 0
v -8 -9 0
v -7 -9 0
v -8 -10 0
v -9 -10 0
v -9 -9 0
v -8 -9 0
v -9 -10 0
v -10 -10 0
v -10 -9 0
v -9 -9 0
v -10 -10 0
v -11 -10 0
v -11 -9 0
v -10 -9 0

# Texture cooridinates (Count = 16)
vt 0.1304348 0.75
vt 0.173913 0.75
vt 0.173913 0.7916667
vt 0.1304348 0.7916667
vt 0.1304348 0.8333333
vt 0.173913 0.8333333
vt 0.173913 0.875
vt 0.1304348 0.875
vt 0.2173913 0.8333333
vt 0.2173913 0.875
vt 0.2608696 0.8333333
vt 0.2608696 0.875
vt 0.2173913 0.7916667
vt 0.2608696 0.7916667
vt 0.2173913 0.75
vt 0.2608696 0.75

# Normal
vn 0 0 -1

# Mesh description
g HabitacionPuzle_mesh_0004

# Faces
f 1/1/1 2/2/1 3/3/1 4/4/1
f 5/1/1 6/2/1 7/3/1 8/4/1
f 9/1/1 10/2/1 11/3/1 12/4/1
f 13/1/1 14/2/1 15/3/1 16/4/1
f 17/1/1 18/2/1 19/3/1 20/4/1
f 21/5/1 22/6/1 23/7/1 24/8/1
f 25/6/1 26/9/1 27/10/1 28/7/1
f 29/9/1 30/11/1 31/12/1 32/10/1
f 33/13/1 34/14/1 35/11/1 36/9/1
f 37/6/1 38/9/1 39/10/1 40/7/1
f 41/9/1 42/11/1 43/12/1 44/10/1
f 45/5/1 46/6/1 47/7/1 48/8/1
f 49/5/1 50/6/1 51/7/1 52/8/1
f 53/5/1 54/6/1 55/7/1 56/8/1
f 57/6/1 58/9/1 59/10/1 60/7/1
f 61/9/1 62/11/1 63/12/1 64/10/1
f 65/9/1 66/11/1 67/12/1 68/10/1
f 69/9/1 70/11/1 71/12/1 72/10/1
f 73/9/1 74/11/1 75/12/1 76/10/1
f 77/15/1 78/16/1 79/14/1 80/13/1
f 81/6/1 82/9/1 83/10/1 84/7/1
f 85/9/1 86/11/1 87/12/1 88/10/1
f 89/4/1 90/3/1 91/6/1 92/5/1
f 93/4/1 94/3/1 95/6/1 96/5/1
f 97/4/1 98/3/1 99/6/1 100/5/1
f 101/3/1 102/13/1 103/9/1 104/6/1
f 105/13/1 106/14/1 107/11/1 108/9/1
f 109/13/1 110/14/1 111/11/1 112/9/1
f 113/13/1 114/14/1 115/11/1 116/9/1
f 117/9/1 118/11/1 119/12/1 120/10/1
f 121/5/1 122/6/1 123/7/1 124/8/1
f 125/6/1 126/9/1 127/10/1 128/7/1
f 129/9/1 130/11/1 131/12/1 132/10/1
f 133/1/1 134/2/1 135/3/1 136/4/1
f 137/1/1 138/2/1 139/3/1 140/4/1
f 141/1/1 142/2/1 143/3/1 144/4/1
f 145/2/1 146/15/1 147/13/1 148/3/1
f 149/15/1 150/16/1 151/14/1 152/13/1
f 153/15/1 154/16/1 155/14/1 156/13/1
f 157/15/1 158/16/1 159/14/1 160/13/1
f 161/9/1 162/11/1 163/12/1 164/10/1
f 165/5/1 166/6/1 167/7/1 168/8/1
f 169/6/1 170/9/1 171/10/1 172/7/1
f 173/9/1 174/11/1 175/12/1 176/10/1
f 177/9/1 178/11/1 179/12/1 180/10/1
f 181/9/1 182/11/1 183/12/1 184/10/1
f 185/9/1 186/11/1 187/12/1 188/10/1
f 189/9/1 190/11/1 191/12/1 192/10/1
f 193/9/1 194/11/1 195/12/1 196/10/1
f 197/9/1 198/11/1 199/12/1 200/10/1
f 201/9/1 202/11/1 203/12/1 204/10/1
f 205/9/1 206/11/1 207/12/1 208/10/1
f 209/5/1 210/6/1 211/7/1 212/8/1
f 213/6/1 214/9/1 215/10/1 216/7/1
f 217/9/1 218/11/1 219/12/1 220/10/1
f 221/13/1 222/14/1 223/11/1 224/9/1
f 225/13/1 226/14/1 227/11/1 228/9/1
f 229/13/1 230/14/1 231/11/1 232/9/1
f 233/13/1 234/14/1 235/11/1 236/9/1
f 237/13/1 238/14/1 239/11/1 240/9/1
f 241/13/1 242/14/1 243/11/1 244/9/1
f 245/13/1 246/14/1 247/11/1 248/9/1
f 249/13/1 250/14/1 251/11/1 252/9/1
f 253/5/1 254/6/1 255/7/1 256/8/1
f 257/6/1 258/9/1 259/10/1 260/7/1
f 261/9/1 262/11/1 263/12/1 264/10/1
f 265/15/1 266/16/1 267/14/1 268/13/1
f 269/15/1 270/16/1 271/14/1 272/13/1
f 273/15/1 274/16/1 275/14/1 276/13/1
f 277/15/1 278/16/1 279/14/1 280/13/1
f 281/15/1 282/16/1 283/14/1 284/13/1
f 285/15/1 286/16/1 287/14/1 288/13/1
f 289/15/1 290/16/1 291/14/1 292/13/1
f 293/15/1 294/16/1 295/14/1 296/13/1
f 297/5/1 298/6/1 299/7/1 300/8/1
f 301/6/1 302/9/1 303/10/1 304/7/1
f 305/9/1 306/11/1 307/12/1 308/10/1
f 309/9/1 310/11/1 311/12/1 312/10/1
f 313/9/1 314/11/1 315/12/1 316/10/1
f 317/9/1 318/11/1 319/12/1 320/10/1
f 321/9/1 322/11/1 323/12/1 324/10/1
f 325/9/1 326/11/1 327/12/1 328/10/1
f 329/9/1 330/11/1 331/12/1 332/10/1
f 333/9/1 334/11/1 335/12/1 336/10/1
f 337/9/1 338/11/1 339/12/1 340/10/1
f 341/9/1 342/11/1 343/12/1 344/10/1
f 345/9/1 346/11/1 347/12/1 348/10/1
f 349/9/1 350/11/1 351/12/1 352/10/1
f 353/13/1 354/14/1 355/11/1 356/9/1
f 357/13/1 358/14/1 359/11/1 360/9/1
f 361/13/1 362/14/1 363/11/1 364/9/1
f 365/13/1 366/14/1 367/11/1 368/9/1
f 369/13/1 370/14/1 371/11/1 372/9/1
f 373/13/1 374/14/1 375/11/1 376/9/1
f 377/13/1 378/14/1 379/11/1 380/9/1
f 381/13/1 382/14/1 383/11/1 384/9/1
f 385/13/1 386/14/1 387/11/1 388/9/1
f 389/13/1 390/14/1 391/11/1 392/9/1
f 393/13/1 394/14/1 395/11/1 396/9/1
f 397/15/1 398/16/1 399/14/1 400/13/1
f 401/15/1 402/16/1 403/14/1 404/13/1
f 405/15/1 406/16/1 407/14/1 408/13/1
f 409/15/1 410/16/1 411/14/1 412/13/1
f 413/15/1 414/16/1 415/14/1 416/13/1
f 417/15/1 418/16/1 419/14/1 420/13/1
f 421/15/1 422/16/1 423/14/1 424/13/1
f 425/15/1 426/16/1 427/14/1 428/13/1
f 429/15/1 430/16/1 431/14/1 432/13/1
f 433/15/1 434/16/1 435/14/1 436/13/1
f 437/15/1 438/16/1 439/14/1 440/13/1

