# Tiled2Unity generated file. Do not modify by hand.
# Wavefront file for 'jjjjjjjjjjjjjjjj_mesh_0002.obj'

# Vertices (Count = 660)
v 0 -1 0
v -1 -1 0
v -1 0 0
v 0 0 0
v -1 -1 0
v -2 -1 0
v -2 0 0
v -1 0 0
v -2 -1 0
v -3 -1 0
v -3 0 0
v -2 0 0
v -3 -1 0
v -4 -1 0
v -4 0 0
v -3 0 0
v -4 -1 0
v -5 -1 0
v -5 0 0
v -4 0 0
v -5 -1 0
v -6 -1 0
v -6 0 0
v -5 0 0
v -6 -1 0
v -7 -1 0
v -7 0 0
v -6 0 0
v -7 -1 0
v -8 -1 0
v -8 0 0
v -7 0 0
v -8 -1 0
v -9 -1 0
v -9 0 0
v -8 0 0
v -9 -1 0
v -10 -1 0
v -10 0 0
v -9 0 0
v -10 -1 0
v -11 -1 0
v -11 0 0
v -10 0 0
v -11 -1 0
v -12 -1 0
v -12 0 0
v -11 0 0
v -12 -1 0
v -13 -1 0
v -13 0 0
v -12 0 0
v -13 -1 0
v -14 -1 0
v -14 0 0
v -13 0 0
v -14 -1 0
v -15 -1 0
v -15 0 0
v -14 0 0
v -15 -1 0
v -16 -1 0
v -16 0 0
v -15 0 0
v -16 -1 0
v -17 -1 0
v -17 0 0
v -16 0 0
v -17 -1 0
v -18 -1 0
v -18 0 0
v -17 0 0
v -18 -1 0
v -19 -1 0
v -19 0 0
v -18 0 0
v -19 -1 0
v -20 -1 0
v -20 0 0
v -19 0 0
v -20 -1 0
v -21 -1 0
v -21 0 0
v -20 0 0
v -21 -1 0
v -22 -1 0
v -22 0 0
v -21 0 0
v -22 -1 0
v -23 -1 0
v -23 0 0
v -22 0 0
v -23 -1 0
v -24 -1 0
v -24 0 0
v -23 0 0
v -24 -1 0
v -25 -1 0
v -25 0 0
v -24 0 0
v 0 -2 0
v -1 -2 0
v -1 -1 0
v 0 -1 0
v -1 -2 0
v -2 -2 0
v -2 -1 0
v -1 -1 0
v -2 -2 0
v -3 -2 0
v -3 -1 0
v -2 -1 0
v -3 -2 0
v -4 -2 0
v -4 -1 0
v -3 -1 0
v -4 -2 0
v -5 -2 0
v -5 -1 0
v -4 -1 0
v -5 -2 0
v -6 -2 0
v -6 -1 0
v -5 -1 0
v -6 -2 0
v -7 -2 0
v -7 -1 0
v -6 -1 0
v -7 -2 0
v -8 -2 0
v -8 -1 0
v -7 -1 0
v -8 -2 0
v -9 -2 0
v -9 -1 0
v -8 -1 0
v -9 -2 0
v -10 -2 0
v -10 -1 0
v -9 -1 0
v -10 -2 0
v -11 -2 0
v -11 -1 0
v -10 -1 0
v -11 -2 0
v -12 -2 0
v -12 -1 0
v -11 -1 0
v -12 -2 0
v -13 -2 0
v -13 -1 0
v -12 -1 0
v -13 -2 0
v -14 -2 0
v -14 -1 0
v -13 -1 0
v -14 -2 0
v -15 -2 0
v -15 -1 0
v -14 -1 0
v -15 -2 0
v -16 -2 0
v -16 -1 0
v -15 -1 0
v -16 -2 0
v -17 -2 0
v -17 -1 0
v -16 -1 0
v -17 -2 0
v -18 -2 0
v -18 -1 0
v -17 -1 0
v -18 -2 0
v -19 -2 0
v -19 -1 0
v -18 -1 0
v -19 -2 0
v -20 -2 0
v -20 -1 0
v -19 -1 0
v -20 -2 0
v -21 -2 0
v -21 -1 0
v -20 -1 0
v -21 -2 0
v -22 -2 0
v -22 -1 0
v -21 -1 0
v -22 -2 0
v -23 -2 0
v -23 -1 0
v -22 -1 0
v -23 -2 0
v -24 -2 0
v -24 -1 0
v -23 -1 0
v -24 -2 0
v -25 -2 0
v -25 -1 0
v -24 -1 0
v 0 -3 0
v -1 -3 0
v -1 -2 0
v 0 -2 0
v -1 -3 0
v -2 -3 0
v -2 -2 0
v -1 -2 0
v -2 -3 0
v -3 -3 0
v -3 -2 0
v -2 -2 0
v -3 -3 0
v -4 -3 0
v -4 -2 0
v -3 -2 0
v -4 -3 0
v -5 -3 0
v -5 -2 0
v -4 -2 0
v -5 -3 0
v -6 -3 0
v -6 -2 0
v -5 -2 0
v -6 -3 0
v -7 -3 0
v -7 -2 0
v -6 -2 0
v -7 -3 0
v -8 -3 0
v -8 -2 0
v -7 -2 0
v -8 -3 0
v -9 -3 0
v -9 -2 0
v -8 -2 0
v -9 -3 0
v -10 -3 0
v -10 -2 0
v -9 -2 0
v -10 -3 0
v -11 -3 0
v -11 -2 0
v -10 -2 0
v -11 -3 0
v -12 -3 0
v -12 -2 0
v -11 -2 0
v -12 -3 0
v -13 -3 0
v -13 -2 0
v -12 -2 0
v -13 -3 0
v -14 -3 0
v -14 -2 0
v -13 -2 0
v -14 -3 0
v -15 -3 0
v -15 -2 0
v -14 -2 0
v -15 -3 0
v -16 -3 0
v -16 -2 0
v -15 -2 0
v -16 -3 0
v -17 -3 0
v -17 -2 0
v -16 -2 0
v -17 -3 0
v -18 -3 0
v -18 -2 0
v -17 -2 0
v -18 -3 0
v -19 -3 0
v -19 -2 0
v -18 -2 0
v -19 -3 0
v -20 -3 0
v -20 -2 0
v -19 -2 0
v -20 -3 0
v -21 -3 0
v -21 -2 0
v -20 -2 0
v -21 -3 0
v -22 -3 0
v -22 -2 0
v -21 -2 0
v -22 -3 0
v -23 -3 0
v -23 -2 0
v -22 -2 0
v -23 -3 0
v -24 -3 0
v -24 -2 0
v -23 -2 0
v -24 -3 0
v -25 -3 0
v -25 -2 0
v -24 -2 0
v 0 -4 0
v -1 -4 0
v -1 -3 0
v 0 -3 0
v -24 -4 0
v -25 -4 0
v -25 -3 0
v -24 -3 0
v 0 -5 0
v -1 -5 0
v -1 -4 0
v 0 -4 0
v -24 -5 0
v -25 -5 0
v -25 -4 0
v -24 -4 0
v 0 -6 0
v -1 -6 0
v -1 -5 0
v 0 -5 0
v -24 -6 0
v -25 -6 0
v -25 -5 0
v -24 -5 0
v 0 -7 0
v -1 -7 0
v -1 -6 0
v 0 -6 0
v -24 -7 0
v -25 -7 0
v -25 -6 0
v -24 -6 0
v 0 -8 0
v -1 -8 0
v -1 -7 0
v 0 -7 0
v -24 -8 0
v -25 -8 0
v -25 -7 0
v -24 -7 0
v 0 -9 0
v -1 -9 0
v -1 -8 0
v 0 -8 0
v -24 -9 0
v -25 -9 0
v -25 -8 0
v -24 -8 0
v 0 -10 0
v -1 -10 0
v -1 -9 0
v 0 -9 0
v -24 -10 0
v -25 -10 0
v -25 -9 0
v -24 -9 0
v 0 -11 0
v -1 -11 0
v -1 -10 0
v 0 -10 0
v -24 -11 0
v -25 -11 0
v -25 -10 0
v -24 -10 0
v 0 -12 0
v -1 -12 0
v -1 -11 0
v 0 -11 0
v -24 -12 0
v -25 -12 0
v -25 -11 0
v -24 -11 0
v 0 -13 0
v -1 -13 0
v -1 -12 0
v 0 -12 0
v -24 -13 0
v -25 -13 0
v -25 -12 0
v -24 -12 0
v 0 -14 0
v -1 -14 0
v -1 -13 0
v 0 -13 0
v -24 -14 0
v -25 -14 0
v -25 -13 0
v -24 -13 0
v 0 -15 0
v -1 -15 0
v -1 -14 0
v 0 -14 0
v -24 -15 0
v -25 -15 0
v -25 -14 0
v -24 -14 0
v 0 -16 0
v -1 -16 0
v -1 -15 0
v 0 -15 0
v -24 -16 0
v -25 -16 0
v -25 -15 0
v -24 -15 0
v 0 -17 0
v -1 -17 0
v -1 -16 0
v 0 -16 0
v -24 -17 0
v -25 -17 0
v -25 -16 0
v -24 -16 0
v 0 -18 0
v -1 -18 0
v -1 -17 0
v 0 -17 0
v -24 -18 0
v -25 -18 0
v -25 -17 0
v -24 -17 0
v 0 -19 0
v -1 -19 0
v -1 -18 0
v 0 -18 0
v -24 -19 0
v -25 -19 0
v -25 -18 0
v -24 -18 0
v 0 -20 0
v -1 -20 0
v -1 -19 0
v 0 -19 0
v -24 -20 0
v -25 -20 0
v -25 -19 0
v -24 -19 0
v 0 -21 0
v -1 -21 0
v -1 -20 0
v 0 -20 0
v -24 -21 0
v -25 -21 0
v -25 -20 0
v -24 -20 0
v 0 -22 0
v -1 -22 0
v -1 -21 0
v 0 -21 0
v -24 -22 0
v -25 -22 0
v -25 -21 0
v -24 -21 0
v 0 -23 0
v -1 -23 0
v -1 -22 0
v 0 -22 0
v -24 -23 0
v -25 -23 0
v -25 -22 0
v -24 -22 0
v 0 -24 0
v -1 -24 0
v -1 -23 0
v 0 -23 0
v -1 -24 0
v -2 -24 0
v -2 -23 0
v -1 -23 0
v -2 -24 0
v -3 -24 0
v -3 -23 0
v -2 -23 0
v -3 -24 0
v -4 -24 0
v -4 -23 0
v -3 -23 0
v -4 -24 0
v -5 -24 0
v -5 -23 0
v -4 -23 0
v -5 -24 0
v -6 -24 0
v -6 -23 0
v -5 -23 0
v -6 -24 0
v -7 -24 0
v -7 -23 0
v -6 -23 0
v -7 -24 0
v -8 -24 0
v -8 -23 0
v -7 -23 0
v -8 -24 0
v -9 -24 0
v -9 -23 0
v -8 -23 0
v -9 -24 0
v -10 -24 0
v -10 -23 0
v -9 -23 0
v -10 -24 0
v -11 -24 0
v -11 -23 0
v -10 -23 0
v -11 -24 0
v -12 -24 0
v -12 -23 0
v -11 -23 0
v -12 -24 0
v -13 -24 0
v -13 -23 0
v -12 -23 0
v -13 -24 0
v -14 -24 0
v -14 -23 0
v -13 -23 0
v -14 -24 0
v -15 -24 0
v -15 -23 0
v -14 -23 0
v -15 -24 0
v -16 -24 0
v -16 -23 0
v -15 -23 0
v -16 -24 0
v -17 -24 0
v -17 -23 0
v -16 -23 0
v -17 -24 0
v -18 -24 0
v -18 -23 0
v -17 -23 0
v -18 -24 0
v -19 -24 0
v -19 -23 0
v -18 -23 0
v -19 -24 0
v -20 -24 0
v -20 -23 0
v -19 -23 0
v -20 -24 0
v -21 -24 0
v -21 -23 0
v -20 -23 0
v -21 -24 0
v -22 -24 0
v -22 -23 0
v -21 -23 0
v -22 -24 0
v -23 -24 0
v -23 -23 0
v -22 -23 0
v -23 -24 0
v -24 -24 0
v -24 -23 0
v -23 -23 0
v -24 -24 0
v -25 -24 0
v -25 -23 0
v -24 -23 0
v 0 -25 0
v -1 -25 0
v -1 -24 0
v 0 -24 0
v -1 -25 0
v -2 -25 0
v -2 -24 0
v -1 -24 0
v -2 -25 0
v -3 -25 0
v -3 -24 0
v -2 -24 0
v -3 -25 0
v -4 -25 0
v -4 -24 0
v -3 -24 0
v -4 -25 0
v -5 -25 0
v -5 -24 0
v -4 -24 0
v -5 -25 0
v -6 -25 0
v -6 -24 0
v -5 -24 0
v -6 -25 0
v -7 -25 0
v -7 -24 0
v -6 -24 0
v -7 -25 0
v -8 -25 0
v -8 -24 0
v -7 -24 0
v -8 -25 0
v -9 -25 0
v -9 -24 0
v -8 -24 0
v -9 -25 0
v -10 -25 0
v -10 -24 0
v -9 -24 0
v -10 -25 0
v -11 -25 0
v -11 -24 0
v -10 -24 0
v -11 -25 0
v -12 -25 0
v -12 -24 0
v -11 -24 0
v -12 -25 0
v -13 -25 0
v -13 -24 0
v -12 -24 0
v -13 -25 0
v -14 -25 0
v -14 -24 0
v -13 -24 0
v -14 -25 0
v -15 -25 0
v -15 -24 0
v -14 -24 0
v -15 -25 0
v -16 -25 0
v -16 -24 0
v -15 -24 0
v -16 -25 0
v -17 -25 0
v -17 -24 0
v -16 -24 0
v -17 -25 0
v -18 -25 0
v -18 -24 0
v -17 -24 0
v -18 -25 0
v -19 -25 0
v -19 -24 0
v -18 -24 0
v -19 -25 0
v -20 -25 0
v -20 -24 0
v -19 -24 0
v -20 -25 0
v -21 -25 0
v -21 -24 0
v -20 -24 0
v -21 -25 0
v -22 -25 0
v -22 -24 0
v -21 -24 0
v -22 -25 0
v -23 -25 0
v -23 -24 0
v -22 -24 0
v -23 -25 0
v -24 -25 0
v -24 -24 0
v -23 -24 0
v -24 -25 0
v -25 -25 0
v -25 -24 0
v -24 -24 0

# Texture cooridinates (Count = 20)
vt 0 0.9375
vt 0.0625 0.9375
vt 0.0625 1
vt 0 1
vt 0.125 0.9375
vt 0.125 1
vt 0.1875 0.9375
vt 0.1875 1
vt 0 0.8125
vt 0.0625 0.8125
vt 0.0625 0.875
vt 0 0.875
vt 0.125 0.875
vt 0.125 0.8125
vt 0.1875 0.8125
vt 0.1875 0.875
vt 0 0.75
vt 0.0625 0.75
vt 0.125 0.75
vt 0.1875 0.75

# Normal
vn 0 0 -1

# Mesh description
g jjjjjjjjjjjjjjjj_mesh_0002

# Faces
f 1/1/1 2/2/1 3/3/1 4/4/1
f 5/2/1 6/5/1 7/6/1 8/3/1
f 9/2/1 10/5/1 11/6/1 12/3/1
f 13/2/1 14/5/1 15/6/1 16/3/1
f 17/2/1 18/5/1 19/6/1 20/3/1
f 21/2/1 22/5/1 23/6/1 24/3/1
f 25/2/1 26/5/1 27/6/1 28/3/1
f 29/2/1 30/5/1 31/6/1 32/3/1
f 33/2/1 34/5/1 35/6/1 36/3/1
f 37/2/1 38/5/1 39/6/1 40/3/1
f 41/2/1 42/5/1 43/6/1 44/3/1
f 45/2/1 46/5/1 47/6/1 48/3/1
f 49/2/1 50/5/1 51/6/1 52/3/1
f 53/2/1 54/5/1 55/6/1 56/3/1
f 57/2/1 58/5/1 59/6/1 60/3/1
f 61/2/1 62/5/1 63/6/1 64/3/1
f 65/2/1 66/5/1 67/6/1 68/3/1
f 69/2/1 70/5/1 71/6/1 72/3/1
f 73/2/1 74/5/1 75/6/1 76/3/1
f 77/2/1 78/5/1 79/6/1 80/3/1
f 81/2/1 82/5/1 83/6/1 84/3/1
f 85/2/1 86/5/1 87/6/1 88/3/1
f 89/2/1 90/5/1 91/6/1 92/3/1
f 93/2/1 94/5/1 95/6/1 96/3/1
f 97/5/1 98/7/1 99/8/1 100/6/1
f 101/9/1 102/10/1 103/11/1 104/12/1
f 105/11/1 106/13/1 107/5/1 108/2/1
f 109/11/1 110/13/1 111/5/1 112/2/1
f 113/11/1 114/13/1 115/5/1 116/2/1
f 117/11/1 118/13/1 119/5/1 120/2/1
f 121/11/1 122/13/1 123/5/1 124/2/1
f 125/11/1 126/13/1 127/5/1 128/2/1
f 129/11/1 130/13/1 131/5/1 132/2/1
f 133/11/1 134/13/1 135/5/1 136/2/1
f 137/11/1 138/13/1 139/5/1 140/2/1
f 141/11/1 142/13/1 143/5/1 144/2/1
f 145/11/1 146/13/1 147/5/1 148/2/1
f 149/11/1 150/13/1 151/5/1 152/2/1
f 153/11/1 154/13/1 155/5/1 156/2/1
f 157/11/1 158/13/1 159/5/1 160/2/1
f 161/11/1 162/13/1 163/5/1 164/2/1
f 165/11/1 166/13/1 167/5/1 168/2/1
f 169/11/1 170/13/1 171/5/1 172/2/1
f 173/11/1 174/13/1 175/5/1 176/2/1
f 177/11/1 178/13/1 179/5/1 180/2/1
f 181/11/1 182/13/1 183/5/1 184/2/1
f 185/11/1 186/13/1 187/5/1 188/2/1
f 189/11/1 190/13/1 191/5/1 192/2/1
f 193/11/1 194/13/1 195/5/1 196/2/1
f 197/14/1 198/15/1 199/16/1 200/13/1
f 201/9/1 202/10/1 203/11/1 204/12/1
f 205/11/1 206/13/1 207/5/1 208/2/1
f 209/11/1 210/13/1 211/5/1 212/2/1
f 213/11/1 214/13/1 215/5/1 216/2/1
f 217/11/1 218/13/1 219/5/1 220/2/1
f 221/11/1 222/13/1 223/5/1 224/2/1
f 225/11/1 226/13/1 227/5/1 228/2/1
f 229/11/1 230/13/1 231/5/1 232/2/1
f 233/11/1 234/13/1 235/5/1 236/2/1
f 237/11/1 238/13/1 239/5/1 240/2/1
f 241/11/1 242/13/1 243/5/1 244/2/1
f 245/11/1 246/13/1 247/5/1 248/2/1
f 249/11/1 250/13/1 251/5/1 252/2/1
f 253/11/1 254/13/1 255/5/1 256/2/1
f 257/11/1 258/13/1 259/5/1 260/2/1
f 261/11/1 262/13/1 263/5/1 264/2/1
f 265/11/1 266/13/1 267/5/1 268/2/1
f 269/11/1 270/13/1 271/5/1 272/2/1
f 273/11/1 274/13/1 275/5/1 276/2/1
f 277/11/1 278/13/1 279/5/1 280/2/1
f 281/11/1 282/13/1 283/5/1 284/2/1
f 285/11/1 286/13/1 287/5/1 288/2/1
f 289/11/1 290/13/1 291/5/1 292/2/1
f 293/11/1 294/13/1 295/5/1 296/2/1
f 297/14/1 298/15/1 299/16/1 300/13/1
f 301/9/1 302/10/1 303/11/1 304/12/1
f 305/14/1 306/15/1 307/16/1 308/13/1
f 309/9/1 310/10/1 311/11/1 312/12/1
f 313/14/1 314/15/1 315/16/1 316/13/1
f 317/9/1 318/10/1 319/11/1 320/12/1
f 321/14/1 322/15/1 323/16/1 324/13/1
f 325/9/1 326/10/1 327/11/1 328/12/1
f 329/14/1 330/15/1 331/16/1 332/13/1
f 333/9/1 334/10/1 335/11/1 336/12/1
f 337/14/1 338/15/1 339/16/1 340/13/1
f 341/9/1 342/10/1 343/11/1 344/12/1
f 345/14/1 346/15/1 347/16/1 348/13/1
f 349/9/1 350/10/1 351/11/1 352/12/1
f 353/14/1 354/15/1 355/16/1 356/13/1
f 357/9/1 358/10/1 359/11/1 360/12/1
f 361/14/1 362/15/1 363/16/1 364/13/1
f 365/9/1 366/10/1 367/11/1 368/12/1
f 369/14/1 370/15/1 371/16/1 372/13/1
f 373/9/1 374/10/1 375/11/1 376/12/1
f 377/14/1 378/15/1 379/16/1 380/13/1
f 381/9/1 382/10/1 383/11/1 384/12/1
f 385/14/1 386/15/1 387/16/1 388/13/1
f 389/9/1 390/10/1 391/11/1 392/12/1
f 393/14/1 394/15/1 395/16/1 396/13/1
f 397/9/1 398/10/1 399/11/1 400/12/1
f 401/14/1 402/15/1 403/16/1 404/13/1
f 405/9/1 406/10/1 407/11/1 408/12/1
f 409/14/1 410/15/1 411/16/1 412/13/1
f 413/9/1 414/10/1 415/11/1 416/12/1
f 417/14/1 418/15/1 419/16/1 420/13/1
f 421/9/1 422/10/1 423/11/1 424/12/1
f 425/14/1 426/15/1 427/16/1 428/13/1
f 429/9/1 430/10/1 431/11/1 432/12/1
f 433/14/1 434/15/1 435/16/1 436/13/1
f 437/9/1 438/10/1 439/11/1 440/12/1
f 441/14/1 442/15/1 443/16/1 444/13/1
f 445/9/1 446/10/1 447/11/1 448/12/1
f 449/14/1 450/15/1 451/16/1 452/13/1
f 453/9/1 454/10/1 455/11/1 456/12/1
f 457/14/1 458/15/1 459/16/1 460/13/1
f 461/9/1 462/10/1 463/11/1 464/12/1
f 465/10/1 466/14/1 467/13/1 468/11/1
f 469/10/1 470/14/1 471/13/1 472/11/1
f 473/10/1 474/14/1 475/13/1 476/11/1
f 477/10/1 478/14/1 479/13/1 480/11/1
f 481/10/1 482/14/1 483/13/1 484/11/1
f 485/10/1 486/14/1 487/13/1 488/11/1
f 489/10/1 490/14/1 491/13/1 492/11/1
f 493/10/1 494/14/1 495/13/1 496/11/1
f 497/10/1 498/14/1 499/13/1 500/11/1
f 501/10/1 502/14/1 503/13/1 504/11/1
f 505/10/1 506/14/1 507/13/1 508/11/1
f 509/10/1 510/14/1 511/13/1 512/11/1
f 513/10/1 514/14/1 515/13/1 516/11/1
f 517/10/1 518/14/1 519/13/1 520/11/1
f 521/10/1 522/14/1 523/13/1 524/11/1
f 525/10/1 526/14/1 527/13/1 528/11/1
f 529/10/1 530/14/1 531/13/1 532/11/1
f 533/10/1 534/14/1 535/13/1 536/11/1
f 537/10/1 538/14/1 539/13/1 540/11/1
f 541/10/1 542/14/1 543/13/1 544/11/1
f 545/10/1 546/14/1 547/13/1 548/11/1
f 549/10/1 550/14/1 551/13/1 552/11/1
f 553/10/1 554/14/1 555/13/1 556/11/1
f 557/14/1 558/15/1 559/16/1 560/13/1
f 561/17/1 562/18/1 563/10/1 564/9/1
f 565/18/1 566/19/1 567/14/1 568/10/1
f 569/18/1 570/19/1 571/14/1 572/10/1
f 573/18/1 574/19/1 575/14/1 576/10/1
f 577/18/1 578/19/1 579/14/1 580/10/1
f 581/18/1 582/19/1 583/14/1 584/10/1
f 585/18/1 586/19/1 587/14/1 588/10/1
f 589/18/1 590/19/1 591/14/1 592/10/1
f 593/18/1 594/19/1 595/14/1 596/10/1
f 597/18/1 598/19/1 599/14/1 600/10/1
f 601/18/1 602/19/1 603/14/1 604/10/1
f 605/18/1 606/19/1 607/14/1 608/10/1
f 609/18/1 610/19/1 611/14/1 612/10/1
f 613/18/1 614/19/1 615/14/1 616/10/1
f 617/18/1 618/19/1 619/14/1 620/10/1
f 621/18/1 622/19/1 623/14/1 624/10/1
f 625/18/1 626/19/1 627/14/1 628/10/1
f 629/18/1 630/19/1 631/14/1 632/10/1
f 633/18/1 634/19/1 635/14/1 636/10/1
f 637/18/1 638/19/1 639/14/1 640/10/1
f 641/18/1 642/19/1 643/14/1 644/10/1
f 645/18/1 646/19/1 647/14/1 648/10/1
f 649/18/1 650/19/1 651/14/1 652/10/1
f 653/18/1 654/19/1 655/14/1 656/10/1
f 657/19/1 658/20/1 659/15/1 660/14/1

