# Tiled2Unity generated file. Do not modify by hand.
# Wavefront file for 'tienda_mesh_0005.obj'

# Vertices (Count = 288)
v -8 -1 0
v -9 -1 0
v -9 0 0
v -8 0 0
v -9 -1 0
v -10 -1 0
v -10 0 0
v -9 0 0
v -10 -1 0
v -11 -1 0
v -11 0 0
v -10 0 0
v -11 -1 0
v -12 -1 0
v -12 0 0
v -11 0 0
v -12 -1 0
v -13 -1 0
v -13 0 0
v -12 0 0
v -13 -1 0
v -14 -1 0
v -14 0 0
v -13 0 0
v -14 -1 0
v -15 -1 0
v -15 0 0
v -14 0 0
v -15 -1 0
v -16 -1 0
v -16 0 0
v -15 0 0
v -8 -2 0
v -9 -2 0
v -9 -1 0
v -8 -1 0
v -9 -2 0
v -10 -2 0
v -10 -1 0
v -9 -1 0
v -10 -2 0
v -11 -2 0
v -11 -1 0
v -10 -1 0
v -11 -2 0
v -12 -2 0
v -12 -1 0
v -11 -1 0
v -12 -2 0
v -13 -2 0
v -13 -1 0
v -12 -1 0
v -13 -2 0
v -14 -2 0
v -14 -1 0
v -13 -1 0
v -14 -2 0
v -15 -2 0
v -15 -1 0
v -14 -1 0
v -15 -2 0
v -16 -2 0
v -16 -1 0
v -15 -1 0
v -8 -3 0
v -9 -3 0
v -9 -2 0
v -8 -2 0
v -9 -3 0
v -10 -3 0
v -10 -2 0
v -9 -2 0
v -10 -3 0
v -11 -3 0
v -11 -2 0
v -10 -2 0
v -11 -3 0
v -12 -3 0
v -12 -2 0
v -11 -2 0
v -12 -3 0
v -13 -3 0
v -13 -2 0
v -12 -2 0
v -13 -3 0
v -14 -3 0
v -14 -2 0
v -13 -2 0
v -14 -3 0
v -15 -3 0
v -15 -2 0
v -14 -2 0
v -15 -3 0
v -16 -3 0
v -16 -2 0
v -15 -2 0
v -8 -4 0
v -9 -4 0
v -9 -3 0
v -8 -3 0
v -9 -4 0
v -10 -4 0
v -10 -3 0
v -9 -3 0
v -10 -4 0
v -11 -4 0
v -11 -3 0
v -10 -3 0
v -11 -4 0
v -12 -4 0
v -12 -3 0
v -11 -3 0
v -12 -4 0
v -13 -4 0
v -13 -3 0
v -12 -3 0
v -13 -4 0
v -14 -4 0
v -14 -3 0
v -13 -3 0
v -14 -4 0
v -15 -4 0
v -15 -3 0
v -14 -3 0
v -15 -4 0
v -16 -4 0
v -16 -3 0
v -15 -3 0
v -8 -5 0
v -9 -5 0
v -9 -4 0
v -8 -4 0
v -9 -5 0
v -10 -5 0
v -10 -4 0
v -9 -4 0
v -10 -5 0
v -11 -5 0
v -11 -4 0
v -10 -4 0
v -11 -5 0
v -12 -5 0
v -12 -4 0
v -11 -4 0
v -12 -5 0
v -13 -5 0
v -13 -4 0
v -12 -4 0
v -13 -5 0
v -14 -5 0
v -14 -4 0
v -13 -4 0
v -14 -5 0
v -15 -5 0
v -15 -4 0
v -14 -4 0
v -15 -5 0
v -16 -5 0
v -16 -4 0
v -15 -4 0
v -8 -6 0
v -9 -6 0
v -9 -5 0
v -8 -5 0
v -9 -6 0
v -10 -6 0
v -10 -5 0
v -9 -5 0
v -10 -6 0
v -11 -6 0
v -11 -5 0
v -10 -5 0
v -11 -6 0
v -12 -6 0
v -12 -5 0
v -11 -5 0
v -12 -6 0
v -13 -6 0
v -13 -5 0
v -12 -5 0
v -13 -6 0
v -14 -6 0
v -14 -5 0
v -13 -5 0
v -14 -6 0
v -15 -6 0
v -15 -5 0
v -14 -5 0
v -15 -6 0
v -16 -6 0
v -16 -5 0
v -15 -5 0
v -8 -7 0
v -9 -7 0
v -9 -6 0
v -8 -6 0
v -9 -7 0
v -10 -7 0
v -10 -6 0
v -9 -6 0
v -10 -7 0
v -11 -7 0
v -11 -6 0
v -10 -6 0
v -11 -7 0
v -12 -7 0
v -12 -6 0
v -11 -6 0
v -12 -7 0
v -13 -7 0
v -13 -6 0
v -12 -6 0
v -13 -7 0
v -14 -7 0
v -14 -6 0
v -13 -6 0
v -14 -7 0
v -15 -7 0
v -15 -6 0
v -14 -6 0
v -15 -7 0
v -16 -7 0
v -16 -6 0
v -15 -6 0
v -8 -8 0
v -9 -8 0
v -9 -7 0
v -8 -7 0
v -9 -8 0
v -10 -8 0
v -10 -7 0
v -9 -7 0
v -10 -8 0
v -11 -8 0
v -11 -7 0
v -10 -7 0
v -11 -8 0
v -12 -8 0
v -12 -7 0
v -11 -7 0
v -12 -8 0
v -13 -8 0
v -13 -7 0
v -12 -7 0
v -13 -8 0
v -14 -8 0
v -14 -7 0
v -13 -7 0
v -14 -8 0
v -15 -8 0
v -15 -7 0
v -14 -7 0
v -15 -8 0
v -16 -8 0
v -16 -7 0
v -15 -7 0
v -8 -9 0
v -9 -9 0
v -9 -8 0
v -8 -8 0
v -9 -9 0
v -10 -9 0
v -10 -8 0
v -9 -8 0
v -10 -9 0
v -11 -9 0
v -11 -8 0
v -10 -8 0
v -11 -9 0
v -12 -9 0
v -12 -8 0
v -11 -8 0
v -12 -9 0
v -13 -9 0
v -13 -8 0
v -12 -8 0
v -13 -9 0
v -14 -9 0
v -14 -8 0
v -13 -8 0
v -14 -9 0
v -15 -9 0
v -15 -8 0
v -14 -8 0
v -15 -9 0
v -16 -9 0
v -16 -8 0
v -15 -8 0

# Texture cooridinates (Count = 30)
vt 0.08695652 0.75
vt 0.1304348 0.75
vt 0.1304348 0.7916667
vt 0.08695652 0.7916667
vt 0.173913 0.8333333
vt 0.2173913 0.8333333
vt 0.2173913 0.875
vt 0.173913 0.875
vt 0.2608696 0.8333333
vt 0.2608696 0.875
vt 0.1304348 0.8333333
vt 0.1304348 0.875
vt 0.2173913 0.7916667
vt 0.2608696 0.7916667
vt 0.2173913 0.75
vt 0.2608696 0.75
vt 0.173913 0.7916667
vt 0.173913 0.75
vt 0.08695652 0.7083334
vt 0.1304348 0.7083334
vt 0.173913 0.7083334
vt 0.08695652 0.6666666
vt 0.1304348 0.6666666
vt 0.173913 0.6666666
vt 0.2173913 0.6666666
vt 0.2173913 0.7083334
vt 0.2608696 0.6666666
vt 0.2608696 0.7083334
vt 0.3043478 0.6666666
vt 0.3043478 0.7083334

# Normal
vn 0 0 -1

# Mesh description
g tienda_mesh_0005

# Faces
f 1/1/1 2/2/1 3/3/1 4/4/1
f 5/5/1 6/6/1 7/7/1 8/8/1
f 9/6/1 10/9/1 11/10/1 12/7/1
f 13/11/1 14/5/1 15/8/1 16/12/1
f 17/5/1 18/6/1 19/7/1 20/8/1
f 21/6/1 22/9/1 23/10/1 24/7/1
f 25/13/1 26/14/1 27/9/1 28/6/1
f 29/13/1 30/14/1 31/9/1 32/6/1
f 33/1/1 34/2/1 35/3/1 36/4/1
f 37/5/1 38/6/1 39/7/1 40/8/1
f 41/6/1 42/9/1 43/10/1 44/7/1
f 45/11/1 46/5/1 47/8/1 48/12/1
f 49/5/1 50/6/1 51/7/1 52/8/1
f 53/6/1 54/9/1 55/10/1 56/7/1
f 57/15/1 58/16/1 59/14/1 60/13/1
f 61/15/1 62/16/1 63/14/1 64/13/1
f 65/1/1 66/2/1 67/3/1 68/4/1
f 69/5/1 70/6/1 71/7/1 72/8/1
f 73/6/1 74/9/1 75/10/1 76/7/1
f 77/11/1 78/5/1 79/8/1 80/12/1
f 81/11/1 82/5/1 83/8/1 84/12/1
f 85/11/1 86/5/1 87/8/1 88/12/1
f 89/11/1 90/5/1 91/8/1 92/12/1
f 93/11/1 94/5/1 95/8/1 96/12/1
f 97/1/1 98/2/1 99/3/1 100/4/1
f 101/5/1 102/6/1 103/7/1 104/8/1
f 105/6/1 106/9/1 107/10/1 108/7/1
f 109/3/1 110/17/1 111/5/1 112/11/1
f 113/3/1 114/17/1 115/5/1 116/11/1
f 117/3/1 118/17/1 119/5/1 120/11/1
f 121/3/1 122/17/1 123/5/1 124/11/1
f 125/3/1 126/17/1 127/5/1 128/11/1
f 129/1/1 130/2/1 131/3/1 132/4/1
f 133/5/1 134/6/1 135/7/1 136/8/1
f 137/6/1 138/9/1 139/10/1 140/7/1
f 141/2/1 142/18/1 143/17/1 144/3/1
f 145/2/1 146/18/1 147/17/1 148/3/1
f 149/2/1 150/18/1 151/17/1 152/3/1
f 153/2/1 154/18/1 155/17/1 156/3/1
f 157/2/1 158/18/1 159/17/1 160/3/1
f 161/1/1 162/2/1 163/3/1 164/4/1
f 165/11/1 166/5/1 167/8/1 168/12/1
f 169/11/1 170/5/1 171/8/1 172/12/1
f 173/11/1 174/5/1 175/8/1 176/12/1
f 177/11/1 178/5/1 179/8/1 180/12/1
f 181/11/1 182/5/1 183/8/1 184/12/1
f 185/11/1 186/5/1 187/8/1 188/12/1
f 189/11/1 190/5/1 191/8/1 192/12/1
f 193/1/1 194/2/1 195/3/1 196/4/1
f 197/3/1 198/17/1 199/5/1 200/11/1
f 201/3/1 202/17/1 203/5/1 204/11/1
f 205/3/1 206/17/1 207/5/1 208/11/1
f 209/3/1 210/17/1 211/5/1 212/11/1
f 213/3/1 214/17/1 215/5/1 216/11/1
f 217/3/1 218/17/1 219/5/1 220/11/1
f 221/3/1 222/17/1 223/5/1 224/11/1
f 225/19/1 226/20/1 227/2/1 228/1/1
f 229/20/1 230/21/1 231/18/1 232/2/1
f 233/20/1 234/21/1 235/18/1 236/2/1
f 237/20/1 238/21/1 239/18/1 240/2/1
f 241/20/1 242/21/1 243/18/1 244/2/1
f 245/20/1 246/21/1 247/18/1 248/2/1
f 249/20/1 250/21/1 251/18/1 252/2/1
f 253/20/1 254/21/1 255/18/1 256/2/1
f 257/22/1 258/23/1 259/20/1 260/19/1
f 261/23/1 262/24/1 263/21/1 264/20/1
f 265/24/1 266/25/1 267/26/1 268/21/1
f 269/25/1 270/27/1 271/28/1 272/26/1
f 273/27/1 274/29/1 275/30/1 276/28/1
f 277/22/1 278/23/1 279/20/1 280/19/1
f 281/23/1 282/24/1 283/21/1 284/20/1
f 285/24/1 286/25/1 287/26/1 288/21/1

