# Tiled2Unity generated file. Do not modify by hand.
# Wavefront file for 'tienda_mesh_0006.obj'

# Vertices (Count = 540)
v 0 -1 0
v -1 -1 0
v -1 0 0
v 0 0 0
v -1 -1 0
v -2 -1 0
v -2 0 0
v -1 0 0
v -2 -1 0
v -3 -1 0
v -3 0 0
v -2 0 0
v -3 -1 0
v -4 -1 0
v -4 0 0
v -3 0 0
v -4 -1 0
v -5 -1 0
v -5 0 0
v -4 0 0
v -5 -1 0
v -6 -1 0
v -6 0 0
v -5 0 0
v -6 -1 0
v -7 -1 0
v -7 0 0
v -6 0 0
v -7 -1 0
v -8 -1 0
v -8 0 0
v -7 0 0
v -8 -1 0
v -9 -1 0
v -9 0 0
v -8 0 0
v -9 -1 0
v -10 -1 0
v -10 0 0
v -9 0 0
v -10 -1 0
v -11 -1 0
v -11 0 0
v -10 0 0
v -11 -1 0
v -12 -1 0
v -12 0 0
v -11 0 0
v -12 -1 0
v -13 -1 0
v -13 0 0
v -12 0 0
v -13 -1 0
v -14 -1 0
v -14 0 0
v -13 0 0
v -14 -1 0
v -15 -1 0
v -15 0 0
v -14 0 0
v 0 -2 0
v -1 -2 0
v -1 -1 0
v 0 -1 0
v -1 -2 0
v -2 -2 0
v -2 -1 0
v -1 -1 0
v -2 -2 0
v -3 -2 0
v -3 -1 0
v -2 -1 0
v -3 -2 0
v -4 -2 0
v -4 -1 0
v -3 -1 0
v -4 -2 0
v -5 -2 0
v -5 -1 0
v -4 -1 0
v -5 -2 0
v -6 -2 0
v -6 -1 0
v -5 -1 0
v -6 -2 0
v -7 -2 0
v -7 -1 0
v -6 -1 0
v -7 -2 0
v -8 -2 0
v -8 -1 0
v -7 -1 0
v -8 -2 0
v -9 -2 0
v -9 -1 0
v -8 -1 0
v -9 -2 0
v -10 -2 0
v -10 -1 0
v -9 -1 0
v -10 -2 0
v -11 -2 0
v -11 -1 0
v -10 -1 0
v -11 -2 0
v -12 -2 0
v -12 -1 0
v -11 -1 0
v -12 -2 0
v -13 -2 0
v -13 -1 0
v -12 -1 0
v -13 -2 0
v -14 -2 0
v -14 -1 0
v -13 -1 0
v -14 -2 0
v -15 -2 0
v -15 -1 0
v -14 -1 0
v 0 -3 0
v -1 -3 0
v -1 -2 0
v 0 -2 0
v -1 -3 0
v -2 -3 0
v -2 -2 0
v -1 -2 0
v -2 -3 0
v -3 -3 0
v -3 -2 0
v -2 -2 0
v -3 -3 0
v -4 -3 0
v -4 -2 0
v -3 -2 0
v -4 -3 0
v -5 -3 0
v -5 -2 0
v -4 -2 0
v -5 -3 0
v -6 -3 0
v -6 -2 0
v -5 -2 0
v -6 -3 0
v -7 -3 0
v -7 -2 0
v -6 -2 0
v -7 -3 0
v -8 -3 0
v -8 -2 0
v -7 -2 0
v -8 -3 0
v -9 -3 0
v -9 -2 0
v -8 -2 0
v -9 -3 0
v -10 -3 0
v -10 -2 0
v -9 -2 0
v -10 -3 0
v -11 -3 0
v -11 -2 0
v -10 -2 0
v -11 -3 0
v -12 -3 0
v -12 -2 0
v -11 -2 0
v -12 -3 0
v -13 -3 0
v -13 -2 0
v -12 -2 0
v -13 -3 0
v -14 -3 0
v -14 -2 0
v -13 -2 0
v -14 -3 0
v -15 -3 0
v -15 -2 0
v -14 -2 0
v 0 -4 0
v -1 -4 0
v -1 -3 0
v 0 -3 0
v -1 -4 0
v -2 -4 0
v -2 -3 0
v -1 -3 0
v -2 -4 0
v -3 -4 0
v -3 -3 0
v -2 -3 0
v -3 -4 0
v -4 -4 0
v -4 -3 0
v -3 -3 0
v -4 -4 0
v -5 -4 0
v -5 -3 0
v -4 -3 0
v -5 -4 0
v -6 -4 0
v -6 -3 0
v -5 -3 0
v -6 -4 0
v -7 -4 0
v -7 -3 0
v -6 -3 0
v -7 -4 0
v -8 -4 0
v -8 -3 0
v -7 -3 0
v -8 -4 0
v -9 -4 0
v -9 -3 0
v -8 -3 0
v -9 -4 0
v -10 -4 0
v -10 -3 0
v -9 -3 0
v -10 -4 0
v -11 -4 0
v -11 -3 0
v -10 -3 0
v -11 -4 0
v -12 -4 0
v -12 -3 0
v -11 -3 0
v -12 -4 0
v -13 -4 0
v -13 -3 0
v -12 -3 0
v -13 -4 0
v -14 -4 0
v -14 -3 0
v -13 -3 0
v -14 -4 0
v -15 -4 0
v -15 -3 0
v -14 -3 0
v 0 -5 0
v -1 -5 0
v -1 -4 0
v 0 -4 0
v -1 -5 0
v -2 -5 0
v -2 -4 0
v -1 -4 0
v -2 -5 0
v -3 -5 0
v -3 -4 0
v -2 -4 0
v -3 -5 0
v -4 -5 0
v -4 -4 0
v -3 -4 0
v -4 -5 0
v -5 -5 0
v -5 -4 0
v -4 -4 0
v -5 -5 0
v -6 -5 0
v -6 -4 0
v -5 -4 0
v -6 -5 0
v -7 -5 0
v -7 -4 0
v -6 -4 0
v -7 -5 0
v -8 -5 0
v -8 -4 0
v -7 -4 0
v -8 -5 0
v -9 -5 0
v -9 -4 0
v -8 -4 0
v -9 -5 0
v -10 -5 0
v -10 -4 0
v -9 -4 0
v -10 -5 0
v -11 -5 0
v -11 -4 0
v -10 -4 0
v -11 -5 0
v -12 -5 0
v -12 -4 0
v -11 -4 0
v -12 -5 0
v -13 -5 0
v -13 -4 0
v -12 -4 0
v -13 -5 0
v -14 -5 0
v -14 -4 0
v -13 -4 0
v -14 -5 0
v -15 -5 0
v -15 -4 0
v -14 -4 0
v 0 -6 0
v -1 -6 0
v -1 -5 0
v 0 -5 0
v -1 -6 0
v -2 -6 0
v -2 -5 0
v -1 -5 0
v -2 -6 0
v -3 -6 0
v -3 -5 0
v -2 -5 0
v -3 -6 0
v -4 -6 0
v -4 -5 0
v -3 -5 0
v -4 -6 0
v -5 -6 0
v -5 -5 0
v -4 -5 0
v -5 -6 0
v -6 -6 0
v -6 -5 0
v -5 -5 0
v -6 -6 0
v -7 -6 0
v -7 -5 0
v -6 -5 0
v -7 -6 0
v -8 -6 0
v -8 -5 0
v -7 -5 0
v -8 -6 0
v -9 -6 0
v -9 -5 0
v -8 -5 0
v -9 -6 0
v -10 -6 0
v -10 -5 0
v -9 -5 0
v -10 -6 0
v -11 -6 0
v -11 -5 0
v -10 -5 0
v -11 -6 0
v -12 -6 0
v -12 -5 0
v -11 -5 0
v -12 -6 0
v -13 -6 0
v -13 -5 0
v -12 -5 0
v -13 -6 0
v -14 -6 0
v -14 -5 0
v -13 -5 0
v -14 -6 0
v -15 -6 0
v -15 -5 0
v -14 -5 0
v 0 -7 0
v -1 -7 0
v -1 -6 0
v 0 -6 0
v -1 -7 0
v -2 -7 0
v -2 -6 0
v -1 -6 0
v -2 -7 0
v -3 -7 0
v -3 -6 0
v -2 -6 0
v -3 -7 0
v -4 -7 0
v -4 -6 0
v -3 -6 0
v -4 -7 0
v -5 -7 0
v -5 -6 0
v -4 -6 0
v -5 -7 0
v -6 -7 0
v -6 -6 0
v -5 -6 0
v -6 -7 0
v -7 -7 0
v -7 -6 0
v -6 -6 0
v -7 -7 0
v -8 -7 0
v -8 -6 0
v -7 -6 0
v -8 -7 0
v -9 -7 0
v -9 -6 0
v -8 -6 0
v -9 -7 0
v -10 -7 0
v -10 -6 0
v -9 -6 0
v -10 -7 0
v -11 -7 0
v -11 -6 0
v -10 -6 0
v -11 -7 0
v -12 -7 0
v -12 -6 0
v -11 -6 0
v -12 -7 0
v -13 -7 0
v -13 -6 0
v -12 -6 0
v -13 -7 0
v -14 -7 0
v -14 -6 0
v -13 -6 0
v -14 -7 0
v -15 -7 0
v -15 -6 0
v -14 -6 0
v 0 -8 0
v -1 -8 0
v -1 -7 0
v 0 -7 0
v -1 -8 0
v -2 -8 0
v -2 -7 0
v -1 -7 0
v -2 -8 0
v -3 -8 0
v -3 -7 0
v -2 -7 0
v -3 -8 0
v -4 -8 0
v -4 -7 0
v -3 -7 0
v -4 -8 0
v -5 -8 0
v -5 -7 0
v -4 -7 0
v -5 -8 0
v -6 -8 0
v -6 -7 0
v -5 -7 0
v -6 -8 0
v -7 -8 0
v -7 -7 0
v -6 -7 0
v -7 -8 0
v -8 -8 0
v -8 -7 0
v -7 -7 0
v -8 -8 0
v -9 -8 0
v -9 -7 0
v -8 -7 0
v -9 -8 0
v -10 -8 0
v -10 -7 0
v -9 -7 0
v -10 -8 0
v -11 -8 0
v -11 -7 0
v -10 -7 0
v -11 -8 0
v -12 -8 0
v -12 -7 0
v -11 -7 0
v -12 -8 0
v -13 -8 0
v -13 -7 0
v -12 -7 0
v -13 -8 0
v -14 -8 0
v -14 -7 0
v -13 -7 0
v -14 -8 0
v -15 -8 0
v -15 -7 0
v -14 -7 0
v 0 -9 0
v -1 -9 0
v -1 -8 0
v 0 -8 0
v -1 -9 0
v -2 -9 0
v -2 -8 0
v -1 -8 0
v -2 -9 0
v -3 -9 0
v -3 -8 0
v -2 -8 0
v -3 -9 0
v -4 -9 0
v -4 -8 0
v -3 -8 0
v -4 -9 0
v -5 -9 0
v -5 -8 0
v -4 -8 0
v -5 -9 0
v -6 -9 0
v -6 -8 0
v -5 -8 0
v -6 -9 0
v -7 -9 0
v -7 -8 0
v -6 -8 0
v -7 -9 0
v -8 -9 0
v -8 -8 0
v -7 -8 0
v -8 -9 0
v -9 -9 0
v -9 -8 0
v -8 -8 0
v -9 -9 0
v -10 -9 0
v -10 -8 0
v -9 -8 0
v -10 -9 0
v -11 -9 0
v -11 -8 0
v -10 -8 0
v -11 -9 0
v -12 -9 0
v -12 -8 0
v -11 -8 0
v -12 -9 0
v -13 -9 0
v -13 -8 0
v -12 -8 0
v -13 -9 0
v -14 -9 0
v -14 -8 0
v -13 -8 0
v -14 -9 0
v -15 -9 0
v -15 -8 0
v -14 -8 0

# Texture cooridinates (Count = 31)
vt 0.2173913 0.7916667
vt 0.2608696 0.7916667
vt 0.2608696 0.8333333
vt 0.2173913 0.8333333
vt 0.3043478 0.8333333
vt 0.3043478 0.875
vt 0.2608696 0.875
vt 0.2173913 0.75
vt 0.2608696 0.75
vt 0.1304348 0.8333333
vt 0.173913 0.8333333
vt 0.173913 0.875
vt 0.1304348 0.875
vt 0.2173913 0.875
vt 0.173913 0.75
vt 0.173913 0.7916667
vt 0.1304348 0.7916667
vt 0.1304348 0.75
vt 0.1304348 0.7083334
vt 0.173913 0.7083334
vt 0.2608696 0.7083334
vt 0.3043478 0.7083334
vt 0.3043478 0.75
vt 0.2173913 0.6666666
vt 0.2608696 0.6666666
vt 0.2173913 0.7083334
vt 0.3043478 0.6666666
vt 0.08695652 0.6666666
vt 0.1304348 0.6666666
vt 0.08695652 0.7083334
vt 0.173913 0.6666666

# Normal
vn 0 0 -1

# Mesh description
g tienda_mesh_0006

# Faces
f 1/1/1 2/2/1 3/3/1 4/4/1
f 5/1/1 6/2/1 7/3/1 8/4/1
f 9/1/1 10/2/1 11/3/1 12/4/1
f 13/1/1 14/2/1 15/3/1 16/4/1
f 17/1/1 18/2/1 19/3/1 20/4/1
f 21/1/1 22/2/1 23/3/1 24/4/1
f 25/1/1 26/2/1 27/3/1 28/4/1
f 29/1/1 30/2/1 31/3/1 32/4/1
f 33/1/1 34/2/1 35/3/1 36/4/1
f 37/1/1 38/2/1 39/3/1 40/4/1
f 41/1/1 42/2/1 43/3/1 44/4/1
f 45/1/1 46/2/1 47/3/1 48/4/1
f 49/1/1 50/2/1 51/3/1 52/4/1
f 53/1/1 54/2/1 55/3/1 56/4/1
f 57/3/1 58/5/1 59/6/1 60/7/1
f 61/8/1 62/9/1 63/2/1 64/1/1
f 65/8/1 66/9/1 67/2/1 68/1/1
f 69/8/1 70/9/1 71/2/1 72/1/1
f 73/8/1 74/9/1 75/2/1 76/1/1
f 77/8/1 78/9/1 79/2/1 80/1/1
f 81/8/1 82/9/1 83/2/1 84/1/1
f 85/8/1 86/9/1 87/2/1 88/1/1
f 89/8/1 90/9/1 91/2/1 92/1/1
f 93/8/1 94/9/1 95/2/1 96/1/1
f 97/8/1 98/9/1 99/2/1 100/1/1
f 101/8/1 102/9/1 103/2/1 104/1/1
f 105/8/1 106/9/1 107/2/1 108/1/1
f 109/8/1 110/9/1 111/2/1 112/1/1
f 113/8/1 114/9/1 115/2/1 116/1/1
f 117/3/1 118/5/1 119/6/1 120/7/1
f 121/10/1 122/11/1 123/12/1 124/13/1
f 125/10/1 126/11/1 127/12/1 128/13/1
f 129/10/1 130/11/1 131/12/1 132/13/1
f 133/10/1 134/11/1 135/12/1 136/13/1
f 137/10/1 138/11/1 139/12/1 140/13/1
f 141/10/1 142/11/1 143/12/1 144/13/1
f 145/10/1 146/11/1 147/12/1 148/13/1
f 149/10/1 150/11/1 151/12/1 152/13/1
f 153/10/1 154/11/1 155/12/1 156/13/1
f 157/10/1 158/11/1 159/12/1 160/13/1
f 161/11/1 162/4/1 163/14/1 164/12/1
f 165/4/1 166/3/1 167/7/1 168/14/1
f 169/15/1 170/8/1 171/1/1 172/16/1
f 173/8/1 174/9/1 175/2/1 176/1/1
f 177/3/1 178/5/1 179/6/1 180/7/1
f 181/17/1 182/16/1 183/11/1 184/10/1
f 185/17/1 186/16/1 187/11/1 188/10/1
f 189/17/1 190/16/1 191/11/1 192/10/1
f 193/17/1 194/16/1 195/11/1 196/10/1
f 197/17/1 198/16/1 199/11/1 200/10/1
f 201/17/1 202/16/1 203/11/1 204/10/1
f 205/17/1 206/16/1 207/11/1 208/10/1
f 209/17/1 210/16/1 211/11/1 212/10/1
f 213/17/1 214/16/1 215/11/1 216/10/1
f 217/17/1 218/16/1 219/11/1 220/10/1
f 221/16/1 222/1/1 223/4/1 224/11/1
f 225/1/1 226/2/1 227/3/1 228/4/1
f 229/15/1 230/8/1 231/1/1 232/16/1
f 233/8/1 234/9/1 235/2/1 236/1/1
f 237/3/1 238/5/1 239/6/1 240/7/1
f 241/18/1 242/15/1 243/16/1 244/17/1
f 245/18/1 246/15/1 247/16/1 248/17/1
f 249/18/1 250/15/1 251/16/1 252/17/1
f 253/18/1 254/15/1 255/16/1 256/17/1
f 257/18/1 258/15/1 259/16/1 260/17/1
f 261/18/1 262/15/1 263/16/1 264/17/1
f 265/18/1 266/15/1 267/16/1 268/17/1
f 269/18/1 270/15/1 271/16/1 272/17/1
f 273/18/1 274/15/1 275/16/1 276/17/1
f 277/18/1 278/15/1 279/16/1 280/17/1
f 281/15/1 282/8/1 283/1/1 284/16/1
f 285/8/1 286/9/1 287/2/1 288/1/1
f 289/18/1 290/15/1 291/16/1 292/17/1
f 293/15/1 294/8/1 295/1/1 296/16/1
f 297/3/1 298/5/1 299/6/1 300/7/1
f 301/10/1 302/11/1 303/12/1 304/13/1
f 305/10/1 306/11/1 307/12/1 308/13/1
f 309/10/1 310/11/1 311/12/1 312/13/1
f 313/10/1 314/11/1 315/12/1 316/13/1
f 317/10/1 318/11/1 319/12/1 320/13/1
f 321/10/1 322/11/1 323/12/1 324/13/1
f 325/10/1 326/11/1 327/12/1 328/13/1
f 329/10/1 330/11/1 331/12/1 332/13/1
f 333/10/1 334/11/1 335/12/1 336/13/1
f 337/10/1 338/11/1 339/12/1 340/13/1
f 341/10/1 342/11/1 343/12/1 344/13/1
f 345/10/1 346/11/1 347/12/1 348/13/1
f 349/18/1 350/15/1 351/16/1 352/17/1
f 353/15/1 354/8/1 355/1/1 356/16/1
f 357/3/1 358/5/1 359/6/1 360/7/1
f 361/17/1 362/16/1 363/11/1 364/10/1
f 365/17/1 366/16/1 367/11/1 368/10/1
f 369/17/1 370/16/1 371/11/1 372/10/1
f 373/17/1 374/16/1 375/11/1 376/10/1
f 377/17/1 378/16/1 379/11/1 380/10/1
f 381/17/1 382/16/1 383/11/1 384/10/1
f 385/17/1 386/16/1 387/11/1 388/10/1
f 389/17/1 390/16/1 391/11/1 392/10/1
f 393/17/1 394/16/1 395/11/1 396/10/1
f 397/17/1 398/16/1 399/11/1 400/10/1
f 401/17/1 402/16/1 403/11/1 404/10/1
f 405/17/1 406/16/1 407/11/1 408/10/1
f 409/18/1 410/15/1 411/16/1 412/17/1
f 413/15/1 414/8/1 415/1/1 416/16/1
f 417/3/1 418/5/1 419/6/1 420/7/1
f 421/19/1 422/20/1 423/15/1 424/18/1
f 425/19/1 426/20/1 427/15/1 428/18/1
f 429/19/1 430/20/1 431/15/1 432/18/1
f 433/19/1 434/20/1 435/15/1 436/18/1
f 437/19/1 438/20/1 439/15/1 440/18/1
f 441/19/1 442/20/1 443/15/1 444/18/1
f 445/19/1 446/20/1 447/15/1 448/18/1
f 449/19/1 450/20/1 451/15/1 452/18/1
f 453/19/1 454/20/1 455/15/1 456/18/1
f 457/19/1 458/20/1 459/15/1 460/18/1
f 461/19/1 462/20/1 463/15/1 464/18/1
f 465/19/1 466/20/1 467/15/1 468/18/1
f 469/19/1 470/20/1 471/15/1 472/18/1
f 473/19/1 474/20/1 475/15/1 476/18/1
f 477/21/1 478/22/1 479/23/1 480/9/1
f 481/24/1 482/25/1 483/21/1 484/26/1
f 485/25/1 486/27/1 487/22/1 488/21/1
f 489/28/1 490/29/1 491/19/1 492/30/1
f 493/29/1 494/31/1 495/20/1 496/19/1
f 497/31/1 498/24/1 499/26/1 500/20/1
f 501/24/1 502/25/1 503/21/1 504/26/1
f 505/25/1 506/27/1 507/22/1 508/21/1
f 509/28/1 510/29/1 511/19/1 512/30/1
f 513/29/1 514/31/1 515/20/1 516/19/1
f 517/31/1 518/24/1 519/26/1 520/20/1
f 521/28/1 522/29/1 523/19/1 524/30/1
f 525/29/1 526/31/1 527/20/1 528/19/1
f 529/31/1 530/24/1 531/26/1 532/20/1
f 533/24/1 534/25/1 535/21/1 536/26/1
f 537/25/1 538/27/1 539/22/1 540/21/1

