# Tiled2Unity generated file. Do not modify by hand.
# Wavefront file for 'tienda_mesh_0015.obj'

# Vertices (Count = 16)
v -14 -1 0
v -15 -1 0
v -15 0 0
v -14 0 0
v -15 -1 0
v -16 -1 0
v -16 0 0
v -15 0 0
v -14 -2 0
v -15 -2 0
v -15 -1 0
v -14 -1 0
v -15 -2 0
v -16 -2 0
v -16 -1 0
v -15 -1 0

# Texture cooridinates (Count = 9)
vt 0.21875 0.40625
vt 0.25 0.40625
vt 0.25 0.4375
vt 0.21875 0.4375
vt 0.28125 0.40625
vt 0.28125 0.4375
vt 0.21875 0.375
vt 0.25 0.375
vt 0.28125 0.375

# Normal
vn 0 0 -1

# Mesh description
g tienda_mesh_0015

# Faces
f 1/1/1 2/2/1 3/3/1 4/4/1
f 5/2/1 6/5/1 7/6/1 8/3/1
f 9/7/1 10/8/1 11/2/1 12/1/1
f 13/8/1 14/9/1 15/5/1 16/2/1

