# Tiled2Unity generated file. Do not modify by hand.
# Wavefront file for 'tienda_mesh_0014.obj'

# Vertices (Count = 76)
v 0 -1 0
v -1 -1 0
v -1 0 0
v 0 0 0
v -2 -1 0
v -3 -1 0
v -3 0 0
v -2 0 0
v -3 -1 0
v -4 -1 0
v -4 0 0
v -3 0 0
v -4 -1 0
v -5 -1 0
v -5 0 0
v -4 0 0
v -5 -1 0
v -6 -1 0
v -6 0 0
v -5 0 0
v -7 -1 0
v -8 -1 0
v -8 0 0
v -7 0 0
v -8 -1 0
v -9 -1 0
v -9 0 0
v -8 0 0
v -9 -1 0
v -10 -1 0
v -10 0 0
v -9 0 0
v -10 -1 0
v -11 -1 0
v -11 0 0
v -10 0 0
v -11 -1 0
v -12 -1 0
v -12 0 0
v -11 0 0
v -12 -1 0
v -13 -1 0
v -13 0 0
v -12 0 0
v -2 -2 0
v -3 -2 0
v -3 -1 0
v -2 -1 0
v -3 -2 0
v -4 -2 0
v -4 -1 0
v -3 -1 0
v -4 -2 0
v -5 -2 0
v -5 -1 0
v -4 -1 0
v -5 -2 0
v -6 -2 0
v -6 -1 0
v -5 -1 0
v -9 -2 0
v -10 -2 0
v -10 -1 0
v -9 -1 0
v -10 -2 0
v -11 -2 0
v -11 -1 0
v -10 -1 0
v -11 -2 0
v -12 -2 0
v -12 -1 0
v -11 -1 0
v -12 -2 0
v -13 -2 0
v -13 -1 0
v -12 -1 0

# Texture cooridinates (Count = 23)
vt 0.46875 0.40625
vt 0.5 0.40625
vt 0.5 0.4375
vt 0.46875 0.4375
vt 0.1875 0.46875
vt 0.21875 0.46875
vt 0.21875 0.5
vt 0.1875 0.5
vt 0.25 0.46875
vt 0.25 0.5
vt 0.28125 0.46875
vt 0.28125 0.5
vt 0.3125 0.46875
vt 0.3125 0.5
vt 0.53125 0.40625
vt 0.53125 0.4375
vt 0.5625 0.40625
vt 0.5625 0.4375
vt 0.1875 0.4375
vt 0.21875 0.4375
vt 0.25 0.4375
vt 0.28125 0.4375
vt 0.3125 0.4375

# Normal
vn 0 0 -1

# Mesh description
g tienda_mesh_0014

# Faces
f 1/1/1 2/2/1 3/3/1 4/4/1
f 5/5/1 6/6/1 7/7/1 8/8/1
f 9/6/1 10/9/1 11/10/1 12/7/1
f 13/9/1 14/11/1 15/12/1 16/10/1
f 17/11/1 18/13/1 19/14/1 20/12/1
f 21/2/1 22/15/1 23/16/1 24/3/1
f 25/15/1 26/17/1 27/18/1 28/16/1
f 29/5/1 30/6/1 31/7/1 32/8/1
f 33/6/1 34/9/1 35/10/1 36/7/1
f 37/9/1 38/11/1 39/12/1 40/10/1
f 41/11/1 42/13/1 43/14/1 44/12/1
f 45/19/1 46/20/1 47/6/1 48/5/1
f 49/20/1 50/21/1 51/9/1 52/6/1
f 53/21/1 54/22/1 55/11/1 56/9/1
f 57/22/1 58/23/1 59/13/1 60/11/1
f 61/19/1 62/20/1 63/6/1 64/5/1
f 65/20/1 66/21/1 67/9/1 68/6/1
f 69/21/1 70/22/1 71/11/1 72/9/1
f 73/22/1 74/23/1 75/13/1 76/11/1

